<svg width="92" height="84" viewBox="0 0 92 84" fill="none" xmlns="http://www.w3.org/2000/svg">
<g clip-path="url(#clip0_453_10241)">
<path d="M41.5876 83.8692C40.7003 83.9322 39.818 83.8692 38.9259 83.9661C38.1502 84.0533 37.3406 83.9709 36.5648 83.8401C35.8376 83.7189 35.1007 83.7044 34.3783 83.6753C31.8524 83.5832 29.4089 83.0502 26.9945 82.4008C24.328 81.6836 21.6906 80.8695 19.1356 79.8034C16.6194 78.7567 14.142 77.6033 12.2076 75.631C9.99683 73.3728 7.72303 71.1582 6.0892 68.4008C4.24689 65.2849 2.69062 62.0526 1.75493 58.5344C1.16345 56.3198 0.630148 54.0955 0.290776 51.8325C-0.0825341 49.3223 -0.126168 46.812 0.339257 44.297C0.78529 41.8885 1.35737 39.514 2.27368 37.2364C3.48573 34.2125 5.36197 31.7072 8.04786 29.7979C10.6804 27.9322 13.4875 26.4735 16.6388 25.7515C18.646 25.2911 20.6725 24.9519 22.7233 24.7387C24.0808 24.5981 25.4237 24.3558 26.7812 24.1959C27.3533 24.1281 27.9351 24.0845 28.5072 24.0651C30.8295 23.9972 32.9627 23.2994 34.868 22.0201C39.2362 19.0883 43.9147 16.8349 48.9422 15.3084C51.027 14.6736 53.1505 14.2375 55.3273 14.0291C56.2872 13.937 57.2666 13.8546 58.2071 13.8692C60.6167 13.9176 62.9874 14.2714 65.2612 15.197C68.4562 16.4957 71.3263 18.3032 74.0898 20.3337C76.4508 22.0685 78.647 23.9779 80.6396 26.1101C82.0408 27.6075 83.2431 29.2648 84.1982 31.082C85.6963 33.9363 87.1265 36.8294 88.3288 39.8193C88.6343 40.5753 89.1094 41.244 89.3906 41.9855C89.856 43.197 90.1954 44.4618 90.4911 45.7314C90.8354 47.2094 91.1068 48.7068 91.3396 50.2042C91.8389 53.4316 91.422 56.4943 89.5942 59.2856C87.878 61.9169 85.8805 64.3157 83.5728 66.4479C81.6674 68.2021 79.5342 69.6753 77.3477 71.0564C74.9964 72.5393 72.6644 74.0803 70.1239 75.2191C67.3605 76.4597 64.5873 77.6809 61.722 78.6985C58.6677 79.784 55.6036 80.855 52.4863 81.7563C49.9313 82.4929 47.3763 83.2295 44.7631 83.7383C43.7208 83.9418 42.6493 83.9128 41.5827 83.8692H41.5876Z" fill="#D3DFC6"/>
<path d="M55.6523 22.3254C58.7503 21.8408 61.5089 22.999 64.2772 24.0893C66.2164 24.8501 67.3218 26.3814 68.0539 28.2568C68.9217 30.4714 69.4405 32.7927 70.1289 35.0606C71.1907 38.54 72.8342 41.7044 75.3407 44.3939C76.0389 45.145 76.0922 45.7653 75.4571 46.5746C74.4099 47.9121 73.3239 49.2205 72.2088 50.5047C71.4476 51.3769 70.6234 52.2008 69.8041 53.0197C69.1738 53.6545 68.6842 53.5964 68.0975 52.918C66.7207 51.3139 65.0868 49.9716 63.5354 48.5469C63.2445 48.2804 62.8276 48.1592 62.4688 47.9654C60.515 46.909 58.7987 45.6054 57.7176 43.5943C57.4703 43.1339 57.1504 42.722 56.7819 42.3441C55.9383 41.4863 55.4971 40.3814 54.959 39.3299C53.9845 37.4157 53.4076 35.3126 52.2198 33.4953C51.1192 31.8089 49.9314 30.1952 48.5788 28.6978C47.7352 27.7625 46.9449 26.7885 46.271 25.7224C45.5196 24.5254 45.7765 23.847 47.1146 23.4157C47.8758 23.1734 48.6612 23.0571 49.4466 23.028C51.1289 22.9602 52.787 22.7227 54.4305 22.3738C54.8378 22.2866 55.2402 22.3351 55.6377 22.3254H55.6523Z" fill="#F9B59F"/>
<path d="M28.1825 36.2866C28.2165 39.3735 27.7123 42.3005 27.2129 45.2274C26.7766 47.7716 26.3014 50.3108 26.0542 52.884C25.9087 54.3815 25.8651 55.8837 25.7342 57.3811C25.676 58.0256 25.3609 58.4715 24.7355 58.6604C23.7319 58.9609 22.7041 58.8785 21.6957 58.7428C20.6048 58.5926 19.5237 58.3939 18.4135 58.4278C17.9674 58.4424 17.565 58.3309 17.1384 58.675C16.7602 58.9803 16.1833 58.6023 16.1057 58.0256C15.9166 56.6445 15.9748 55.2634 16.0379 53.8726C16.0912 52.6854 16.3336 51.4884 16.1154 50.2915C16.0863 50.1412 16.0815 49.9765 16.1057 49.8262C16.3869 48.1302 15.81 46.5649 15.2476 45.0433C14.8791 44.045 14.2101 43.1533 13.5701 42.2762C13.3714 42.0049 13.1774 41.7383 13.352 41.3797C13.4489 41.1859 13.3035 41.0453 13.2356 40.8951C12.7265 39.8096 12.2466 38.7144 11.8587 37.5756C11.7957 37.3915 11.8102 37.188 11.4612 37.3576C11.1363 37.5126 10.9667 37.188 11.0006 36.8924C11.0442 36.4708 11.2575 36.0637 10.9715 35.6421C10.9036 35.5403 10.9957 35.3853 11.083 35.2738C12.0187 34.072 13.0126 32.909 13.8707 31.649C15.4609 29.3133 17.6087 27.4766 19.4025 25.325C20.2558 24.2977 21.1042 23.2703 22.2096 22.4901C22.9562 21.9619 23.7174 21.6566 24.5561 22.2091C24.8034 22.3738 25.0942 21.8747 25.2445 22.3108C25.3318 22.5628 25.2058 22.8439 25.3706 23.0959C26.2627 24.4624 26.6796 26.0132 27.0723 27.5687C27.8044 30.4618 28.2213 33.3936 28.1874 36.2866H28.1825Z" fill="#F9B59F"/>
<path d="M20.6049 35.1914C20.4013 34.4354 20.1977 33.6746 19.994 32.9186C19.8001 32.1917 19.6304 31.46 19.4026 30.7428C19.2814 30.3697 19.3783 30.1225 19.6207 29.856C20.3043 29.1049 20.1443 27.3555 19.3492 26.7303C19.1941 26.6092 18.9905 26.4686 18.8208 26.5316C18.2972 26.7303 18.2438 26.4299 18.1323 26.0374C17.1094 22.4126 16.4209 18.7151 15.5919 15.0467C15.2961 13.748 14.981 12.4541 14.8744 11.1215C14.7725 9.83729 14.9325 9.49807 16.1591 9.02801C17.9336 8.34958 19.7856 7.95221 21.6618 7.67114C22.8835 7.48699 24.1053 7.28346 25.3319 7.11385C25.5694 7.07993 25.7197 6.99755 25.8361 6.79887C26.1221 6.29489 26.5536 5.94598 27.053 5.66976C27.4845 5.4323 27.7851 5.09309 27.8044 4.57941C27.8384 3.72168 28.3232 3.18378 29.0504 2.83971C29.5352 2.61195 29.8358 2.29212 29.991 1.75906C30.2673 0.833481 30.8152 0.12597 31.8672 0.0290503C33.0114 -0.077561 34.0731 0.159891 34.7131 1.19208C35.0719 1.76875 35.5324 1.94805 36.1385 1.98682C36.9287 2.03528 37.7141 2.14189 38.4898 2.33088C39.2268 2.51019 39.7261 2.94148 39.954 3.66837C39.9637 3.70714 39.9879 3.73622 40.0025 3.77498C40.623 5.48076 41.2969 5.86359 43.0956 5.52438C45.1852 5.13185 47.2796 4.76356 49.4128 4.69087C49.8976 4.67633 50.3824 4.68602 50.8624 4.7151C51.3617 4.74418 51.6332 5.11732 51.8902 5.48076C52.6562 6.55657 52.9568 7.82621 53.3544 9.05224C54.6682 13.0744 55.6524 17.1838 56.5008 21.3271C56.6511 22.0588 56.3796 22.6985 56.016 23.3091C55.9239 23.469 55.7736 23.4738 55.6185 23.4932C55.1191 23.5562 54.6246 23.6386 54.1252 23.6919C53.5095 23.7549 52.9471 23.9487 52.5108 24.3946C52.0114 24.9034 51.4393 24.9616 50.7557 24.8646C49.7279 24.7193 48.6856 24.569 47.6383 24.7386C46.6881 24.8937 46.4263 25.325 46.756 26.2457C47.1293 27.2779 47.7983 28.1357 48.4189 29.0225C50.6782 32.2547 52.9326 35.487 54.7894 38.9858C55.6863 40.6722 56.7335 42.281 57.771 43.8851C58.4983 45.0093 59.5746 45.7944 60.709 46.4776C61.7417 47.0979 62.4689 47.9702 62.9683 49.0557C63.1186 49.3852 63.3125 49.7051 63.5113 50.0104C64.1755 51.0183 63.8894 51.8906 62.7404 52.2734C61.5381 52.6708 60.2775 52.7629 59.0413 52.9761C54.4355 53.7854 49.8249 54.5849 45.2094 55.3603C42.0048 55.8982 38.7953 56.3925 35.5761 56.8286C33.5835 57.1 31.6006 57.4101 29.608 57.6912C29.0553 57.7687 28.4929 57.8269 27.9353 57.8511C27.1499 57.8802 26.7136 57.5798 26.5585 56.8141C26.0833 54.4686 25.3319 52.1959 24.6725 49.8989C24.4834 49.2495 24.7259 48.6341 24.8616 48.0235C25.4191 45.4697 25.9912 42.9256 25.9621 40.2893C25.9476 39.0875 25.8215 37.9391 25.2155 36.8293C24.9149 36.2769 25.0216 35.5064 24.9295 34.8376C24.6047 32.5406 24.2604 30.2485 23.955 27.9515C23.8532 27.2004 24.1198 26.459 24.1538 25.7078C24.178 25.1651 24.2168 24.6272 24.2362 24.0844C24.2507 23.7016 24.1101 23.3915 23.7271 23.2606C23.3344 23.1249 23.0048 23.2606 22.7478 23.5805C22.3939 24.0166 22.2484 24.54 22.1127 25.0633C21.5697 27.1277 21.463 29.2599 21.1964 31.3679C21.0364 32.6327 20.9346 33.9072 20.5904 35.1962L20.6049 35.1914Z" fill="#EA7C5B"/>
<path d="M31.5472 81.4462C31.5472 81.8532 31.5278 82.2603 31.5472 82.6625C31.5811 83.2343 31.2902 83.3943 30.7715 83.4136C29.8212 83.4524 28.9389 83.152 28.0419 82.9193C24.178 81.9114 20.4933 80.4091 16.8378 78.8342C16.0912 78.5095 15.3979 78.0831 14.7046 77.6518C14.3798 77.4531 14.1325 77.2108 14.4477 76.8134C14.5398 76.6971 14.5301 76.5663 14.5252 76.4258C14.4525 74.4728 14.3749 72.5247 14.3071 70.5718C14.2198 67.9405 14.118 65.3139 14.2198 62.6826C14.2537 61.757 14.3507 60.8314 14.4331 59.9107C14.4864 59.3098 14.8113 58.9318 15.4027 58.7477C16.0573 58.5441 16.7311 58.5005 17.405 58.4424C19.6401 58.2437 21.8751 58.0595 24.1101 57.8754C24.8082 57.8172 25.5015 57.8608 26.1948 57.9723C26.6699 58.0547 26.9269 58.3891 27.082 58.8058C27.5183 59.9688 27.7414 61.1852 28.0129 62.3918C28.9098 66.3461 29.8115 70.3004 30.6551 74.2645C31.1593 76.6244 31.5035 79.0183 31.5423 81.4413L31.5472 81.4462Z" fill="#8AAF68"/>
<path d="M91.3446 56.3635C91.1846 57.4586 90.7434 58.738 90.0501 59.9059C88.1497 63.0897 85.6286 65.7113 82.5742 67.8145C81.9876 68.2215 81.3331 68.5268 80.7222 68.9C80.4653 69.0599 80.252 68.9872 80.0096 68.8951C78.6715 68.3718 77.5467 67.5334 76.4995 66.5691C75.2341 65.4109 74.1821 64.0879 73.1882 62.6971C71.5592 60.4147 69.9302 58.1274 68.1897 55.9273C67.5546 55.1229 67.5158 54.7885 68.083 54.1876C69.746 52.414 71.021 50.3496 72.5094 48.4451C73.3918 47.316 74.2451 46.1675 75.0499 44.9851C75.7674 43.9335 76.1262 43.8609 77.2606 44.4618C78.589 45.1644 79.7041 46.1482 80.8822 47.064C83.9366 49.4386 86.9037 51.9294 90.0598 54.1731C90.341 54.3718 90.598 54.6189 90.8452 54.8612C91.2719 55.2828 91.3543 55.5106 91.3446 56.3683V56.3635Z" fill="#8AAF68"/>
<path d="M55.022 29.3956C54.0669 29.3956 52.7821 28.4507 52.53 27.6656C52.4476 27.4136 52.5252 27.2101 52.69 27.026C52.8403 26.8564 52.9858 26.7401 53.2379 26.8903C53.5094 27.055 53.7663 26.8564 53.999 26.7546C56.268 25.766 58.5272 24.7677 60.7865 23.7598C65.6056 21.6082 70.4877 19.6116 75.5783 18.1821C76.6934 17.8671 77.8327 17.6199 79.0108 17.7653C79.3405 17.8089 79.6604 17.8719 79.9513 18.0367C80.3925 18.2838 80.5671 18.657 80.4362 19.1561C80.1307 20.3191 79.3647 21.109 78.3514 21.676C76.1843 22.8924 73.8766 23.8131 71.5058 24.5206C67.9521 25.5819 64.4129 26.6867 60.9077 27.9176C59.143 28.5379 57.2958 28.9207 55.4632 29.323C55.2741 29.3666 55.0802 29.3811 55.0123 29.3908L55.022 29.3956Z" fill="#EA7C5B"/>
<path d="M62.7162 50.6549C62.7162 50.7325 62.7162 50.81 62.7162 50.8875C62.5028 51.0862 62.3477 51.5272 61.9986 51.3043C61.6302 51.0717 61.3393 51.2267 61.0096 51.2801C60.1175 51.4206 59.2303 51.5805 58.3334 51.6968C56.9032 51.881 55.4681 52.0215 54.0379 52.2153C52.5883 52.4092 51.1484 52.6563 49.7036 52.8598C47.9147 53.1118 46.1208 53.3202 44.3319 53.5867C42.1841 53.9066 40.0509 54.3233 37.8935 54.585C36.1869 54.7885 34.5434 55.3701 32.769 55.2683C31.8042 55.2101 30.8103 55.6075 29.831 55.8159C28.8613 56.0243 28.3862 55.7238 28.1777 54.7934C27.6784 52.54 27.1596 50.2915 26.7281 48.0236C26.1851 45.1935 25.5985 42.3732 25.041 39.548C24.7404 38.0215 24.464 36.4902 24.1537 34.9637C23.7562 33.0059 23.3344 31.0481 22.9417 29.0904C22.6314 27.5493 22.3745 25.9938 22.0302 24.4576C21.7054 22.9941 21.2303 21.5646 20.9249 20.0914C20.8424 19.6989 20.92 19.2191 20.4982 18.9429C20.4982 18.8654 20.4982 18.7878 20.4982 18.7103C20.4594 18.3178 20.44 17.9156 20.2655 17.5473C20.2655 17.4697 20.2655 17.3922 20.2655 17.3147C20.0134 15.764 19.7467 14.2181 19.514 12.6625C19.4268 12.081 19.1359 11.4559 19.6837 10.9277C19.9455 10.9035 20.1831 10.9664 20.3916 11.1264C20.5176 11.2233 20.6388 11.2814 20.8133 11.2378C21.206 11.1409 21.5987 11.0537 21.9963 10.9955C23.2326 10.8114 24.464 10.5206 25.7197 10.8259C26.1997 10.9422 26.6796 10.9761 27.1596 10.918C29.1425 10.6612 31.1109 10.3462 33.0938 10.1039C35.5324 9.80342 37.9614 9.43028 40.3951 9.06683C41.2048 8.94568 42.0484 8.87784 42.6738 8.22363C42.761 8.13156 42.9016 8.05402 43.0229 8.04433C45.0058 7.87957 46.9741 7.51612 48.9716 7.5452C49.0976 7.5452 49.1849 7.49674 49.2915 7.44343C50.0673 7.07029 50.3339 7.19144 50.6248 8.01041C51.0417 9.19282 51.1678 10.4382 51.5217 11.64C52.0938 13.593 52.535 15.5895 53.0004 17.5715C53.3883 19.224 53.9409 20.828 54.4694 22.4417C54.5809 22.7809 54.7118 23.1783 54.3385 23.3818C53.6888 23.7356 53.2525 24.3026 52.7337 24.792C52.3023 25.1991 51.8223 25.3493 51.2502 25.1361C50.4066 24.8259 49.5291 24.7145 48.637 24.7532C48.5207 24.7532 48.4043 24.7532 48.288 24.7532C47.5801 24.8017 47.3038 25.0828 47.1244 25.7321C46.9402 26.4009 47.2892 26.9 47.5947 27.3894C48.1328 28.2666 48.0844 28.6058 46.945 29.1291C46.7705 29.2067 46.5766 29.2309 46.3875 29.2891C45.5924 29.5217 44.6906 29.4926 44.007 29.9578C42.8532 30.7428 41.9611 31.838 40.9818 32.8266C40.7539 33.0592 40.7297 33.3354 41.1951 33.35C42.2762 33.3597 43.3525 33.2773 44.4191 33.1271C45.0882 33.0301 45.7475 33.3548 46.4263 33.1271C47.1438 32.8848 47.8516 32.6376 48.4577 32.1869C49.0637 31.7363 49.6309 31.9059 49.7812 32.657C49.9994 33.7086 49.8103 34.7601 49.7279 35.8069C49.6455 36.8488 49.7036 37.8906 49.6891 38.9374C49.6842 39.2524 49.9606 39.2814 50.1739 39.3444C50.5375 39.4462 50.9157 39.485 51.1726 39.1167C51.4926 38.6563 51.8029 38.1911 52.0889 37.7113C52.2538 37.4351 52.4477 37.2267 52.7822 37.3237C53.1022 37.4157 53.2961 37.6483 53.2913 38.0118C53.2864 38.5739 53.3204 39.1361 53.2816 39.6933C53.2234 40.585 53.4464 41.4573 53.4125 42.3489C53.3883 42.9401 53.8246 42.8965 54.2221 42.882C54.673 42.8578 55.0706 42.6397 55.4924 42.5185C56.1954 42.3102 56.782 42.4943 57.228 43.0758C58.1055 44.2195 59.0606 45.2953 60.2387 46.1385C60.7478 46.5019 61.0823 46.9623 61.3635 47.4954C61.9017 48.5179 62.2168 49.6324 62.7162 50.6646V50.6549Z" fill="#FDF5EE"/>
<path d="M20.4981 18.938C20.9199 19.2143 20.8472 19.6989 20.9247 20.0865C21.2302 21.5597 21.7053 22.9893 22.0301 24.4527C22.3695 25.9889 22.6264 27.5445 22.9416 29.0855C23.3391 31.0433 23.7609 33.001 24.1536 34.9588C24.459 36.4853 24.7402 38.0166 25.0408 39.5431C25.5984 42.3683 26.185 45.1886 26.728 48.0187C27.1643 50.2866 27.6831 52.5351 28.1776 54.7885C28.3812 55.7189 28.8612 56.0145 29.8308 55.811C30.8102 55.6026 31.804 55.2053 32.7688 55.2634C34.5433 55.37 36.1868 54.7885 37.8934 54.5801C40.0459 54.3233 42.184 53.9017 44.3317 53.5819C46.1207 53.3153 47.9145 53.1069 49.7035 52.855C51.1483 52.6514 52.5882 52.4043 54.0378 52.2104C55.468 52.0166 56.9031 51.8809 58.3333 51.6919C59.2302 51.5756 60.1174 51.4157 61.0095 51.2752C61.3391 51.2219 61.63 51.0668 61.9985 51.2994C62.3476 51.5223 62.5075 51.0813 62.716 50.8827C62.8615 51.343 62.6869 51.6289 62.173 51.5659C60.9222 51.4109 59.7538 51.8906 58.532 51.9633C57.4218 52.0311 56.3213 52.2395 55.2159 52.3898C53.4463 52.6272 51.6719 52.8695 49.9023 53.1118C48.3218 53.3299 46.7461 53.5576 45.1656 53.7854C43.7403 53.9889 42.31 54.1924 40.8847 54.4105C39.2508 54.6577 37.617 54.9096 35.988 55.1859C35.2899 55.307 34.5966 55.5881 33.8888 55.559C32.4295 55.496 31.0526 55.9612 29.6272 56.0921C28.5315 56.1938 28.1776 55.8449 27.8916 54.774C27.0625 51.6483 26.5195 48.4645 25.8699 45.3049C25.1426 41.7868 24.4978 38.2541 23.7803 34.731C22.9997 30.9076 22.3016 27.0696 21.4095 23.2703C21.0993 21.9619 20.7453 20.6632 20.4496 19.3451C20.4157 19.1949 20.3139 19.0543 20.4884 18.9283L20.4981 18.938Z" fill="#FDF5EE"/>
<path d="M41.1999 33.3451C40.7345 33.3306 40.7588 33.0543 40.9866 32.8217C41.966 31.8332 42.858 30.738 44.0119 29.9529C44.6955 29.4877 45.5972 29.5168 46.3923 29.2842C46.5766 29.2309 46.7753 29.2066 46.9499 29.1243C48.0892 28.6009 48.1377 28.2617 47.5995 27.3846C47.2989 26.8951 46.945 26.396 47.1293 25.7272C47.3086 25.073 47.5898 24.7968 48.2928 24.7484C48.2831 24.9519 48.1522 25.0246 47.9825 25.1118C47.425 25.388 47.2068 26.0131 47.4735 26.5801C47.6286 26.9097 47.8419 27.2149 48.0019 27.5445C48.3801 28.3053 48.1765 28.8917 47.4056 29.2599C46.6832 29.604 45.9075 29.7979 45.1318 29.9093C44.2785 30.0305 43.6871 30.5151 43.1101 31.0481C42.538 31.5715 42.0144 32.1433 41.4569 32.6812C41.2581 32.875 41.166 33.0834 41.1999 33.3499V33.3451Z" fill="#FDF5EE"/>
<path d="M62.7162 50.6549C62.2168 49.6179 61.9017 48.5033 61.3635 47.4856C61.0823 46.9526 60.7478 46.4922 60.2388 46.1288C59.0607 45.2856 58.1056 44.2098 57.228 43.0661C56.782 42.4894 56.2002 42.3053 55.4924 42.5088C55.0706 42.6348 54.673 42.848 54.2222 42.8723C54.8524 42.0048 56.5202 41.9176 57.2911 42.756C58.4352 43.9965 59.5115 45.3049 60.8787 46.3323C61.4314 46.749 61.6253 47.3984 61.892 47.9896C62.2071 48.6874 62.4641 49.4143 62.7453 50.1315C62.818 50.3108 62.9053 50.495 62.7113 50.6597L62.7162 50.6549Z" fill="#FDF5EE"/>
<path d="M19.6837 10.9277C19.1358 11.4559 19.4267 12.081 19.514 12.6625C19.7467 14.2181 20.0133 15.7639 20.2654 17.3147C19.9648 17.2614 19.9552 17.0239 19.9164 16.7913C19.6594 15.2794 19.4073 13.7723 19.1358 12.2652C19.0049 11.5334 19.1843 11.044 19.6837 10.9277Z" fill="#FDF5EE"/>
<path d="M20.2654 17.5472C20.4351 17.9155 20.4594 18.3129 20.4981 18.7103C20.0812 18.4098 19.9697 17.8332 20.2654 17.5472Z" fill="#FDF5EE"/>
<path d="M25.8262 26.396C25.6904 28.1357 26.1268 29.9093 26.3449 31.7072C26.6213 33.9848 27.1109 36.2527 27.174 38.5303C27.2273 40.4978 27.077 42.4991 26.7134 44.4618C26.4807 45.712 26.3401 46.9768 26.2819 48.2513C26.1849 50.369 26.0589 52.4915 25.9425 54.6092C25.9328 54.7401 25.928 54.9097 25.8504 54.9969C25.4965 55.3894 25.482 55.8498 25.4577 56.3392C25.4383 56.7318 25.2396 57.0516 24.7596 57.0225C24.3135 56.9934 24.236 56.6542 24.2554 56.315C24.3863 54.0616 24.4299 51.8034 24.5366 49.55C24.5802 48.5615 25.1232 47.7376 25.1377 46.7781C25.1426 46.3953 25.4238 45.8816 24.6044 46.0561C24.2166 46.1385 23.8869 45.5666 23.9305 45.0772C24.0227 44.0789 24.1002 43.0807 24.1923 42.0824C24.202 41.9612 24.2214 41.8401 24.1196 41.7674C23.6978 41.4718 23.7318 41.0308 23.7657 40.6092C24.0663 36.8148 23.2324 33.1561 22.4373 29.4926C22.3209 28.9644 22.3743 28.3683 21.8216 28.0049C21.744 27.9564 21.7004 27.7916 21.7101 27.685C21.7973 26.6625 21.6034 25.6061 22.0591 24.6272C22.5634 23.5466 23.7172 22.7131 25.0359 23.1686C25.4286 23.3043 25.671 23.532 25.7389 23.9875C25.8601 24.7581 25.7922 25.5334 25.831 26.396H25.8262ZM24.8808 31.8283C24.7159 29.6428 24.5026 27.4427 24.5172 25.2233C24.2699 25.577 24.0808 25.9356 24.1342 26.3863C24.2117 27.0938 24.2602 27.8062 24.3426 28.5137C24.4735 29.6186 24.5172 30.738 24.8808 31.8283Z" fill="#F9B59F"/>
<path d="M53.0486 39.8048C52.2292 40.5511 51.4148 40.8951 50.4112 40.648C49.7227 40.4784 49.4028 40.0035 49.5918 39.3299C49.6355 39.1797 49.6985 39.0343 49.7033 38.8841C49.7518 37.0523 49.7906 35.2157 49.8342 33.3839C49.8439 32.8944 49.6403 32.9187 49.3106 33.1513C48.6707 33.6068 47.9871 33.9509 47.1677 33.9024C46.3436 33.8588 45.4854 33.1513 45.3497 32.3565C45.2673 31.8816 45.5194 31.586 45.9896 31.4891C46.6538 31.3534 47.3083 31.2129 47.9241 30.9028C48.2828 30.7234 48.3749 30.5345 48.1471 30.1904C47.9532 29.8996 47.7883 29.5943 47.6235 29.289C47.289 28.6785 47.5895 27.7868 48.2343 27.4912C48.6416 27.307 49.1555 27.622 49.0876 28.1115C48.9519 29.0758 49.6985 29.667 49.9555 30.4569C49.9748 30.5248 50.1106 30.5587 50.1882 30.6023C50.8766 30.9803 51.2305 31.5618 51.5941 32.2693C51.9141 32.8944 51.9771 33.694 52.7189 34.1786C53.5867 34.7456 54.2897 35.5597 54.4255 36.6937C54.4449 36.8584 54.4836 36.9893 54.6727 37.1007C55.5939 37.6435 56.2532 38.3752 56.2969 39.5189C56.3066 39.8242 56.3938 40.1295 56.4035 40.4348C56.4132 40.8467 56.4278 41.1859 56.9999 41.1762C57.2423 41.1762 57.3538 41.4427 57.3635 41.6996C57.3877 42.3392 57.0871 42.8335 56.5732 43.1582C56.1369 43.4393 55.6521 43.6525 55.143 43.793C54.3431 44.0111 53.9019 43.7543 53.6837 42.9401C53.4171 41.937 53.2328 40.9194 53.0534 39.7951L53.0486 39.8048ZM47.0756 32.4971C47.7204 32.7636 48.1616 32.4438 48.5543 31.9931C48.0598 32.1627 47.5701 32.3275 47.0756 32.4971Z" fill="#F9B59F"/>
<path d="M24.8809 31.8283C24.5173 30.738 24.4736 29.6186 24.3427 28.5137C24.2603 27.8062 24.2118 27.0938 24.1342 26.3863C24.0858 25.9356 24.27 25.577 24.5173 25.2233C24.5027 27.4427 24.716 29.6379 24.8809 31.8283Z" fill="#FDEFEA"/>
<path d="M47.0757 32.4971C47.5702 32.3275 48.0599 32.1627 48.5544 31.9931C48.1617 32.4438 47.7205 32.7636 47.0757 32.4971Z" fill="#FDEFEA"/>
<path d="M51.1628 25.9647C50.9786 25.6206 51.1725 25.3784 51.3907 25.1409C52.5009 23.9246 53.616 23.3285 55.2595 23.0814C54.7553 21.361 54.2074 19.6553 53.7614 17.9253C52.8839 14.504 52.1858 11.0343 51.1046 7.6615C50.6634 6.29493 50.6974 6.30947 49.2769 6.48877C47.0758 6.76499 44.8699 6.9976 42.63 7.25443C42.8336 7.62757 43.173 7.64696 43.5221 7.6615C45.3595 7.75357 47.1388 7.38043 48.9229 7.03637C49.6986 6.88614 49.815 6.92491 50.0138 7.71965C50.5568 9.91002 50.8864 12.1537 51.5652 14.3053C52.4088 16.99 53.0681 19.7328 54.2462 22.306C54.3529 22.5338 54.4935 22.8245 54.2026 22.9699C53.8632 23.1347 53.7323 22.81 53.616 22.5725C52.8645 21.0654 52.4476 19.4324 51.89 17.8526C50.7701 14.6785 50.0768 11.3977 49.369 8.11702C49.2769 7.69057 49.1363 7.67603 48.7484 7.74872C47.1146 8.05402 45.4856 8.41747 43.8081 8.34962C43.2263 8.32539 42.6397 8.30116 42.1937 7.83595C42.1452 7.78749 42.0967 7.73903 42.0482 7.69057C41.9755 7.78749 42.024 7.85533 42.1015 7.91833C42.1403 8.06856 42.1791 8.21878 42.2131 8.36901C42.3537 9.01837 42.1209 9.41574 41.4761 9.5805C40.6519 9.78888 39.8084 9.92456 38.9551 9.97302C36.9237 10.0845 34.9165 10.4043 32.8949 10.603C31.1641 10.7726 29.4333 10.9664 27.7025 11.1554C27.4164 11.1845 27.1255 11.2281 26.8395 11.2766C25.8068 11.4462 25.2056 11.1603 24.9632 10.1232C24.7936 9.4012 24.459 9.42058 23.8869 9.46904C21.841 9.6435 19.8096 9.88095 17.7879 10.2299C16.6825 10.4189 16.7068 10.4237 16.9686 11.5043C18.0013 15.7397 19.0145 19.9799 20.0375 24.2153C20.0569 24.288 20.0617 24.3704 20.1878 24.4043C20.5902 23.6726 20.8908 22.9941 20.6338 22.0492C19.9357 19.4953 19.6254 16.864 19.2084 14.252C19.0824 13.4718 18.903 12.7013 18.8691 11.9017C18.8448 11.3347 19.0436 10.981 19.6496 10.8889C21.1041 10.6708 22.5488 10.414 24.0227 10.3462C24.4445 10.3268 24.6966 10.4479 24.8178 10.9034C25.3705 12.9339 26.0056 14.9401 27.0528 16.7816C27.2225 17.0821 27.1498 17.5715 27.4552 17.7023C27.7412 17.8235 28.1388 17.712 28.483 17.6539C29.8938 17.4164 31.295 17.1354 32.7058 16.9173C36.371 16.36 40.0071 15.604 43.7014 15.1921C44.9038 15.0564 46.1013 14.8045 47.3085 14.6639C47.8224 14.6058 48.1327 14.7318 48.3072 15.2067C48.4769 15.667 48.4575 16.0596 47.9921 16.3697C46.8625 17.116 45.5486 17.2856 44.2735 17.5327C40.8556 18.1918 37.3988 18.6134 33.9372 18.9526C33.273 19.0156 32.6185 19.1755 31.9592 19.2918C31.9592 19.3403 31.9592 19.3839 31.9592 19.4323C32.1676 19.4323 32.381 19.4372 32.5894 19.4323C35.765 19.3112 38.9211 19.0592 42.0579 18.5504C42.63 18.4583 43.2069 18.405 43.7839 18.3323C44.3269 18.2645 44.7293 18.4971 44.802 18.9235C44.9086 19.5438 44.5644 20.1447 44.0166 20.2174C41.8737 20.513 39.7696 21.0024 37.6267 21.298C35.6341 21.5694 33.6415 21.8408 31.644 22.0782C31.358 22.1122 31.0719 22.18 30.7956 22.2527C29.9132 22.4902 29.7581 22.6985 29.8211 23.5999C29.8793 24.4479 29.9763 25.2911 30.0296 26.1343C30.0635 26.6771 30.4465 26.5026 30.7083 26.4638C32.3179 26.2361 33.9275 26.0132 35.5226 25.7273C39.7308 24.9713 43.9535 24.3413 48.2054 23.9003C48.5011 23.8713 48.8454 23.8034 48.8793 24.2153C48.9132 24.6272 48.5593 24.603 48.2636 24.6418C44.2154 25.1506 40.172 25.6885 36.1577 26.4202C34.4463 26.7304 32.7349 27.0502 30.9992 27.1956C30.4562 27.2392 30.2526 27.404 30.3787 27.9952C30.5241 28.6494 30.5483 29.3327 30.6017 30.0062C30.6308 30.3939 30.4465 30.6992 30.0684 30.8058C29.0842 31.0869 28.1049 31.3874 27.0528 31.1402C26.5292 31.0191 26.1704 30.7525 26.0638 30.2146C25.9377 29.5701 25.8117 28.9256 25.7292 28.2762C25.6468 27.6366 25.8698 27.2877 26.4953 27.0938C27.237 26.8612 27.9982 26.7207 28.7739 26.7061C29.2539 26.6965 29.443 26.5608 29.3363 26.0277C29.1472 25.1021 29.0842 24.1523 29.0939 23.2025C29.1036 22.3351 29.4381 21.8844 30.2623 21.6179C31.5277 21.206 32.8561 21.206 34.1554 21.017C37.3309 20.5566 40.521 20.1932 43.6433 19.442C43.7984 19.4033 44.162 19.5244 44.0893 19.161C44.0311 18.8799 43.7645 19.0204 43.5996 19.0447C42.3924 19.2094 41.1949 19.4324 39.9829 19.5583C37.2679 19.8346 34.5578 20.1641 31.8186 20.1108C31.358 20.1011 30.9265 20.009 30.8683 19.476C30.8101 18.9381 31.2319 18.7588 31.6634 18.6425C33.0161 18.2839 34.3978 18.1482 35.7844 17.9979C39.3963 17.6006 43.0033 17.1741 46.5328 16.2631C46.8964 16.171 47.2115 15.9966 47.5267 15.8124C47.6721 15.73 47.7254 15.6331 47.6673 15.4877C47.6188 15.352 47.4976 15.3569 47.3764 15.3714C46.6831 15.4441 45.9801 15.4538 45.2965 15.5895C42.3003 16.1904 39.2557 16.4763 36.2595 17.0675C33.9469 17.523 31.6004 17.7847 29.3024 18.3129C28.8515 18.4147 28.3812 18.4341 27.9158 18.4535C27.6394 18.468 27.5085 18.531 27.6297 18.8266C27.9352 19.5874 27.8964 20.4209 28.1436 21.1963C28.3036 21.6906 28.0903 22.0346 27.5813 22.1461C26.5971 22.3642 25.6032 22.495 24.5948 22.558C24.2603 22.5774 23.9888 22.4175 23.9063 22.1316C23.6154 21.1575 23.1355 20.2271 23.15 19.1755C23.1597 18.5019 23.373 18.2209 24.0469 18.1142C24.7548 18.0076 25.4674 17.9398 26.1801 17.901C26.6068 17.8816 26.6068 17.6781 26.5001 17.3825C26.4274 17.1838 26.3498 16.9851 26.248 16.801C25.3705 15.1776 24.7402 13.4621 24.3184 11.6691C24.2118 11.2233 24.0469 11.0537 23.5379 11.1118C22.3646 11.2378 21.2011 11.4365 20.0326 11.5867C19.7272 11.6255 19.6593 11.7418 19.6593 12.0277C19.669 12.9436 19.9308 13.8207 20.0617 14.7172C20.4447 17.3534 20.8229 19.9896 21.4919 22.5725C21.5841 22.9263 21.521 23.2655 21.3562 23.5853C21.0023 24.2735 20.7308 24.9955 20.4738 25.7224C20.3963 25.9502 20.3478 26.2167 20.052 26.3039C19.8145 26.3718 19.926 26.5268 19.9793 26.6722C20.1538 27.1617 20.3041 27.6608 20.4884 28.1502C20.7065 28.7318 20.6096 29.2406 20.246 29.7349C19.9017 30.2049 19.5915 30.6944 19.2618 31.1693C18.8545 31.7556 18.8012 32.3565 19.0533 33.035C19.5672 34.4258 20.0278 35.8359 20.2217 37.3285C19.7999 34.3967 20.6774 31.5957 21.0023 28.7415C21.1283 27.6317 21.1041 26.5026 21.4095 25.4123C21.5065 25.0585 21.6083 24.7048 21.7489 24.3655C22.1949 23.2558 22.9512 22.7518 24.1294 22.8003C24.5754 22.8197 24.8178 23.1007 24.8129 23.5708C24.8129 24.5594 24.8469 25.548 24.8081 26.5317C24.6917 29.4102 25.0893 32.2354 25.6468 35.0461C26.0638 37.154 26.408 39.2717 26.2965 41.433C26.2092 43.1146 25.8553 44.7622 25.5644 46.4195C25.5159 46.7055 25.4868 46.9914 25.4481 47.2773C25.1475 48.8958 25.0893 50.5386 25.0263 52.1814C24.9681 53.7079 24.9438 55.2392 24.9051 56.7657C24.9002 57.0419 24.9051 57.3714 24.5366 57.3666C24.2021 57.3666 24.1972 57.0371 24.1924 56.7899C24.139 54.5462 24.2603 52.3025 24.3621 50.0589C24.4881 47.2627 25.2638 44.5684 25.5256 41.7965C25.6856 40.081 25.4578 38.3995 25.1814 36.7228C24.7693 34.1883 24.1487 31.6781 24.0857 29.1001C24.0469 27.4379 24.0663 25.7709 24.1051 24.1087C24.1197 23.5417 23.8869 23.5175 23.4555 23.6144C22.9803 23.721 22.6749 23.9924 22.4761 24.4334C22.0834 25.3105 21.841 26.2361 21.8119 27.1762C21.7392 29.5071 21.1865 31.7702 20.9005 34.0672C20.789 34.9782 20.8811 35.8844 20.8617 36.7906C20.8374 37.8955 20.8423 38.9955 20.8277 40.1004C20.8277 40.396 20.8083 40.7352 20.4302 40.7691C20.0375 40.8079 19.9842 40.4396 19.9308 40.1682C19.7514 39.2766 19.5769 38.3849 19.4606 37.4884C19.286 36.1364 18.9321 34.8328 18.4279 33.5777C17.9722 32.4486 18.074 31.4358 18.8109 30.4666C19.0921 30.0983 19.3248 29.6913 19.606 29.323C19.8387 29.0128 19.8823 28.7075 19.7466 28.3489C19.5672 27.8789 19.4024 27.4088 19.2375 26.9339C19.1454 26.6674 19.0291 26.6528 18.8351 26.8564C16.6244 29.2115 14.2051 31.3777 12.1737 33.9073C11.4853 34.765 11.272 35.6809 11.6259 36.7761C12.2949 38.8404 13.1434 40.8224 14.147 42.7414C14.8257 44.045 15.4608 45.3631 15.9796 46.7394C16.2511 47.4566 16.4304 48.1544 16.4498 48.9588C16.5129 51.8616 16.5274 54.7643 16.5177 57.667C16.5177 58.1516 16.6098 58.3067 17.1383 58.3115C19.5624 58.3358 21.9816 58.2001 24.4057 58.1807C24.7742 58.1807 25.1378 58.2001 25.5014 58.3018C26.2383 58.5102 26.3595 58.9851 25.8068 59.523C25.1766 60.1336 24.3475 60.1821 23.5476 60.3032C21.4871 60.6134 19.4557 60.3565 17.4243 60.0222C16.6632 59.8962 15.8826 59.8477 15.1408 59.6103C14.7433 59.4843 14.6609 59.6248 14.6609 60.0076C14.6657 63.2593 14.6463 66.5109 14.6512 69.7626C14.6512 71.9093 14.6754 74.0609 14.6899 76.2077C14.6899 76.45 14.6996 76.7262 14.3991 76.7505C14.0839 76.7747 14.0694 76.4985 14.0597 76.2562C14.0257 75.6213 13.9579 74.9817 13.9579 74.3468C13.9579 69.467 13.9579 64.5919 13.9773 59.712C13.9773 58.8252 14.2294 58.6604 15.0972 58.8543C15.3251 58.9027 15.5529 58.9415 15.7759 58.99C15.839 58.99 15.9068 58.9803 15.9699 58.9754C15.9456 58.9318 15.9262 58.8882 15.902 58.8494C15.8002 58.6314 15.805 58.3988 15.805 58.1662C15.805 54.8031 15.8438 51.4351 15.6838 48.0769C15.6741 47.8733 15.5723 47.6746 15.5044 47.476C14.6948 45.2129 13.4149 43.1679 12.4016 41.0017C11.8198 39.7612 11.3592 38.4673 10.889 37.1783C10.346 35.6857 10.6902 34.4258 11.6501 33.2385C13.0755 31.4697 14.7433 29.9287 16.3092 28.2908C17.0462 27.5203 17.8122 26.7788 18.5636 26.0277C18.7285 25.8678 18.8982 25.6255 19.1406 25.6982C19.8581 25.9211 19.5866 25.4268 19.5187 25.17C18.4182 20.6923 17.3031 16.2195 16.2074 11.7418C16.0668 11.1603 15.6984 10.5303 16.3771 10.0021C16.6777 9.76949 17.0171 9.6338 17.3758 9.56596C19.7951 9.12982 22.2289 8.81484 24.6869 8.70338C25.2105 8.67915 25.5062 8.83907 25.5402 9.39151C25.5499 9.56111 25.5935 9.73557 25.6517 9.90033C25.8844 10.5836 26.0832 10.6951 26.7862 10.5691C28.4054 10.2783 30.0538 10.2202 31.6877 10.0166C33.5881 9.78403 35.4886 9.56111 37.394 9.36243C38.5478 9.24128 39.7065 9.19282 40.8507 8.96021C41.481 8.82937 41.544 8.7373 41.2919 8.17032C40.8507 7.17205 40.0459 6.6293 38.989 6.55177C36.1383 6.35308 33.2973 6.48877 30.4611 6.81345C29.1375 6.96368 28.1146 7.6615 27.4552 8.84391C27.4164 8.91176 27.3776 8.9796 27.334 9.0426C27.0964 9.38666 26.9171 9.85672 26.3692 9.67257C25.8311 9.49327 25.7292 8.97475 25.7874 8.52408C25.9329 7.4192 26.4128 6.48877 27.5182 6.04294C27.9982 5.8491 28.3327 5.61165 28.4442 5.05437C28.5703 4.43893 29.0018 4.0561 29.6417 3.94464C30.2914 3.82834 30.941 3.72657 31.6004 3.73142C32.3179 3.73626 33.0355 3.73142 33.7433 3.60057C34.7808 3.61027 35.8329 3.46489 36.8267 3.89618C36.8849 3.92041 36.9431 3.93979 37.0013 3.96402C37.0352 4.00764 37.0643 4.0561 37.0982 4.09971C37.1273 4.11425 37.1516 4.12879 37.1806 4.14332C37.1855 4.14332 37.2 4.13363 37.2097 4.12879C37.1709 4.12394 37.1273 4.11425 37.0885 4.1094C37.137 4.00764 37.0837 3.97856 36.9916 3.97371C37.0304 3.87195 36.9625 3.85741 36.8898 3.84772C36.531 3.48427 36.0753 3.49881 35.6147 3.51819C35.0232 3.54727 34.4317 3.60057 33.8645 3.36312C33.593 2.92214 33.3118 2.49569 32.8173 2.20009C32.667 2.63623 33.4233 3.05298 32.8076 3.34858C32.4246 3.53273 32.3276 2.99483 32.0222 2.80584C31.9592 3.30012 31.8186 3.6878 31.2174 3.62965C30.5871 3.5715 30.369 3.34858 30.3593 2.70892C30.3496 2.13225 30.5774 1.64765 30.9556 1.24059C31.3337 0.838374 31.7992 0.717225 32.3325 0.949831C33.0403 1.25997 33.6124 1.75426 34.0827 2.35032C34.296 2.62169 34.5238 2.75253 34.8584 2.73315C35.1299 2.71861 35.4014 2.74768 35.6729 2.73315C36.9043 2.6653 37.7043 3.35828 38.3685 4.26447C38.6012 4.57461 38.6884 4.94291 38.3685 5.27243C38.0339 5.62134 37.6606 5.49535 37.3891 5.22397C36.5407 4.37108 35.4886 4.2257 34.3832 4.34201C32.8997 4.49708 31.4016 4.40501 29.9229 4.65215C29.4866 4.72484 29.2102 4.91868 29.123 5.35482C28.9824 6.05263 28.5315 6.44031 27.8818 6.68261C27.0431 6.9976 26.5001 7.86018 26.568 8.78091C26.7958 8.44654 26.9801 8.16063 27.1789 7.88441C28.0758 6.65838 29.3411 6.10109 30.8053 5.95571C33.2585 5.71342 35.7165 5.64073 38.1794 5.68434C39.532 5.70857 40.7441 6.0284 41.6943 7.2399C41.6846 6.70199 41.9028 6.53723 42.344 6.49846C44.7535 6.27555 47.1582 6.02356 49.5483 5.67465C50.7895 5.49535 51.2598 5.74249 51.6379 6.92975C52.3603 9.16859 53.0439 11.422 53.5384 13.7286C54.1493 16.5781 54.9541 19.379 55.7443 22.1849C55.9576 22.936 56.2097 23.2267 56.9709 23.2316C57.6836 23.2316 58.3914 23.3818 59.1041 23.469C59.3998 23.5078 59.6568 23.5999 59.5065 23.9876C59.4192 24.2153 59.555 24.2202 59.7004 24.1814C59.8265 24.1475 59.9477 24.0796 60.064 24.0166C60.9464 23.532 61.8385 23.0717 62.7936 22.747C63.196 22.6113 63.5596 22.3884 63.9038 22.1316C64.5777 21.6276 64.6892 21.6373 65.3437 22.2139C65.3437 21.5452 65.7704 21.269 66.2794 21.0509C67.7096 20.4403 69.2416 20.1883 70.7155 19.7231C72.5384 19.1464 74.2983 18.3856 76.1455 17.901C76.6109 17.7799 77.086 17.6781 77.5611 17.6006C78.5356 17.4455 79.1271 18.0173 79.195 19.1464C79.2483 20.0284 78.7053 20.5712 77.7696 20.5615C77.6823 20.4985 77.6048 20.4112 77.4932 20.5227C77.5175 20.5469 77.5417 20.5663 77.566 20.5905C77.7745 21.1042 77.4351 21.3417 77.0666 21.5452C76.1164 22.0734 75.1031 22.4514 74.085 22.81C72.2136 23.4739 70.3761 24.2492 68.4756 24.8308C67.9666 24.9858 67.4478 25.107 67.0648 24.5594C66.9679 24.4237 66.8418 24.4673 66.7012 24.5158C65.8819 24.8017 65.0625 25.0827 64.122 25.4026C64.505 25.514 64.7619 25.6158 65.0286 25.6546C66.1291 25.8242 66.7497 26.5123 67.1327 27.5057C67.7727 29.163 68.2138 30.8834 68.6356 32.6085C69.4259 35.8699 70.5507 39.0004 72.2378 41.9128C73.0184 43.2551 73.9832 44.4666 74.9722 45.6587C75.4958 46.2887 75.5006 46.405 75.011 47.0495C73.3578 49.2205 71.6124 51.3188 69.8913 53.4365C69.5762 53.8193 69.2126 53.9453 68.7665 53.766C68.5096 53.6643 68.4659 53.7369 68.3738 53.9744C68.1217 54.6335 68.2235 55.0793 68.7326 55.6608C71.1615 58.4424 73.5468 61.2724 75.6025 64.3545C76.3733 65.5126 77.086 66.7193 78.3271 67.4704C78.5453 67.6061 78.7683 67.8096 78.5695 68.0859C78.3611 68.3718 78.1284 68.1537 77.915 68.0277C76.8145 67.4026 76.0727 66.4237 75.4231 65.3963C73.8668 62.9297 71.976 60.7297 70.1531 58.4715C69.3968 57.541 68.6647 56.5864 67.8114 55.7383C67.2927 55.2295 67.3799 54.6238 67.6078 54.0616C67.8502 53.4559 67.6708 53.1651 67.1569 52.8114C65.4358 51.6338 63.9959 50.1412 62.59 48.6148C62.4833 48.5033 62.396 48.3725 62.3039 48.2513C62.1585 48.0575 62.047 47.8491 62.2312 47.6213C62.4203 47.3887 62.6675 47.4663 62.8711 47.5583C63.2202 47.7183 63.5596 47.9169 63.8796 48.1302C65.4407 49.1575 66.8176 50.4029 68.0732 51.784C68.2963 52.0312 68.4853 52.3025 68.5193 52.6466C68.5484 52.9471 68.7956 52.9955 68.9944 53.0924C69.198 53.1942 69.3047 53.044 69.421 52.8986C71.084 50.8342 72.7469 48.7698 74.4195 46.7103C74.5892 46.4971 74.6328 46.3662 74.4292 46.1336C71.4039 42.7414 69.5665 38.7387 68.3835 34.3967C67.8163 32.3178 67.3509 30.2098 66.6382 28.1745C66.294 27.1811 65.78 26.4154 64.631 26.2603C64.345 26.2215 63.9523 26.1537 64.0056 25.6594C64.0202 25.514 63.9571 25.4995 63.6081 25.6255C62.0227 26.1876 60.4422 26.7546 58.8568 27.307C57.8775 27.6511 56.8885 27.9709 55.8704 28.315C55.9528 28.3925 55.9916 28.4652 56.0304 28.4652C57.2133 28.4507 57.766 29.2648 58.2314 30.1565C58.9102 31.46 59.5744 32.7684 60.4664 33.9509C60.6313 34.1738 60.767 34.4548 60.544 34.6923C60.2919 34.9685 60.0107 34.7892 59.7586 34.639C58.6872 33.9848 57.6206 33.316 56.5443 32.6667C55.7346 32.1772 55.0947 31.5133 54.4838 30.8107C53.4026 29.5653 52.2779 28.3683 51.1143 27.2004C50.2513 26.3379 49.209 26.0568 48.0309 26.1925C47.4588 26.2555 47.4248 26.3475 47.7448 26.8128C49.2817 29.0661 50.9495 31.2274 52.5203 33.4614C53.8438 35.3417 54.9686 37.3188 55.7686 39.4607C56.6655 41.8789 58.2363 43.8027 60.1319 45.4503C61.2373 46.4098 61.8288 47.568 62.1972 48.9055C62.3572 49.4822 62.5027 50.0589 62.6433 50.6404C62.7596 51.1298 62.5706 51.406 62.0615 51.503C58.9247 52.0942 55.7831 52.6272 52.6318 53.1361C48.5981 53.7903 44.545 54.27 40.5065 54.8467C36.6958 55.3894 32.8949 55.9806 29.0842 56.5476C29.026 56.5573 28.9678 56.567 28.9145 56.5767C27.654 56.7269 27.3582 56.5428 27.1352 55.2974C26.6746 52.7338 26.0977 50.1849 25.8068 47.5923C25.7971 47.5002 25.7438 47.413 25.7147 47.3209C25.7147 47.224 25.7147 47.1271 25.7147 47.0301C25.7147 46.8169 25.7777 46.6231 26.0104 46.5988C26.2626 46.5698 26.3886 46.7345 26.4322 46.9768C26.5777 47.8539 26.7183 48.7311 26.8783 49.6033C27.2273 51.5223 27.5861 53.4365 27.9303 55.3555C28.003 55.7529 28.1679 55.9079 28.5945 55.8401C31.0768 55.4524 33.5688 55.1084 36.0462 54.7061C38.9114 54.2458 41.7816 53.8387 44.6614 53.4753C47.6382 53.1021 50.5907 52.5788 53.5529 52.1475C56.1758 51.7695 58.7696 51.251 61.3779 50.8003C61.8482 50.7179 62.013 50.5725 61.8239 50.1025C61.7027 49.802 61.6397 49.4773 61.5573 49.1575C61.2519 47.9363 60.6992 46.9138 59.6859 46.0658C57.3733 44.1322 55.6958 41.719 54.6826 38.8598C54.3771 37.9972 53.9456 37.1831 53.3687 36.4272C53.4705 37.4933 53.5626 38.5594 53.679 39.6206C53.7614 40.3524 53.8826 41.0744 53.9699 41.8013C54.0475 42.4265 54.2996 42.5718 54.8523 42.2811C54.988 42.2132 55.1044 42.1018 55.211 41.9952C55.3613 41.8498 55.5213 41.6075 55.7346 41.7626C55.9576 41.9225 55.8316 42.1793 55.7249 42.3877C55.371 43.0564 54.3674 43.352 53.6984 42.9983C53.393 42.8384 53.3445 42.5428 53.3105 42.2617C53.1651 41.1326 53.0439 39.9986 52.913 38.8647C52.8839 38.5981 52.8936 38.3268 52.7772 38.0457C52.593 38.3849 52.4476 38.7145 52.2488 39.0149C51.7252 39.8048 50.9446 40.1004 50.0332 39.8823C49.5629 39.7709 49.2962 39.5092 49.3156 38.9858C49.3932 37.188 49.4562 35.3901 49.5241 33.5923C49.5387 33.1464 49.5096 32.7006 49.3981 32.1821C48.7484 32.6812 48.06 33.0398 47.2794 33.1997C47.0321 33.253 46.6346 33.1174 46.717 33.6698C46.7461 33.8685 46.3825 33.9363 46.1449 33.9606C44.6032 34.1059 43.0615 34.2465 41.5198 34.4064C39.5175 34.6148 37.52 34.8425 35.5177 35.0509C34.5529 35.1527 33.593 35.2593 32.6282 35.3126C32.1919 35.3368 32.1822 35.4967 32.2646 35.8456C32.4246 36.4998 32.5603 37.1637 32.5991 37.8422C32.6282 38.351 32.4391 38.7435 32.0416 39.0488C31.421 39.5189 30.7568 39.9114 29.9811 40.0762C29.1618 40.2506 28.6091 40.0132 28.2745 39.2475C27.814 38.1862 27.3291 37.125 27.4407 35.9135C27.5134 35.0897 27.8334 34.7844 28.6479 34.7553C29.3654 34.7311 30.0781 34.6681 30.7956 34.639C31.0622 34.6293 31.1059 34.5324 31.0816 34.2804C31.0186 33.665 30.9653 33.0447 30.9507 32.4292C30.9071 30.7428 31.5665 29.8609 33.2148 29.3957C34.7275 28.9644 36.2886 28.8045 37.84 28.6203C39.6241 28.4071 41.4228 28.3102 43.2166 28.1406C43.4978 28.1163 43.7839 28.0146 44.0457 27.9079C44.3366 27.7916 44.3463 27.5106 44.2929 27.2634C44.2299 26.9775 43.9681 27.0987 43.8081 27.1277C41.5004 27.53 39.1781 27.8062 36.8558 28.0872C35.5517 28.2472 34.2427 28.378 32.9336 28.5088C32.6961 28.5331 32.3761 28.6155 32.3422 28.2423C32.3131 27.9273 32.6088 27.9079 32.8367 27.874C34.2378 27.6947 35.6341 27.5154 37.0352 27.3361C39.1442 27.0647 41.258 26.8176 43.3524 26.4542C43.5027 26.4299 43.6578 26.4057 43.813 26.396C44.6178 26.3379 44.8796 26.4735 45.0008 27.0018C45.1704 27.7432 44.8796 28.3732 44.2396 28.6251C43.2069 29.0371 42.1064 28.9838 41.0349 29.0613C38.6206 29.2357 36.2256 29.5604 33.8499 30.0159C33.4524 30.0935 33.0694 30.2243 32.7106 30.4327C32.0464 30.8107 31.678 31.334 31.741 32.1336C31.7895 32.7491 31.7943 33.3694 31.8428 33.9848C31.8816 34.513 32.1095 34.5711 32.5458 34.5227C34.1263 34.3579 35.7116 34.2465 37.2825 34.0526C40.1962 33.6892 43.1245 33.442 46.1449 33.2046C45.6698 32.9187 45.2723 32.6521 45.025 32.2354C44.8699 31.9737 44.705 32.1772 44.5838 32.2354C43.6869 32.6667 42.7221 32.72 41.7573 32.8121C41.5295 32.8314 41.2725 32.8605 41.1755 32.5698C41.0883 32.2984 41.2871 32.1579 41.447 31.9834C42.9451 30.3503 44.9135 29.5798 46.9594 28.9498C47.3473 28.8287 47.6042 28.945 47.7836 29.2745C47.9775 29.6331 48.1909 29.9723 48.4478 30.2922C48.7629 30.6847 48.6999 30.9367 48.2151 31.1354C47.4539 31.4503 46.6782 31.7363 45.8686 32.0464C46.1692 32.4486 46.5279 32.5795 46.9885 32.5068C47.7788 32.3808 48.4333 31.9931 49.0684 31.5376C49.3302 31.3534 49.6211 31.116 49.9362 31.4746C50.3289 32.6182 50.2513 33.7958 50.198 34.9734C50.1398 36.2285 50.101 37.4836 50.0332 38.7387C50.0089 39.1894 50.2513 39.262 50.6004 39.2427C51.2161 39.2136 51.5943 38.8501 51.8464 38.3365C52.1615 37.692 52.336 36.999 52.4573 36.2963C52.496 36.0734 52.4912 35.7729 52.753 35.7196C53.0342 35.6663 53.0051 35.584 52.8839 35.4095C51.9337 34.072 50.9883 32.7297 50.038 31.3922C49.0393 29.9966 48.0357 28.6009 47.037 27.2053C46.9594 27.0938 46.8819 26.9824 46.8091 26.8709C46.4116 26.2409 46.5134 25.9066 47.2212 25.6352C48.3751 25.1942 49.495 25.3347 50.5907 25.8533C50.7458 25.9259 50.901 26.0083 51.0513 26.0859C51.0852 26.1149 51.1385 26.1731 51.1531 26.1634C51.2501 26.1101 51.1725 26.0616 51.1386 26.0132L51.1628 25.9647ZM66.7691 51.6096C66.7982 51.595 66.8563 51.7065 66.8563 51.5853C66.8224 51.595 66.7933 51.6096 66.7594 51.6193C66.8127 51.5175 66.7836 51.4642 66.6673 51.469C66.1776 50.747 65.5279 50.1994 64.8104 49.7245C64.7813 49.6809 64.7474 49.6324 64.7183 49.5888C64.6892 49.5937 64.6456 49.487 64.631 49.5985C64.665 49.5936 64.6941 49.584 64.728 49.5791C64.6504 49.7003 64.7086 49.7245 64.8201 49.7148C65.2807 50.4659 65.9934 50.9457 66.677 51.4593C66.7061 51.5078 66.74 51.5563 66.7691 51.6047V51.6096ZM51.4925 26.1925C51.4294 26.1586 51.3616 26.0907 51.3034 26.1828C51.2937 26.1973 51.3616 26.2603 51.3907 26.3039C52.8306 27.7383 54.2074 29.226 55.5455 30.7574C56.4473 31.7944 57.6739 32.3565 58.8714 32.9865C58.2896 31.9107 57.8678 30.7719 57.1551 29.7833C56.9467 29.4926 56.7188 29.3327 56.3649 29.2745C55.7007 29.1631 55.0413 29.0031 54.4159 28.7463C54.2365 28.6688 54.0426 28.5864 54.0572 28.3489C54.0717 28.1163 54.2559 28.063 54.4499 27.9952C55.8752 27.5154 57.3006 27.0357 58.7163 26.5365C61.2809 25.6303 63.8408 24.7193 66.4006 23.7986C66.8757 23.629 67.3024 23.5611 67.6418 24.036C67.8017 24.2589 68.0248 24.1911 68.2235 24.1329C70.0222 23.5805 71.7821 22.9166 73.5226 22.1994C73.5856 22.1849 73.6486 22.1655 73.7117 22.1509C73.702 22.1364 73.6874 22.117 73.6777 22.1122C73.605 22.1025 73.5371 22.1122 73.5371 22.2091C72.7614 22.2963 72.0681 22.6549 71.3264 22.8439C70.6719 23.0135 70.0271 23.2074 69.3725 23.3721C69.1786 23.4206 68.9702 23.3964 68.8926 23.1637C68.8199 22.9457 68.9411 22.7906 69.1204 22.684C69.2174 22.6258 69.3289 22.5822 69.4307 22.5289C71.5106 21.5597 73.5953 20.5905 75.7673 19.8249C76.4606 19.5777 77.1054 19.3403 77.8181 19.7328C78.0508 19.8636 78.3126 19.8297 78.4193 19.4953C78.6326 18.8363 78.2302 18.3032 77.5514 18.3614C77.3963 18.3759 77.246 18.4002 77.0957 18.4341C75.457 18.8072 73.8765 19.3839 72.3057 19.9703C70.5119 20.639 68.6259 20.9831 66.8176 21.613C66.357 21.773 66.0031 21.9619 66.1824 22.5532C66.2455 22.7664 66.2358 23.0135 66.1485 23.2413C66.0709 23.4448 65.974 23.6435 65.7316 23.6823C65.4989 23.721 65.3146 23.5902 65.1886 23.4109C65.048 23.2074 64.9316 22.9796 64.8104 22.7615C64.7134 22.5822 64.6165 22.495 64.4129 22.6549C63.2542 23.5563 61.8433 23.9924 60.544 24.5933C58.4302 25.5673 56.1952 26.2749 54.0135 27.1035C53.6499 27.244 53.359 27.1956 53.039 26.9727C52.5639 26.6383 52.05 26.3718 51.4973 26.1876L51.4925 26.1925ZM31.8137 37.6047C31.7264 37.1444 31.5907 36.5241 31.4937 35.8989C31.4356 35.5307 31.295 35.3756 30.8926 35.424C30.2623 35.4967 29.6223 35.521 28.9872 35.5452C28.2939 35.5743 28.1146 35.739 28.2212 36.4368C28.3521 37.3188 28.6769 38.1475 29.026 38.9616C29.1278 39.1942 29.3024 39.3153 29.5739 39.3008C30.4126 39.2572 31.0622 38.8114 31.6828 38.3171C31.8525 38.1814 31.8234 37.973 31.8186 37.6096L31.8137 37.6047ZM52.0403 25.5867C52.5009 25.8436 52.9324 26.0519 53.3251 26.3185C53.5675 26.4832 53.7566 26.4784 54.0135 26.3766C55.6764 25.7127 57.3491 25.0634 59.012 24.4092C59.138 24.3607 59.3271 24.3752 59.3368 24.1717C58.3332 24.0796 57.3297 24.0118 56.3358 23.8955C54.6244 23.6968 53.2378 24.2977 52.0403 25.5916V25.5867ZM27.877 30.486C28.4636 30.486 29.0212 30.3212 29.5836 30.2001C29.8454 30.1419 29.9229 30.0014 29.8938 29.7446C29.8163 29.1146 29.7435 28.4846 29.6805 27.8498C29.6466 27.5106 29.5011 27.3797 29.1569 27.433C28.4539 27.5348 27.7412 27.5881 27.0431 27.7432C26.6359 27.8353 26.4274 27.9855 26.5389 28.441C26.6213 28.7754 26.6359 29.1243 26.6843 29.4683C26.8152 30.3552 26.9704 30.4908 27.877 30.486ZM23.9403 19.1997C24.0469 20.1641 24.3718 20.8764 24.5511 21.6227C24.5899 21.7875 24.682 21.8456 24.842 21.8214C25.608 21.71 26.3741 21.5985 27.1352 21.487C27.3291 21.458 27.4164 21.3514 27.3534 21.1624C27.1061 20.4258 27.1449 19.6359 26.9025 18.8993C26.8249 18.6667 26.7377 18.594 26.4953 18.6231C25.8214 18.7055 25.1523 18.783 24.4736 18.8169C24.0712 18.8363 23.8966 18.9817 23.9403 19.1997ZM25.1717 59.1451C25.1717 59.0917 25.1717 59.0384 25.1717 58.9803H16.2511C19.2278 59.5376 22.1998 60.1482 25.1717 59.1451ZM44.5062 30.6168C44.6371 30.801 44.768 30.9464 44.8505 31.1111C45.0347 31.4649 45.2529 31.5182 45.6262 31.3437C46.1789 31.0869 46.7703 30.9076 47.3473 30.6944C47.4976 30.6362 47.8321 30.6217 47.6333 30.3842C47.4394 30.1468 47.5024 29.5507 46.9497 29.73C46.1352 29.9966 45.3401 30.3115 44.5014 30.6168H44.5062ZM42.7464 31.9156C42.9839 31.9883 43.1585 31.8719 43.3475 31.8526C43.6384 31.8186 43.9681 31.8041 44.162 31.6006C44.3899 31.3631 43.9632 31.1305 44.1135 30.7622C43.5512 31.1451 43.1245 31.4843 42.7464 31.9204V31.9156ZM77.3187 20.3919C76.7369 19.9993 76.2909 20.4936 75.7915 20.639C76.3103 20.6099 76.7951 20.3725 77.3187 20.3919ZM32.5652 2.06925C32.124 1.54104 31.6295 1.4732 31.4016 1.89479C31.3725 1.95295 31.3725 2.03048 31.3774 2.09833C31.3774 2.11286 31.4889 2.14678 31.5131 2.1274C31.838 1.86572 32.2016 2.12256 32.5603 2.06925H32.5652ZM31.2562 2.56354C31.295 2.48116 31.324 2.4327 31.3434 2.38424C31.3677 2.3067 31.4113 2.18071 31.2659 2.2437C31.1738 2.28247 31.1447 2.41331 31.261 2.56354H31.2562ZM75.5394 20.7068C75.5055 20.7165 75.4764 20.7311 75.4425 20.7408C75.457 20.7505 75.4764 20.7698 75.4861 20.7698C75.52 20.765 75.554 20.7505 75.5879 20.7408C75.5734 20.7311 75.5588 20.7214 75.5394 20.7068ZM32.8076 2.14678C32.8076 2.14678 32.7785 2.12256 32.7688 2.10802C32.7543 2.13225 32.7397 2.15163 32.73 2.18071C32.73 2.1904 32.7494 2.20494 32.764 2.21463C32.7785 2.1904 32.793 2.17101 32.8076 2.14678ZM19.6496 25.8387C19.6496 25.8387 19.6205 25.8145 19.6108 25.8C19.5963 25.8145 19.5866 25.829 19.5721 25.8436C19.5915 25.8581 19.6108 25.8726 19.6302 25.8823C19.6351 25.8678 19.6448 25.8533 19.6496 25.8387Z" fill="#4C4C4C"/>
<path d="M25.7097 60.6182C25.7049 60.5164 25.7631 60.3032 26.0394 60.3032C26.3449 60.3032 26.3836 60.5697 26.4224 60.7975C26.6406 62.0526 26.8442 63.3126 27.0721 64.5628C27.5908 67.3929 28.4829 70.1357 29.1762 72.9221C29.9374 75.9848 30.2767 79.1201 30.8246 82.2167C30.8682 82.4541 30.8731 82.7255 30.5967 82.803C30.2622 82.8951 30.1749 82.6092 30.1119 82.3621C29.7337 80.9567 29.564 79.5175 29.3701 78.0831C28.9435 74.9526 28.1532 71.9093 27.3145 68.8757C26.597 66.2831 26.117 63.6469 25.7388 60.9865C25.7291 60.909 25.7291 60.8314 25.7097 60.6182Z" fill="#505050"/>
<path d="M90.7483 56.0533C90.7338 56.3053 90.5932 56.4119 90.3604 56.3199C90.2053 56.2569 90.0647 56.1406 89.9338 56.0291C88.2709 54.6286 86.4237 53.5092 84.5378 52.4431C82.4482 51.2607 80.5138 49.8408 78.6618 48.3192C78.08 47.8394 77.4691 47.3936 76.8777 46.9284C76.6207 46.7248 76.3734 46.5068 76.131 46.2839C75.9759 46.1433 75.8838 45.9446 76.0195 45.7702C76.1844 45.5618 76.3977 45.6442 76.5819 45.7847C77.2607 46.2936 77.9685 46.7782 78.6182 47.3209C81.0907 49.3804 83.7184 51.2074 86.5401 52.7532C87.9364 53.5189 89.2017 54.4687 90.3701 55.5493C90.5204 55.6899 90.6901 55.8304 90.7434 56.0582L90.7483 56.0533Z" fill="#505050"/>
<path d="M46.5377 34.954C46.8334 34.9685 47.197 34.8135 47.2407 35.206C47.2794 35.5888 46.9158 35.6276 46.6298 35.6809C44.7681 36.0346 42.887 36.2527 41.0059 36.4805C39.183 36.6985 37.3601 36.9069 35.5372 37.1201C35.4208 37.1347 35.3093 37.1589 35.1929 37.1686C34.9263 37.1928 34.6354 37.1783 34.6063 36.8584C34.5821 36.5725 34.8439 36.5047 35.0863 36.4708C36.7686 36.243 38.4558 36.0153 40.1381 35.7875C42.0919 35.5258 44.0457 35.269 45.9995 35.0121C46.1934 34.9879 46.3825 34.9685 46.5328 34.9491L46.5377 34.954Z" fill="#505050"/>
<path d="M32.5653 2.06925C32.2065 2.12255 31.8429 1.86572 31.5181 2.1274C31.4938 2.14678 31.3823 2.11771 31.3823 2.09833C31.3775 2.03048 31.3726 1.95295 31.4066 1.89479C31.6344 1.47804 32.129 1.54104 32.5701 2.06925H32.5653Z" fill="#E76741"/>
<path d="M31.2513 2.56354C31.135 2.41332 31.164 2.27763 31.2562 2.24371C31.4016 2.18556 31.358 2.31155 31.3337 2.38424C31.3192 2.43755 31.2852 2.48601 31.2465 2.56354H31.2513Z" fill="#505050"/>
<path d="M32.8075 2.1468C32.8075 2.1468 32.7785 2.19526 32.7639 2.21464C32.7542 2.20011 32.73 2.18557 32.73 2.18072C32.7348 2.15649 32.7542 2.13226 32.7688 2.10803C32.7833 2.11772 32.793 2.13226 32.8075 2.1468Z" fill="#505050"/>
<path d="M15.9117 58.8446C15.9359 58.8882 15.9553 58.9318 15.9796 58.9706C15.9165 58.9706 15.8487 58.9803 15.7856 58.9851C15.8293 58.9367 15.8681 58.8931 15.9117 58.8446Z" fill="#FEFEFE"/>
<path d="M19.6496 25.8387C19.6496 25.8387 19.635 25.8678 19.6302 25.8823C19.6108 25.8678 19.5914 25.8532 19.572 25.8435C19.5866 25.829 19.5963 25.8145 19.6108 25.7999C19.6254 25.8145 19.6399 25.8242 19.6496 25.8387Z" fill="#FEFEFE"/>
</g>
<defs>
<clipPath id="clip0_453_10241">
<rect width="91.5385" height="84" fill="white"/>
</clipPath>
</defs>
</svg>
