<svg width="99" height="84" viewBox="0 0 99 84" fill="none" xmlns="http://www.w3.org/2000/svg">
<g clip-path="url(#clip0_453_10346)">
<path d="M33.7589 83.9809C29.971 84.0286 26.7264 83.3465 23.5346 82.3876C21.1648 81.6769 18.8671 80.7705 16.6655 79.6495C14.1467 78.3663 11.6279 77.0497 9.45998 75.2131C8.33997 74.2638 7.09979 73.4529 6.09996 72.37C3.30234 69.3266 1.24499 65.9063 0.54318 61.7657C0.307642 60.3489 0 58.9321 0 57.4963C0.0048069 54.2763 0.740263 51.19 1.92757 48.199C3.28311 44.7787 5.31643 41.7973 7.67662 38.9971C10.0897 36.1349 12.9402 33.7689 15.9878 31.6127C18.1124 30.1101 20.3668 28.8078 22.679 27.6295C25.2699 26.3129 27.9858 25.2634 30.7257 24.2712C34.9702 22.7304 39.3349 21.5283 43.5169 19.8158C47.4826 18.1939 51.2464 16.1999 54.6016 13.519C57.6347 11.0909 60.5621 8.53881 63.7299 6.2777C67.1716 3.821 70.8922 2.06553 75.103 1.40246C78.1218 0.925435 81.0828 1.15918 83.9958 2.0703C86.4858 2.85263 88.9229 3.75899 91.1148 5.20438C93.7634 6.94554 95.5372 9.36407 96.6379 12.293C97.4743 14.5255 97.8974 16.8487 98.1377 19.2147C98.3107 20.9177 98.4309 22.6255 98.3348 24.3332C98.2002 26.6182 98.0319 28.8984 97.6907 31.1643C97.1571 34.6943 96.0611 38.0574 94.8161 41.387C93.5952 44.6594 91.7734 47.5836 89.7304 50.3933C88.3268 52.3205 86.7886 54.1237 85.1543 55.8601C82.9815 58.1689 80.6838 60.3346 78.2467 62.3715C74.8483 65.2051 71.2431 67.7667 67.6427 70.3331C65.7488 71.6831 63.8933 73.0904 61.9081 74.3211C59.9084 75.5614 57.8462 76.6967 55.6831 77.6412C55.1063 77.894 54.5679 78.2327 54.0055 78.519C50.0254 80.5272 45.8867 82.0824 41.498 82.9505C40.5799 83.1318 39.6714 83.3512 38.7532 83.5182C36.9651 83.8426 35.1673 84.0859 33.7637 83.9905L33.7589 83.9809Z" fill="#D3DFC6"/>
<path d="M65.7489 56.1368C66.0373 56.9763 66.3305 57.8159 66.6045 58.6602C66.9795 59.8051 66.8208 60.1533 65.7248 60.7019C65.1769 60.9786 64.6241 61.2362 64.004 61.3268C62.6917 61.5224 61.7784 60.9738 61.1487 59.7192C60.9901 60.5874 61.3025 61.2982 61.3602 62.0328C61.3842 62.3524 61.49 62.6625 61.538 62.9821C61.7111 64.0936 61.2256 64.9046 60.0912 65.4293C59.2596 65.8109 58.4712 65.5772 57.7358 64.6947C56.9186 63.712 56.0918 62.7341 55.4669 61.6131C55.2314 61.1885 54.8757 60.8737 54.4382 60.6447C54.0152 60.4252 53.7268 60.4968 53.5009 60.9357C52.9625 61.9947 52.6405 63.13 52.203 64.2272C51.3234 66.4215 50.4485 68.6301 49.0545 70.5621C47.3625 72.9091 45.0504 74.5358 42.5844 76.0384C40.2002 77.4933 37.5804 78.3281 35.0424 79.3919C33.0475 80.2267 31.0815 81.1378 29.1059 82.0108C28.3368 82.3495 27.5629 82.6834 26.789 83.0173C26.0823 83.3274 25.4046 83.1223 24.7172 82.9267C22.7608 82.3638 20.9726 81.3143 19.0258 80.7801C15.7331 79.8689 13.0652 77.9751 10.4215 75.9764C8.32565 74.3879 6.38846 72.6324 4.58107 70.7338C4.25901 70.3951 4.0475 69.9563 3.79274 69.5556C3.6245 69.2932 3.7687 69.236 4.01386 69.2312C4.83584 69.2074 5.65301 69.2312 6.47979 69.131C10.085 68.6969 13.6805 68.2581 17.2424 67.5091C20.4631 66.827 23.5635 65.8252 26.6111 64.6374C27.8609 64.1508 28.8367 63.2302 29.9134 62.4717C30.3989 62.133 30.8652 61.7657 31.3267 61.3936C31.9564 60.8832 32.4611 60.3108 32.7014 59.4855C33.7974 55.6979 35.326 52.0582 36.5758 48.323C37.1142 46.7202 37.3497 45.0268 38.0227 43.4669C39.0033 41.2058 40.0224 38.9637 41.9403 37.2846C43.2766 36.1159 44.7716 35.2238 46.4155 34.5274C48.8526 33.4922 51.3041 32.5143 53.9239 32.042C55.7794 31.7081 57.6541 31.6747 59.5191 32.0611C61.216 32.4093 62.038 33.5113 62.3696 35.1093C62.6052 36.259 62.5907 37.4086 62.4802 38.563C62.4321 39.0448 62.6052 39.2356 63.1003 39.2833C64.0136 39.3692 64.9269 39.4885 65.8306 39.6459C67.3784 39.9226 68.7003 40.7096 69.9501 41.5969C70.676 42.1121 70.9163 42.8754 70.8009 43.7626C70.6327 45.0554 70.003 45.9951 68.7917 46.5389C67.8928 46.9444 67.4553 47.7649 67.0323 48.5759C66.8352 48.9527 67.0708 49.2675 67.2871 49.5633C68.0898 50.6557 68.9022 51.7386 69.6761 52.8453C70.4452 53.9472 70.3827 55.3401 69.5608 56.4039C69.0849 57.0193 68.5705 57.1576 67.8399 56.8237C67.3015 56.5756 66.7679 56.3085 66.1911 56.1511C66.0421 56.1081 65.9027 56.0414 65.7441 56.1415L65.7489 56.1368Z" fill="#F9B59F"/>
<path d="M78.4007 15.0026C78.4103 14.8022 78.5353 14.7498 78.6459 14.6687C79.814 13.8196 80.7225 12.7796 81.3137 11.4487C81.9578 10.0033 82.8038 8.65333 83.347 7.16023C83.4528 6.87401 83.5297 6.58302 83.6306 6.29204C83.7075 6.0726 83.7989 5.86748 84.0921 5.85794C84.3853 5.85317 84.4959 6.03921 84.5776 6.26341C85.0727 7.61818 85.7793 8.86799 86.7071 9.96039C87.5915 11.0003 88.2693 12.2358 89.5047 12.9514C89.5864 12.9991 89.6777 13.0372 89.7498 13.0992C90.0527 13.3616 90.817 13.2042 90.5285 14.0056C90.3795 14.4254 90.3603 14.8261 89.8988 15.1409C88.077 16.386 86.5292 17.8934 85.6303 19.9637C85.4044 20.4789 85.2842 21.0036 85.1929 21.5474C85.1592 21.7525 85.1112 21.9577 85.0294 22.1485C84.9573 22.3202 84.7843 22.3965 84.6016 22.387C84.4574 22.3822 84.3084 22.263 84.3132 22.1437C84.3517 21.4806 83.8133 21.1038 83.5633 20.5838C83.1596 19.7442 82.7029 18.9285 82.2703 18.0985C81.679 16.9489 80.6455 16.1952 79.7419 15.3222C79.5111 15.098 79.2852 15.1552 79.0064 15.2172C78.7805 15.2697 78.444 15.3747 78.3911 14.993L78.4007 15.0026Z" fill="#FEDD94"/>
<path d="M72.7573 7.89485C73.4063 7.63249 74.0744 7.82807 74.4542 8.35757C74.5792 8.5293 74.6993 8.71057 74.8868 8.80598C76.0933 9.42135 77.1989 10.218 78.3862 10.862C78.8861 11.1339 79.3812 11.3772 79.8331 11.7397C80.1504 11.9973 80.2898 12.3408 80.5157 12.6365C80.7176 12.9037 80.482 13.1851 80.2177 13.1231C79.8523 13.0325 79.6793 13.2423 79.463 13.4045C78.7275 13.9627 77.8671 14.3061 77.0595 14.7975C77.2806 15.0789 77.6171 15.0503 77.8863 15.1028C78.391 15.1934 78.8958 15.327 79.2611 15.6466C80.2321 16.4861 81.4867 16.9966 82.2029 18.1414C82.4144 18.4801 82.6788 18.7568 82.6788 19.2052C82.6788 19.458 82.7605 19.7967 82.9384 19.9446C83.794 20.6792 83.2316 21.3041 82.8182 21.9147C80.5589 25.2444 78.2949 28.5741 76.0116 31.8894C74.7426 33.7307 73.7476 35.7343 72.5747 37.6328C70.9403 40.2756 69.2579 42.8897 67.5418 45.4847C67.1188 46.1239 66.7151 46.8109 66.0517 47.2688C65.9556 47.3356 65.9652 47.4262 65.9363 47.5121C65.7489 48.013 65.6191 48.0464 65.1576 47.7077C64.999 48.7047 64.8356 49.6969 64.7875 50.7034C64.749 51.5239 64.451 51.7243 63.6242 51.5478C61.8072 51.1614 59.9614 50.9801 58.1107 50.8084C56.2312 50.6366 54.3181 50.7607 52.4674 50.2502C51.7464 50.0499 51.5781 49.7303 51.9338 49.0958C52.0252 48.9336 52.1357 48.7619 52.2751 48.6427C53.9864 47.1686 55.1256 45.2701 56.2649 43.3667C56.6542 42.7132 57.1157 42.1026 57.5387 41.4634C58.3078 40.309 59.024 39.1068 58.9952 37.6853C58.9711 36.5786 58.7548 35.429 57.5002 34.9615C56.5004 34.5894 55.1785 34.6848 54.4382 35.7152C52.6453 38.21 50.8427 40.6954 49.2804 43.3476C48.2277 45.1413 46.9154 46.7679 45.7137 48.4614C45.3868 48.9241 44.935 48.8812 44.5312 48.3708C43.3343 46.8395 42.1133 45.3273 40.9933 43.7388C37.7919 39.2118 34.653 34.6323 31.168 30.3152C29.2549 27.9491 27.6061 25.4161 25.8324 22.9642C24.4912 21.1133 22.905 19.4485 21.6696 17.5165C20.9053 16.3144 21.0399 15.575 22.1407 14.6591C23.1934 13.7814 24.4384 13.2233 25.5632 12.4648C26.7889 11.6395 27.8561 10.6235 28.9905 9.68848C30.4758 8.46729 32.1967 7.60864 33.8407 6.6355C34.6338 6.16801 35.3933 5.66236 36.0663 5.02314C36.72 4.403 37.4891 4.07385 38.4265 3.98799C40.0464 3.83534 41.6327 3.47757 43.1709 2.91467C45.084 2.21821 47.0789 1.84136 49.0641 1.4168C49.1747 1.39295 49.2949 1.3691 49.3958 1.3214C50.0688 0.987477 50.6648 0.825287 51.1503 1.66009C51.3474 1.99878 51.8233 2.10849 52.2319 2.08941C53.1548 2.04648 54.0104 2.33747 54.8757 2.58075C55.9813 2.89082 57.0724 3.21997 58.2357 3.26767C58.7212 3.28676 59.2067 3.4728 59.6874 3.60636C60.9564 3.95937 62.2158 4.25512 63.5617 4.32191C64.8067 4.37915 66.0373 4.77509 67.2823 4.99929C68.3975 5.19964 69.4935 5.46201 70.5846 5.74822C70.974 5.8484 71.3537 5.88656 71.7719 5.79593C72.4641 5.64805 72.767 5.94858 72.7573 6.64027C72.7525 7.05051 72.7573 7.46076 72.7573 7.89962V7.89485Z" fill="#BECEA9"/>
<path d="M71.9353 33.2775C72.392 32.562 72.7573 31.9848 73.1274 31.4076C74.0167 30.0242 74.9444 28.6742 76.0452 27.4434C76.2711 27.1906 76.4057 26.8615 76.5884 26.5705C78.093 24.1806 79.5975 21.7859 81.1117 19.4007C81.304 19.0954 81.5155 18.7949 81.7654 18.5325C82.275 17.9983 82.9623 18.1509 83.2315 18.8331C83.6353 19.8539 83.6834 20.7937 83.0393 21.8097C80.8665 25.2253 78.7803 28.7028 76.276 31.8941C74.5647 34.0742 73.2524 36.4784 71.844 38.8349C70.3635 41.3059 68.9887 43.8437 67.4072 46.2575C67.2101 46.558 67.0371 46.8871 66.7054 47.078C66.5035 47.1924 66.5228 47.3976 66.4795 47.5788C66.2199 48.6903 65.9844 49.8113 65.7008 50.918C65.4268 51.9913 64.4173 52.6067 63.3406 52.3205C61.0621 51.7147 58.7788 51.1279 56.4859 50.565C55.8514 50.4076 55.1496 50.2884 54.7699 49.6301C54.6353 49.3963 54.5055 49.5967 54.3997 49.6682C53.9479 49.9878 53.5057 50.3265 53.0538 50.6509C52.6837 50.918 52.2895 51.0516 51.8954 50.7225C51.4868 50.379 51.5589 49.9401 51.7656 49.5203C52.2511 48.5424 52.9817 47.7696 53.8566 47.1257C56.0677 45.5038 58.2405 43.8389 60.4084 42.1693C60.8122 41.8593 60.8362 41.6589 60.4757 41.3488C59.5191 40.5236 58.875 39.455 58.2116 38.4103C57.803 37.7663 57.8799 37.4944 58.5337 37.0794C58.7115 36.9697 58.6539 36.8743 58.6106 36.7551C58.3654 36.0681 58.0001 35.4432 57.6348 34.8183C57.4954 34.5846 57.3896 34.6323 57.1926 34.7802C56.5484 35.2667 55.9524 35.1856 55.4428 34.5369C54.5007 33.33 53.5778 32.1136 52.65 30.9019C52.5347 30.754 52.4145 30.6109 52.2414 30.3963C52.1645 31.0164 52.1309 31.5554 52.0203 32.0754C51.7656 33.2537 51.405 34.4128 50.7994 35.4528C49.7995 37.1701 48.295 38.1241 46.2569 38.3579C44.3197 38.5821 42.469 38.2959 40.628 37.7759C40.4501 37.7234 40.2867 37.5994 40.0511 37.6662C40.0223 37.8951 40.2002 38.0335 40.3155 38.1861C41.3009 39.5027 42.3633 40.7526 43.5121 41.9356C44.2572 42.7036 44.9542 43.5193 45.6512 44.3303C46.3242 45.1126 46.2376 46.2956 45.4878 47.0159C45.1561 47.3355 44.7715 47.3737 44.3677 47.2163C43.5217 46.8919 42.7238 46.4817 42.0845 45.8138C41.5797 45.2891 41.0991 44.7405 40.6712 44.1585C39.3782 42.4031 38.0995 40.6428 36.8113 38.8874C36.4988 38.4628 36.2104 38.0335 36.4796 37.4754C36.5469 37.3323 36.4604 37.2178 36.3787 37.1128C35.2971 35.7247 34.3213 34.2411 33.1196 32.9722C30.3268 30.0289 28.0483 26.7184 25.866 23.3315C25.0969 22.1437 24.3326 20.9654 23.4 19.8921C22.6838 19.0668 22.0733 18.1605 21.5446 17.2064C21.1793 16.5481 21.0831 15.8755 21.559 15.2124C21.684 15.0407 21.8282 14.8403 22.0349 14.8165C22.9386 14.6972 23.525 14.058 24.1691 13.5428C27.4715 10.9239 30.8459 8.40046 34.4319 6.17273C34.8933 5.88652 35.3404 5.62892 35.9124 5.60984C36.321 5.59553 36.5085 5.22822 36.3691 4.84182C36.0278 3.89731 36.22 3.51568 37.2343 3.24378C39.2724 2.69519 41.325 2.19908 43.3487 1.61711C45.4926 1.00174 47.6557 0.505631 49.8428 0.081075C50.9772 -0.138358 51.4002 0.0381424 51.8232 1.10192C52.0347 1.63142 52.3136 1.81269 52.8615 1.92718C55.5246 2.49484 58.1684 3.14837 60.8314 3.73512C62.7782 4.16444 64.725 4.67963 66.7006 4.88953C68.1907 5.04695 69.6569 5.30454 71.1374 5.49535C71.6085 5.5526 72.0411 5.78634 72.5218 5.80542C72.6515 5.81019 72.7669 5.83881 72.9063 5.80542C73.4976 5.67185 73.9542 5.93899 73.8437 6.50665C73.6225 7.66583 74.3051 8.09993 75.1415 8.57219C76.5788 9.37837 77.9728 10.2609 79.3812 11.1148C79.6408 11.2722 79.91 11.4296 80.1407 11.6252C80.4676 11.9018 80.5926 12.2692 80.3282 12.6412C80.0638 13.0181 79.6792 13.0276 79.3091 12.7939C77.7469 11.8208 76.0981 10.9955 74.5887 9.94126C74.3868 9.79815 74.1657 9.67412 73.9734 9.5167C73.6418 9.24957 73.5552 9.36883 73.488 9.73614C72.9736 12.6412 72.4449 15.5463 71.9113 18.4515C71.6373 19.9493 71.0893 21.3852 70.8249 22.8878C70.4452 25.044 70.0318 27.1954 69.6376 29.3468C69.604 29.5424 69.4886 29.757 69.7241 29.9192C70.8682 30.6968 71.5219 31.8083 71.9017 33.268L71.9353 33.2775ZM48.2902 25.2062C48.3094 25.23 48.3238 25.2539 48.3431 25.2777C48.3575 25.2682 48.3719 25.2587 48.3863 25.2443C48.3623 25.2253 48.3334 25.2062 48.3094 25.1871C48.3046 25.1489 48.3094 25.106 48.2902 25.0774C46.4395 22.4823 44.7715 19.7585 42.9016 17.1778C40.8827 14.3967 38.7629 11.6872 36.72 8.92042C36.4267 8.52448 36.2537 8.4577 35.8307 8.75823C34.1194 9.98896 32.3793 11.1768 30.6537 12.3836C28.8174 13.6669 26.986 14.9596 25.1546 16.2524C24.5537 16.6769 24.5681 16.6721 25.044 17.2589C25.5247 17.8504 26.0198 18.4371 26.4428 19.0716C28.9712 22.8497 31.6727 26.5037 34.129 30.3295C34.8357 31.4362 35.6865 32.4332 36.6142 33.4206C36.6911 33.2012 36.5998 33.0628 36.5517 32.9245C36.1864 31.8273 35.9701 30.6968 36.0806 29.5519C36.3018 27.2622 37.2007 25.3779 39.5753 24.5813C42.0172 23.7656 44.4687 23.7226 46.901 24.6671C47.3624 24.8436 47.7806 25.1299 48.2854 25.1919L48.2902 25.2062ZM57.0339 24.0804C57.6348 23.1884 58.3654 22.759 59.2932 22.6398C60.7064 22.4585 61.9418 22.9355 63.1147 23.632C64.725 24.586 66.2151 25.6784 67.1525 27.3814C67.3255 27.1859 67.2919 27.0094 67.3159 26.8424C67.7293 23.88 68.0706 20.9082 68.5705 17.9649C69.1377 14.6257 69.8395 11.3056 70.7096 8.0236C70.8057 7.66106 70.7961 7.51318 70.3587 7.41778C69.9597 7.33191 69.5992 7.48456 69.2194 7.43686C67.5995 7.23174 65.9892 6.99322 64.4077 6.60206C60.6487 5.67185 56.9378 4.56992 53.1692 3.69695C52.7125 3.59201 52.6164 3.6254 52.7318 4.12151C53.8181 8.77731 54.9766 13.414 55.7265 18.1366C56.0341 20.0924 56.5436 22.0005 57.0291 24.0804H57.0339ZM53.3182 22.7399C53.4095 22.5253 53.3278 22.406 53.2942 22.282C51.7319 16.3716 49.9197 10.5232 48.6988 4.52221C48.6219 4.1549 48.4921 4.10243 48.1652 4.20737C45.6416 5.00401 43.0747 5.65277 40.527 6.354C39.3397 6.67838 39.3445 6.69269 40.0704 7.70399C40.1377 7.79463 40.2002 7.89004 40.2675 7.98544C43.3487 12.5601 46.6126 17.0108 49.814 21.4997C49.9197 21.6475 49.9918 21.8527 50.2226 21.8622C51.3137 21.9051 52.328 22.2391 53.3134 22.7352L53.3182 22.7399ZM56.5484 48.0654C57.332 48.4423 58.0914 48.5663 58.8413 48.6998C60.0911 48.9288 61.3073 49.2675 62.5042 49.6873C63.3021 49.9688 63.7972 49.6635 63.9943 48.8334C64.8403 45.3463 65.0086 41.7734 65.3114 38.1384C64.0857 39.269 62.7493 39.1545 61.3169 38.563C61.3698 38.7061 61.3842 38.7777 61.4178 38.8349C61.836 39.6315 62.4513 40.3041 62.9224 41.0578C63.6338 42.1979 63.6338 42.7513 62.6147 43.5289C60.6199 45.041 58.7452 46.7154 56.5436 48.0654H56.5484ZM39.2484 4.35048C39.2388 4.32186 39.2244 4.29801 39.2147 4.26939C38.8494 4.36479 38.4793 4.45543 38.1188 4.55561C38.0082 4.58423 37.8928 4.63193 37.9409 4.78935C37.989 4.94677 38.0851 4.92769 38.2053 4.87044C38.5514 4.69394 38.9023 4.52221 39.2532 4.34571L39.2484 4.35048ZM39.9935 37.6042C39.9935 37.6042 39.9694 37.566 39.955 37.566C39.9406 37.566 39.9262 37.5851 39.9117 37.5994C39.9262 37.6137 39.9358 37.6376 39.9502 37.6376C39.9646 37.6376 39.979 37.6185 39.9935 37.6042Z" fill="#8AAF68"/>
<path d="M57.2019 36.2543H58.644V38.6395H57.2019V36.2543Z" fill="#F9B59F"/>
<path d="M39.2483 4.35049C38.8974 4.52222 38.5465 4.69873 38.2004 4.87523C38.0802 4.93724 37.9841 4.95155 37.936 4.79413C37.8879 4.63671 38.0033 4.58901 38.1139 4.56039C38.4792 4.46021 38.8445 4.36958 39.2098 4.27417C39.2195 4.30279 39.2339 4.32664 39.2435 4.35526L39.2483 4.35049Z" fill="#8AAF68"/>
<path d="M48.3046 25.1919C48.3287 25.211 48.3575 25.2301 48.3815 25.2491C48.3671 25.2587 48.3527 25.2682 48.3383 25.2825C48.319 25.2587 48.3046 25.2348 48.2854 25.211L48.2998 25.1967L48.3046 25.1919Z" fill="#8AAF68"/>
<path d="M39.9982 37.6041C39.9982 37.6041 39.9694 37.6375 39.955 37.6375C39.9405 37.6375 39.9309 37.6137 39.9165 37.5994C39.9309 37.5898 39.9453 37.566 39.9598 37.566C39.9742 37.566 39.9838 37.5898 39.9982 37.6041Z" fill="#8AAF68"/>
<path d="M57.7695 46.2861C57.6301 46.3863 57.5435 46.4435 57.457 46.5055C57.4282 46.4578 57.3609 46.3815 57.3753 46.3624C57.4282 46.2909 57.5003 46.2289 57.5772 46.1907C57.606 46.1764 57.6685 46.2336 57.7695 46.2861Z" fill="#535353"/>
<path d="M56.8513 46.7393C56.8513 46.7393 56.8802 46.7107 56.8898 46.6964C56.9042 46.7202 56.9186 46.7441 56.9234 46.7679C56.9234 46.7774 56.8994 46.7918 56.8898 46.8061C56.8754 46.7822 56.8609 46.7584 56.8513 46.7393Z" fill="#535353"/>
<path d="M58.9374 35.9634C59.495 38.7159 57.9712 40.9245 56.9569 43.2524C56.3417 44.6597 55.3322 45.8379 54.2699 46.9399C52.573 48.7001 51.3377 50.7466 50.8089 53.0936C50.309 55.3022 50.1504 57.5824 49.8043 59.8292C49.5447 61.5274 48.9583 63.1302 48.0353 64.5852C47.122 66.0306 46.151 67.4426 45.1848 68.8546C44.5407 69.7896 43.8341 70.6816 43.19 71.6214C42.9496 71.9696 43.1756 72.4085 43.1707 72.7948C43.1659 73.3577 43.1034 73.9206 43.1179 74.4835C43.1275 74.8365 43.0938 75.2802 42.7333 75.3231C42.4161 75.3613 42.0315 75.1227 41.8537 74.7602C41.6998 74.4454 41.5556 74.1258 41.3057 73.5867C41.1999 74.2879 41.0461 74.7697 41.0701 75.242C41.1134 76.1865 40.5894 76.6254 39.8251 77.0404C37.1669 78.4953 34.1145 78.896 31.4035 80.1936C29.3894 81.1572 27.356 82.0731 25.3275 83.0033C25.1208 83.0987 24.9093 83.2322 24.6978 83.2418C24.419 83.2513 24.0585 83.4898 23.8807 83.0128C23.6788 82.4738 24.1787 82.5882 24.371 82.5024C28.5722 80.6133 32.7013 78.543 37.1189 77.1692C37.7918 76.9593 38.4696 76.7399 39.1137 76.4537C40.1664 75.9862 40.6423 74.8174 40.4068 73.6678C40.2914 73.1097 40.3251 72.5182 40.3299 71.941C40.3299 71.7835 40.3491 71.5498 40.6231 71.5164C40.9067 71.483 41.1182 71.5784 41.2432 71.8217C41.5412 72.3894 41.82 72.9713 42.1132 73.539C42.1613 73.6296 42.243 73.706 42.3103 73.7871C42.3536 73.7155 42.4497 73.6344 42.4353 73.5772C41.6518 70.5003 44.2763 68.9357 45.5454 66.7938C46.848 64.5947 48.4487 62.5435 48.9294 59.958C49.2178 58.422 49.2707 56.8287 49.5495 55.3117C49.8523 53.6612 50.0735 51.9582 50.8233 50.3554C51.8905 48.0657 53.7748 46.4485 55.212 44.4736C56.7358 42.3795 57.7741 40.0325 58.2885 37.509C58.4375 36.7649 58.3509 35.7869 57.2982 35.4292C56.3561 35.1048 55.635 35.2288 54.89 36.0302C51.953 39.1834 50.16 43.095 47.6412 46.5201C46.3145 48.3233 44.7763 49.9452 43.2765 51.6052C42.8246 52.1061 42.493 52.7167 42.0748 53.2557C41.9834 53.375 41.8873 53.7089 41.6037 53.4752C41.421 53.3273 41.3537 53.1937 41.4787 52.9075C42.1132 51.4764 43.238 50.427 44.2715 49.3155C46.8769 46.5058 48.8573 43.262 50.9051 40.0659C51.9385 38.4583 53.0009 36.8793 54.3324 35.4912C55.6975 34.0696 57.0963 33.9695 58.6009 35.2622C58.7115 35.496 58.822 35.7297 58.9374 35.9682V35.9634Z" fill="#4C4C4C"/>
<path d="M67.4361 39.8319C68.782 38.6297 69.8636 37.2607 70.2866 35.467C70.5606 34.3174 70.0799 33.3156 69.6761 32.29C69.4598 31.7462 69.3156 31.1738 69.181 30.6061C69.1185 30.339 69.1041 30.0194 69.4021 29.8429C69.7097 29.6568 69.9645 29.8524 70.1712 30.0337C70.8394 30.6061 71.4402 31.2501 71.8103 32.0563C72.0267 32.5238 72.1324 32.6192 72.4545 32.1088C74.8531 28.3211 77.271 24.5431 79.6937 20.7698C80.3186 19.7966 80.9771 18.8426 81.6116 17.879C81.7895 17.6118 81.9866 17.5832 82.2317 17.7645C82.4288 17.9076 82.4769 18.0412 82.3182 18.2845C79.0928 23.2646 75.877 28.2496 72.6612 33.2393C72.4593 33.5542 72.2862 34.0121 71.8825 33.9453C71.4402 33.8738 71.4594 33.3395 71.3777 32.9865C71.1999 32.2185 70.6855 31.6985 70.0847 31.1881C70.3971 32.0467 70.8057 32.8863 70.998 33.7736C71.4066 35.6912 70.599 37.3036 69.4694 38.7872C69.0175 39.3834 68.5753 39.9797 67.8975 40.3804C67.5322 40.5951 67.4313 40.4902 67.3303 40.1801C67.364 40.0656 67.4024 39.9511 67.4361 39.8319Z" fill="#4C4C4C"/>
<path d="M74.4065 7.82336C74.493 7.86152 74.7526 7.93308 74.9737 8.06665C76.7523 9.15427 78.526 10.2514 80.2998 11.3438C80.5161 11.4774 80.8141 11.5394 80.5834 11.921C80.3622 12.2931 80.1027 12.1691 79.8623 12.0212C78.1174 10.9574 76.3869 9.88412 74.642 8.82035C74.5363 8.75834 74.4401 8.42442 74.2623 8.71063C74.1325 8.92053 74.2815 9.07795 74.4882 9.21151C76.1562 10.3325 77.8098 11.4726 79.4826 12.5793C79.7998 12.7892 80.0113 12.961 79.7422 13.3235C79.4201 13.7576 79.2374 13.3187 79.0355 13.1852C77.2954 12.0355 75.5553 10.8811 73.8345 9.70285C73.5461 9.5025 73.1807 9.25445 73.4163 8.79173C73.6085 8.40534 73.4836 7.75181 74.4017 7.81859L74.4065 7.82336Z" fill="#4C4C4C"/>
<path d="M67.2297 40.1755C66.8403 42.1647 66.4413 44.1491 66.0808 46.1431C66.0424 46.3435 65.7684 46.582 66.0568 46.8062C66.1818 46.6106 66.35 46.4293 66.4269 46.2194C66.6144 45.7186 66.9701 45.6279 67.4604 45.6565C68.2391 45.6947 69.3303 44.3733 69.1572 43.6196C69.0899 43.3334 68.9169 43.529 68.8352 43.6196C68.5275 43.9583 68.2535 44.3256 67.9363 44.65C67.7873 44.8027 67.6623 45.1366 67.3402 44.9076C67.0422 44.6977 67.047 44.4449 67.2008 44.1157C68.3353 41.6686 69.7293 39.3598 71.1521 37.07C74.5987 31.5174 78.3913 26.1938 82.0013 20.7461C82.1839 20.4694 82.4051 20.2118 82.6262 19.9638C82.7367 19.8397 82.6983 19.3818 83.0636 19.7062C83.2799 19.897 83.477 20.0592 83.2126 20.4408C79.0258 26.5181 74.7909 32.5669 70.9118 38.8446C70.2292 39.9513 69.6139 41.1057 68.9698 42.2362C68.9169 42.3269 68.8977 42.4318 68.864 42.532C68.9698 42.5272 69.0755 42.532 69.1765 42.5129C69.7821 42.4127 69.9936 42.6417 69.9215 43.2619C69.811 44.2111 69.388 45.0459 69.0467 45.9094C68.9121 46.2481 68.5564 46.3959 68.2199 46.4532C66.5375 46.7442 65.8886 48.4042 66.9076 49.7733C67.7584 50.9182 68.5564 52.1012 69.3784 53.2652C69.6043 53.5848 69.4024 53.9139 69.3928 54.2335C69.3495 55.5787 68.3208 56.8286 67.446 56.6998C66.475 56.5566 65.6098 56.1655 64.7926 55.6598C64.6676 55.5787 64.5667 55.4165 64.4128 55.5406C64.384 55.5644 64.509 55.7791 64.5667 55.9031C64.9464 56.7856 65.504 57.5823 65.7395 58.5459C65.927 59.2996 65.6434 59.9531 65.1387 60.2298C63.9081 60.9072 62.7497 60.6639 62.1248 59.9102C61.4422 59.0849 61.2211 58.0879 60.8846 57.1195C60.6298 56.3754 60.1059 55.9222 59.3848 55.4738C57.9908 54.6104 56.8131 53.413 55.496 52.416C54.8904 51.9581 54.5443 51.0517 53.3329 51.1805C54.1405 51.7625 54.7942 52.2348 55.448 52.7118C55.746 52.9312 56.0488 53.1841 55.8998 53.5991C55.77 53.9712 55.4047 53.7851 55.1403 53.7994C54.6981 53.828 54.2559 53.828 53.8136 53.7994C53.3522 53.7708 53.0686 53.8519 53.0109 54.4053C52.9484 54.992 53.3233 55.0922 53.7175 55.1351C55.0298 55.2734 56.3421 55.3832 57.6543 55.4786C58.683 55.5549 59.2502 56.1416 59.5819 57.0575C60.1107 58.5172 60.6635 59.9722 61.2066 61.4271C61.5575 62.3621 60.7356 64.4562 59.8463 64.8808C58.9426 65.3197 57.4044 64.213 57.0679 62.9202C56.9237 62.3621 56.8179 61.7992 56.5487 61.2649C55.5681 59.3139 54.7365 59.2089 52.9532 60.4778C51.9534 61.1934 52.2994 62.1665 52.0495 63.0013C51.9534 63.3114 51.8524 63.6835 51.7418 64.0078C51.0112 66.1115 49.9152 68.0053 48.4587 69.7226C47.233 71.168 45.7476 72.332 44.4113 73.6486C44.2431 73.8108 43.9931 74.0541 43.7336 73.744C43.4788 73.4435 43.7095 73.2574 43.921 73.0619C45.7524 71.3398 47.6368 69.6702 49.0115 67.5331C49.8095 66.2928 50.5978 65.0382 50.9872 63.6071C51.1939 62.8391 51.1842 62.0186 51.3188 61.2315C51.6217 59.4474 54.3856 58.3694 55.4768 58.8416C56.6209 59.333 57.3803 60.3204 57.7505 61.5416C57.8995 62.0282 58.0293 62.5243 58.1879 63.0108C58.3946 63.6548 58.8128 64.0412 59.5146 63.8123C60.3318 63.5499 60.3991 62.8773 60.2693 62.157C59.9616 60.4731 59.2743 58.9036 58.7599 57.2817C58.4571 56.3324 57.7505 56.404 57.0487 56.2847C55.6499 56.0462 54.1982 56.3181 52.8282 55.7362C52.1264 55.4356 51.9293 54.868 52.1072 54.3528C52.2802 53.8376 52.2514 52.9074 53.2945 53.0791C53.655 53.1411 54.0299 53.103 54.3472 52.9265C53.804 52.4733 53.2608 52.0201 52.7273 51.5622C52.4725 51.3427 52.4148 51.0231 52.5158 50.7417C52.6023 50.5032 52.9099 50.5318 53.131 50.4507C54.7173 49.8639 55.2749 51.3141 56.1978 51.9867C57.2746 52.769 58.2552 53.6802 59.2791 54.534C59.5627 54.7678 59.8271 54.9061 60.0962 54.4959C60.2501 54.2621 60.4279 54.0236 60.6442 53.8519C61.8027 52.9551 60.8798 52.9217 60.1972 52.7118C58.8609 52.2968 57.539 51.8341 56.2075 51.3904C55.7027 51.2235 55.6066 50.8228 55.7268 50.3887C55.8517 49.9355 56.2988 49.9164 56.6208 50.0261C58.5484 50.6653 60.6106 50.7035 62.543 51.3284C63.0092 51.4811 63.5572 51.4572 64.0619 51.5812C64.4417 51.6766 64.408 51.2378 64.4465 51.0374C64.9224 48.4138 65.379 45.7901 65.8213 43.1617C66.8643 37.0128 67.8305 30.8496 68.9602 24.7197C70.0802 18.6281 71.3588 12.5603 72.5701 6.48293C72.5894 6.3923 72.5894 6.29689 72.5942 6.20149C72.5701 6.17286 72.5413 6.14424 72.5173 6.11562C69.3639 5.59089 66.2202 5.00414 63.0573 4.55574C59.8703 4.10256 56.7218 3.46811 53.5925 2.74303C53.1647 2.64285 53.1695 2.86229 53.0734 3.10557C52.9195 3.48719 53.2128 3.4538 53.4243 3.49673C59.0964 4.60821 64.6436 6.33983 70.407 7.02198C71.3684 7.13646 71.4117 7.67074 71.2146 8.3672C70.508 10.8573 70.0802 13.4094 69.5081 15.9281C68.6045 19.9113 68.2776 23.966 67.7969 28.0065C67.5662 29.9241 66.7346 31.6939 66.3933 33.5829C65.4944 38.5774 65.331 43.6769 64.2398 48.6427C64.1773 48.9385 64.134 49.239 64.0908 49.5348C63.9418 50.4841 63.2496 50.1931 62.692 50.112C60.7548 49.821 58.8849 49.177 56.9141 49.0625C56.6785 49.0482 56.6449 48.9242 56.6305 48.7238C56.616 48.4424 56.7122 48.3041 56.991 48.1848C58.1975 47.6696 59.4473 47.3071 60.7115 46.9731C60.8942 46.9254 61.1778 46.9397 61.1826 46.7251C61.1874 46.2671 61.1105 45.8092 61.0672 45.3465C60.9615 45.3703 60.8461 45.3703 60.7596 45.4228C58.6686 46.6726 56.5872 47.932 54.4962 49.1818C54.1597 49.3821 53.8136 49.5777 53.4483 49.7113C53.3281 49.7542 53.0734 49.6397 52.9772 49.5205C52.7753 49.2676 52.9868 49.0864 53.1743 48.9051C55.5537 46.644 58.1687 44.6834 60.9278 42.9041C62.4516 41.9214 62.4516 41.8785 61.2066 40.5571C60.2933 39.584 59.6588 38.5154 59.5963 37.1463C59.5771 36.7313 59.3319 36.3259 59.1877 35.9156C59.0868 35.6866 58.981 35.4577 58.8801 35.2287C56.7603 29.9861 55.9479 24.3954 54.5443 18.9668C53.0878 13.3378 51.8043 7.67074 50.766 1.95116C50.6939 1.55523 50.6218 1.48367 50.1988 1.59816C46.4158 2.62377 42.628 3.62076 38.8353 4.62252C38.7969 4.65591 38.7584 4.68454 38.7151 4.71793C38.6863 5.30944 38.9603 5.42393 39.4987 5.26174C42.6472 4.30768 45.8053 3.37748 48.949 2.41865C49.5835 2.22784 49.896 2.34709 50.045 3.03402C51.0256 7.66119 51.987 12.2979 53.256 16.8583C53.78 18.7426 54.352 20.6125 54.8904 22.492C54.9625 22.7448 55.0153 23.0501 54.7317 23.2123C54.4674 23.365 54.2174 23.2266 53.9771 23.0883C53.1503 22.6017 52.2706 22.3012 50.9199 22.2917C51.7803 22.6638 52.3139 22.888 52.8378 23.1265C56.0777 24.6148 56.5103 26.9999 56.0921 29.8573C56.0825 29.9289 56.0632 30.0434 56.0104 30.0672C54.7702 30.6492 55.9383 31.0928 56.1642 31.4363C57.0823 32.7911 57.0823 32.6957 55.7027 33.4828C53.4339 34.7707 52.1745 36.9651 50.8285 39.0735C49.3624 41.3633 48.1271 43.8104 46.1658 45.7615C45.7861 46.1431 45.3727 46.1431 45.0458 45.7853C42.8154 43.3811 40.5514 41.0055 38.5854 38.3771C37.7105 37.2084 37.0183 35.9395 36.5424 34.5608C36.4799 34.3748 36.3405 34.1983 36.1915 34.0647C33.6631 31.8132 31.3798 29.3422 29.4378 26.5706C27.4814 23.7705 25.5202 20.9703 23.5638 18.1701C23.5109 18.0938 23.4628 18.008 23.4148 17.9269C22.6264 16.4719 22.6505 16.3193 23.9676 15.3557C27.5103 12.7749 31.0578 10.2038 34.5956 7.61826C35.1821 7.18894 35.6916 7.16032 36.1242 7.77091C37.8163 10.1465 39.5035 12.5317 41.1859 14.9168C42.801 17.2113 44.4017 19.5106 46.012 21.8099C46.1755 22.0436 46.411 22.3155 46.0697 22.5445C45.738 22.7639 45.5506 22.4634 45.3823 22.2249C42.503 18.089 39.6236 13.9532 36.7395 9.82214C36.3934 9.32603 36.0041 8.85377 35.6387 8.3672C35.4609 7.98558 35.2782 8.16685 35.0955 8.36243C31.3942 11.029 27.6929 13.7052 23.982 16.3574C23.7032 16.5578 23.7801 16.7057 23.8666 16.9156C24.3233 17.9984 25.0491 18.9143 25.7317 19.8493C27.9813 22.9452 29.9858 26.2224 32.5431 29.0941C32.644 29.2038 32.7402 29.3088 32.8411 29.4185C33.6294 30.4107 34.4803 31.3504 35.4465 32.1757C35.6051 32.2854 35.7637 32.3951 35.9175 32.5096C35.9175 32.3904 35.9127 32.2663 35.9079 32.1471C35.5378 29.8669 35.9704 27.768 37.3356 25.8789C37.4317 25.7692 37.5278 25.6595 37.624 25.5498C39.143 23.9613 41.1186 23.4604 43.2144 23.2314H44.022C45.8822 23.3221 47.6079 23.7943 49.0932 24.963C49.2038 25.0584 49.3144 25.1586 49.4249 25.254C51.5207 27.248 52.0206 29.6331 51.2179 32.3522C50.3623 35.2335 48.6462 37.2608 45.5506 37.8428C43.599 38.2101 41.8637 37.4039 40.1476 36.6598C39.5035 36.3783 38.9026 35.9919 38.2825 35.6532C38.172 35.596 38.0662 35.5435 37.9557 35.4863C37.8403 35.7105 38.0278 35.8393 38.1191 36.0015C39.2872 38.3151 41.109 40.1373 42.7866 42.0645C43.6278 43.0281 44.5411 43.9297 45.3871 44.8933C45.6996 45.2511 45.839 44.9935 46.0024 44.8074C47.5935 42.9852 48.752 40.8719 50.021 38.835C51.1746 36.9842 52.3475 35.1619 54.0203 33.7117C54.2078 33.5495 54.376 33.311 54.5971 33.2443C56.2171 32.7672 55.6018 32.0946 54.9288 31.1692C49.2278 23.3698 43.5749 15.5322 37.9076 7.70413C37.4269 7.04106 36.927 6.3923 36.4319 5.73877C36.3069 5.30467 36.1915 5.63382 36.0714 5.73877C31.7355 8.47214 27.4189 11.2294 23.3331 14.3205C22.713 14.7928 22.064 15.2269 21.4247 15.6753C21.2709 15.7564 21.0594 15.8184 21.2613 16.0521C24.0445 20.7079 27.2122 25.0918 30.5626 29.366C33.2737 32.8245 35.8406 36.3974 38.4892 39.9036C39.4314 41.1534 40.5081 42.303 41.3926 43.591C42.2098 44.7788 43.2144 45.8521 43.7239 47.2355C43.9258 47.7793 43.5269 47.9701 43.1856 48.1419C42.8779 48.2993 42.5895 48.3851 42.2626 47.9844C41.1234 46.5724 40.0659 45.108 39.0276 43.6196C38.917 43.4622 38.7296 43.3 38.5565 43.2666C38.4556 43.2475 38.2441 43.4717 38.1912 43.6244C37.6769 45.0889 37.0904 46.5343 36.7587 48.0608C36.0858 51.1233 35.3647 54.162 34.1774 57.0957C31.9614 62.5768 27.6785 65.458 22.1506 66.8891C20.372 67.3518 18.6079 67.8956 16.8053 68.2582C15.5603 68.511 14.2576 68.4538 12.9982 68.6493C11.2533 68.9212 9.48918 68.9117 7.73947 69.0643C6.69157 69.155 5.64847 69.3029 4.60057 69.4174C4.23524 69.4603 3.79781 69.4794 3.7161 69.0357C3.63919 68.6159 4.04297 68.6493 4.34099 68.6207C8.16248 68.2439 11.9792 67.8479 15.8055 67.4902C17.7138 67.3137 19.5164 66.7078 21.3382 66.1974C23.9195 65.4771 26.4335 64.566 28.6543 63.0061C30.9712 61.3794 32.2643 59.0229 33.4179 56.5614C35.2061 52.7452 35.4368 48.4805 36.8789 44.5641C37.1625 43.7866 37.4365 42.9947 37.8451 42.2792C38.1143 41.8069 38.5902 41.8451 38.9459 42.3269C40.1043 43.9106 41.2628 45.4991 42.4357 47.0733C42.5511 47.226 42.6905 47.5742 42.926 47.4168C43.099 47.2975 42.8298 47.0685 42.7289 46.9064C40.9167 43.9488 38.6142 41.3537 36.5184 38.6013C33.8794 35.1333 31.3702 31.5651 28.6303 28.1782C25.775 24.6434 23.285 20.8749 20.8142 17.0825C19.9971 15.8327 20.0307 15.6705 21.2661 14.7594C25.823 11.3916 30.5434 8.26702 35.2638 5.13771C36.355 4.41263 36.653 4.55574 37.3548 5.54319C41.2147 10.9765 45.1756 16.3431 49.1077 21.724C49.175 21.8194 49.175 22.0722 49.4153 21.9387C50.8285 21.1373 52.1937 21.6334 53.5589 22.0865C53.6983 22.1342 53.8425 22.1581 53.9867 22.1915C53.9771 22.0627 53.9867 21.9196 53.9482 21.8003C53.0445 18.9668 52.1312 16.138 51.4967 13.2281C50.9006 10.49 50.0979 7.79476 49.6893 5.01369C49.6124 4.48895 49.473 3.97376 49.3384 3.45857C49.223 3.01016 48.8962 3.22483 48.651 3.29638C45.464 4.23136 42.2771 5.17587 39.0901 6.12039C38.2104 6.38276 38.1575 5.59566 37.9268 5.15202C37.6913 4.70362 37.6096 4.12164 38.3258 3.9356C40.8686 3.26776 43.4163 2.63331 45.9591 1.97024C47.3339 1.61247 48.6991 1.23562 50.0642 0.849223C50.766 0.653642 51.2515 0.45329 51.4438 1.56954C52.5302 7.87586 54.0443 14.0963 55.5826 20.3072C56.6257 24.5146 57.5822 28.7411 58.6686 32.939C59.0531 34.4321 60.1299 35.72 60.2789 37.2847C60.3991 38.4916 61.1057 39.2882 61.8171 40.1278C61.9661 40.3043 62.144 40.4522 62.2978 40.6191C63.4899 41.8832 63.4659 42.0884 62.0623 43.0377C60.6827 43.9726 59.3079 44.9124 57.9379 45.8569C57.8178 45.9428 57.539 46.0191 57.6832 46.2099C57.8178 46.3959 57.986 46.1622 58.1158 46.0906C58.9858 45.6088 59.8415 45.1032 60.7211 44.6357C61.3268 44.3113 61.7594 44.4163 61.8219 45.1986C61.8604 45.6899 61.9229 46.1813 61.9661 46.6774C62.0094 47.1735 61.7546 47.4597 61.2883 47.5933C60.4423 47.8366 59.6011 48.0798 58.3754 48.4328C59.8703 48.7238 61.0144 48.8956 62.1296 49.1866C63.0861 49.4394 63.3409 49.2056 63.5668 48.1991C64.4513 44.2302 64.5619 40.1755 65.1723 35.9633C64.6195 36.8077 64.0619 37.3515 63.2832 37.6568C62.5141 37.9573 61.8604 37.8428 61.2883 37.2513C60.6394 36.5739 60.2164 35.763 59.9136 34.8995C58.8849 31.9658 58.0389 28.9844 57.5245 25.9171C57.116 23.4652 58.7263 22.0961 61.072 22.9213C62.0959 23.2839 63.1054 23.7514 64.0187 24.3286C65.8885 25.5021 66.9413 27.1574 66.6192 29.4805C67.0999 28.078 67.2537 26.6422 67.3739 25.2159C67.845 19.4915 69.0371 13.896 70.4791 8.34812C70.5753 7.97126 70.5849 7.80907 70.1042 7.74706C64.3311 7.01244 58.7551 5.34283 53.0734 4.1598C52.5734 4.05486 52.0062 3.91652 52.2177 3.23914C52.4196 2.59992 52.4052 1.6554 53.5829 1.96547C59.0387 3.39656 64.658 3.94514 70.1763 5.04708C71.0271 5.21404 71.8828 5.37146 72.7384 5.50502C73.3537 5.60043 73.4835 6.01545 73.3825 6.49724C72.4067 11.382 71.3732 16.2525 70.4359 21.1468C69.4457 26.3273 68.5083 31.5174 67.7584 36.7409C67.6094 37.7665 67.4268 38.7873 67.2585 39.8129C67.2393 39.9322 67.2153 40.0467 67.196 40.1659L67.2297 40.1755ZM43.099 24.1473C41.4455 24.2189 39.3304 24.6864 37.8932 26.6613C36.528 28.5455 36.4511 30.6349 36.9029 32.8292C37.225 34.3939 38.6286 34.7612 39.7246 35.4434C40.4456 35.8965 41.2676 36.2066 42.0704 36.5071C43.0942 36.8887 44.1517 37.237 45.2669 37.0557C49.223 36.4165 51.9582 31.2312 50.1411 27.7012C48.8289 25.1491 46.5264 24.1569 43.0942 24.1521L43.099 24.1473ZM65.9174 29.0941C66.2058 27.3673 65.2156 25.9409 63.5236 24.944C62.6727 24.4431 61.7498 24.0376 60.8173 23.7037C59.1252 23.0978 58.111 23.7848 58.3561 25.5307C58.8513 29.0512 59.6925 32.5096 61.2018 35.7534C62.0238 37.5184 63.2159 37.466 64.36 35.8584C65.7492 33.9025 65.8645 31.6844 65.9174 29.0941ZM60.2981 55.4118C60.8894 55.2305 61.0144 55.5644 61.173 55.865C61.5431 56.5757 61.87 57.296 62.0478 58.0831C62.1824 58.6699 62.466 59.1851 62.9227 59.5905C63.4515 60.0676 64.0187 59.9388 64.5763 59.6716C65.1243 59.4045 65.0281 58.937 64.8935 58.4838C64.5138 57.172 63.8841 55.989 63.0188 54.9252C62.716 54.5579 62.2882 54.0522 62.7593 53.6181C63.2351 53.1793 63.6485 53.7231 63.9658 54.0236C64.8983 54.9109 65.9366 55.593 67.2008 55.8983C67.4604 55.9604 67.7248 56.0224 67.9651 55.8268C68.6766 55.2496 68.8688 53.8376 68.3401 53.0934C67.3691 51.7196 66.3356 50.3791 65.5857 48.7763C65.4319 49.7638 65.2637 50.694 65.1435 51.6337C65.081 52.1394 64.9128 52.4113 64.3407 52.3063C63.663 52.1823 62.9756 52.1298 62.3026 51.9963C60.8557 51.7148 59.4185 51.4 57.9764 51.0994C59.2358 51.648 60.5289 52.0392 61.8363 52.3779C62.543 52.5639 62.5766 52.9026 62.1536 53.3844C61.5912 54.0284 60.9999 54.6485 60.2981 55.4118ZM49.7085 22.5683C51.6121 25.2254 53.4867 27.8347 55.2749 30.3248C56.6064 25.5784 53.5444 23.8182 49.7085 22.5683ZM57.7697 46.291C57.6688 46.2385 57.6063 46.1813 57.5774 46.1956C57.5005 46.2337 57.4284 46.2958 57.3755 46.3673C57.3611 46.3864 57.4284 46.4627 57.4572 46.5104C57.5438 46.4484 57.6303 46.3912 57.7697 46.291ZM51.1025 22.2821L51.1362 22.3012V22.2726L51.1025 22.2821ZM56.8516 46.7442C56.8516 46.7442 56.8756 46.7871 56.89 46.8109C56.9045 46.7966 56.9285 46.7823 56.9237 46.7728C56.9189 46.7489 56.8997 46.7251 56.89 46.7012C56.8804 46.7155 56.866 46.7251 56.8516 46.7442Z" fill="#4C4C4C"/>
<path d="M90.9562 14.3299C90.9225 14.6066 90.7543 14.6639 90.5524 14.7068C89.4564 14.9501 88.471 15.408 87.5192 16.0091C85.8993 17.0299 85.1013 18.5039 84.7649 20.3023C84.6062 21.1419 84.3851 21.9719 84.3707 22.8401C84.3659 23.1216 84.3082 23.4698 83.9237 23.4555C83.5583 23.4364 83.5199 23.093 83.4862 22.8115C83.3276 21.4186 82.943 20.0781 82.3614 18.8188C81.3712 16.6674 79.4484 15.7467 77.2613 15.2458C77.0306 15.1934 76.8094 15.1838 76.6556 14.9835C76.4201 14.6782 76.5258 14.3443 76.9104 14.3299C78.314 14.2775 79.2225 13.4379 80.0781 12.4695C81.5346 10.819 82.1739 8.82503 82.5489 6.72134C82.6114 6.35879 82.7604 6.03441 82.8469 5.68618C82.9094 5.44767 82.9815 5.22823 83.2747 5.24255C83.5487 5.25686 83.6064 5.49537 83.717 5.70526C84.2169 6.65455 84.3563 7.71833 84.7408 8.70577C85.4042 10.4183 86.404 11.8685 87.8365 13.0277C88.5142 13.5715 89.2545 13.9197 90.1534 13.9006C90.5043 13.8911 90.836 13.9865 90.9706 14.3395L90.9562 14.3299ZM83.3276 7.02663C82.6787 10.1846 81.4 12.9227 78.5736 14.7259C79.8426 15.2458 81.0347 15.8469 82.0105 16.7962C83.0151 17.7741 83.3757 19.0859 83.8467 20.3548C84.1832 19.0668 84.4861 17.7979 85.3705 16.7676C86.255 15.7419 87.4231 15.098 88.6152 14.4301C85.6493 12.7605 84.1784 10.1273 83.3228 7.02186L83.3276 7.02663Z" fill="#4C4C4C"/>
</g>
<defs>
<clipPath id="clip0_453_10346">
<rect width="98.3684" height="84" fill="white"/>
</clipPath>
</defs>
</svg>
