<svg width="141" height="84" viewBox="0 0 141 84" fill="none" xmlns="http://www.w3.org/2000/svg">
<g clip-path="url(#clip0_453_10148)">
<path d="M140.03 41.2947C140.006 45.6955 139.441 50.4325 137.886 55.0195C137.016 57.5831 135.658 59.8706 134.127 62.068C132.507 64.3975 130.773 66.655 128.688 68.5822C126.389 70.7076 124.03 72.7909 121.242 74.2919C119.181 75.4026 116.912 75.7928 114.666 76.2852C113.194 76.6034 111.723 76.6874 110.222 76.7295C106.904 76.8255 103.628 76.4593 100.345 76.015C98.0044 75.6968 95.6633 75.3666 93.2985 75.2465C91.4042 75.1504 89.4979 75.1504 87.6215 74.9343C85.5902 74.7061 83.5828 74.8983 81.5812 75.0244C78.8292 75.1985 76.0771 75.4806 73.3488 75.961C70.7457 76.4172 68.1068 76.7114 65.5394 77.3659C62.549 78.1223 59.6063 79.0289 56.6874 80.0316C52.2674 81.5506 47.764 82.7813 43.1831 83.7119C42.6768 83.814 42.1526 83.874 41.6343 83.8921C40.5919 83.9401 39.5435 84.0001 38.507 84.0001C36.8331 84.0001 35.1413 83.9821 33.4734 83.736C32.2105 83.5498 30.9596 83.3037 29.6967 83.1115C27.9156 82.8414 26.2954 82.0729 24.6751 81.3524C21.1129 79.7614 17.6221 78.0203 14.4471 75.7088C11.695 73.7095 9.35992 71.29 7.33457 68.5462C5.05904 65.4602 3.40898 62.056 2.19974 58.4357C1.48491 56.2863 1.02027 54.0769 0.79391 51.8074C0.692643 50.6607 0.686686 49.52 0.692643 48.3732C0.728384 45.2332 1.27642 42.1652 2.09251 39.1453C2.91456 36.0953 3.93915 33.1114 5.32115 30.2776C6.48274 27.8941 7.85282 25.6246 9.35992 23.4392C11.004 21.0557 12.8804 18.8703 14.9892 16.895C17.6877 14.3674 20.7435 12.3921 24.127 10.8971C27.2723 9.50423 30.5486 8.57364 33.9142 7.96725C35.7251 7.64304 37.5539 7.42089 39.4005 7.30082C40.9195 7.19875 42.4385 7.17474 43.9575 7.20475C46.2509 7.24678 48.5443 7.49894 50.8318 7.583C53.1728 7.67306 55.5079 7.88319 57.8728 7.66705C59.7552 7.49294 61.6495 7.39087 63.5259 7.16273C65.7598 6.89255 67.9459 6.35821 70.1142 5.76983C75.7614 4.25086 81.3489 2.47972 87.0973 1.33298C89.2239 0.906706 91.3803 0.606513 93.5486 0.402382C95.9552 0.174235 98.3678 -0.0479079 100.78 0.00612686C106.523 0.132208 112.17 0.858675 117.489 3.21219C120.605 4.59308 123.506 6.36421 126.091 8.63367C129.052 11.2273 131.512 14.2353 133.561 17.5974C134.878 19.7468 135.777 22.0883 136.682 24.4298C137.701 27.0535 138.583 29.7312 139.214 32.481C139.578 34.066 139.637 35.6871 139.875 37.2841C140.054 38.4789 139.983 39.6736 140.024 41.2887L140.03 41.2947Z" fill="#D3DFC6"/>
<path d="M43.7131 32.1627C43.6834 32.7751 43.1472 33.4235 43.874 33.9098C44.0408 34.0179 43.9455 34.258 43.8859 34.4501C43.6297 35.2427 43.4451 36.0652 43.1294 36.8337C42.7064 37.8663 42.7958 38.833 43.2485 39.8176C43.5702 40.514 43.8621 41.2165 44.1599 41.925C44.2969 42.2492 44.4458 42.3632 44.8092 42.1891C46.078 41.5827 47.4124 41.1565 48.7765 40.8142C49.4615 40.6401 50.0811 40.3639 50.6648 39.8896C51.5584 39.1632 52.6723 38.7849 53.8041 38.5988C54.5904 38.4667 55.4125 38.6408 55.7937 39.4093C56.2941 40.412 57.1817 40.6521 58.0812 40.6761C58.9687 40.7002 59.8801 40.8142 60.7796 40.6161C61.1668 40.5321 61.4111 40.7902 61.4289 41.1925C61.4647 42.051 61.0358 42.6574 60.3388 43.0777C58.4564 44.1944 56.5264 45.2331 54.6798 46.4158C51.8443 48.229 49.128 50.1983 46.5963 52.4197C43.3796 55.2535 39.7339 57.2108 35.4986 57.9553C34.8969 58.0633 34.2893 58.2134 33.6639 58.1414C33.4494 58.1174 33.2469 58.1414 33.0563 58.2915C29.2915 61.1733 25.4195 63.9231 22.0777 67.3213C19.8022 69.6388 17.9436 72.2565 16.4008 75.1143C16.24 75.4085 16.097 75.7207 15.8826 75.9728C15.5549 76.3631 15.2094 76.5312 14.6554 76.213C11.1111 74.1597 8.58536 71.1277 6.44088 67.6995C4.54659 64.6676 3.09311 61.4135 1.67537 58.1414C1.46688 57.6551 1.30009 57.1628 1.52645 56.6164C1.68133 56.2382 1.83025 55.9019 2.32467 55.974C2.5689 56.01 2.72378 55.8539 2.87866 55.7038C3.87942 54.7012 5.04697 53.9087 6.25026 53.1822C6.95317 52.7619 7.54291 52.2096 8.15051 51.6752C8.90108 51.0148 9.58612 50.2703 10.3486 49.6279C11.5221 48.6373 11.9153 47.1903 12.5527 45.9055C14.6137 41.7448 16.0434 37.314 17.8364 33.0332C18.4023 31.6824 19.0695 30.3855 19.8618 29.1607C21.0174 27.3776 22.2564 25.6425 23.3465 23.8173C24.6273 21.6679 26.6764 20.8454 28.9103 20.3111C29.9229 20.0709 30.9594 19.9748 31.9245 19.4945C32.5797 19.1703 33.3124 19.0142 34.0332 18.8521C34.6587 18.708 35.2544 18.6 35.7905 18.0776C36.3445 17.5433 37.2142 17.5493 37.9647 17.7954C38.8702 18.0896 39.7637 18.3838 40.693 18.606C41.5806 18.8161 42.4026 19.2604 43.0996 19.8307C43.9276 20.5092 44.9522 20.6713 45.8755 21.0856C46.2865 21.2717 46.6797 21.0375 47.0252 20.8514C50.498 18.9782 54.233 18.7861 58.0454 19.1163C59.0819 19.2063 60.1184 19.3144 61.1609 19.4165C61.8936 19.4885 62.1378 19.8007 61.9293 20.5152C61.4587 22.0762 60.446 23.2169 59.1296 24.1175C58.796 24.3456 58.4088 24.3396 58.0275 24.3216C54.9061 24.1895 52.1243 25.3663 49.3841 26.6511C48.4012 27.1134 48.02 28.056 47.9842 29.1367C47.9366 30.4696 47.6209 31.7844 47.6864 33.1353C47.7102 33.6696 46.9358 33.9999 46.0899 33.9218C45.1785 33.8378 44.5888 33.2734 44.0467 32.619C43.9276 32.4749 43.8204 32.3188 43.7072 32.1687L43.7131 32.1627Z" fill="#F9B59F"/>
<path d="M111.187 57.1868C110.478 56.8806 109.733 57.0607 109.007 57.0067C105.212 56.7125 101.596 55.8239 98.4034 53.6505C96.3959 52.2816 94.5791 50.6546 92.7563 49.0516C91.5113 47.9589 90.1293 47.0703 88.6698 46.3138C86.3169 45.101 84.0116 43.8102 81.9326 42.1531C81.6645 41.937 81.2893 41.907 81.1105 41.5167C80.6638 40.5501 80.9616 39.6195 81.9683 39.2352C84.1009 38.4187 86.3109 37.8604 88.5507 37.4341C89.1464 37.32 89.7183 37.4701 90.2901 37.6923C92.238 38.4487 94.0668 39.5234 96.1457 39.9197C97.2001 40.1178 98.2724 40.0818 99.3386 39.8897C99.5769 39.8476 99.7377 39.8056 99.6782 39.4874C99.3267 37.5842 98.9991 35.675 97.7243 34.1019C97.2895 33.5676 96.9201 33.2554 96.1815 33.5616C95.419 33.8798 94.591 34.0419 93.7987 34.2881C92.9588 34.5462 92.4823 34.162 92.7444 33.3274C93.0601 32.3368 93.1911 31.3282 93.3817 30.3195C93.6379 28.9686 93.5307 28.8065 92.238 28.3442C90.3973 27.6778 88.4733 27.3476 86.5671 26.9934C85.7629 26.8433 84.8753 26.9994 84.0235 26.9213C83.1955 26.8493 82.3615 26.8313 81.5335 26.7652C80.8663 26.7112 80.0979 25.9847 79.9966 25.3483C79.8298 24.3157 80.0502 23.8233 80.9318 23.4211C82.987 22.4725 84.8932 21.2477 86.9423 20.2871C88.0146 19.7827 89.0273 19.7767 90.1174 20.125C91.6304 20.6113 93.1613 21.0556 94.6803 21.5239C95.0199 21.6319 95.3058 21.6259 95.6037 21.3798C97.4324 19.8668 99.5948 19.8788 101.775 20.0829C102.418 20.143 102.949 20.113 103.508 19.7287C105.766 18.1917 108.119 18.5099 110.418 19.6086C111.24 19.9989 111.985 20.0169 112.861 19.9328C114.463 19.7767 116.119 19.6807 117.495 20.7914C118.186 21.3497 118.657 22.1242 119.116 22.8747C121.415 26.6211 123.708 30.3735 125.966 34.15C127.413 36.5695 128.349 39.2352 128.903 41.973C129.302 43.9363 130.231 45.4673 131.577 46.8301C133.656 48.9375 135.872 50.9007 138.195 52.7199C138.755 53.1582 138.797 53.6205 138.69 54.1488C137.951 57.8052 136.462 61.1073 134.038 63.9471C131.905 66.4447 129.403 68.5521 126.979 70.7375C126.77 70.9296 126.52 71.0737 126.288 71.2418C125.847 71.56 125.466 71.482 125.078 71.1217C123.226 69.4347 121.403 67.7176 119.503 66.0965C116.995 63.9651 114.731 61.5636 112.206 59.4502C112.003 59.2821 111.783 59.138 111.562 58.9999C110.502 58.3575 110.466 58.1954 111.175 57.1868H111.187Z" fill="#F9B59F"/>
<path d="M65.4976 41.0063C62.5072 40.7542 59.1594 40.5741 55.8712 39.8716C54.8467 39.6555 54.5429 39.2652 54.5965 38.2145C54.6382 37.308 54.7692 36.4014 54.8586 35.5008C54.8943 35.1346 55.1505 34.9965 55.4602 34.8764C56.3657 34.5162 57.3605 34.4561 58.254 34.0239C58.5876 33.8617 58.6174 33.7297 58.6412 33.3094C58.7246 31.7004 57.7834 31.214 56.4908 30.8538C55.1981 30.4936 55.2279 30.4215 55.3053 29.0346C55.3292 28.6324 55.3411 28.2181 55.2815 27.8159C55.1683 27.0234 55.3589 26.6391 56.1631 26.6391C57.152 26.6391 58.0634 26.2669 59.0284 26.1828C59.5109 26.1408 59.63 25.9607 59.4096 25.4804C58.8139 24.1895 59.2726 22.9407 60.5653 22.2323C61.5958 21.6739 62.9897 22.1542 63.6926 23.319C64.0084 23.8413 64.2228 24.4057 64.2288 25.0121C64.2288 25.5104 64.467 25.6124 64.8959 25.6064C65.6108 25.5944 66.3256 25.6064 67.0404 25.6305C67.9518 25.6545 68.2914 25.9487 68.4165 26.8372C68.5535 27.8099 68.6845 28.7825 68.8096 29.7551C68.9526 30.8958 68.5058 31.4602 67.3502 31.5803C66.9272 31.6223 66.4924 31.6043 66.0694 31.6643C65.712 31.7184 65.3546 31.8685 65.2891 32.2887C65.2116 32.7751 65.6227 32.8831 65.9443 33.0032C66.3911 33.1713 66.8677 33.2073 67.3442 33.2494C68.5713 33.3514 68.9109 33.6996 68.8573 34.9064C68.8036 36.1732 68.756 37.4461 68.5713 38.7009C68.2854 40.7001 67.8327 41.0364 65.5035 41.0063H65.4976Z" fill="#EA7C5B"/>
<path d="M89.1702 32.4688C89.2238 33.9998 89.4681 35.5248 89.2119 37.0618C88.8664 39.1211 87.9252 39.2652 86.2216 39.7395C85.7629 39.8656 85.602 39.2652 85.0778 39.3913C84.3332 39.5714 83.535 39.6855 82.7725 39.3072C82.6295 39.2352 82.3972 39.3072 82.2126 39.3493C81.742 39.4573 81.2178 39.8836 80.9259 39.0671C80.9021 38.995 80.5744 39.007 80.3838 39.013C79.1746 39.0551 77.9594 39.0971 76.7501 39.1451C75.6481 39.1932 75.0405 38.6228 75.2787 37.5541C75.4872 36.5995 75.2251 35.6989 75.2609 34.7803C75.2787 34.342 75.0822 34.1559 74.6533 34.246C74.284 34.324 73.9087 34.4021 73.5453 34.4921C72.7352 34.6963 72.1156 34.4501 71.7225 33.7537C71.4068 33.1893 71.52 32.5889 72.0978 32.0065C72.6577 31.4422 73.3308 31.112 74.135 31.13C74.7724 31.142 75.112 30.8538 75.1656 30.2114C75.2311 29.4009 75.2788 28.5843 75.3741 27.7798C75.4932 26.7652 75.6302 26.6571 76.6131 26.5971C77.1135 26.567 77.6079 26.537 78.1083 26.501C78.2929 26.489 78.4716 26.495 78.6503 26.3749C79.2937 25.9486 79.5022 26.0267 79.7822 26.7532C79.9728 27.2455 80.1396 27.7438 80.3361 28.2301C80.5744 28.8185 81.0093 29.2147 81.6109 29.3949C82.1709 29.563 82.6772 29.4729 82.8976 28.8545C83.2252 27.9539 83.8567 27.5397 84.7919 27.5036C85.3935 27.4796 85.9654 27.2995 86.5015 27.0413C87.812 26.4229 89.069 27.3115 89.1523 28.6684C89.2298 29.9352 89.1702 31.208 89.1702 32.4748V32.4688ZM79.2937 28.4823C79.5558 29.9772 80.0204 30.4215 81.0927 30.2654C80.2408 29.9472 79.7405 29.3708 79.2937 28.4823Z" fill="#A8BE8D"/>
<path d="M79.2937 28.4823C79.7405 29.3769 80.2408 29.9472 81.0927 30.2654C80.0264 30.4155 79.5558 29.9713 79.2937 28.4823Z" fill="#FEFEFE"/>
<path d="M43.4153 41.3186C42.3431 40.376 41.9559 39.2532 42.2418 37.8003C42.4384 36.8157 42.7065 35.9091 43.1651 35.0145C43.5523 34.258 43.2545 33.3815 43.0698 32.601C42.9626 32.1567 43.0817 31.9405 43.326 31.6824C43.9336 31.3101 44.1063 31.7724 44.3208 32.1867C45.1845 33.8318 45.3751 33.9218 46.8703 33.6757C47.3588 33.5976 47.5554 33.3935 47.5852 32.8892C47.7281 30.3255 47.8175 27.7619 47.3767 25.2222C47.0788 23.5051 46.3104 21.9861 44.7258 21.1696C43.2485 20.4071 41.7593 19.6807 40.3535 18.7741C39.2098 18.0356 37.929 17.7534 36.4339 18.2397C37.3691 18.2397 38.1792 18.3058 38.8523 18.7261C41.0802 20.131 42.9269 21.8901 43.5702 24.5858C43.9574 26.2129 44.1599 27.8819 44.3029 29.551C44.4101 30.7938 44.2969 30.9559 43.1294 31.3942C42.1286 31.5743 41.116 31.7124 40.2403 31.022C39.5612 30.4876 39.1502 29.7251 38.8762 28.9206C38.4532 27.6838 37.8635 26.5671 37.0236 25.5765C36.6126 25.0901 36.005 24.94 35.4867 24.6399C35.2067 24.4778 35.1472 24.6579 35.1114 24.928C35.0102 25.6785 35.0638 26.453 34.8434 27.1855C34.7838 27.3896 34.7123 27.5877 34.611 27.7739C33.8962 29.1127 32.8538 29.2748 31.7815 28.2182C31.3109 27.7559 30.9356 27.2095 30.5246 26.6932C29.917 25.9247 28.9758 25.5404 28.0704 25.1862C27.6832 25.0301 27.2662 25.0121 26.8433 25.0121C26.5216 25.0121 26.0986 24.934 26.1225 24.4297C26.1463 23.9674 26.5156 24.0215 26.8135 24.0275C28.9401 24.0935 30.5604 25.1142 31.8411 26.7712C32.1985 27.2275 32.538 27.8759 33.2112 27.7378C33.9081 27.5998 33.8724 26.8313 33.9737 26.2969C34.1941 25.1022 34.1702 23.9134 33.7473 22.7366C33.5745 22.2623 33.3363 21.8541 32.9014 21.716C31.3824 21.2357 29.8694 20.6893 28.2431 20.6833C26.9564 20.6773 25.9676 21.3557 25.0443 22.1603C23.8291 23.2229 22.9832 24.5678 22.1373 25.9247C20.7077 28.2182 19.2244 30.4876 18.17 32.9972C17.062 35.6329 16.0613 38.3166 14.9533 40.9523C13.8811 43.504 12.9339 46.1097 11.4149 48.4512C10.3308 50.1202 8.8058 51.321 7.34636 52.5998C5.80948 53.9507 4.08794 55.0674 2.49745 56.3522C2.2413 56.5624 1.96729 56.7965 1.60392 56.6524C1.43117 56.5864 1.47286 56.3703 1.43712 56.2081C1.38351 55.962 1.57413 55.8539 1.71114 55.7458C3.00974 54.7252 4.30834 53.7045 5.62482 52.7019C8.60326 50.4324 11.1349 47.8448 12.5169 44.2244C13.9704 40.412 15.6205 36.6836 17.0442 32.8591C17.9079 30.5477 19.2125 28.4643 20.5587 26.405C21.5893 24.832 22.4947 23.1869 23.7933 21.788C25.7293 19.7047 28.0049 19.2424 30.6438 19.9268C31.0905 20.0409 31.5313 20.209 32.0972 20.191C31.847 19.6446 31.99 19.2664 32.4666 18.9902C33.8962 18.1737 35.314 17.3272 36.9998 17.141C38.3698 16.9849 39.6625 17.2851 40.8062 18.0116C42.2001 18.9062 43.6417 19.6867 45.1667 20.3291C45.673 20.5452 45.9411 20.7794 46.632 20.3891C48.5263 19.3204 50.5219 18.3178 52.8332 18.576C55.621 18.8882 58.4207 18.9962 61.2205 19.0142C62.388 19.0202 62.9003 19.3264 62.9361 19.9989C62.9658 20.5933 62.9658 21.2717 62.4714 21.728C62.0425 22.1242 62.0961 22.3344 62.5786 22.6106C63.5258 23.1569 63.9428 24.0695 63.6509 25.1622C63.4722 25.8346 63.7283 25.9127 64.2585 25.9067C65.1878 25.8887 66.1111 25.9307 67.0344 26.0328C67.3918 26.0748 67.6539 26.2129 67.6956 26.5611C67.8386 27.6898 68.1305 28.8005 68.1543 29.9533C68.1662 30.6557 67.8684 30.8839 67.231 30.9139C66.5102 30.9499 65.8251 31.058 65.1818 31.4843C64.5742 31.8865 64.6576 32.4149 64.7589 32.9312C64.8661 33.4955 65.2771 33.8258 65.8728 33.8318C66.3017 33.8378 66.7306 33.8318 67.1595 33.8138C67.5586 33.8017 67.785 33.9999 67.8564 34.3841C67.9279 34.7564 68.0232 35.1226 67.9994 35.5128C67.9339 36.6956 67.922 37.8844 67.7075 39.0611C67.5943 39.6855 67.1595 39.6375 66.7485 39.6135C64.9376 39.5294 63.1207 39.4334 61.3217 39.5955C60.2793 39.6915 59.2666 39.5414 58.2361 39.5775C58.0693 39.5775 57.8072 39.5054 57.825 39.8116C57.8429 40.0518 58.0693 39.9797 58.2182 40.0097C58.9688 40.1658 59.7312 40.1658 60.4878 40.1358C61.0894 40.1118 61.2324 40.418 61.143 40.9403C60.9822 41.8769 60.321 42.4173 59.5823 42.8616C59.0819 43.1618 58.5399 43.4079 57.9918 43.588C55.2159 44.4646 52.9166 46.1697 50.5636 47.8087C47.8294 49.718 45.4466 52.1075 42.5873 53.8306C40.7883 54.9113 38.8285 55.6498 36.8151 56.2802C35.4093 56.7185 33.9915 56.6824 32.5678 56.7485C32.413 56.7365 32.2521 56.7245 31.9066 56.6945C32.2104 56.8386 32.3474 56.9046 32.4844 56.9706C32.8776 57.4389 32.8299 57.8652 32.3772 58.2675C31.2573 59.2641 29.9587 59.9906 28.7018 60.7831C27.4568 61.5696 26.2595 62.4281 25.1634 63.3948C22.5603 65.6942 20.0107 68.0658 17.9675 70.9116C17.3718 71.7401 16.8119 72.6047 16.2043 73.4092C15.7277 74.0456 15.3762 74.7901 14.7865 75.3484C14.5363 75.5886 14.2683 75.6186 14.0121 75.4625C13.6845 75.2644 13.893 74.9882 14.0181 74.7841C14.9354 73.2831 15.9421 71.8362 17.0144 70.4493C18.5453 68.468 20.1954 66.5888 21.9884 64.8417C24.4962 62.4041 27.2602 60.3088 30.2923 58.5677C31.5611 57.8352 31.5313 57.7812 30.328 56.9766C30.06 56.7965 29.7979 56.6104 29.5239 56.4303C29.1486 56.1841 29.0473 55.7879 29.1903 55.4337C29.3452 55.0494 29.7323 55.0974 30.1017 55.1995C31.9066 55.7038 33.7354 55.8899 35.5761 55.4036C38.5366 54.6291 41.384 53.5484 43.8085 51.6152C46.5844 49.3998 49.3841 47.2264 52.3268 45.2451C54.0782 44.0623 55.9486 43.0717 57.974 42.4113C58.7007 42.1711 59.4513 41.8949 59.9814 41.2225C58.7662 40.9583 57.5808 40.9884 56.4073 40.8623C55.4899 40.7602 54.8526 39.5054 55.3768 38.7489C55.5257 38.5388 55.7223 38.2926 56.0797 38.3707C57.8012 38.7549 59.5466 38.5088 61.2741 38.5448C62.942 38.5748 64.6099 38.4427 66.266 38.6649C66.5936 38.7069 66.7485 38.6168 66.7723 38.2746C66.8319 37.4161 66.8914 36.5515 66.9808 35.693C67.0463 35.0325 66.8795 34.7684 66.1349 34.8344C64.9495 34.9425 64.0917 34.27 63.7819 33.1773C63.4662 32.0546 63.8892 31.0039 64.9137 30.4216C65.3724 30.1634 65.8668 29.9172 66.3911 29.9353C67.1655 29.9653 67.2369 29.593 67.0999 28.9746C66.9927 28.4823 66.8974 27.984 66.8676 27.4857C66.8378 27.0414 66.6412 26.9213 66.2362 26.9273C65.5213 26.9393 64.8065 26.9273 64.0917 26.8973C62.7276 26.8493 62.4655 26.5191 62.6799 25.1862C62.8705 23.9974 62.4655 23.337 61.5302 23.307C60.9703 23.289 60.4997 23.5111 60.1721 23.9674C59.8444 24.4297 60.041 24.88 60.2733 25.3123C60.7856 26.2609 60.6546 26.5131 59.5942 26.6391C58.4624 26.7712 57.3485 27.0594 56.1988 27.0654C55.8354 27.0654 55.764 27.2515 55.7818 27.5637C55.8235 28.3562 55.8652 29.1427 55.8652 29.9353C55.8652 30.5176 56.0678 30.7038 56.6634 30.6617C57.6285 30.5957 58.4624 30.9379 58.8973 31.8805C59.2964 32.7391 59.1773 33.5916 58.5637 34.3001C57.9859 34.9665 57.2174 35.3627 56.3239 35.4228C55.2815 35.4948 55.2815 35.4828 55.2874 36.5695C55.2874 36.8337 55.2457 37.1099 55.2993 37.356C55.4721 38.1185 55.0551 38.4307 54.4296 38.6469C52.5472 39.3133 50.7244 40.0998 48.9254 40.9583C47.6149 41.5827 46.2508 42.1531 44.839 42.3993C43.868 42.5674 42.8196 42.4293 41.807 42.3753C40.8658 42.3212 39.9186 42.5494 38.9894 42.7535C38.489 42.8616 38.0005 43.0237 37.5061 43.1438C37.1665 43.2218 36.833 43.2158 36.6304 42.8616C36.4458 42.5314 36.7138 42.3212 36.8806 42.1171C37.1249 41.8049 37.4227 41.5287 37.661 41.1805C36.5053 41.3486 35.4927 41.8289 34.5574 42.5133C32.3832 44.1044 30.7272 46.1877 29.1367 48.3311C29.0652 48.4271 29.0056 48.5352 28.9282 48.6193C28.7495 48.8174 28.5171 49.1056 28.267 48.9495C27.9095 48.7273 27.9632 48.3251 28.1776 48.0129C28.6959 47.2624 29.2022 46.4999 29.786 45.7975C31.0548 44.2725 32.3653 42.7835 34.0094 41.6308C35.3199 40.7122 36.7853 40.1838 38.2864 39.7336C38.8523 39.5655 39.4361 39.4394 40.0139 39.3253C40.3058 39.2653 40.6752 39.1692 40.8181 39.5594C40.9373 39.8837 40.7645 40.1358 40.4786 40.3339C39.9365 40.7122 39.4123 41.1144 38.8702 41.4987C38.757 41.5827 38.6141 41.6248 38.5545 41.8169C40.1629 41.4987 41.7176 41.3966 43.2843 41.5407C44.2433 41.5647 45.1786 41.4266 46.084 41.0964C48.6514 40.1598 51.0878 38.899 53.6254 37.9024C54.1973 37.6802 54.4832 37.284 54.3998 36.6236C54.3462 36.2213 54.382 35.807 54.3998 35.4048C54.4475 34.3841 54.6262 34.216 55.621 34.4201C56.4252 34.5883 57.0685 34.3061 57.6642 33.8258C58.0991 33.4775 58.2361 33.0092 58.0693 32.4689C57.9084 31.9466 57.4915 31.7244 56.9911 31.6644C56.7588 31.6344 56.5145 31.6524 56.2822 31.6824C55.3768 31.8085 55.1444 31.6644 54.9598 30.7518C54.7513 29.7131 54.8228 28.6504 54.7632 27.5998C54.6917 26.351 54.9538 26.0748 56.2226 26.0568C57.2472 26.0448 58.242 25.8346 59.2487 25.6905C58.7424 23.6612 59.1653 22.9348 61.2026 22.2983C61.286 22.2743 61.4349 22.2023 61.4349 22.2023C61.1907 21.5359 61.8638 21.1936 61.977 20.6593C62.0604 20.269 62.0842 19.9989 61.5124 19.9689C59.5168 19.8608 57.5153 19.9628 55.5257 19.7467C54.2033 19.6026 52.8749 19.4165 51.5405 19.5126C49.7118 19.6446 48.2285 20.7674 46.4355 21.3197C47.1741 22.0342 47.6566 22.8267 47.9783 23.7093C48.3059 24.6038 48.4012 25.5524 48.5502 26.5971C50.8853 24.4958 53.5837 23.9134 56.5026 23.9914C57.0209 24.0034 57.5451 23.8894 58.0574 23.8113C58.3671 23.7633 58.7365 23.6312 58.8377 24.0335C58.933 24.4357 58.5339 24.5198 58.248 24.6158C57.5153 24.868 56.7588 24.898 55.9963 24.898C53.6612 24.892 51.469 25.3783 49.5688 26.8433C49.2948 27.0594 48.991 27.2876 48.5919 26.9393C48.5919 27.4377 48.6038 27.8399 48.5919 28.2422C48.5204 29.9413 48.6812 31.6464 48.4549 33.3394C48.3655 34.0059 47.9962 34.3781 47.3707 34.4982C46.2985 34.7023 45.2024 34.9965 44.2552 33.8498C44.3208 34.6543 44.1957 35.2187 43.9038 35.801C43.1532 37.314 42.6588 38.869 43.8621 40.442C44.2493 40.9463 44.0765 41.2225 43.4272 41.3126L43.4153 41.3186ZM31.996 20.0469C32.3117 20.4612 32.6274 20.4672 32.8835 20.5332C34.0749 20.8574 34.7659 21.6559 34.9327 22.8507C35.0161 23.4751 35.2544 23.6912 35.862 23.8233C37.4167 24.1716 38.2626 25.3843 38.9536 26.6992C39.4421 27.6298 39.8114 28.6204 40.2939 29.545C40.842 30.5957 42.1286 30.9499 43.189 30.4216C43.4809 30.2775 43.5404 30.0914 43.4928 29.7852C43.3975 29.1968 43.3081 28.6024 43.2604 28.008C43.0341 25.0181 42.1882 22.3524 39.728 20.3831C38.5485 19.4345 37.3155 19.0202 35.8322 19.2304C34.9327 19.3565 34.069 19.6146 33.2231 19.9268C32.8716 20.0529 32.5202 20.191 31.996 20.0409V20.0469ZM57.4319 39.9797C57.5451 39.9677 57.7833 40.0578 57.7774 39.7576C57.7774 39.5174 57.551 39.5835 57.414 39.5594C57.1519 39.5174 56.8839 39.4814 56.6217 39.4574C56.4967 39.4454 56.3358 39.4154 56.3239 39.6255C56.312 39.8176 56.4609 39.8416 56.5979 39.8596C56.86 39.8957 57.1281 39.9317 57.4438 39.9797H57.4319Z" fill="#4C4C4C"/>
<path d="M98.3151 30.7939C98.1602 31.3583 98.0351 31.9407 97.8385 32.487C97.4752 33.5017 96.7663 34.1801 95.694 34.3722C94.8303 34.5283 93.9606 34.6544 93.0849 34.7325C92.0723 34.8225 91.7744 34.4263 92.0544 33.4596C92.6024 31.5624 93.1564 29.6652 93.7104 27.768C94.7946 24.9762 96.9212 23.187 99.4409 21.7641C98.0053 22.0103 96.7842 22.5686 95.8251 23.7034C94.7826 24.9402 94.1512 26.4171 93.3113 27.768C92.7037 28.8667 91.7089 28.8007 90.7081 28.5905C90.1065 28.4644 89.5287 28.2543 88.9389 28.0742C88.5815 27.9661 88.3671 27.9901 88.373 28.4584C88.379 29.1969 88.3313 29.9354 88.3313 30.6799C88.3194 32.6371 88.3194 34.5944 88.3194 36.5576C88.3194 37.2841 87.6999 38.0586 86.9493 38.2627C86.586 38.3588 86.2226 38.4489 85.8592 38.5449C85.4482 38.5449 85.061 38.641 84.6261 38.7971C85.0848 38.8571 85.478 38.9112 85.8652 38.9592C86.169 39.0132 86.4728 39.0733 86.7766 39.1213C87.271 39.1993 87.6463 39.1033 87.8607 38.5689C88.1109 37.9565 88.5517 37.8725 89.1355 38.1907C90.6784 39.0372 92.239 39.8538 93.7938 40.6883C94.6159 41.1266 95.4617 41.4868 96.3672 41.715C97.3858 41.9731 98.2972 41.709 99.1431 41.1446C100.406 40.304 101.693 40.4061 102.991 41.0185C103.73 41.3727 103.748 41.5468 103.182 42.1352C103.051 42.2673 102.89 42.3694 102.658 42.5555C103.343 42.7896 103.932 42.5195 104.475 42.3994C106.315 41.9971 108.12 41.9731 109.907 42.5795C110.813 42.8857 111.557 43.4441 112.213 44.1525C113.154 45.1672 114.16 46.1218 115.143 47.1064C115.31 47.2745 115.513 47.4306 115.626 47.6348C115.721 47.8029 116.043 48.019 115.715 48.2231C115.483 48.3732 115.203 48.4453 114.953 48.1811C114.446 47.6408 113.898 47.1364 113.404 46.5841C112.624 45.7135 111.682 45.0171 110.819 44.2426C110.086 43.5822 109.067 43.414 108.061 43.282C105.827 42.9938 103.73 43.7142 101.579 44.0144C101.395 44.0384 101.198 44.0324 101.008 44.0264C100.65 44.0144 100.34 43.8103 100.203 43.5221C100.096 43.288 100.483 43.2159 100.626 43.0538C101.109 42.5315 101.794 42.2313 102.27 41.6309C101.21 41.2707 100.305 41.3607 99.3933 41.9971C97.8504 43.0718 96.2123 42.9097 94.592 42.1352C92.7633 41.2647 90.9881 40.286 89.2189 39.2954C88.8734 39.1033 88.5934 39.0552 88.3194 39.4395C87.819 40.1419 87.1638 40.22 86.3298 40.0219C85.3648 39.7937 84.3521 39.7637 83.3573 39.6977C82.8689 39.6676 82.44 39.5536 82.303 39.0612C82.1779 38.605 82.7855 37.9866 83.2799 37.9625C84.3938 37.9085 85.4839 37.6623 86.5562 37.3802C87.1697 37.2181 87.4676 36.7798 87.4557 36.0593C87.4199 33.8319 87.4557 31.5985 87.4557 29.365C87.4557 28.8907 87.4557 28.4164 87.4557 27.726C86.3536 28.6686 85.1801 28.6566 84.0007 28.5845C83.6433 28.5605 83.6016 28.7706 83.4884 29.0168C82.988 30.0915 82.154 30.7399 80.9507 30.7459C79.8547 30.7459 79.3364 29.8693 78.9075 29.0768C78.6037 28.5065 78.3655 27.81 78.5323 27.0956C78.5978 26.8014 78.3655 26.8434 78.2225 26.8854C77.5434 27.0655 76.8703 27.2336 76.1555 27.1496C75.7742 27.1076 75.7444 27.3777 75.7444 27.6599C75.7444 28.6205 75.7444 29.5812 75.7325 30.5358C75.7206 31.3643 75.4347 31.5804 74.6186 31.4964C74.2195 31.4544 73.8084 31.4484 73.4093 31.4844C72.3371 31.5744 71.5925 32.6371 71.8546 33.6758C72.0095 34.2822 72.8315 34.6124 73.4153 34.2942C75.0653 33.3936 75.3811 33.5797 75.4108 35.4469C75.4228 36.2394 75.4764 37.0259 75.4823 37.8185C75.4823 38.2928 75.6253 38.4368 76.1435 38.4429C77.7042 38.4609 79.2709 38.2928 80.8316 38.5389C81.5047 38.647 81.8026 39.1153 81.5286 39.7217C81.2188 40.4061 81.4511 40.9765 81.8562 41.4988C82.2672 42.0272 82.7616 42.4714 83.3692 42.7716C86.4609 44.2966 89.4095 46.0678 92.2093 48.079C93.0671 48.6914 93.7878 49.508 94.5265 50.2765C96.2897 52.1136 98.3151 53.5966 100.567 54.7253C102.735 55.812 105.04 56.5985 107.471 56.7906C108.793 56.8987 110.086 56.4424 111.373 56.1122C111.641 56.0402 111.915 55.9681 112.177 55.8841C112.457 55.794 112.701 55.812 112.838 56.1062C112.969 56.3824 112.874 56.6345 112.647 56.8027C112.236 57.1149 111.807 57.409 111.379 57.6912C111.027 57.9254 110.902 58.1595 111.361 58.3877C113.553 59.4804 115.262 61.1975 116.978 62.8726C118.926 64.7758 120.993 66.5409 122.929 68.4501C123.68 69.1826 124.287 70.0712 125.199 70.6476C125.484 70.8277 125.687 71.1459 125.33 71.5421C124.948 71.9624 124.799 71.6082 124.549 71.404C122.536 69.711 120.868 67.6516 118.801 66.0126C118.056 65.4242 117.455 64.6557 116.752 64.0073C115.638 62.9686 114.434 62.02 113.315 60.9873C112.498 60.2369 111.569 59.7265 110.682 59.1201C110.247 58.826 109.913 58.4897 110.032 57.9074C110.092 57.6192 109.979 57.5471 109.699 57.5231C109.312 57.4871 108.93 57.6012 108.603 57.7032C107.501 58.0455 106.482 57.6372 105.451 57.4751C103.581 57.1809 101.836 56.4364 100.144 55.6379C98.7618 54.9835 97.5049 54.0649 96.254 53.1583C94.9375 52.2097 93.9129 50.9609 92.7454 49.8682C91.2383 48.4633 89.4929 47.3586 87.7297 46.3019C86.0558 45.2993 84.37 44.3206 82.6246 43.4441C81.6 42.9277 80.9686 42.0332 80.5278 40.9945C80.5099 40.8504 80.498 40.7063 80.4802 40.5622V39.9858C80.7244 39.4215 80.4444 39.3434 79.9798 39.4395C79.7892 39.4395 79.5985 39.4395 79.4079 39.4395C79.2649 39.4395 79.122 39.4395 78.979 39.4395C77.9663 39.4875 76.9596 39.3314 75.941 39.5295C75.0177 39.7097 74.4339 39.0372 74.4101 37.9385C74.3922 37.152 74.4041 36.3595 74.422 35.573C74.4339 35.1167 74.3565 34.9906 73.8621 35.2008C73.0936 35.525 72.3013 35.501 71.6103 34.9306C70.9789 34.4143 70.6572 33.7178 70.8538 32.9313C71.3482 30.9981 71.8546 30.6318 73.8918 30.4937C74.9581 30.4217 74.9402 30.4697 74.7198 29.383C74.5411 28.4824 74.9164 27.5999 74.8807 26.6933C74.8747 26.5012 75.1309 26.3391 75.4108 26.3091C76.4414 26.201 77.466 26.0449 78.4965 25.9488C79.2173 25.8828 79.4198 26.0989 79.402 26.8494C79.3841 27.5699 79.4377 28.2483 79.8428 28.8907C80.7482 30.3376 81.6 30.0134 82.5412 28.7766C82.7974 28.4404 82.8033 27.9241 83.262 27.726C84.1734 27.6359 85.1087 27.84 86.1094 27.4918C85.0848 27.1436 84.1615 27.3837 83.2442 27.5038C82.8629 27.5218 82.4876 27.5518 82.1064 27.5639C80.5874 27.6119 79.6104 26.7173 79.396 25.1803C79.3364 24.736 79.4854 24.5259 79.8249 24.3758C81.2784 23.7274 82.7259 23.073 84.1913 22.4486C84.6619 22.2504 85.1444 22.0523 85.5852 21.8242C86.9851 21.1037 88.4386 21.3919 89.8742 21.4759C90.4996 21.512 91.1668 21.578 91.7387 21.7521C92.6143 22.0223 93.5079 21.9142 94.3716 22.1304C94.6635 22.2024 94.8899 22.2985 94.8363 22.6347C94.7886 22.9409 94.6039 23.145 94.2584 23.151C93.4126 23.169 92.5905 22.9949 91.7625 22.8688C90.7498 22.7127 89.7491 22.4966 88.7364 22.3285C87.5689 22.1364 86.5026 22.4966 85.4482 22.9649C84.0126 23.6133 82.5591 24.2197 81.1295 24.8801C80.8793 24.9942 80.3372 25.0122 80.4682 25.4085C80.6291 25.8828 80.7423 26.5192 81.4333 26.5972C82.166 26.6753 82.8987 26.6453 83.6373 26.5432C84.8942 26.3691 86.1392 26.3151 87.2234 27.1556C87.3246 27.2336 87.3604 27.3297 87.4795 27.2096C87.9382 26.7413 88.4386 26.9755 88.933 27.1136C89.7908 27.3537 90.6247 27.6659 91.5242 27.768C92.0186 27.822 92.3046 27.6239 92.5607 27.2517C93.2458 26.243 93.7164 25.1083 94.3835 24.0816C95.7536 21.9743 97.6717 20.8936 100.132 20.6894C100.436 20.6654 100.74 20.5814 101.043 20.5634C101.377 20.5393 101.746 20.5513 101.842 20.9716C101.925 21.3559 101.675 21.572 101.347 21.7341C100.293 22.2624 99.3218 22.9289 98.3091 23.5293C96.0217 24.8981 94.7409 26.9815 94.0082 29.4731C93.633 30.7579 93.3351 32.0668 92.9598 33.3456C92.8467 33.7358 92.8526 33.8799 93.2934 33.8139C94.0619 33.6998 94.8422 33.6518 95.5928 33.4717C96.2957 33.3096 96.7782 32.7992 96.9867 32.1088C97.4513 30.5838 97.8385 29.0348 98.3091 27.5098C99.429 23.8715 101.52 21.1157 105.213 19.7949C106.148 19.4586 107.119 19.5367 108.067 19.4586C108.638 19.4106 109.27 19.8669 109.854 20.1491C110.145 20.2872 110.515 20.4973 110.384 20.8936C110.271 21.2478 109.907 21.4099 109.532 21.4219C108.972 21.4399 108.412 21.3739 107.858 21.554C105.803 22.2204 103.718 22.8388 102.169 24.4779C101.085 25.6246 100.692 27.1496 100.162 28.5845C99.8937 29.311 99.7447 30.0795 99.5482 30.83C99.3158 31.7125 99.4231 31.8326 100.317 31.9347C101.675 32.0968 102.455 31.2682 103.164 30.3076C103.754 29.5091 104.04 28.5545 104.498 27.6839C104.933 26.8674 105.588 26.4411 106.47 26.3211C106.655 26.297 106.929 26.207 106.994 26.5252C107.042 26.7713 107.012 27.0835 106.762 27.1496C105.255 27.5398 105.028 28.9507 104.433 30.0615C103.861 31.1241 103.206 32.0968 102.092 32.6371C100.972 33.1835 99.8698 32.9313 98.7976 32.463C98.5831 32.3669 98.4402 32.1808 98.4461 31.8926C98.4521 31.5144 98.47 31.1422 98.5772 30.7759C99.1193 29.0768 99.5899 27.3597 100.311 25.7207C101.121 23.8955 102.455 22.6587 104.272 21.9142C105.529 21.3979 106.744 20.7795 108.204 20.4793C106.881 20.3172 105.725 20.4553 104.677 21.0317C102.431 22.2745 100.65 23.9555 99.703 26.4351C99.161 27.858 98.8095 29.341 98.3091 30.7819L98.3151 30.7939ZM99.6911 21.6621C99.6911 21.6621 99.6613 21.62 99.6494 21.62C99.6316 21.62 99.6137 21.6441 99.5958 21.6561C99.6137 21.6681 99.6256 21.6981 99.6435 21.6981C99.6613 21.6981 99.6792 21.6741 99.6911 21.6681V21.6621Z" fill="#4C4C4C"/>
<path d="M115.822 29.1842C115.816 28.788 115.518 28.5118 115.417 28.1456C115.262 27.5692 115.262 26.7046 114.225 27.0409C114.172 27.0589 114.094 26.9928 114.029 26.9748C113.034 26.6986 113.034 26.6986 112.629 27.6172C112.051 28.9561 111.026 29.8987 109.74 30.415C108.864 30.7633 107.875 30.5351 107.101 29.9047C106.606 29.5024 106.803 28.872 106.934 28.4097C107.387 26.8247 107.685 25.2097 108.256 23.6427C108.751 22.2978 109.561 21.6194 110.848 21.3312C112.468 20.965 114.142 20.977 115.78 20.7368C116.364 20.6528 116.864 21.001 117.162 21.4633C118.109 22.9402 118.961 24.4772 119.902 25.9602C120.927 27.5752 121.898 29.2263 122.887 30.8533C124.167 32.9667 125.317 35.1941 126.318 37.4816C126.866 38.7304 127.301 40.0152 127.789 41.288C128.498 43.1372 128.152 44.7282 126.747 46.0971C126.562 46.2772 126.377 46.4513 126.348 46.7815C126.961 46.7095 127.354 46.2892 127.759 45.929C128.48 45.2986 128.951 45.2806 129.665 45.923C132.578 48.5227 135.485 51.1223 138.398 53.716C138.637 53.9261 138.917 54.1843 138.643 54.4905C138.416 54.7487 138.124 54.6646 137.832 54.4245C136.575 53.3978 135.426 52.2511 134.205 51.1944C132.882 50.0476 131.506 48.9489 130.231 47.7422C128.921 46.5054 128.951 46.4693 127.36 47.442C126.818 47.7722 126.276 48.0904 125.722 48.3966C125.323 48.6187 124.96 48.3786 124.888 47.8622C124.787 47.1358 125.287 46.6254 125.567 46.0491C125.716 45.7369 125.954 45.4487 126.21 45.2145C127.247 44.2479 127.366 43.1312 126.943 41.8284C126.342 39.9912 125.561 38.2441 124.781 36.4789C122.994 32.4443 120.414 28.866 118.294 25.0236C117.823 24.171 117.186 23.4085 116.685 22.574C116.292 21.9196 115.863 21.5473 115.047 21.8475C114.178 22.1717 113.236 21.9316 112.337 22.1297C111.61 22.2918 110.86 22.3518 110.163 22.634C109.781 22.7901 109.615 23.1564 109.484 23.4986C108.793 25.2397 108.376 27.0589 107.923 28.866C107.875 29.0642 107.887 29.2503 108.054 29.2803C108.435 29.3523 108.781 29.5505 109.221 29.4184C110.752 28.9741 111.515 27.8394 112.021 26.4405C112.391 25.4318 112.474 25.4018 113.457 25.726C113.939 25.8881 114.416 26.0562 114.958 25.9181C115.536 25.774 115.857 26.1823 115.994 26.6626C116.257 27.5752 116.602 28.4518 117.055 29.2863C117.305 29.7486 117.108 29.9828 116.703 30.1809C116.167 30.4451 115.613 30.409 115.178 30.0968C114.785 29.8146 114.577 29.9227 114.362 30.2169C113.314 31.6878 111.807 32.5884 110.306 33.483C109.912 33.7172 109.93 34.0594 110.038 34.3476C110.913 36.7131 111.527 39.1987 112.986 41.294C113.832 42.5128 114.851 43.6055 116 44.5661C116.531 45.0104 116.995 45.5267 117.502 46.001C117.722 46.2052 117.728 46.4093 117.555 46.6194C117.376 46.8356 117.168 46.7455 116.989 46.6074C116.495 46.2232 115.959 45.875 115.524 45.4247C114.38 44.2539 113.129 43.1852 112.122 41.8824C111.431 40.9938 110.889 40.0272 110.52 38.9645C110.014 37.5056 109.46 36.0647 109.037 34.5817C108.703 33.417 108.846 33.1348 109.68 32.6485C111.003 31.874 112.331 31.1055 113.296 29.8567C113.856 29.1362 114.541 28.878 115.417 29.1782C115.506 29.2083 115.607 29.2023 115.703 29.2023C115.744 29.2023 115.792 29.1722 115.828 29.1602L115.822 29.1842Z" fill="#4C4C4C"/>
<path d="M29.119 33.4414C28.9283 36.1131 28.3863 38.5807 27.4868 40.9522C26.5932 43.3057 25.8069 45.6892 25.1278 48.1088C25.0564 48.3549 24.9432 48.5891 24.9789 48.8653C25.0266 49.2675 24.6989 49.3156 24.4309 49.3456C24.0854 49.3816 23.996 49.1475 24.002 48.8413C24.0318 47.7365 24.4368 46.7159 24.7466 45.6832C25.4674 43.2817 26.4979 40.9882 27.1949 38.5807C27.5702 37.2718 27.7906 35.933 28.0169 34.5821C28.2552 33.1412 28.0467 31.7963 27.6119 30.4454C27.5285 30.1873 27.4689 29.839 27.7727 29.6829C28.1658 29.4788 28.3148 29.8571 28.4697 30.1032C28.833 30.6796 28.8688 31.37 28.9641 32.0124C29.0415 32.5228 29.0653 33.0511 29.1249 33.4414H29.119Z" fill="#4C4C4C"/>
<path d="M100.179 38.8692C100.078 39.2475 100.304 39.5356 100.161 39.8478C100.072 40.04 100.066 40.2981 99.7857 40.2801C99.5177 40.2681 99.4819 40.01 99.4283 39.8118C99.3688 39.5837 99.339 39.3435 99.3271 39.1034C99.2318 37.6805 98.7195 36.4136 97.9153 35.2549C97.82 35.1168 97.7366 34.9727 97.6651 34.8226C97.5579 34.5945 97.3375 34.3303 97.6532 34.1382C97.9034 33.9881 98.1595 34.1142 98.3323 34.3483C99.1067 35.369 99.7679 36.4617 99.9883 37.7405C100.054 38.1307 100.399 38.503 100.185 38.8632L100.179 38.8692Z" fill="#4C4C4C"/>
<path d="M58.0872 39.5715H57.4736V39.9857H58.0872V39.5715Z" fill="#A2C186"/>
</g>
<defs>
<clipPath id="clip0_453_10148">
<rect width="139.338" height="84" fill="white" transform="translate(0.692505)"/>
</clipPath>
</defs>
</svg>
