<svg width="83" height="84" viewBox="0 0 83 84" fill="none" xmlns="http://www.w3.org/2000/svg">
<g clip-path="url(#clip0_453_10197)">
<path d="M82.9827 43.2694V43.6859C82.622 44.0244 82.5699 44.6406 82.8784 44.9357C82.7959 48.5809 82.2396 52.1523 80.962 55.5719C80.0278 58.0758 78.6632 60.3627 77.1032 62.5411C75.4128 64.9105 73.5572 67.141 71.467 69.1632C69.2204 71.333 66.7304 73.1816 64.0188 74.7395C61.9459 75.9329 59.8209 77.0264 57.6612 78.0592C55.3798 79.1485 53.0202 80.0598 50.6431 80.919C47.6795 81.9952 44.6593 82.8501 41.5479 83.3795C40.2051 83.6095 38.8493 83.731 37.4935 83.8655C36.3202 83.9827 35.1382 83.9914 33.9736 83.9957C32.67 84 31.3489 84.0217 30.0366 83.8742C29.2152 83.7831 28.3896 83.718 27.5639 83.6442C25.7909 83.488 24.0484 83.1625 22.3102 82.798C19.7028 82.2556 17.2128 81.3876 14.8662 80.1205C13.254 79.2483 11.6853 78.3109 10.3295 77.0438C8.52174 75.3601 7.06598 73.4029 5.72755 71.3417C4.18922 68.9766 3.00289 66.4424 2.1555 63.7605C1.382 61.3131 0.712782 58.8309 0.312992 56.2879C0.126133 55.0945 -0.0216157 53.9012 0.00445755 52.6861C0.0305309 51.2758 0.373829 49.9305 0.725819 48.5766C1.06043 47.2877 1.37765 45.9772 1.94257 44.7882C2.72912 43.1261 3.63734 41.5075 4.76718 40.0321C7.20503 36.8512 10.1948 34.3213 13.7972 32.5507C15.9961 31.4659 18.3253 30.8063 20.7849 30.5589C23.075 30.3289 25.3651 30.2031 27.6639 30.1467C31.3402 30.0512 34.9427 29.4654 38.4408 28.2893C40.7874 27.4996 42.9602 26.3496 45.0287 25.0173C47.4579 23.4508 49.8305 21.8061 52.2423 20.2135C54.6932 18.5949 57.2831 17.2366 60.0643 16.2819C61.3028 15.8566 62.5847 15.5963 63.9058 15.4748C66.3827 15.2448 68.7293 15.6527 70.9629 16.6942C72.2188 17.28 73.3747 18.0481 74.422 18.9637C76.5861 20.8514 78.1461 23.1817 79.3151 25.7681C80.6535 28.719 81.6573 31.7783 82.1658 34.9896C82.5221 37.2548 82.8828 39.5113 82.8828 41.8113C82.5612 42.115 82.622 42.9265 82.9871 43.2694H82.9827Z" fill="#F6C7B9"/>
<path d="M82.9828 43.2694C82.6177 42.9265 82.5569 42.1194 82.8785 41.8113C83.0871 42.2843 82.9393 42.7833 82.9828 43.2694Z" fill="#FEF6ED"/>
<path d="M82.8785 44.9357C82.57 44.6449 82.6221 44.0244 82.9828 43.6859C83.0436 44.1112 82.9002 44.5148 82.8785 44.9357Z" fill="#FEF6ED"/>
<path d="M55.4971 9.52524C55.4797 10.0243 55.4797 10.4799 55.1799 10.8835C54.7062 11.5171 55.0235 12.2244 55.0756 12.897C55.1147 13.4091 55.2451 13.9125 55.3363 14.4202C55.3581 14.5417 55.3928 14.6676 55.2451 14.737C55.1191 14.7934 54.9974 14.763 54.9105 14.6632C54.8192 14.5591 54.6889 14.4332 54.6932 14.3247C54.7149 13.804 54.2195 13.7606 53.9718 13.4959C53.8762 13.3961 53.7806 13.4959 53.6894 13.5263C53.2852 13.6521 53.0549 13.4959 53.2027 13.1444C53.5547 12.3112 53.6199 11.3999 53.9805 10.5711C54.037 10.4452 54.0979 10.315 54.1152 10.1805C54.2413 9.0262 54.9496 8.14527 55.5319 7.21662C55.8361 6.72625 56.3315 6.38343 56.9094 6.26193C57.1745 6.20551 57.2745 6.12306 57.244 5.86269C57.2006 5.49817 57.4309 5.34195 57.7307 5.32025C58.0914 5.29855 58.4043 5.20308 58.6737 4.96007C58.7476 4.89498 58.8519 4.83856 58.9518 4.82121C59.9035 4.64763 60.7987 4.26141 61.7982 4.23103C62.4544 4.21367 63.0584 4.29613 63.6711 4.46537C64.0492 4.56518 64.3968 4.63027 64.8183 4.50876C65.3094 4.36556 65.7917 4.6563 66.235 4.89932C67.6864 5.70213 69.0466 6.62211 69.9461 8.06282C70.3198 8.66168 70.6196 9.31261 70.9238 9.95485C71.0759 10.2716 71.089 10.5841 70.5936 10.6101C70.3676 10.6231 70.3111 10.7924 70.285 10.966C70.2633 11.1178 70.285 11.2784 70.272 11.4346C70.259 11.5909 70.3415 11.8165 70.0764 11.8425C69.8201 11.8686 69.8331 11.6256 69.7896 11.478C69.6897 11.1309 69.5941 10.775 69.5593 10.4192C69.455 9.38204 68.838 8.68338 68.0514 8.10188C67.5517 7.72868 67.0433 7.37718 66.5609 6.97795C65.9091 6.43985 65.0834 5.9842 64.2882 6.08401C63.0454 6.23589 61.8634 5.95382 60.6553 5.92778C60.3772 5.92344 60.2077 5.92778 60.1251 6.30532C59.9948 6.92153 59.3864 7.19926 58.9475 7.5768C58.1523 8.26678 57.2875 8.87865 56.3923 9.43845C56.1055 9.62071 55.823 9.72486 55.4971 9.52958V9.52524Z" fill="#ECE9D2"/>
<path d="M54.4063 14.238C54.3498 12.5369 54.6018 10.8966 55.3797 9.36039C55.8012 8.5272 56.4052 7.83288 57.1614 7.2861C59.0169 5.94519 61.0419 5.08597 63.3929 5.16842C63.9535 5.19012 64.488 5.25521 65.0225 5.44615C65.8742 5.74991 66.6998 6.10141 67.5038 6.51367C69.9547 7.76345 71.1497 9.91585 71.8232 12.4588C72.1274 13.6088 72.2013 14.7804 72.1752 15.9651C72.1579 16.7289 71.9275 17.4319 71.4539 18.0438C70.2806 19.5713 68.9378 20.8905 67.2648 21.8842C65.47 22.9474 63.5276 23.0863 61.5286 22.9865C61.1158 22.9648 60.703 22.8736 60.2902 22.8302C59.0995 22.7001 58.1999 22.0405 57.3743 21.2463C56.9267 20.8124 56.4878 20.3654 56.0489 19.9228C55.1972 19.0635 54.7974 17.9917 54.5888 16.8244C54.4367 15.9695 54.4063 15.1102 54.4106 14.2467L54.4063 14.238Z" fill="#A3BE87"/>
<path d="M71.8235 11.8773C71.6323 10.8445 71.528 9.72054 70.95 8.88301C69.755 7.15155 68.4079 5.56763 66.2786 4.77349C64.7359 4.20068 63.1628 4.07483 61.7722 3.82748C60.8596 3.81012 60.1904 4.03578 59.5082 4.25275C57.3311 4.94707 55.5885 6.1795 54.3804 8.15832C54.1023 8.61396 54.1327 9.11301 53.9155 9.56432C53.142 11.1786 53.0377 12.9014 53.2115 14.6546C53.2984 15.5442 53.6634 16.3426 53.998 17.1585C54.8237 19.1763 56.3707 20.4956 58.248 21.4199C59.3648 21.971 60.6424 22.0534 61.8722 22.2661C64.0102 22.6263 65.8527 21.7974 67.6039 20.8514C68.8642 20.1701 69.894 19.1286 70.6328 17.8051C71.6757 15.9304 72.2146 14.0123 71.8148 11.8729L71.8235 11.8773ZM70.485 9.63809C70.5763 9.7596 70.4764 9.83337 70.3981 9.8811C70.1504 10.0373 69.8854 10.1328 69.4638 9.96789C69.7941 9.82035 70.0288 9.72054 70.2591 9.61639C70.3416 9.58168 70.4199 9.5513 70.485 9.63809ZM67.5301 6.29232C67.4345 6.60911 67.2302 6.72628 66.913 6.82175C67.026 6.49194 67.1868 6.31836 67.5301 6.29232ZM62.6587 5.04254C62.7109 4.98179 62.7673 4.89934 62.8716 4.92104C62.9803 4.94707 62.9629 5.05122 62.9759 5.13367C63.0411 5.54159 62.989 5.92347 62.65 6.30534C62.4414 5.83234 62.3154 5.4331 62.6587 5.04254ZM57.8786 5.81932C58.2219 6.06667 58.4305 6.33138 58.4479 6.75231C57.9394 6.62213 57.8221 6.301 57.8786 5.81932ZM54.8671 17.076C54.8671 17.076 54.8498 17.076 54.8411 17.076C54.828 17.076 54.8193 17.076 54.8063 17.076H54.7976C54.7933 17.076 54.7889 17.076 54.7802 17.076C54.7759 17.076 54.7715 17.076 54.7672 17.076C54.7672 17.076 54.7628 17.076 54.7585 17.076C54.7368 17.076 54.715 17.076 54.6933 17.0673C54.6672 17.0543 54.6455 17.0326 54.6325 17.0066C54.6194 16.9719 54.6151 16.9372 54.6238 16.9024C54.6325 16.8634 54.6585 16.8287 54.689 16.8026C54.8324 16.6551 54.9975 16.5423 55.1931 16.4772C55.3799 16.4164 55.5755 16.4034 55.7667 16.4034C55.7667 16.4034 55.7667 16.4034 55.771 16.4034C55.784 16.3991 55.7971 16.4034 55.8058 16.4034C55.8101 16.4034 55.8188 16.4034 55.8232 16.4034C55.8275 16.4034 55.8319 16.4077 55.8362 16.4121C55.8362 16.4121 55.8362 16.4121 55.8405 16.4164C55.8405 16.4164 55.8449 16.4164 55.8492 16.4208C55.884 16.4468 55.8927 16.4902 55.8796 16.5292C55.8623 16.5857 55.8101 16.6291 55.7623 16.6681C55.7102 16.7072 55.6624 16.7462 55.6102 16.7896C55.4016 16.9545 55.1235 17.05 54.8541 17.0673L54.8671 17.076ZM62.3458 21.6282C61.9808 21.1769 61.9243 20.5042 62.1937 19.8316C62.6587 20.4478 62.4979 21.0163 62.3458 21.6282ZM66.7218 20.5693C66.6696 20.5737 66.5871 20.5259 66.5567 20.4782C66.3872 20.2048 66.1829 19.9488 66.0439 19.4975C66.4958 19.7361 66.7653 19.9575 66.8131 20.361C66.8217 20.4391 66.8391 20.552 66.7218 20.5693ZM69.8723 17.5707C69.8289 17.6922 69.6942 17.7573 69.5855 17.753C69.2553 17.753 69.038 17.5317 68.9293 17.2626C68.8337 17.0239 69.0727 17.1238 69.2118 17.0934C69.3595 17.1541 69.5377 17.2149 69.6985 17.306C69.7898 17.3581 69.9245 17.4232 69.868 17.5664L69.8723 17.5707ZM69.4421 13.2052C69.1683 13.2139 68.8989 13.2833 68.8164 13.574C68.7251 13.9082 68.8642 14.1859 69.1596 14.3725C69.6463 14.6763 70.2069 14.724 70.7588 14.7631C71.0369 14.7804 71.1369 14.8542 71.076 15.1232C70.9544 15.6613 70.8196 16.1951 70.572 16.6941C70.4546 16.9328 70.359 17.0413 70.0896 16.82C69.6985 16.5032 69.2074 16.4251 68.7121 16.5119C68.2514 16.59 68.0776 16.9285 68.2601 17.3581C68.4861 17.8962 68.8598 18.2824 69.5421 18.4386C68.9076 19.0158 68.334 19.5365 67.7604 20.0529C67.5866 20.2092 67.4649 20.2439 67.3606 19.9531C67.2042 19.5105 66.8609 19.2197 66.4393 19.0201C66.1743 18.8943 65.9309 18.9203 65.7136 19.1113C65.5007 19.2979 65.4312 19.5495 65.5007 19.8186C65.5442 19.9835 65.6224 20.1441 65.7049 20.2916C66.0439 20.8905 66.0395 20.8731 65.3834 21.1638C64.8228 21.4112 64.2405 21.5501 63.6365 21.6412C63.1758 21.7106 62.9803 21.6021 63.1193 21.0944C63.254 20.604 63.1367 20.1354 62.8934 19.6971C62.7413 19.4194 62.5023 19.2675 62.185 19.2328C61.8244 19.1937 61.5854 19.3195 61.4941 19.6971C61.3594 20.2265 61.355 20.7603 61.4159 21.294C61.4333 21.4546 61.4811 21.6152 61.2073 21.5718C60.0644 21.3765 58.9476 21.0901 57.8221 20.578C58.487 20.2699 58.7521 19.7709 58.8129 19.1503C58.8694 18.5645 58.487 18.2824 57.9264 18.495C57.4527 18.673 57.192 19.0548 57.0182 19.5018C56.9269 19.7361 56.84 19.8012 56.6227 19.6233C56.0057 19.1069 55.4799 18.5167 55.041 17.8441C54.8889 17.6098 54.9454 17.5317 55.2235 17.497C55.771 17.4275 56.0491 17.0109 56.2577 16.5683C56.4315 16.1994 56.2273 15.9304 55.8058 15.913C55.3973 15.8913 55.0105 16.0042 54.6455 16.1604C54.3978 16.2645 54.2631 16.2385 54.1718 15.9781C53.9676 15.4053 53.8546 14.8195 53.7894 14.1816C54.3022 14.4116 54.815 14.3855 55.306 14.455C55.8753 14.5374 56.375 14.1295 56.4793 13.5784C56.5576 13.1661 56.2751 12.8146 55.7015 12.628C55.4712 12.5542 55.2322 12.5152 54.9149 12.4458C55.9014 11.899 56.827 11.5475 57.9394 11.9337C59.1953 12.3676 60.3251 13.0316 61.4811 13.6608C61.6723 13.765 61.7983 13.8778 61.8374 14.1208C61.8895 14.4376 62.0851 14.7283 62.411 14.8065C63.2497 15.0017 63.6886 15.657 64.1797 16.2559C64.3795 16.4945 64.5403 16.7636 64.7272 17.0109C64.8141 17.1281 64.8576 17.1932 64.7185 17.3407C64.4882 17.5881 64.6533 17.779 64.9227 17.8832C65.001 17.9135 65.0922 17.9135 65.1791 17.9309C66.3785 18.1869 66.2829 17.9613 66.3655 16.9719C66.3828 16.7723 66.3568 16.5119 66.0873 16.4815C65.8092 16.4511 65.7614 16.6768 65.744 16.8981C65.744 16.9458 65.7136 16.9892 65.6702 17.1064C64.8402 16.2038 64.2883 15.1059 63.2627 14.4289C63.4713 14.238 63.6756 14.0687 63.7103 13.765C63.7538 13.3788 63.8363 12.9622 63.4018 12.7625C62.989 12.5716 62.5327 12.5499 62.2198 12.9578C62.0112 13.2269 61.8548 13.1488 61.6245 13.0186C60.5555 12.4154 59.4734 11.8469 58.3219 11.3956C57.2789 10.9877 56.3272 11.1309 55.3538 11.5084C54.8411 11.708 54.3891 12.0335 53.8546 12.3459C53.8807 11.4433 54.0198 10.6449 54.4413 9.89412C54.8671 10.1762 55.28 10.4279 55.7927 10.4235C56.11 10.4235 56.3707 10.3411 56.5228 10.033C56.6792 9.72054 56.5532 9.45583 56.375 9.21282C56.0231 8.73981 55.4929 8.64868 54.8976 8.6183C55.4494 7.58984 56.2099 6.80873 57.1833 6.06233C57.2311 6.75231 57.5657 7.18626 58.1828 7.37286C58.3653 7.42494 58.5609 7.43796 58.739 7.33381C59.2822 7.01702 59.2214 6.43987 58.5044 5.39838C59.543 4.9384 60.5685 4.5001 61.7244 4.48709C62.0329 4.48709 62.185 4.5001 61.9765 4.87764C61.6071 5.54159 61.8244 6.19686 62.1764 6.79137C62.3893 7.15155 62.75 7.16457 63.0542 6.85212C63.5061 6.38345 63.7712 5.81498 63.6365 5.15537C63.5365 4.67802 63.6799 4.63897 64.0927 4.74312C65.0531 4.98613 65.9353 5.42876 66.9 5.75856C66.6132 6.04931 66.3394 6.31402 66.2351 6.6959C66.1569 6.98665 66.1916 7.24702 66.4176 7.45965C66.6305 7.65927 66.8652 7.5855 67.0955 7.48569C67.4345 7.34249 67.7995 7.19928 67.9733 6.86948C68.1689 6.50062 68.3166 6.63949 68.4904 6.84344C69.0597 7.51607 69.6203 8.19737 70.2026 8.89169C69.768 9.11735 69.3552 9.32999 68.9467 9.54696C68.7381 9.65979 68.5643 9.80733 68.5947 10.072C68.6251 10.3324 68.8337 10.4279 69.051 10.519C69.5551 10.7273 70.0592 10.7533 70.5589 10.5147C70.7632 10.4192 70.8631 10.4452 70.9239 10.6752C71.1673 11.5562 71.2629 12.4631 71.428 13.4612C70.7371 13.0837 70.0809 13.1791 69.4291 13.2008L69.4421 13.2052ZM71.0673 14.0514C70.585 14.2076 70.0418 14.1338 69.5594 13.8431C70.0896 13.8257 70.6067 13.6565 71.0673 14.0514ZM57.5353 19.9748C57.5961 19.5322 57.8221 19.2762 58.2002 18.9811C58.1393 19.4975 58.0133 19.8186 57.5353 19.9748ZM54.0154 13.3874C54.0328 13.1357 54.2588 13.1314 54.4413 13.1097C54.5412 13.0967 54.6499 13.1097 54.7498 13.1097C55.0149 13.088 55.2669 13.1401 55.5103 13.2312C55.6406 13.2833 55.8405 13.3137 55.8014 13.5263C55.758 13.7433 55.5972 13.8474 55.3843 13.8301C55.0583 13.804 54.7324 13.7736 54.4109 13.7129C54.2327 13.6825 53.998 13.6478 54.0154 13.3918V13.3874ZM62.6022 13.4699C62.6066 13.344 62.7587 13.2572 62.9108 13.2399C63.0411 13.2486 63.1628 13.2833 63.1498 13.4395C63.1411 13.5697 63.1367 13.752 62.9412 13.7172C62.8065 13.6912 62.5979 13.6521 62.6022 13.4699ZM54.8193 9.31263C55.3495 9.23885 55.7189 9.32131 55.997 9.7596C55.5103 9.85073 55.1844 9.67281 54.8193 9.31263Z" fill="#4C4C4C"/>
<path d="M40.04 65.8001C37.4197 65.8001 34.7949 65.8261 32.1746 65.7914C29.1718 65.7567 26.169 65.7003 23.1706 65.518C22.4797 65.4746 21.7931 65.3618 21.1195 65.1926C20.2417 64.9669 19.6942 64.4245 19.5725 63.5132C19.4247 62.4239 19.4378 61.3347 19.6811 60.2629C19.8376 59.5729 20.107 59.4991 20.6285 59.9765C20.7632 60.1023 20.8501 60.1153 21.0282 60.0633C23.1793 59.4384 25.3781 59.2648 27.6118 59.3516C29.7802 59.4384 31.9486 59.4861 34.117 59.5338C40.6962 59.677 47.2797 59.5425 53.8589 59.6163C54.6932 59.625 55.5232 59.677 56.3532 59.7204C56.9181 59.7465 57.2875 60.0068 57.4309 60.5883C57.7047 61.6819 57.9133 62.7841 57.8611 63.9211C57.8133 64.9973 57.4092 65.4963 56.3619 65.735C55.3364 65.9693 54.2891 65.991 53.2548 65.9997C48.8441 66.0344 44.4377 66.0127 40.027 66.0127C40.027 65.939 40.027 65.8695 40.027 65.7958L40.04 65.8001Z" fill="#F0A18A"/>
<path d="M56.5488 67.6184C56.3836 69.6883 56.6965 71.4936 56.6617 73.3118C56.653 73.7979 56.6139 74.2795 56.501 74.7525C56.4401 75.0129 56.3315 75.2429 56.0881 75.3861C55.0843 75.985 53.1853 75.8765 52.2771 75.1691C52.1511 75.0737 51.9729 74.9391 52.0511 74.7959C52.4466 74.0365 51.9729 73.3596 51.8512 72.6652C51.4167 70.2481 50.9865 67.831 50.6171 65.4052C50.6084 65.3532 50.6084 65.3011 50.604 65.249C50.5649 64.1468 50.704 64.0209 51.8164 64.1077C53.0419 64.2032 54.263 64.3594 55.5015 64.1511C56.2272 64.0296 56.514 64.2856 56.5401 65.0147C56.5748 65.965 56.5488 66.9197 56.5488 67.6184Z" fill="#BA8273"/>
<path d="M22.0233 66.0041C22.1059 65.6135 21.8886 65.0407 22.1494 64.4896C22.2537 64.2682 22.3623 64.1815 22.6056 64.1728C23.8832 64.1337 25.1565 63.9818 26.4428 64.0903C27.2467 64.1554 27.6074 64.4592 27.5639 65.2967C27.5248 66.0388 27.3988 66.7765 27.3119 67.5142C27.0381 69.7838 26.76 72.0533 26.4862 74.3229C26.4341 74.7395 26.3341 75.1387 26.182 75.5293C25.9213 76.2063 25.578 76.4276 24.848 76.4623C24.4221 76.4796 24.0266 76.3538 23.6312 76.2323C23.3183 76.1368 23.1966 75.8808 23.0837 75.59C22.6056 74.3706 22.6491 73.0731 22.5144 71.806C22.3145 69.9313 22.0364 68.061 22.0233 66.0084V66.0041Z" fill="#BA8273"/>
<path d="M23.0316 37.8363C22.5101 36.4129 22.5188 34.8593 21.7279 33.5271C21.3194 32.8415 21.3151 32.03 21.2673 31.2575C21.1717 29.704 21.0935 28.1461 21.0544 26.5882C21.0066 24.7353 20.8371 22.8823 20.9718 21.0293C21.0978 19.3369 21.3107 17.6532 21.7105 16.0041C22.2146 13.9299 23.6834 12.6801 25.8301 12.4805C29.0241 12.181 32.2181 11.9207 35.4338 11.9163C37.8456 11.9163 40.2573 11.8209 42.6735 11.8686C44.8071 11.912 46.9278 12.1246 49.0484 12.3416C50.3086 12.4718 51.5732 12.5282 52.829 12.6844C54.2674 12.8667 55.5928 13.3353 56.5966 14.4593C56.7009 14.5764 56.8226 14.6849 56.8878 14.8195C57.6004 16.2168 58.174 17.6445 58.2696 19.2458C58.4174 21.7323 58.2045 24.1928 57.9263 26.6577C57.6917 28.7059 57.5439 30.7628 57.331 32.8111C57.2528 33.5879 57.1268 34.356 57.1181 35.1371C57.1094 35.7186 57.2832 36.2089 57.8264 36.478C58.3566 36.7384 58.8389 36.5908 59.2561 36.1959C59.4038 36.0571 59.582 36.0093 59.7775 35.992C61.9807 35.8097 64.071 36.2436 66.0004 37.3025C66.7695 37.7234 67.3432 38.4481 67.6734 39.2466C68.3904 40.9737 68.7294 42.7529 68.0037 44.5972C67.5952 45.6344 66.9564 46.4632 66.0308 47.0751C65.4789 47.4396 64.927 47.7954 64.3665 48.1469C63.5712 48.6503 63.0497 49.349 62.7629 50.2473C62.311 51.6619 62.198 53.1287 61.9981 54.5868C61.7895 56.123 61.5375 57.6635 61.1334 59.1693C60.9248 59.9504 60.4337 60.4234 59.7254 60.7185C58.9302 61.0527 58.0828 61.1004 57.2311 61.1698C53.5026 61.4736 49.7654 61.2783 46.0369 61.3825C43.0341 61.4692 40.0314 61.4259 37.0286 61.3391C34.8428 61.274 32.657 61.3868 30.4712 61.2696C27.4901 61.1091 24.5091 61.0266 21.5411 60.6664C21.3325 60.6404 21.1239 60.5927 20.9196 60.6144C19.49 60.7793 18.5904 59.9982 17.8951 58.9046C17.3128 57.9846 17.0869 56.9258 16.8783 55.8713C16.5698 54.3221 16.5437 52.7425 16.3568 51.1803C16.3134 50.8027 16.2612 50.4252 16.1917 50.052C15.9788 48.9064 15.4008 48.0211 14.3014 47.5524C12.8891 46.9449 11.9461 45.8079 11.4029 44.4844C10.851 43.1391 10.4469 41.6594 11.2638 40.1883C12.0982 38.6781 13.2367 37.5585 14.9532 37.1376C15.9483 36.8946 16.9652 36.7817 17.9951 36.7948C18.4601 36.7991 18.9163 36.7817 19.3813 36.6472C19.9158 36.491 20.4851 36.5387 20.9805 36.8772C21.5976 37.3025 22.332 37.4934 23.0272 37.8276L23.0316 37.8363Z" fill="#EA7C5B"/>
<path d="M19.7506 40.8739C18.6208 40.1015 16.9043 40.3792 16.07 41.4684C15.8787 41.7201 15.731 42.0065 15.6745 42.319C15.5224 43.1435 16.0352 43.9463 16.6262 44.5408C17.4301 45.3436 18.5469 45.9728 19.6681 45.7645C20.7675 45.5606 21.5584 44.6276 22.258 43.7597C22.3884 43.5948 22.5231 43.4255 22.5579 43.2172C22.597 43.0003 22.5231 42.7833 22.4405 42.5793C22.258 42.1194 22.0407 41.6767 21.7887 41.2514C21.5193 40.8001 21.1803 40.3402 20.6806 40.1796C20.3112 40.0624 19.9114 40.1232 19.529 40.1796C19.0162 40.262 18.4991 40.3445 17.9863 40.4269" fill="#F0A18A"/>
<path d="M63.7538 42.2279C62.6413 41.4554 60.9596 41.7331 60.1426 42.8224C59.9558 43.0741 59.808 43.3605 59.7515 43.6729C59.6038 44.4974 60.1035 45.3002 60.6858 45.8947C61.4724 46.6976 62.5718 47.3268 63.6712 47.1185C64.7489 46.9145 65.5268 45.9815 66.2134 45.1136C66.3394 44.9487 66.4741 44.7795 66.5089 44.5712C66.548 44.3542 66.4741 44.1372 66.3915 43.9333C66.2134 43.4733 65.9961 43.0307 65.7527 42.6054C65.492 42.1541 65.1574 41.6941 64.662 41.5335C64.3013 41.4164 63.9059 41.4771 63.5322 41.5335C63.0281 41.616 62.5197 41.6984 62.0156 41.7809" fill="#F0A18A"/>
<path d="M43.8902 46.3894C42.3997 46.3417 40.9266 46.1985 39.5316 45.6213C39.4838 45.5996 39.436 45.5779 39.3839 45.5693C38.5974 45.4 38.6321 45.4044 38.7755 44.6319C39.3578 41.5205 40.14 38.4525 40.6485 35.328C40.6832 35.1241 40.6615 34.9201 40.718 34.7118C40.9526 33.8179 41.1916 33.5922 42.1129 33.6009C44.3422 33.6139 46.5541 33.8048 48.7486 34.2475C50.0131 34.5035 51.295 34.6727 52.5596 34.9461C53.2897 35.1067 53.4722 35.2673 53.4852 35.8835C53.2679 35.8878 53.1984 36.031 53.1506 36.2176C53.055 36.5648 52.9637 36.9163 52.8377 37.2591C52.2554 38.8647 51.8643 40.5181 51.5123 42.1844C51.2646 43.3605 51.1256 44.5582 50.7692 45.7125C50.5476 46.4328 50.2 46.8321 49.4873 46.8147C49.2526 46.8104 49.0441 46.8755 48.8007 46.7409C48.6095 46.6368 48.3183 46.6238 48.1706 46.9102C48.0663 46.9102 47.962 46.9102 47.8577 46.9102C47.6361 46.5066 47.3363 46.4719 47.0234 46.806C46.9538 46.806 46.8843 46.806 46.8148 46.806C46.8365 46.6021 46.7322 46.4068 46.5497 46.4415C45.9196 46.5674 45.346 46.1855 44.7246 46.2896H44.6246C44.3596 46.1898 44.0684 45.8861 43.8946 46.3938L43.8902 46.3894Z" fill="#ECE9D2"/>
<path d="M48.1663 46.9102C48.314 46.6238 48.6052 46.6368 48.7964 46.7409C49.0397 46.8755 49.2483 46.8104 49.483 46.8147C50.1956 46.8277 50.5433 46.4285 50.7649 45.7125C51.1212 44.5582 51.2603 43.3605 51.508 42.1845C51.86 40.5181 52.2554 38.8647 52.8334 37.2591C52.9551 36.9206 53.0507 36.5691 53.1463 36.2176C53.1941 36.0354 53.2636 35.8922 53.4809 35.8835C53.4635 36.0527 53.4809 36.2393 53.4287 36.3955C52.4814 38.9949 51.9252 41.6898 51.3993 44.3933C51.3081 44.8663 51.156 45.3263 51.0647 45.7993C50.904 46.6281 50.4173 47.0881 49.5786 47.0968C49.1092 47.1011 48.6269 47.0621 48.1706 46.9102H48.1663Z" fill="#ECE9D2"/>
<path d="M44.7245 46.2896C45.3416 46.1898 45.9196 46.5674 46.5497 46.4415C46.7278 46.4068 46.8365 46.6021 46.8147 46.8061C45.8326 46.7236 44.8636 46.5674 43.8945 46.3895C44.0727 45.8817 44.3639 46.1855 44.6246 46.2853C44.6593 46.3461 44.6898 46.3461 44.7245 46.2853V46.2896Z" fill="#ECE9D2"/>
<path d="M47.019 46.806C47.3319 46.4719 47.6318 46.5066 47.8534 46.9101C47.5753 46.8668 47.2754 47.0143 47.019 46.806Z" fill="#ECE9D2"/>
<path d="M44.7245 46.2896C44.6897 46.3504 44.6593 46.3504 44.6245 46.2896C44.6593 46.2896 44.6897 46.2896 44.7245 46.2896Z" fill="#ECE9D2"/>
<path d="M53.0636 53.8707C53.9675 53.9011 54.0675 53.8013 54.2326 52.7381C54.3847 51.7487 54.4325 50.7463 54.5498 49.7569C54.7497 48.1252 54.6845 46.4936 54.7454 44.8619C54.7628 44.3976 54.715 43.9289 54.7323 43.4646C54.8062 41.1646 55.6058 39.1945 57.7221 38.0923C59.6515 37.0855 61.7634 36.5908 63.9145 37.3372C65.7222 37.9621 66.6348 39.3898 66.9259 41.2471C67.191 42.9178 66.7 44.3672 65.631 45.63C65.3746 45.9338 65.0009 46.1594 64.6489 46.3677C63.7059 46.9145 62.9454 47.6652 62.2241 48.4507C61.4766 49.2665 61.4897 50.334 61.4028 51.3538C61.2463 53.2849 61.2854 55.2377 60.7683 57.1254C60.5032 58.0974 59.7558 58.7353 59.0257 59.3732C57.6395 60.5796 55.9491 60.9875 54.1891 61.1655C48.8702 61.7036 43.5425 61.5907 38.2106 61.4085C33.6782 61.2522 29.1457 61.2045 24.6133 61.1524C24.3352 61.1524 24.0571 61.1351 23.779 61.1221C23.314 61.1004 22.7969 60.9702 22.6883 61.6732C22.6709 61.786 22.5101 61.8728 22.4188 61.9769C22.2667 62.1505 21.8756 62.0681 21.8974 62.3892C21.9234 62.8535 22.006 63.3179 22.0842 63.7778C22.1103 63.9341 22.2841 63.8863 22.3971 63.8907C22.9012 63.921 23.4009 63.9601 23.905 63.9731C30.5754 64.1424 37.2458 64.0252 43.9119 63.869C47.3493 63.7865 50.7866 63.7258 54.2239 63.6824C54.6324 63.678 54.7628 63.5305 54.8019 63.1703C54.8671 62.5975 55.0539 62.0551 55.3624 61.5647C55.6753 61.0613 55.9882 61.0309 56.4054 61.4388C56.9877 62.0117 57.118 62.7494 57.1094 63.5175C57.1094 63.9037 56.6705 64.2292 56.2707 64.2769C55.1539 64.4071 55.1495 64.3333 55.1756 65.4659C55.2104 67.1453 55.1886 68.8247 55.1365 70.4998C55.1017 71.5846 54.9974 72.6695 54.9409 73.7587C54.9192 74.2187 55.0235 74.6744 54.954 75.1474C54.8106 76.1238 54.5107 76.4058 53.5286 76.2409C53.2809 76.1975 53.0245 76.1672 52.7812 76.1107C52.3771 76.0153 52.0598 75.794 51.8947 75.3643C51.5688 74.5225 51.3515 73.6589 51.2038 72.7737C51.0299 71.7495 50.7866 70.7341 50.6953 69.7056C50.6519 69.2326 50.5563 68.7596 50.5606 68.2823C50.5606 67.7225 50.4824 67.1713 50.3868 66.6202C50.3042 66.1559 50.3129 65.6786 50.2825 65.2055C50.2738 65.0363 50.2304 64.8497 50.4998 64.828C50.7475 64.8063 50.9213 64.9191 50.9647 65.1448C51.0517 65.5657 51.1212 65.991 51.1646 66.4163C51.2863 67.614 51.3558 68.8204 51.5079 70.0181C51.7122 71.628 51.9512 73.238 52.4466 74.7915C52.6378 75.3904 53.6329 75.7289 54.1848 75.4077C54.363 75.3036 54.3021 75.1344 54.3021 74.9911C54.3195 73.9844 54.3108 72.982 54.3369 71.9752C54.3717 70.5648 54.5368 69.1545 54.5151 67.7398C54.502 66.924 54.5151 66.1082 54.4195 65.301C54.3847 65.0103 54.5411 64.7716 54.5368 64.4982C54.5629 64.3854 54.489 64.4071 54.4238 64.4114C52.7768 64.4288 51.1212 64.3767 49.4786 64.4895C47.1102 64.6501 44.7376 64.585 42.3693 64.6327C38.8798 64.7065 35.3903 64.7716 31.9008 64.7976C29.7976 64.8107 27.6987 64.7369 25.5954 64.7108C24.6394 64.6978 23.6747 64.8063 22.7361 64.6761C22.0886 64.5893 22.1581 64.8367 22.2059 65.2446C22.3754 66.6593 22.5362 68.074 22.7013 69.4886C22.8186 70.5128 22.9316 71.5369 23.0446 72.561C23.1532 73.5331 23.2532 74.5095 23.3618 75.4815C23.3662 75.5336 23.3705 75.5943 23.4009 75.6291C23.7703 76.0587 24.2092 75.6942 24.6133 75.7115C24.848 75.7202 24.8132 75.4468 24.8393 75.2559C24.9523 74.401 25.0175 73.5418 25.1087 72.6869C25.1826 71.9925 25.2043 71.2852 25.2652 70.5865C25.313 70.0484 25.3999 69.5103 25.4173 68.9809C25.4433 68.2085 25.5954 67.4491 25.5563 66.6766C25.5389 66.3121 25.5389 65.965 25.678 65.6178C25.7388 65.4659 25.7562 65.3271 25.9735 65.3357C26.1995 65.3444 26.2777 65.4789 26.3081 65.6612C26.3211 65.7393 26.2907 65.8261 26.2907 65.9085C26.2733 68.0696 25.9518 70.2047 25.8431 72.3614C25.7866 73.455 25.5824 74.5442 25.4477 75.6334C25.3477 76.4622 24.3787 76.6141 23.8094 76.5404C22.9751 76.4319 22.6709 76.0066 22.6144 75.1257C22.5405 73.954 22.4015 72.7737 22.2189 71.6107C22.0538 70.5779 21.9886 69.5364 21.8278 68.5036C21.7105 67.7615 21.6801 66.9891 21.5888 66.2383C21.5367 65.8304 21.5323 65.4269 21.4889 65.0233C21.4628 64.7542 21.3716 64.4895 20.9457 64.4808C20.3764 64.4722 19.9897 64.0035 20.0331 63.4741C20.0592 63.1226 20.12 62.7667 20.1635 62.4152C20.2026 62.1028 20.359 61.7426 20.811 61.7469C21.063 61.7469 21.1152 61.6081 21.0891 61.3738C21.0456 61.0049 20.8501 61.2739 20.7241 61.2783C19.3378 61.3173 18.221 60.8053 17.5084 59.6032C16.8044 58.4185 16.4828 57.1037 16.296 55.7411C16.083 54.2136 16.083 52.673 15.9483 51.1455C15.8962 50.551 15.8701 49.9391 15.6441 49.362C15.4225 48.7978 15.0357 48.4029 14.5143 48.1773C13.102 47.5611 11.9765 46.6541 11.229 45.2828C10.8379 44.5668 10.5424 43.8334 10.4599 43.0263C10.3078 41.5552 10.6815 40.223 11.6201 39.073C12.5153 37.9751 13.6104 37.1723 15.0097 36.7861C16.2612 36.4432 17.4866 36.4997 18.7251 36.7991C18.8424 36.8295 18.9641 36.8512 19.0815 36.8772C19.151 36.9076 19.2249 36.9336 19.2944 36.964C19.9897 37.3372 20.7197 37.6713 21.2064 38.3179C21.9408 39.2943 22.1929 40.4182 21.9278 41.5856C21.7192 42.5142 21.9017 43.3865 22.0277 44.2804C22.1016 44.7881 22.1755 45.3002 22.2146 45.8123C22.3623 47.8822 22.5318 49.9478 22.8317 52.0004C22.936 52.6904 23.0272 53.3847 23.1315 54.0747C23.2619 54.9426 23.8094 55.3158 24.6003 55.4503C26.621 55.7845 28.6417 56.0795 30.6928 56.2141C34.0345 56.4354 37.3806 56.5959 40.7266 56.4614C42.9907 56.3746 45.2547 56.2401 47.51 56.0058C48.5573 55.8973 49.6002 55.7975 50.6258 55.5588C51.1473 55.4373 51.6513 55.2377 52.0989 54.6779C50.7301 54.8732 49.4568 54.5954 48.2053 54.9122C48.1054 54.9383 48.0011 54.9296 47.8968 54.9339C44.8679 55.0901 41.8391 54.9947 38.8102 55.0771C35.5772 55.1639 32.3528 55.025 29.1284 54.9252C27.9029 54.8862 26.6818 54.8818 25.5085 54.5086C24.8871 54.309 24.5004 53.836 24.4352 53.159C24.3309 52.0438 24.3222 50.9112 24.5525 49.8306C24.7698 48.8282 25.5476 48.1773 26.4993 47.7607C27.112 47.496 27.7595 47.4266 28.407 47.3788C31.1925 47.1749 33.9823 47.0837 36.7722 47.2617C38.5626 47.3745 40.3573 47.496 42.1433 47.6652C43.9076 47.8345 45.6632 48.0862 47.4275 48.2641C48.453 48.3682 49.4742 48.4941 50.4911 48.6677C52.2901 48.9714 52.3944 49.3924 52.8638 51.2106C53.081 52.0612 52.9463 52.9334 52.9941 53.797C52.9811 53.8577 52.9941 53.9011 53.0723 53.8881L53.0636 53.8707ZM65.0052 45.1179C66.0177 44.0461 66.3219 42.8918 66.2046 41.5856C65.9917 39.1728 64.1709 37.5932 61.7678 37.7711C60.8118 37.8406 59.8818 38.0272 58.9779 38.3613C56.9355 39.1164 55.6579 40.8348 55.5667 43.0046C55.4928 44.7708 55.4624 46.5369 55.3798 48.3031C55.306 49.9261 55.2451 51.5578 54.8366 53.1417C54.4542 54.6171 54.363 54.4783 53.1593 54.6171C53.0245 54.6301 52.8724 54.5954 52.8203 54.7777C52.5291 55.8192 51.6513 56.0839 50.7605 56.2748C47.484 56.9735 44.1422 57.0039 40.8179 57.1861C37.3284 57.3771 33.8389 57.1427 30.3582 56.8867C28.2984 56.7348 26.2603 56.4441 24.244 55.9754C23.1663 55.7237 22.5666 55.0771 22.3971 54.0009C21.9408 51.1672 21.6975 48.3118 21.4585 45.4521C21.4194 44.9791 21.3542 44.5061 21.2933 43.9463C21.1804 44.0764 21.1326 44.1242 21.0934 44.1763C19.8158 45.8513 17.4475 46.2115 15.7571 44.953C14.0841 43.7032 13.7886 41.0301 16.0656 39.9018C17.617 39.1337 19.6507 39.5503 20.8284 40.8652C20.937 40.9867 20.9978 41.1646 21.1847 41.2167C21.4672 40.0667 20.9544 38.8517 19.8854 38.1313C17.4823 36.517 14.0102 37.2157 12.1764 39.6545C10.9205 41.3295 10.8684 43.0567 11.8635 44.8532C12.4979 45.9989 13.4192 46.8407 14.6273 47.3571C15.7701 47.8475 16.3568 48.6937 16.5263 49.9261C16.7609 51.6272 16.7392 53.3413 16.9217 55.0467C17.0608 56.3443 17.3085 57.6157 17.8864 58.7917C18.4079 59.8549 19.2118 60.5536 20.4851 60.5449C21.5671 60.5362 21.5671 60.5449 21.8235 61.5387C22.0582 61.5256 22.2494 61.3998 22.2667 61.1785C22.3058 60.5623 22.6839 60.4668 23.1923 60.4928C23.4705 60.5058 23.7486 60.4668 24.0267 60.4625C31.0447 60.4494 38.0585 60.7489 45.0722 60.7966C48.3531 60.8183 51.634 60.7792 54.8931 60.3236C56.866 60.0459 58.5217 59.204 59.7688 57.6288C60.0252 57.3033 60.2164 56.9648 60.2816 56.5222C60.5641 54.6041 60.6293 52.6687 60.764 50.7376C60.8596 49.388 61.2463 48.1946 62.3153 47.2877C62.3892 47.2269 62.5022 47.1792 62.4631 47.049C60.79 46.9145 59.7688 45.9381 59.2039 44.454C58.7824 43.3431 59.0779 42.3189 59.8644 41.4771C60.6206 40.6699 61.5635 40.1969 62.7108 40.4269C64.1231 40.7133 64.8184 41.7114 65.1704 43.0219C65.3485 43.6902 65.2138 44.3412 65.0183 45.1136L65.0052 45.1179ZM32.6874 47.8562C31.2142 47.9299 29.7411 47.995 28.2679 48.0818C27.7117 48.1122 27.1642 48.2207 26.6644 48.4854C25.9909 48.8456 25.3868 49.3056 25.2521 50.1127C25.1087 51.0023 25.0435 51.9006 25.1131 52.8032C25.1652 53.4975 25.3782 53.7362 26.0734 53.8881C26.9947 54.092 27.9333 54.1181 28.8676 54.1702C34.7645 54.4956 40.6658 54.3958 46.5627 54.1702C48.2966 54.1051 50.0348 54.1354 51.7643 53.9575C51.999 53.9315 52.2423 53.9792 52.251 53.5973C52.2684 52.5211 52.2771 51.4623 51.9295 50.4165C51.7426 49.861 51.4341 49.5225 50.8691 49.4227C50.1869 49.3056 49.5046 49.1754 48.818 49.1016C46.3715 48.8326 43.925 48.5505 41.4741 48.3292C38.5539 48.0645 35.6293 47.8128 32.6917 47.8562H32.6874ZM17.6952 40.275C17.2389 40.262 16.7783 40.3879 16.3394 40.6092C15.4964 41.0388 15.0401 41.9023 15.2096 42.7312C15.4877 44.0764 16.561 44.9444 17.9994 44.9834C19.2466 45.0181 20.5242 44.0895 20.8805 42.9178C20.937 42.7312 20.9022 42.5837 20.8457 42.4231C20.3721 41.0909 19.1597 40.2533 17.6952 40.275ZM62.5804 46.2983C63.3452 46.4502 63.6972 45.8253 64.0709 45.196C65.0183 43.6034 64.1187 41.8807 63.1106 41.3469C62.7108 41.1343 62.311 41.0475 61.8634 41.1429C60.4945 41.4337 59.6167 42.5229 59.7384 43.7944C59.8557 45.0572 61.1942 46.2896 62.5804 46.3026V46.2983ZM55.9578 61.8988C55.6971 62.3241 55.5841 62.745 55.4972 63.166C55.4711 63.3005 55.3364 63.5739 55.6406 63.5392C55.91 63.5131 56.3706 63.7431 56.4141 63.2875C56.4575 62.8231 56.3489 62.3284 55.9578 61.8988ZM20.7545 63.3916C20.7023 63.7171 20.9283 63.7605 21.163 63.7692C21.515 63.7822 21.3455 63.5175 21.3411 63.3699C21.3368 63.1139 21.2846 62.8579 21.2542 62.6018C21.2412 62.476 21.2195 62.3545 21.063 62.3415C20.9109 62.3284 20.8631 62.4326 20.8501 62.5715C20.8197 62.8449 20.7849 63.1139 20.7501 63.3916H20.7545Z" fill="#4C4C4C"/>
<path d="M53.6851 35.9529C53.9285 35.9616 54.1718 35.9746 54.4108 35.9789C55.0409 35.9876 55.2799 35.814 55.2495 35.1891C55.1974 34.152 55.2886 33.1149 55.3929 32.1038C55.6276 29.7691 55.4885 27.4388 55.5885 25.1085C55.671 23.0689 55.8014 21.0293 55.7927 18.9854C55.7927 18.0567 55.7362 17.1454 55.5189 16.2558C55.2061 14.954 54.2153 14.2119 53.0985 13.6044C52.1207 13.0706 51.0865 12.8363 49.9653 12.7756C48.8442 12.7148 47.7187 12.6888 46.5975 12.5022C46.1195 12.424 45.6198 12.3546 45.12 12.3676C41.7522 12.4457 38.3844 12.3503 35.0166 12.2201C33.1785 12.1507 31.3316 12.1941 29.4978 12.2982C27.8899 12.3893 26.2647 12.4891 24.7394 13.1097C23.7443 13.5176 22.7274 13.9168 22.0843 14.8498C21.5628 15.6049 21.4846 16.5075 21.3716 17.3841C21.0196 20.1657 21.2195 22.9517 21.2847 25.7333C21.3238 27.5559 21.5976 29.3785 21.6541 31.2011C21.7106 33.1018 22.2711 34.8203 23.1533 36.478C23.5705 37.2634 23.9355 38.0749 24.2788 38.8951C25.1392 40.939 25.9866 42.9916 26.5211 45.1527C26.6384 45.6344 26.595 46.1204 26.5689 46.5977C26.5428 47.0187 26.2386 47.2921 25.8258 47.3224C25.4955 47.3441 25.174 47.2487 25.0045 46.8581C24.5743 45.8687 24.357 44.8229 24.0963 43.7901C23.6269 41.9501 23.0229 40.1579 22.1103 38.4959C21.5194 37.4153 20.5764 36.7774 19.2857 36.7687C19.2206 36.7427 19.1554 36.7123 19.0945 36.6863C19.0033 36.3478 19.0945 36.1829 19.49 36.2003C20.672 36.2567 21.6714 36.6429 22.3624 37.6583C23.5574 39.4158 24.1614 41.4077 24.709 43.4255C24.961 44.3455 25.1913 45.2742 25.4477 46.1942C25.4955 46.3634 25.5303 46.6238 25.7736 46.5934C26.03 46.563 25.9518 46.3157 25.9649 46.1334C26.0474 45.0355 25.5086 44.0938 25.2 43.0957C24.6003 41.156 23.7747 39.303 22.9186 37.4674C22.4276 36.4129 21.8322 35.4105 21.4846 34.2909C21.2586 33.5662 21.1761 32.8154 21.0718 32.0604C20.9153 30.9277 20.8806 29.7864 20.7936 28.6538C20.7241 27.7556 20.6546 26.8486 20.6502 25.933C20.6416 23.5766 20.459 21.2202 20.572 18.8682C20.6372 17.5534 20.698 16.2124 21.2543 14.9583C21.7279 13.8908 22.6057 13.2963 23.5835 12.8233C25.8084 11.7471 28.2115 11.6126 30.6233 11.5518C34.0823 11.465 37.5327 11.6212 40.9874 11.721C42.1824 11.7558 43.3818 11.6603 44.5812 11.6646C46.2933 11.669 47.9794 12.0075 49.6872 12.0552C50.5172 12.0769 51.3429 12.1246 52.1251 12.398C53.759 12.9708 55.2626 13.7519 56.0448 15.427C56.388 16.1691 56.4793 16.9805 56.5141 17.7834C56.6271 20.3827 56.3794 22.9778 56.3229 25.5771C56.3011 26.5665 56.3272 27.5516 56.2968 28.541C56.2403 30.4244 56.1925 32.3077 56.0665 34.1867C56.0361 34.6727 56.0839 35.1848 55.9013 35.6665C55.8275 35.8574 55.8666 36.005 56.1577 36.018C57.1224 36.0614 58.0872 36.1482 59.0519 36.2046C59.33 36.222 59.6255 36.261 59.6168 36.5865C59.6081 36.8816 59.3169 36.9033 59.0606 36.925C58.035 37.0117 57.0268 37.1723 56.0317 37.4457C55.6319 37.5542 55.3842 37.8189 55.2017 38.1704C54.5108 39.5026 54.111 40.926 53.9111 42.4014C53.6417 44.3455 53.5156 46.3113 52.8595 48.186C52.7595 48.4724 52.6813 48.7675 52.2772 48.685C51.9078 48.6069 51.973 48.3249 51.9512 48.0515C51.8513 46.7887 51.8904 45.5215 51.9382 44.2631C51.9686 43.4212 52.1251 42.5837 52.2772 41.7548C52.4032 41.0648 52.5509 40.3749 52.7248 39.6936C52.9898 38.6738 53.4548 37.7755 54.124 36.9727C54.1544 36.9336 54.1588 36.8772 54.1762 36.8295C54.2761 36.8295 54.3761 36.7557 54.3587 36.695C54.3239 36.5735 54.1979 36.6385 54.1066 36.6429C53.4113 36.6342 52.7204 36.6299 52.0251 36.6168C51.7905 36.6125 51.6688 36.6689 51.5819 36.9293C50.8866 39.0947 50.326 41.2905 49.9479 43.5297C49.8828 43.9159 49.9436 44.3195 49.8393 44.71C49.7741 44.9661 49.9001 45.118 50.1478 45.2221C50.578 45.4044 50.9605 45.6778 51.2646 46.0336C51.6949 46.537 51.5906 47.1749 51.0169 47.6609C50.6432 47.9777 50.2261 47.8909 49.7611 47.4309C49.483 47.1575 49.3222 46.806 49.257 46.4545C49.2135 46.2072 49.0397 45.9902 49.0919 45.7168C49.1223 45.5519 48.9789 45.4651 48.8398 45.4391C47.949 45.2915 47.0755 45.0659 46.1847 44.914C45.446 44.7882 44.7029 44.6666 43.9641 44.5278C43.2384 44.3933 42.491 44.3672 41.7479 44.3195C41.4089 44.2978 41.0961 44.1676 40.7354 44.1893C40.4225 44.2067 40.3269 44.3238 40.24 44.5668C40.0922 44.9834 39.9575 45.4044 39.6142 45.7298C39.4013 45.9294 39.1884 45.9989 38.9146 45.9642C38.3714 45.8947 37.8412 45.2829 37.8369 44.7187C37.8325 44.1329 38.4453 43.5167 39.0232 43.4776C39.875 43.4169 39.8185 43.3908 40.0488 42.5403C40.3486 41.4511 40.592 40.3488 40.7354 39.2336C40.8831 38.0879 41.183 36.9553 41.1743 35.7837C41.1743 35.558 41.1091 35.5146 40.8788 35.4365C40.3703 35.2586 39.788 35.0633 39.6403 34.4384C39.4708 33.705 39.9228 33.2884 40.7571 33.1105C41.2699 33.002 41.8609 33.4316 41.8696 34.0739C41.8826 34.9678 42.3389 35.1501 43.1037 35.2976C44.5986 35.5797 46.1065 35.6969 47.6187 35.775C48.6573 35.8271 49.7002 35.8488 50.7388 35.9182C51.0691 35.9399 51.2603 35.8401 51.3776 35.545C51.5558 35.098 51.7948 34.6901 52.1294 34.3386C52.4901 33.9611 53.0507 33.8222 53.5113 33.9914C53.9676 34.1607 54.2196 34.4514 54.2109 34.9548C54.2022 35.3888 53.8329 35.5406 53.5808 35.788C53.4461 35.8314 53.3157 35.8791 53.181 35.9225C53.1854 35.9399 53.1897 35.9572 53.1941 35.9746L53.6808 35.9529H53.6851ZM54.7107 37.424C54.1979 37.9751 53.8329 38.6174 53.5765 39.3204C53.1202 40.5788 52.9507 41.898 52.7595 43.2086C52.59 44.3933 52.4771 45.5823 52.564 46.9058C52.9507 45.6778 53.0246 44.5278 53.1419 43.3865C53.3505 41.3296 53.7981 39.3421 54.7976 37.5021C55.0974 37.0421 55.5841 36.8512 56.1056 36.6602C55.3451 36.4519 55.0322 36.9466 54.7107 37.424ZM41.9478 35.6839C41.6653 38.2181 41.2959 40.709 40.6876 43.1565C40.618 43.4299 40.7267 43.4603 40.9657 43.482C43.6252 43.712 46.2629 44.0678 48.8572 44.7187C49.1397 44.7882 49.2005 44.7187 49.2179 44.4367C49.2657 43.521 49.3787 42.6141 49.596 41.7201C50.0088 40.0147 50.3912 38.3006 50.9822 36.5951C47.9316 36.4042 44.9028 36.4867 41.9521 35.6839H41.9478ZM39.6403 44.1285C39.3622 44.0721 39.0928 44.0808 38.8364 44.211C38.5452 44.3542 38.5452 44.6102 38.5843 44.8749C38.6147 45.0963 38.7408 45.2612 38.9798 45.2872C39.2796 45.3176 39.3318 45.0659 39.4143 44.8663C39.5143 44.6319 39.6446 44.4063 39.6446 44.1329L39.6403 44.1285ZM41.3438 34.8029C41.3046 34.5643 41.2873 34.3473 41.2308 34.1346C41.183 33.9567 41.1308 33.7267 40.8918 33.7528C40.6572 33.7788 40.3921 33.8613 40.3095 34.1173C40.2313 34.3646 40.4573 34.4731 40.6354 34.5729C40.8397 34.6858 41.0526 34.7943 41.3438 34.8029ZM49.9132 45.8687C49.9132 46.2636 50.0001 46.576 50.1869 46.8494C50.2999 47.0143 50.4694 47.2313 50.691 47.0751C50.9083 46.9189 50.9474 46.6715 50.7345 46.4458C50.5085 46.2115 50.2912 45.9598 49.9132 45.8687ZM52.2076 35.4799C52.5987 35.3627 52.9203 35.2716 53.2375 35.1674C53.394 35.1154 53.6112 35.0546 53.5417 34.8333C53.4722 34.6033 53.2636 34.5556 53.0376 34.612C52.6074 34.7161 52.4206 35.0503 52.2076 35.4799Z" fill="#4C4C4C"/>
<path d="M11.0725 22.0534C11.0029 20.4912 11.1811 19.0722 11.3289 17.6488C11.4201 16.7636 11.5852 15.8176 11.0594 14.9627C10.903 14.7066 10.7422 14.4767 10.4771 14.3204C9.49068 13.7259 8.45644 13.4829 7.32225 13.8474C6.92681 13.9733 6.51833 14.0601 6.10116 14.047C5.90561 14.0384 5.79262 14.1685 5.65791 14.2814C5.15817 14.6806 4.64105 15.0148 3.97184 15.1102C3.64592 15.158 3.32435 15.3185 2.98974 15.3836C2.81592 15.4183 2.62037 15.4227 2.5465 15.2187C2.46828 14.9974 2.65513 14.928 2.80723 14.8368C3.72414 14.2814 4.3977 13.4829 5.00173 12.6193C5.15817 12.398 5.10168 12.2331 4.92786 12.0248C4.3021 11.2828 3.82409 10.4756 3.97184 9.43847C4.18477 7.9587 4.33686 6.47025 4.63671 4.99915C4.80618 4.17464 4.88875 3.33278 5.00608 2.49959C5.01477 2.4345 5.01911 2.33903 4.98435 2.29997C4.51068 1.77923 4.80184 1.30188 5.12775 0.911327C5.54058 0.420962 6.1055 0.112856 6.78775 0.238702C9.98173 0.833216 13.1627 1.4798 16.2437 2.52997C17.8037 3.05939 19.4333 3.29806 20.9977 3.81012C21.8581 4.09219 22.1493 4.57388 21.9363 5.40273C21.8407 5.77592 21.8451 6.20554 21.9103 6.59175C22.1449 7.96738 21.9103 9.30395 21.6278 10.6405C21.5235 11.1352 21.6365 11.6386 21.5105 12.1333C21.454 12.3459 21.7104 12.3546 21.8755 12.4067C22.901 12.7365 23.9831 12.7625 25.0217 13.0186C26.2645 13.3267 27.4813 13.7172 28.685 14.1555C29.4672 14.4419 29.654 15.0408 29.7236 15.7785C29.8322 16.9849 29.6888 18.213 29.8539 19.402C30.0582 20.8688 30.0799 22.3485 30.2885 23.8153C30.4015 24.6138 30.6144 25.512 29.9278 26.2367C29.8192 26.3496 29.8235 26.5231 29.8192 26.6794C29.7974 27.3954 29.6453 27.5993 28.9196 27.6558C28.4112 27.6948 27.9028 27.7295 27.3813 27.7078C26.1081 27.6601 24.8479 27.7512 23.6311 28.2937C22.171 28.9446 20.6414 29.3308 18.9901 29.0487C17.3779 28.771 15.7439 28.6148 14.1187 28.4152C13.9492 28.3935 13.7841 28.3978 13.619 28.502C13.1105 28.8274 12.3674 28.6495 12.0719 28.1244C11.5635 27.2088 11.2593 26.2584 11.2332 25.1736C11.2072 24.0974 10.9769 23.0255 11.0768 22.0578L11.0725 22.0534Z" fill="#ECE9D2"/>
<path d="M12.4067 19.5712C12.4502 17.9092 12.3545 16.2472 12.524 14.5851C12.6457 13.3961 13.1367 12.871 14.3318 12.6801C15.592 12.4761 16.8174 12.6887 18.0516 12.8927C20.4286 13.2833 22.8186 13.6304 25.187 14.06C26.8383 14.3595 28.4765 14.7413 30.0018 15.5051C30.9535 15.9824 31.5228 16.6898 31.6705 17.7269C31.7444 18.239 31.8226 18.7597 31.827 19.2761C31.8487 21.1421 32.1746 23.0081 31.8921 24.8784C31.8313 25.2733 31.7357 25.6596 31.5966 26.0328C31.2316 27.0091 31.5488 27.8337 32.1963 28.567C32.557 28.9749 33.022 29.2527 33.4913 29.5174C33.6782 29.6215 33.8781 29.7257 33.8476 29.9774C33.8085 30.2768 33.5435 30.2768 33.3262 30.3115C32.5396 30.433 31.7357 30.42 31.0143 30.1119C29.9453 29.6563 28.872 29.7604 27.7899 29.8906C24.5351 30.2768 21.2847 30.7281 17.9994 30.7411C16.8392 30.7455 15.6789 30.6847 14.5273 30.4808C13.7104 30.3332 13.2454 29.8428 13.0238 29.0878C12.6631 27.8467 12.637 26.5622 12.5458 25.2864C12.4154 23.3857 12.3632 21.4806 12.4024 19.5712H12.4067Z" fill="#A3BE87"/>
<path d="M23.2444 6.57436C22.9011 8.10187 22.9836 9.81598 22.6621 11.4824C22.6447 11.5691 22.6317 11.6516 22.623 11.7384C22.5534 12.3676 22.5143 12.3937 21.8755 12.2721C21.554 12.2114 21.2411 12.1463 20.9021 12.1984C20.6153 12.2461 20.2764 12.1984 20.0504 12.0161C19.5333 11.6082 18.9119 11.6212 18.3252 11.5518C16.826 11.3739 15.3137 11.2827 13.8015 11.3131C12.689 11.3348 12.0763 12.1376 11.6113 13.0099C11.2811 13.6304 11.0986 14.3161 11.3158 15.0581C11.4288 15.4443 11.1116 15.4877 10.8335 15.44C10.186 15.3228 9.53851 15.2013 8.89537 15.0408C8.36521 14.9106 7.89155 14.9583 7.39181 15.21C6.30542 15.7611 5.16689 16.1864 3.93275 16.2688C3.76328 16.2819 3.58511 16.2775 3.41563 16.2558C3.19401 16.2254 3.11144 16.0432 3.04626 15.8609C2.97239 15.6483 3.12014 15.5485 3.26788 15.4487C3.98055 14.9757 4.60631 14.4072 5.17123 13.7649C5.46239 13.4308 5.67097 13.0576 5.79699 12.6367C5.8926 12.3155 5.87956 11.9944 5.61883 11.7688C4.94527 11.1829 4.86705 10.4105 4.96265 9.62504C5.23642 7.33812 5.53192 5.05553 5.86652 2.77729C6.02731 1.66637 6.56616 1.34958 7.65254 1.53618C12.324 2.33899 16.9173 3.47595 21.4584 4.82988C21.7408 4.91233 22.032 4.97308 22.3057 5.07723C23.0923 5.38099 23.2357 5.60231 23.2357 6.57436H23.2444Z" fill="#A3BE87"/>
<path d="M31.831 27.8684C31.3139 27.3433 30.2797 26.4537 30.3492 26.3582C31.7919 24.3707 30.9619 22.1662 31.0749 20.0703C31.0662 20.0008 31.0575 19.9314 31.0532 19.862C31.0271 19.5842 30.9967 19.3065 30.9706 19.0288C30.9489 18.9593 30.9272 18.8899 30.9054 18.8205C30.5839 16.1734 30.3231 13.5002 26.8337 13.0576C25.8733 12.9361 24.9346 12.6193 23.983 12.3937C23.9134 12.3806 23.8483 12.372 23.7787 12.3589C23.1704 12.1897 22.562 12.0248 21.9536 11.8556C21.971 11.7861 21.9884 11.7167 22.0101 11.6473C22.0666 11.3348 22.1187 11.0224 22.1752 10.7099C22.1883 10.6405 22.2056 10.5711 22.2187 10.5016C22.3447 9.52958 22.4664 8.55753 22.5924 7.58982C22.6054 7.48567 22.6141 7.38152 22.6272 7.27303C22.6923 5.45912 22.8749 3.58879 20.4805 3.00295C19.5983 2.78597 18.7205 2.54296 17.8384 2.31297C17.7688 2.29561 17.7037 2.28259 17.6341 2.26523L17.4212 2.22618C17.3517 2.20882 17.2821 2.18712 17.2126 2.16976C15.3006 1.70544 13.3885 1.24545 11.4765 0.781119C11.407 0.759421 11.3374 0.737724 11.2679 0.720366C10.9898 0.663952 10.7117 0.607538 10.4335 0.551124C10.364 0.538106 10.2945 0.525087 10.225 0.507729C9.21679 0.351507 8.20863 0.199624 7.20046 0.0434012C7.09617 0.0260431 6.99187 0.0130246 6.88323 -0.0043335C6.60512 -0.0043335 6.327 -0.0043335 6.05323 -0.0043335C5.98371 0.0173641 5.91418 0.0390617 5.84465 0.0607592C4.23245 0.815835 4.54533 2.41712 4.22376 3.73633C4.20638 3.84048 4.18899 3.94463 4.16727 4.04443C4.14554 4.1833 4.12381 4.32216 4.10643 4.46103C4.09774 4.53046 4.0847 4.59989 4.07601 4.66932C3.91957 5.91911 3.76748 7.16455 3.61104 8.41433C3.60234 8.58791 3.58931 8.76149 3.58062 8.93507C3.58062 9.07393 3.58062 9.2128 3.58062 9.35166C3.58931 9.66411 3.598 9.97655 3.60669 10.289C3.62407 10.532 3.64145 10.775 3.65449 11.018C3.66753 11.0875 3.67622 11.1569 3.68926 11.2263C3.70664 11.2958 3.72837 11.3695 3.74575 11.439C3.77617 11.5084 3.80659 11.5735 3.837 11.6429C4.53664 12.2808 4.56706 12.6887 4.33674 12.9969C4.33674 13.0012 4.33674 13.0055 4.33674 13.0099C4.31936 13.0316 4.29763 13.0446 4.2846 13.0663C4.26721 13.0836 4.24983 13.101 4.23245 13.1184C3.8848 13.4959 3.45894 13.791 3.05046 14.1034C2.94182 14.2076 2.82884 14.3161 2.71151 14.4115C2.30303 14.7891 1.60339 15.0711 1.85109 15.5485C2.2335 16.2819 3.15475 15.7611 3.85004 15.6657C4.21072 15.6179 4.56271 15.5528 4.92339 15.4921L5.13198 15.44C5.86638 15.1666 6.61816 14.9279 7.33083 14.6025C7.46988 14.5374 7.56114 14.3595 7.64805 14.1815C7.62632 14.1512 7.60894 14.1164 7.58721 14.0817C7.54376 14.047 7.50465 14.0123 7.45685 13.9776C7.33083 13.9906 7.2048 14.0036 7.08313 14.0383C5.97936 14.3464 4.87559 14.6676 3.77182 14.9844C3.5024 15.0494 3.23297 15.1102 2.65067 15.2491C3.15475 14.8455 3.40679 14.6415 3.66318 14.4376C3.81962 14.2944 3.98041 14.1555 4.13685 14.0123C4.28894 13.8691 4.44104 13.7302 4.59313 13.587C4.73219 13.4568 4.87559 13.3267 5.01465 13.1921C5.1146 13.0706 5.21454 12.9535 5.31449 12.832C5.58391 12.194 5.07114 11.951 4.70611 11.6299C4.57575 11.3869 4.44538 11.1439 4.31501 10.9052C4.30632 10.7663 4.29763 10.6275 4.28894 10.4886C4.28894 10.4192 4.28894 10.3498 4.2846 10.2803C4.2846 9.86372 4.2846 9.44713 4.2846 9.03054C4.2846 8.96111 4.2846 8.89167 4.2846 8.82224C4.29763 8.57923 4.31067 8.33622 4.32371 8.0932C4.34543 7.88491 4.36716 7.67661 4.38454 7.46831C4.40193 7.29473 4.41931 7.12115 4.43669 6.94757C4.44538 6.8738 4.45842 6.80003 4.46711 6.72625C4.49753 6.48758 4.5236 6.24457 4.55402 6.0059L4.60182 5.80628C4.77999 4.75611 4.95381 3.70161 5.14067 2.65145C5.34491 1.4928 5.4492 0.212642 7.21784 0.746403C7.29172 0.755082 7.36559 0.763761 7.44381 0.77244C7.61329 0.794137 7.78276 0.815835 7.94789 0.837532C8.08695 0.854891 8.22601 0.872249 8.36507 0.889607C8.67795 0.94602 8.99083 1.00243 9.3037 1.05885C9.37758 1.07187 9.45145 1.08055 9.52533 1.09356C9.97292 1.18469 10.4205 1.27148 10.8681 1.36261C10.942 1.37997 11.0115 1.39733 11.0854 1.41469C11.9849 1.63166 12.8844 1.85298 13.7883 2.06995C13.8622 2.08731 13.9404 2.10033 14.0143 2.11769C14.9138 2.34334 15.809 2.57334 16.7085 2.79899C16.7824 2.81201 16.8606 2.82503 16.9345 2.84239C17.4777 2.95088 18.0643 2.9639 18.551 3.19389C19.7374 3.75369 21.6103 3.17653 21.9623 5.16837C21.9753 5.27686 21.9927 5.38534 22.0057 5.49383C22.0057 5.77156 22.0014 6.04929 21.9971 6.32702C21.984 6.57437 21.971 6.81738 21.9623 7.06474C21.9406 7.30341 21.9188 7.54642 21.9015 7.7851C21.8841 7.96302 21.871 8.14094 21.8537 8.31452C21.7624 8.9828 21.606 9.64675 21.5973 10.315C21.5755 11.6429 21.0454 11.7601 19.7504 11.708C18.2816 11.6429 18.9334 10.1935 17.9991 9.86806C16.4826 9.33864 14.9225 9.43845 13.3798 9.30393C13.206 9.28657 13.0322 9.27355 12.8584 9.25619C11.4417 9.01318 9.81213 9.70316 8.65622 8.31018C8.73878 8.23641 8.817 8.16697 8.89957 8.0932C9.28198 8.02811 9.66439 7.95868 10.0468 7.89358C10.1163 7.89358 10.1859 7.89358 10.2554 7.89358C10.8811 7.9066 11.5069 7.92396 12.1327 7.93698C12.2413 7.94566 12.3499 7.95434 12.4586 7.96302C12.6976 7.98905 12.9366 8.01075 13.1756 8.03679C13.2495 8.04547 13.3233 8.05849 13.3972 8.06717C13.5667 8.08452 13.7362 8.10188 13.9056 8.12358C14.0795 8.14528 14.2533 8.16697 14.4271 8.18867L16.6173 8.4881C16.6868 8.4881 16.752 8.4881 16.8215 8.4881C16.9606 8.49678 17.0996 8.50546 17.2387 8.5098C17.4125 8.5098 17.5863 8.50546 17.7601 8.50112C18.2425 8.22773 18.7249 7.95868 19.2072 7.68529C19.2202 7.51171 19.2376 7.34247 19.2507 7.16889C18.6466 6.01891 17.456 5.98854 16.4043 5.69345C16.3305 5.68043 16.2566 5.66741 16.1784 5.65439C15.2441 5.45912 14.3141 5.2595 13.3798 5.06422C13.306 5.04686 13.2321 5.03384 13.1582 5.01649L9.10381 4.33952C8.99517 4.3265 8.88219 4.31782 8.77355 4.30914C8.54323 4.29613 8.31727 4.28745 8.08695 4.27443C8.02177 4.3482 7.96093 4.41763 7.89575 4.4914C8.14779 5.31157 8.92999 4.84724 9.41234 5.11629C9.52098 5.12931 9.62962 5.13799 9.73826 5.15101C9.87297 5.17705 10.0077 5.20742 10.1424 5.23346C10.2163 5.25082 10.2901 5.26384 10.3597 5.2812L12.4325 5.64572L12.6541 5.68911C13.067 5.7759 13.4798 5.86269 13.8926 5.94948C13.9969 5.96684 14.1012 5.98854 14.2055 6.0059C15.0051 6.16646 15.8046 6.32268 16.6042 6.48324C16.6781 6.49626 16.752 6.50928 16.8259 6.52664C17.4646 6.64814 18.4815 6.71758 18.4337 7.33813C18.3816 8.01943 17.3821 7.84585 16.7737 7.79378C15.7047 7.70265 14.6444 7.51605 13.5841 7.3685C13.4407 7.35114 13.2973 7.33813 13.1539 7.32077C12.9149 7.29907 12.6759 7.27303 12.4368 7.25134C12.3282 7.24266 12.2196 7.22964 12.1109 7.22096C11.2157 7.22096 10.3206 7.22096 9.42538 7.22096C9.31674 7.23832 9.2081 7.25568 9.09946 7.27737C8.50847 7.50737 7.86967 7.69397 7.90009 8.51847C7.96093 8.66168 8.02177 8.80054 8.08261 8.94375C8.63015 9.2345 9.17768 9.52524 9.72522 9.81599C9.7991 9.83335 9.86863 9.85071 9.9425 9.86806C10.7377 9.91146 11.5373 9.95485 12.3326 9.99825C12.4021 9.99825 12.4716 10.0026 12.5411 10.0069C13.6884 10.1024 14.8356 10.1979 15.9828 10.289C16.0523 10.289 16.1219 10.2933 16.1914 10.2977C16.8128 10.4626 17.5994 10.1328 18.0035 10.9052C18.0078 10.9182 17.6385 11.1265 17.4429 11.2437H16.8172C15.3657 11.2871 13.8796 10.6362 12.4673 11.4607C12.3543 11.5605 12.2413 11.6603 12.124 11.7601C12.024 11.8469 11.9241 11.9337 11.8241 12.0205C11.6807 12.0031 11.5373 11.9901 11.3939 11.9727C10.351 12.1159 9.14292 11.5561 8.33899 12.6974C8.33899 12.871 8.33899 13.0446 8.33899 13.2182C8.63884 14.4115 9.6948 14.2727 10.5552 14.481C10.842 14.4723 11.0289 14.5417 10.8681 14.8845C10.842 15.3011 10.816 15.7177 10.7899 16.13C10.7812 16.2688 10.7725 16.4077 10.7638 16.5466C10.7638 19.4584 10.7638 22.3702 10.7638 25.282C10.7725 25.3862 10.7768 25.4903 10.7855 25.5945C10.9029 27.9074 11.885 29.4219 14.4097 29.5217C14.4793 29.5347 14.5488 29.5434 14.6183 29.5564C16.9823 29.5868 19.3463 29.6172 21.7102 29.6519C21.7798 29.6476 21.8493 29.6432 21.9188 29.6346C22.2665 29.6085 22.6141 29.5781 22.9618 29.5521C23.0661 29.5434 23.1704 29.5347 23.2746 29.5217C23.518 29.4957 23.7613 29.474 24.0047 29.448C24.109 29.448 24.2089 29.448 24.3132 29.448C25.9167 29.1876 27.8853 29.0661 27.8157 26.9354C27.7549 24.9913 25.756 25.2516 24.461 25.1215C22.0144 24.8741 19.5375 24.9132 17.0779 24.77C16.5477 24.7396 15.6743 24.7786 15.683 24.0192C15.696 23.2772 16.5738 23.2164 17.117 23.2208C20.1502 23.2598 23.1834 23.3857 26.2166 23.4855C27.4073 23.5245 28.3459 23.1209 28.4285 21.8321C28.5023 20.6691 27.5116 20.3653 26.6251 20.2916C23.4789 20.0312 20.3284 19.8663 17.1778 19.645C16.5304 19.5973 15.6526 19.3759 15.6612 18.7597C15.6699 18.1175 16.5825 18.1869 17.1474 18.1869C20.0807 18.1782 23.0139 18.2607 25.9428 18.1956C26.9249 18.1739 28.1417 17.8484 28.2068 16.6941C28.2764 15.4834 27.0031 15.2968 26.0993 15.2013C22.8749 14.8585 19.6374 14.6242 16.4043 14.3725C16.1957 14.3551 15.9741 14.5374 15.7568 14.6285C15.9741 14.75 16.1827 14.967 16.4087 14.9844C19.5896 15.2751 22.7706 15.5138 25.9472 15.8306C26.5555 15.8913 27.5811 15.9738 27.5246 16.6768C27.4681 17.3841 26.4686 17.5664 25.7603 17.5707C22.8271 17.5967 19.8938 17.5403 16.9606 17.5577C16.0958 17.562 15.0442 17.6965 14.992 18.7467C14.9442 19.7318 15.9611 20.0833 16.7781 20.1614C19.9677 20.4608 23.1704 20.6387 26.3643 20.9251C26.9206 20.9772 27.8244 20.9251 27.7549 21.8755C27.681 22.8909 26.8337 22.8389 26.0906 22.8172C23.0574 22.7347 20.0198 22.5959 16.9866 22.5915C16.1306 22.5915 15.0746 22.8389 15.0007 23.9628C14.9225 25.1258 15.9611 25.3471 16.8128 25.4122C19.6635 25.6335 22.5272 25.716 25.3779 25.9503C26.0428 26.0024 27.077 25.959 27.1465 26.9397C27.2248 28.0506 26.2818 28.3935 25.3649 28.528C22.0927 29.0183 18.8074 29.2353 15.5005 29.0053C13.2842 28.8534 11.3765 28.4108 11.4156 25.5814C11.4634 22.1012 11.4113 18.6165 11.5199 15.1362C11.5938 12.8363 12.4933 11.1916 15.2528 11.6646C18.8248 12.2765 22.4186 12.8016 25.9559 13.574C27.3073 13.8691 29.1238 13.791 29.6148 15.696C30.3449 18.5167 30.6056 21.3721 30.5187 24.2926C30.4883 25.3601 28.6066 26.4754 30.5404 27.5429C30.875 27.7295 31.0966 28.1157 31.3748 28.4065C30.9272 28.3414 30.4839 28.2416 30.032 28.2286C29.4236 28.2112 28.611 27.1827 28.4111 27.8901C28.2155 28.5757 29.4844 28.7233 30.158 29.014C30.4448 29.1355 30.7838 29.2397 31.0836 29.2093C31.6702 29.1485 32.4177 29.5564 32.774 28.8534C32.8435 28.7146 32.1787 28.2069 31.8528 27.8727L31.831 27.8684ZM10.8551 13.9993C10.1424 13.5523 9.09077 13.9863 8.94737 13.0359C8.8648 12.4761 9.61224 12.5846 10.0207 12.5889C10.477 12.5889 10.9333 12.7104 11.3896 12.7755C11.2201 13.1618 11.0506 13.5523 10.8507 13.9993H10.8551Z" fill="#4C4C4C"/>
</g>
<defs>
<clipPath id="clip0_453_10197">
<rect width="83" height="84" fill="white"/>
</clipPath>
</defs>
</svg>
