<svg width="103" height="88" viewBox="0 0 103 88" fill="none" xmlns="http://www.w3.org/2000/svg">
<g clip-path="url(#clip0_453_10282)">
<path d="M1.05996 40.9293C1.05996 40.8535 1.05996 40.7776 1.05996 40.7017C1.35386 40.6496 1.38704 40.4172 1.39652 40.1848C1.44392 39.1178 1.71411 38.0792 1.91794 37.0407C2.23554 35.3998 2.72852 33.7827 3.2452 32.1893C4.27383 29.0214 5.55843 25.9626 7.21277 23.0651C7.9238 21.8226 8.65853 20.5944 9.45015 19.404C10.5878 17.6873 11.8771 16.0987 13.2471 14.5574C13.5315 14.2397 13.9534 13.9456 13.9107 13.4145C14.0908 13.4287 14.233 13.3671 14.3705 13.2438C14.8872 12.7838 15.3612 12.2764 15.8779 11.8116C16.679 11.0813 17.3663 10.2324 18.2433 9.58747C18.4092 9.46417 18.4803 9.30294 18.4613 9.09427C18.722 9.12273 18.9258 9.03262 19.1202 8.84767C19.3762 8.60107 19.6748 8.39716 19.9592 8.17901C21.6657 6.87013 23.4717 5.70353 25.3157 4.6128C26.3016 4.0295 27.2876 3.42248 28.411 3.10475C29.6956 2.74433 30.9755 2.38866 32.2838 2.11361C34.6586 1.61092 37.0524 1.27422 39.4747 1.12246C39.8207 1.09875 40.271 1.21257 40.5223 0.799988C40.8257 0.799988 41.129 0.799988 41.4324 0.799988C41.4466 0.890092 41.4561 0.98968 41.5746 1.00391C41.7263 1.02288 41.7547 0.913803 41.7737 0.799988C41.8495 0.799988 41.9254 0.799988 42.0012 0.799988C42.2951 1.11772 42.5037 1.11772 42.7976 0.799988C43.101 0.799988 43.4043 0.799988 43.7077 0.799988C43.7219 0.918545 43.7693 1.00865 43.9068 1.01813C44.0632 1.02762 44.1485 0.956484 44.1628 0.799988C44.2765 0.799988 44.3903 0.799988 44.5041 0.799988C44.5183 0.894834 44.5515 1.00865 44.6605 1.00865C45.0587 1.00865 45.4331 1.17463 45.8361 1.14618C46.7177 1.07978 47.5899 1.26473 48.4574 1.35009C49.1684 1.42123 49.9032 1.54927 50.6142 1.71525C51.7471 1.97608 52.9274 2.04721 53.9892 2.58309C55.5393 3.37032 57.1036 4.1196 58.6441 4.92105C59.6491 5.4427 60.635 6.00704 61.602 6.59508C63.6166 7.82334 65.5696 9.13695 67.4562 10.5549C69.2053 11.8685 70.9165 13.2248 72.5377 14.6902C74.0072 16.018 75.4103 17.4265 76.875 18.7591C77.1784 19.0341 77.4391 19.442 77.9368 19.442C78.9086 20.3051 79.8424 21.2156 80.8805 22.0028C82.7481 23.4255 84.7343 24.6633 86.7631 25.8251C90.5979 28.0208 94.0867 30.6385 97.0352 33.9392C98.2581 35.305 99.3057 36.7988 100.183 38.4207C101.055 40.0378 101.771 41.7118 102.15 43.5092C102.558 45.4488 102.719 47.4026 102.524 49.4038C102.33 51.4003 102.031 53.3684 101.368 55.2606C100.349 58.1534 98.808 60.7522 96.8598 63.1281C95.8359 64.38 94.9258 65.7316 93.8071 66.9077C93.1719 67.5763 92.4466 68.1596 91.7403 68.7524C89.721 70.4502 87.4694 71.8539 85.4453 73.5469C82.8335 75.7284 79.9372 77.4403 76.9888 79.0954C73.59 81.0018 69.9733 82.3154 66.2285 83.3824C62.9056 84.3309 59.5495 85.0802 56.1745 85.7773C54.2974 86.1662 52.3965 86.427 50.491 86.6404C48.4479 86.868 46.4002 86.9866 44.3524 87.1241C42.1719 87.2711 40.0009 87.1763 37.8441 87.0482C34.3932 86.8443 30.9518 86.4649 27.5578 85.7299C24.8559 85.1418 22.1255 84.6676 19.5184 83.6859C17.7361 83.0125 15.9111 82.4292 14.3326 81.329C12.081 79.7546 10.0569 77.9146 8.15607 75.937C6.24102 73.9405 5.18869 71.4556 4.14111 68.9658C2.86125 65.9403 2.19762 62.7534 1.62879 59.5381C1.40126 58.2435 1.12159 56.9536 0.879836 55.6637C0.799253 55.2416 0.75185 54.8053 0.728149 54.3785C0.538541 51.2012 0.623864 48.0238 0.614384 44.8465C0.614384 44.6046 0.685487 44.3628 0.723409 44.1257C1.31594 43.8032 1.041 43.3906 0.837174 42.9875C0.837174 42.9116 0.837174 42.8358 0.837174 42.7599C1.33964 42.5133 1.23535 42.1955 0.95094 41.8494C0.95094 41.7735 0.95094 41.6976 0.95094 41.6217C1.32068 41.451 1.44392 41.2376 1.0647 40.9388L1.05996 40.9293Z" fill="#F6C7B9"/>
<path d="M77.932 19.442C77.4343 19.442 77.1736 19.0341 76.8702 18.7591C75.4055 17.4218 74.0024 16.018 72.5329 14.6902C70.9118 13.2248 69.2005 11.8685 67.4514 10.5549C65.5648 9.13696 63.6071 7.82334 61.5972 6.59508C60.6302 6.00704 59.6443 5.4427 58.6393 4.92105C57.0988 4.1196 55.5298 3.37032 53.9844 2.58309C52.9226 2.04247 51.7423 1.97134 50.6094 1.71525C49.8984 1.55401 49.1636 1.42597 48.4526 1.35009C47.5851 1.25999 46.7129 1.07978 45.8313 1.14618C45.4236 1.17463 45.0491 1.01339 44.6557 1.00865C44.5467 1.00865 44.5182 0.899576 44.4993 0.799988C47.0922 0.799988 49.6234 1.25999 52.1595 1.72948C53.937 2.06144 55.4776 2.92454 57.0608 3.7165C59.8528 5.11074 62.5453 6.6757 65.1145 8.44458C67.2381 9.90995 69.2953 11.4702 71.2578 13.1537C72.5329 14.2492 73.7701 15.3778 74.9931 16.5349C75.9933 17.4834 76.9982 18.4271 77.932 19.442Z" fill="#FEF6EE"/>
<path d="M13.9108 13.4193C13.9535 13.9504 13.5268 14.2444 13.2472 14.5621C11.882 16.0987 10.5926 17.6921 9.45024 19.4088C8.65863 20.6038 7.91915 21.8274 7.21286 23.0698C5.55853 25.9674 4.27393 29.0309 3.2453 32.194C2.72862 33.7874 2.24037 35.4046 1.91804 37.0454C1.71421 38.0792 1.44402 39.1225 1.39661 40.1895C1.38713 40.4219 1.35395 40.6495 1.06006 40.7065C1.17382 39.3549 1.46298 38.0318 1.74265 36.7087C2.40628 33.5977 3.38751 30.5864 4.63892 27.6746C6.298 23.8096 8.41688 20.196 10.9813 16.8574C11.8204 15.7667 12.7257 14.7329 13.6074 13.6753C13.688 13.5757 13.8065 13.5046 13.9108 13.424V13.4193Z" fill="#FEF6EE"/>
<path d="M40.5224 0.799988C40.2712 1.21257 39.8161 1.09875 39.4748 1.12246C37.0526 1.27422 34.6587 1.61092 32.2839 2.11361C30.9756 2.38866 29.6957 2.74433 28.4111 3.10475C27.2877 3.42248 26.3017 4.0295 25.3158 4.6128C23.4671 5.70827 21.6611 6.87013 19.9593 8.17901C19.6749 8.39716 19.381 8.60107 19.1203 8.84767C18.926 9.03262 18.7221 9.12747 18.4614 9.09427C19.9356 7.76169 21.5994 6.69467 23.2253 5.57074C26.2733 3.45568 29.6483 2.19897 33.2936 1.58247C35.0759 1.27896 36.8582 1.04659 38.6595 0.890092C39.2805 0.837926 39.9014 0.818957 40.5224 0.799988V0.799988Z" fill="#FEF6EE"/>
<path d="M18.4613 9.099C18.4802 9.30292 18.4091 9.4689 18.2432 9.5922C17.3663 10.2419 16.6789 11.0908 15.8778 11.8163C15.3659 12.2858 14.8871 12.7885 14.3704 13.2485C14.233 13.3718 14.0908 13.4335 13.9106 13.4192C15.1905 12.0582 16.4751 10.7019 17.9351 9.53055C18.1105 9.38828 18.2859 9.24601 18.4565 9.099H18.4613Z" fill="#FEF6EE"/>
<path d="M0.832433 42.9733C1.03626 43.3764 1.3112 43.7842 0.718668 44.1114C0.770811 43.732 0.600163 43.3337 0.832433 42.9733Z" fill="#FEF6EE"/>
<path d="M0.94627 41.8398C1.23542 42.1813 1.33497 42.5038 0.832505 42.7504C0.879907 42.4469 0.71874 42.1196 0.94627 41.8398Z" fill="#FEF6EE"/>
<path d="M1.06003 40.9293C1.44399 41.2281 1.316 41.4415 0.946263 41.6122C0.984185 41.3846 0.851459 41.1285 1.06003 40.9293Z" fill="#FEF6EE"/>
<path d="M42.7929 0.799988C42.499 1.11772 42.2905 1.11772 41.9966 0.799988C42.262 0.799988 42.5275 0.799988 42.7929 0.799988Z" fill="#FEF6EE"/>
<path d="M44.1579 0.799988C44.1437 0.956484 44.0584 1.02762 43.902 1.01813C43.7645 1.00865 43.7171 0.918545 43.7029 0.799988C43.8546 0.799988 44.0063 0.799988 44.1579 0.799988Z" fill="#FEF6EE"/>
<path d="M41.769 0.799988C41.7548 0.918545 41.7216 1.02288 41.5699 1.00391C41.4514 0.98968 41.442 0.890092 41.4277 0.799988C41.5415 0.799988 41.6553 0.799988 41.769 0.799988Z" fill="#FEF6EE"/>
<path d="M64.3561 35.4662C62.3699 35.1485 60.2416 35.2338 58.1274 35.0394C53.6337 34.6221 49.1163 34.8355 44.6083 34.7881C40.6645 34.7501 36.7301 34.6079 32.7862 34.5225C28.7712 34.4371 24.7563 34.4039 20.7366 34.3375C18.5419 34.3044 18.4423 33.8301 18.8215 32.0612C19.5847 28.5282 20.2057 24.9668 21.2011 21.4859C21.4144 20.7366 21.7557 20.5706 22.4999 20.7319C23.557 20.9548 24.6567 21.0686 25.7185 20.988C27.8848 20.822 30.0416 20.9832 32.1937 21.0496C35.7536 21.1587 39.3135 21.0923 42.8734 21.1824C44.8595 21.2346 46.8504 21.2346 48.8413 21.3436C50.6379 21.4432 52.4344 21.1966 54.2357 21.301C57.6392 21.4954 61.0521 21.5808 64.4603 21.5902C64.8348 21.5902 65.1382 21.6803 65.4416 21.9317C66.2521 22.6051 67.3993 22.6335 68.2241 21.9554C68.7171 21.5476 69.1152 21.7657 69.5229 21.9791C69.94 22.1973 69.8642 22.6051 69.8689 23.0224C69.9021 25.0521 68.9967 26.8732 68.608 28.808C68.3426 30.1359 67.9017 31.4353 67.4893 32.7346C67.2523 33.4792 66.7783 34.1147 66.2996 34.7264C65.8398 35.3097 65.1809 35.4662 64.3561 35.4662Z" fill="#EA7C5B"/>
<path d="M78.5149 69.9237C78.5149 70.1893 78.5338 70.5118 78.5149 70.8295C78.4627 71.6499 78.1499 71.9155 77.3156 71.9108C76.2206 71.9108 75.1872 71.6168 74.1728 71.2326C73.4476 70.9576 72.7034 70.7299 71.9971 70.4217C69.9872 69.5396 68.1907 70.0376 66.5126 71.2469C65.6215 71.8871 64.7256 72.5225 63.7586 73.0442C63.3746 73.2528 62.9812 73.4425 62.5309 73.4378C61.8767 73.4283 61.6824 73.2386 61.6729 72.5937C61.6634 72.0625 61.507 71.4792 61.6824 71.0192C61.9715 70.2605 62.0663 69.4732 62.2465 68.7002C63.3841 63.8062 64.2468 58.86 65.3181 53.9564C66.6027 48.0949 67.3706 42.1528 68.276 36.2297C68.3613 35.6701 68.4419 35.1058 68.5272 34.5462C68.5841 34.1715 68.6457 33.8253 69.0344 33.6025C69.2904 33.4602 69.3426 33.1377 69.3852 32.8532C69.7976 30.2354 70.0726 27.5987 70.3096 24.9572C70.3617 24.3502 70.5371 23.7717 70.6935 23.1836C70.7741 22.8849 70.9874 22.7805 71.2624 22.7047C71.5799 22.6193 71.6558 22.8754 71.7838 23.0414C72.7366 24.2649 73.1016 25.6876 73.258 27.2051C73.4808 29.3866 73.7747 31.5585 74.0449 33.7352C74.353 36.2676 74.6563 38.8 74.9834 41.3324C75.4574 45.0077 75.9457 48.683 76.4244 52.3535C76.9316 56.2138 77.4388 60.0787 77.9461 63.939C78.2068 65.907 78.4485 67.8798 78.5196 69.9237H78.5149Z" fill="#7C9A57"/>
<path d="M23.5237 21.6898C23.8176 19.9826 24.3343 17.9529 25.4956 16.1603C26.1024 15.2213 27.0836 14.6996 28.1738 14.4815C29.2688 14.2586 30.0557 14.9036 30.634 15.6908C31.5299 16.9096 32.1272 18.2706 31.9707 19.8498C31.9565 19.9968 31.9707 20.1533 31.9897 20.3003C32.0656 20.8741 31.8001 21.1871 31.2502 21.3104C30.7241 21.429 30.3449 21.282 30.0557 20.8077C29.6765 20.1865 29.4964 19.4941 29.2404 18.8254C29.0887 18.4224 28.937 17.9481 28.444 17.8675C27.9321 17.7821 27.6856 18.2327 27.4391 18.5788C26.4484 19.9826 26.5242 21.5333 26.9224 23.0935C27.1831 24.1131 27.6382 25.0805 27.8231 26.1286C27.97 26.9727 27.4865 27.5228 26.619 27.4138C25.9791 27.3331 25.5146 26.949 25.1164 26.4748C24.2252 25.4172 23.5237 23.4634 23.5237 21.6803V21.6898Z" fill="#7C9A57"/>
<path d="M41.6362 21.5333C41.6267 20.4426 41.9775 19.4467 42.3709 18.4555C42.6601 17.7205 43.0393 17.0281 43.3521 16.2978C43.7124 15.4584 44.4803 15.117 45.3572 15.0079C45.4331 14.9984 45.5089 14.9984 45.5848 14.9937C48.0876 14.9368 48.8413 15.5343 49.3864 17.9813C49.6187 19.0389 49.7893 20.0869 49.5192 21.1729C49.4054 21.6234 49.1921 21.8226 48.7465 21.8226C47.789 21.8226 47.4003 21.4859 47.3339 20.5516C47.277 19.7787 47.2913 19.0009 46.7603 18.3465C46.2389 17.7063 46.0493 17.692 45.5658 18.337C45.452 18.4887 45.3478 18.6452 45.2624 18.816C44.5419 20.2292 44.376 21.7277 44.6273 23.2785C44.741 23.9661 45.1487 24.521 45.6132 25.0331C46.1394 25.6117 46.2152 25.9342 45.9118 26.3799C45.3383 27.2288 44.7932 27.4802 44.0869 27.2288C43.4469 27.0059 43.0582 26.5175 42.788 25.9436C42.1244 24.5494 41.7926 23.0603 41.6457 21.5333H41.6362Z" fill="#7C9A57"/>
<path d="M51.0501 22.036C50.9079 20.3857 51.1876 18.7875 51.837 17.2795C52.5291 15.6671 53.8895 14.9131 55.577 14.8846C56.6104 14.8656 57.3925 15.539 57.895 16.4069C58.7008 17.7964 59.0563 19.3139 58.9378 20.9263C58.8857 21.6376 58.1984 22.1071 57.511 21.908C57.1555 21.8036 57.0607 21.5238 57.056 21.2061C57.0512 20.8267 57.0465 20.4473 57.0749 20.0727C57.1413 19.2286 56.7905 18.5741 56.2122 18.0003C55.25 17.0566 54.0839 17.2795 53.5387 18.5314C53.2306 19.238 53.1785 20.0016 53.15 20.7556C53.1169 21.5665 53.0884 22.3869 53.1595 23.1979C53.2306 24.0562 53.771 24.7201 54.3019 25.3604C54.3872 25.4599 54.4963 25.5406 54.5911 25.6307C55.1077 26.1381 55.2357 26.6028 54.9608 26.9727C54.5863 27.4849 53.8943 27.556 53.2828 27.2525C51.6142 26.4321 51.1734 24.9478 51.0501 23.2785C51.0217 22.8659 51.0501 22.4486 51.0501 22.0313V22.036Z" fill="#7C9A57"/>
<path d="M61.9621 20.9026C61.8958 22.9892 62.8485 24.7011 63.9862 26.3372C64.3749 26.9016 64.4081 27.1861 64.0051 27.6366C63.5785 28.1203 63.0998 28.2152 62.5926 27.9496C62.2655 27.7836 62.3224 27.4422 62.1802 27.2003C61.9906 26.8731 61.6824 27.5133 61.4028 27.2003C61.1089 26.8684 60.8908 26.4795 60.7865 26.0622C60.303 24.1273 59.9428 22.1545 60.2367 20.1675C60.3931 19.1052 60.7012 18.0335 61.0662 17.0044C61.5402 15.6623 62.9907 14.7233 64.3275 14.7755C65.0717 14.804 65.669 15.1976 66.1951 15.6528C66.9204 16.2788 67.494 17.0376 67.7073 18.0003C67.9158 18.9203 68.1291 19.845 68.1813 20.7935C68.2239 21.5333 68.0343 21.7088 67.2901 21.6044C67.0673 21.576 66.8445 21.5333 66.6218 21.4764C66.2331 21.3815 66.0055 21.1444 65.9676 20.7271C65.9155 20.1248 65.887 19.5178 65.7116 18.9345C65.5362 18.3417 65.2518 17.8201 64.8157 17.379C64.3322 16.8858 63.8487 16.8479 63.3178 17.3126C62.5452 17.9908 62.1375 18.8729 62.019 19.8877C61.9811 20.2244 61.9763 20.5659 61.9574 20.9073L61.9621 20.9026Z" fill="#7C9A57"/>
<path d="M33.1322 20.7745C33.1701 19.6411 33.4356 18.2421 33.9001 16.8621C34.3789 15.4442 35.4691 14.9036 36.8106 14.6759C37.2183 14.6095 37.607 14.7518 37.9483 14.9652C39.0148 15.6196 39.8349 16.4638 40.1051 17.7537C40.3089 18.7401 40.4985 19.7217 40.4559 20.7318C40.4369 21.1824 40.4559 21.6945 39.8017 21.7325C39.3514 21.7562 39.0907 21.4527 39.0006 20.8125C38.9674 20.5896 38.9437 20.362 38.939 20.1343C38.9153 19.072 38.4887 18.1995 37.7207 17.4739C36.9528 16.7483 36.1897 16.7863 35.5592 17.6446C35.0093 18.3939 34.7581 19.2712 34.6159 20.1723C34.5021 20.8836 34.4642 21.5949 34.5401 22.3205C34.6491 23.3449 34.9809 24.2269 35.8578 24.8529C36.147 25.0616 36.403 25.3224 36.6495 25.5832C37.0571 26.0148 37.0429 26.5032 36.7774 26.9964C36.5547 27.409 36.1233 27.4991 35.7678 27.2525C34.3268 26.2614 33.5588 24.8624 33.2744 23.1694C33.1607 22.4818 33.0469 21.7846 33.1275 20.7698L33.1322 20.7745Z" fill="#7C9A57"/>
<path d="M47.6894 53.4206C46.765 53.3921 45.8407 53.3447 44.9211 53.2024C44.3854 53.1218 44.0915 52.8278 44.1911 52.2634C44.4423 50.9071 44.7931 49.5745 45.2434 48.2657C45.3098 48.0712 45.4567 47.9385 45.6558 47.91C47.1348 47.6966 48.6184 47.5116 50.1069 47.8721C51.0123 48.0902 51.1782 48.3463 50.9459 49.2284C50.6899 50.2148 50.4197 51.2012 50.1306 52.1781C49.8556 53.1076 49.4575 53.3968 48.4857 53.4158C48.2203 53.4206 47.9548 53.4158 47.6894 53.4158V53.4206Z" fill="#EA7C5B"/>
<path d="M58.2079 40.9671C58.9711 40.9434 59.6869 40.9766 60.3789 41.1947C61.0331 41.4034 61.1705 41.6974 60.9857 42.3566C60.706 43.3572 60.4643 44.3673 60.1609 45.3632C59.7959 46.5393 59.4167 46.7764 58.1795 46.8191C57.1556 46.8523 56.1412 46.7243 55.122 46.6721C54.1787 46.6247 53.8991 46.2974 54.0887 45.3632C54.3399 44.1255 54.7096 42.9114 55.032 41.6927C55.1126 41.3844 55.3448 41.2232 55.6529 41.19C56.5157 41.0857 57.3689 40.8912 58.2079 40.9718V40.9671Z" fill="#A2C186"/>
<path d="M56.5154 47.7726C57.3212 47.7394 58.0939 47.7869 58.8476 48.005C59.5065 48.1947 59.6724 48.465 59.5017 49.1242C59.2505 50.0916 58.9661 51.0496 58.7148 52.017C58.293 53.6389 57.7004 53.5251 56.3779 53.5772C55.5152 53.6104 54.6477 53.4634 53.785 53.4018C52.69 53.3259 52.3914 52.9512 52.6474 51.9222C52.9318 50.7698 53.2257 49.6174 53.6001 48.484C53.7186 48.1283 53.9414 47.9339 54.2922 47.9149C55.0459 47.8675 55.7901 47.7063 56.5249 47.7726H56.5154Z" fill="#A2C186"/>
<path d="M54.8144 54.5967C55.6866 54.592 56.4829 54.6109 57.2414 54.8907C57.8102 55.0994 57.9571 55.3602 57.7865 55.9293C57.4547 57.0295 57.2319 58.1629 56.8574 59.2584C56.592 60.0219 56.0895 60.3302 55.3311 60.3491C54.1176 60.3823 52.9135 60.2827 51.7143 60.1167C51.0601 60.0266 50.8089 59.7042 50.9179 59.0545C51.136 57.7693 51.5247 56.5221 51.8991 55.2749C51.9939 54.9571 52.212 54.8433 52.5201 54.7911C53.307 54.6631 54.0891 54.5445 54.8096 54.5967H54.8144Z" fill="#A2C186"/>
<path d="M48.9363 46.7434C48.1258 46.6913 47.3104 46.6486 46.5046 46.5775C45.7367 46.5063 45.4475 46.1364 45.6182 45.3919C45.8884 44.2348 46.1965 43.0824 46.4999 41.9347C46.6278 41.4558 46.9028 41.2187 47.4526 41.138C48.7562 40.9483 50.0503 40.8819 51.3491 41.0859C51.6051 41.1238 51.8705 41.2044 52.1028 41.3135C52.4299 41.4653 52.5626 41.7261 52.4631 42.1055C52.136 43.329 51.899 44.5715 51.4534 45.7618C51.2164 46.3972 50.7898 46.7055 50.1309 46.7102C49.7327 46.7102 49.3345 46.7102 48.9363 46.7102C48.9363 46.7197 48.9363 46.734 48.9363 46.7434Z" fill="#A2C186"/>
<path d="M53.0225 61.179C54.0464 61.1743 54.8428 61.1742 55.6107 61.4256C56.3502 61.6674 56.4829 61.8951 56.2885 62.6396C56.0373 63.5881 55.7624 64.5318 55.5017 65.4803C55.2125 66.5331 54.838 66.8935 53.7478 66.8982C52.5769 66.8982 51.4061 66.8034 50.2495 66.6042C49.5669 66.4856 49.3346 66.13 49.4911 65.4708C49.7518 64.3658 50.0457 63.2703 50.3253 62.1749C50.4675 61.6295 50.7472 61.3165 51.3824 61.2691C52.0034 61.2169 52.6291 61.2027 53.0225 61.179Z" fill="#A2C186"/>
<path d="M41.1388 40.9627C41.902 40.9437 42.5988 40.9722 43.2766 41.1856C43.8976 41.38 44.0635 41.6171 43.9023 42.2289C43.6084 43.3433 43.3714 44.4673 43.0254 45.5675C42.7884 46.3168 42.2907 46.6345 41.5701 46.6867C40.4135 46.7673 39.2664 46.6155 38.1193 46.5396C37.5125 46.5017 37.0575 46.1792 37.2281 45.3541C37.4746 44.1306 37.8159 42.9355 38.1477 41.7357C38.2283 41.4369 38.4084 41.2235 38.726 41.1856C39.5508 41.0813 40.3661 40.8821 41.1435 40.9674L41.1388 40.9627Z" fill="#A2C186"/>
<path d="M45.8361 60.1357C45.1914 60.1688 44.4045 60.0455 43.6176 59.9792C42.7075 59.9033 42.4279 59.5666 42.6222 58.6703C42.8782 57.4894 43.2195 56.3323 43.5228 55.161C43.6034 54.848 43.812 54.6867 44.1248 54.6393C45.5137 54.4449 46.9074 54.3453 48.2962 54.6109C49.396 54.8195 49.5429 55.0946 49.2253 56.1853C48.9504 57.129 48.7181 58.0822 48.429 59.0165C48.1493 59.9222 47.8649 60.1072 46.9026 60.1309C46.5992 60.1404 46.2959 60.1309 45.8408 60.1309L45.8361 60.1357Z" fill="#A2C186"/>
<path d="M44.8551 60.9705C45.6467 60.9373 46.4146 60.9942 47.1683 61.2076C47.9078 61.4162 48.0642 61.6723 47.8746 62.3979C47.6186 63.3843 47.3437 64.366 47.0687 65.3476C46.718 66.5996 46.1491 66.6517 45.13 66.6612C44.2293 66.6707 43.324 66.5427 42.4233 66.4668C42.1816 66.4431 41.9351 66.4004 41.7075 66.315C41.3141 66.168 41.1008 65.9119 41.1861 65.4425C41.4042 64.1952 41.755 62.9812 42.0962 61.7624C42.2242 61.3072 42.5134 61.089 43.0064 61.0795C43.6273 61.0701 44.2436 60.9325 44.8598 60.9752L44.8551 60.9705Z" fill="#A2C186"/>
<path d="M39.3178 53.3351C38.4172 53.2593 37.507 53.2166 36.6111 53.0885C35.9428 52.9937 35.7579 52.6902 35.8717 52.0215C36.066 50.8454 36.4026 49.7025 36.7059 48.5501C36.8434 48.0332 37.161 47.8198 37.7203 47.7534C38.986 47.5969 40.2374 47.54 41.4936 47.7772C42.5174 47.9716 42.6739 48.2087 42.4274 49.1998C42.1998 50.1151 41.9818 51.0351 41.7163 51.9456C41.3845 53.0838 41.0764 53.2925 39.8866 53.3067C39.697 53.3067 39.5074 53.3067 39.3178 53.3067C39.3178 53.3162 39.3178 53.3256 39.3178 53.3351Z" fill="#A2C186"/>
<path d="M38.0478 54.3498C38.8442 54.3498 39.6358 54.3593 40.399 54.6202C40.8446 54.7719 41.0626 55.0802 40.9204 55.5354C40.5649 56.6878 40.38 57.8923 39.9534 59.0258C39.7496 59.5569 39.4083 59.8509 38.8442 59.941C37.9151 60.0928 37.0002 59.8983 36.0806 59.8509C35.7583 59.8367 35.4407 59.8035 35.1231 59.7608C34.5116 59.6849 34.2177 59.3767 34.3031 58.7792C34.4832 57.4893 34.8861 56.2468 35.2274 54.9901C35.3175 54.6628 35.5687 54.5253 35.9053 54.4826C36.6163 54.3925 37.3321 54.3261 38.0526 54.3451L38.0478 54.3498Z" fill="#A2C186"/>
<path d="M32.4493 46.6294C31.6767 46.5772 30.904 46.5393 30.1314 46.4681C29.335 46.397 29.0648 46.0413 29.2355 45.2494C29.4772 44.1444 29.7379 43.0442 30.0081 41.944C30.1266 41.4698 30.3921 41.1994 30.9419 41.1188C32.2028 40.9434 33.459 40.877 34.7199 41.0714C35.7296 41.2279 35.9381 41.5456 35.6822 42.5273C35.4499 43.4236 35.2413 44.3246 34.9711 45.2067C34.5967 46.4397 34.3644 46.5914 33.0656 46.6057C32.857 46.6057 32.6484 46.6057 32.4399 46.6057C32.4399 46.6104 32.4399 46.6199 32.4399 46.6246L32.4493 46.6294Z" fill="#A2C186"/>
<path d="M36.3224 66.3765C35.7062 66.3243 34.7629 66.2627 33.8243 66.1489C33.0754 66.0588 32.7957 65.6983 32.9569 64.987C33.2223 63.8251 33.5446 62.6775 33.848 61.5299C33.9523 61.1362 34.2035 60.9797 34.6254 60.9228C35.9669 60.7474 37.2989 60.643 38.6262 60.9703C39.541 61.1979 39.6832 61.4255 39.4604 62.3266C39.2661 63.1138 39.0717 63.9057 38.8632 64.6882C38.4697 66.1773 38.1853 66.3907 36.3224 66.3717V66.3765Z" fill="#A2C186"/>
<path d="M31.3545 53.2167C30.4491 53.1408 29.5438 53.0982 28.6479 52.9749C27.9795 52.88 27.7757 52.5718 27.9131 51.9031C28.1501 50.7744 28.4346 49.66 28.7047 48.5361C28.828 48.0286 29.0934 47.7678 29.6765 47.7062C30.9801 47.5686 32.2741 47.4216 33.5682 47.7441C34.3977 47.948 34.5447 48.1614 34.3598 48.9724C34.1465 49.9113 33.9237 50.8503 33.6583 51.7751C33.3122 52.9843 33.0278 53.1788 31.7527 53.1883C31.62 53.1883 31.4873 53.1883 31.3545 53.1883C31.3545 53.1977 31.3545 53.2072 31.3545 53.2167Z" fill="#A2C186"/>
<path d="M29.6858 59.8086C28.9132 59.7517 28.1405 59.7138 27.3726 59.6379C26.4767 59.5526 26.2113 59.1921 26.4103 58.3053C26.6474 57.2383 26.9128 56.176 27.1783 55.1138C27.292 54.6538 27.5622 54.4119 28.0884 54.3455C29.3493 54.1843 30.6054 54.1416 31.8569 54.3645C32.857 54.5399 33.0372 54.8292 32.7907 55.7824C32.5489 56.7119 32.3309 57.6509 32.0559 58.5709C31.7431 59.6047 31.5108 59.7565 30.4301 59.7849C30.1836 59.7897 29.9371 59.7849 29.6953 59.7849C29.6953 59.7944 29.6953 59.7992 29.6953 59.8086H29.6858Z" fill="#A2C186"/>
<path d="M24.4907 46.1696C23.737 46.1174 22.9833 46.0747 22.2296 46.0131C21.5281 45.9562 21.2342 45.6337 21.3527 44.9271C21.5565 43.6799 21.8836 42.4563 22.2344 41.2423C22.3339 40.9009 22.5994 40.7965 22.917 40.7349C24.0973 40.5073 25.2823 40.531 26.4674 40.6258C26.7471 40.6495 27.022 40.7396 27.2922 40.8203C27.7188 40.9483 27.9037 41.2233 27.7852 41.6786C27.5245 42.7029 27.3112 43.7415 27.0173 44.7516C26.657 45.9894 26.42 46.1364 25.1164 46.1506C24.9079 46.1506 24.6993 46.1506 24.4907 46.1506V46.1696Z" fill="#A2C186"/>
<path d="M28.5724 60.6147C29.4256 60.6004 30.2741 60.6289 31.0847 60.9514C31.4734 61.1031 31.6725 61.3734 31.5635 61.7908C31.2838 62.8862 31.0136 63.9864 30.696 65.0724C30.4543 65.8881 30.0893 66.1347 29.2455 66.1537C28.1316 66.1774 27.0176 66.0731 25.9131 65.9355C25.1547 65.8407 24.9746 65.6036 25.0883 64.8685C25.2732 63.6165 25.6003 62.393 26.0032 61.1932C26.0933 60.9229 26.3018 60.7759 26.5957 60.738C27.2546 60.6573 27.9088 60.5862 28.5724 60.6147Z" fill="#A2C186"/>
<path d="M23.4149 52.7091C22.7228 52.6522 21.7985 52.6 20.8788 52.4909C20.201 52.4103 19.9972 52.1779 20.0872 51.5093C20.2626 50.1957 20.6181 48.92 21.0116 47.6538C21.0874 47.4072 21.296 47.2981 21.533 47.2744C22.8508 47.1226 24.1686 46.9377 25.4863 47.2365C26.4865 47.4594 26.6145 47.649 26.3917 48.6449C26.1784 49.5839 25.9461 50.5229 25.6902 51.4524C25.4152 52.453 24.9649 52.7138 23.4196 52.7091H23.4149Z" fill="#A2C186"/>
<path d="M22.2252 53.6861C22.9457 53.6766 23.6663 53.6956 24.3536 53.9327C24.9461 54.1366 25.0836 54.3974 24.9319 55.0045C24.6902 55.9956 24.4579 56.9867 24.1924 57.9684C23.9365 58.9358 23.5857 59.1777 22.576 59.2156C21.5711 59.2536 20.5756 59.1445 19.5802 59.0591C18.7033 58.9832 18.452 58.6276 18.6322 57.7645C18.8502 56.7117 19.1251 55.6731 19.3669 54.6251C19.4759 54.1461 19.7319 53.9042 20.2533 53.8378C20.9122 53.7525 21.5616 53.6529 22.2252 53.6813V53.6861Z" fill="#A2C186"/>
<path d="M20.9404 60.036C21.5756 60.017 22.3245 60.055 23.0593 60.2873C23.6281 60.4675 23.7987 60.7094 23.6613 61.2927C23.4053 62.3929 23.1161 63.4884 22.8317 64.5838C22.6516 65.2857 22.1112 65.5228 21.4618 65.5465C20.3242 65.594 19.2007 65.428 18.0773 65.2905C17.5606 65.2288 17.2478 64.9063 17.3426 64.3467C17.5559 63.0805 17.845 61.8333 18.2479 60.6145C18.338 60.3347 18.5466 60.2067 18.8357 60.1593C19.4899 60.0549 20.1488 60.0265 20.9356 60.036H20.9404Z" fill="#A2C186"/>
<path d="M69.0441 23.288C68.3046 24.3455 67.9159 25.5548 67.7215 26.7973C67.385 28.993 66.5412 31.0084 65.669 33.0192C65.4368 33.5551 65.0623 33.7732 64.4698 33.7732C58.9569 33.7542 53.4393 33.7874 47.9264 33.7447C41.6551 33.7021 35.3838 33.6357 29.1125 33.5076C26.4769 33.4555 23.8461 33.4223 21.2153 33.5313C20.6844 33.555 20.1535 33.5645 19.632 33.427C19.4282 33.3748 19.2576 33.2705 19.2765 33.0524C19.3002 32.8295 19.4946 32.7631 19.7031 32.7631C23.1682 32.8247 26.6333 32.6825 30.0984 32.7299C38.1331 32.8437 46.1678 32.8959 54.2024 32.9433C57.0798 32.9623 59.9618 32.8959 62.8391 32.8722C63.1425 32.8722 63.4459 32.8674 63.7492 32.8722C65.1334 32.9196 64.8016 33.1614 65.4131 31.753C66.1715 30.0173 66.7782 28.2389 67.0627 26.3515C67.2143 25.3366 67.6599 24.4024 68.0676 23.4682C68.2951 22.9513 68.6459 22.5434 69.2242 22.3727C69.9257 22.1688 70.2149 22.4154 70.0632 23.122C69.6603 25.0663 69.1673 26.987 68.7312 28.9218C67.9064 32.5734 67.2854 36.2677 66.6029 39.9477C65.9013 43.7225 65.0955 47.4737 64.4982 51.2675C63.8962 55.0804 63.1994 58.8742 62.4504 62.6538C61.8579 65.6415 61.2843 68.6291 60.4785 71.5693C60.2841 72.2712 60.0993 72.9731 59.886 73.6702C59.7532 74.0923 59.5304 74.2298 59.1086 74.2203C56.7811 74.1634 54.4489 74.116 52.1167 74.0923C46.6797 74.0401 41.2427 74.1776 35.8057 74.2772C34.5353 74.3009 33.2602 74.2298 31.9993 74.3294C30.4682 74.4527 28.9655 74.1017 27.4439 74.1966C25.9982 74.2867 24.5808 73.9832 23.1445 73.9405C22.0827 73.9073 21.002 73.8362 19.9402 73.637C19.4377 73.5421 18.9068 73.6085 18.3854 73.5279C17.4184 73.3856 16.4466 73.2671 15.4749 73.2007C14.7164 73.1485 13.977 72.9731 13.2185 72.9446C12.6876 72.9256 12.1615 72.8023 11.6353 72.698C11.4457 72.6601 11.3746 72.4846 11.2893 72.2997C10.9622 71.6073 11.2466 70.9386 11.3367 70.2747C11.4362 69.5302 11.5784 68.7951 11.6448 68.0411C11.7111 67.2538 11.8723 66.4761 11.9718 65.6936C12.0667 64.9396 12.1378 64.1856 12.2231 63.4316C12.3037 62.7202 12.37 62.0089 12.4648 61.2975C12.5644 60.534 12.6876 59.7705 12.7966 59.007C12.9151 58.1771 13.0242 57.3424 13.1522 56.5125C13.2849 55.6447 13.4366 54.7816 13.5883 53.9185C13.7873 52.7946 13.9959 51.6754 14.2045 50.5515C14.4131 49.4275 14.6264 48.2989 14.8444 47.1749C15.053 46.089 15.2758 45.0077 15.4796 43.9217C15.6218 43.1677 15.7403 42.4089 15.8683 41.6549C16.0295 40.7254 16.1954 39.8007 16.3471 38.8664C16.4845 38.0033 16.6599 37.145 16.7784 36.2724C16.9491 35.0109 17.1339 33.7447 17.4373 32.4975C17.6601 31.5823 17.7312 30.6338 17.8971 29.7043C18.0772 28.7037 18.2811 27.7078 18.5086 26.7167C18.7314 25.7445 18.8736 24.7581 19.049 23.7764C19.2623 22.5861 19.4756 21.391 19.8738 20.2434C20.0681 19.6791 20.637 19.4325 21.3101 19.6743C21.8647 19.8735 22.4288 19.9778 22.9976 20.0727C23.4858 20.158 23.6043 20.3715 23.5996 20.8647C23.5806 22.8564 24.0499 24.6869 25.5668 26.1096C25.7754 26.3041 25.9792 26.655 26.3442 26.4653C26.7992 26.2282 26.6618 25.863 26.4959 25.4931C26.1783 24.7865 25.8986 24.061 25.581 23.3544C25.1734 22.4438 25.1165 21.4812 25.1497 20.509C25.1591 20.1912 25.088 20.0774 24.7562 20.0774C24.4291 20.0774 24.0926 20.1106 23.7655 19.9778C23.4337 19.8403 23.2536 19.5653 23.3673 19.2807C23.8603 18.0145 24.358 16.7673 25.1307 15.6102C26.5243 13.5188 30.4824 13.2675 31.5821 16.4448C31.9566 17.5261 32.2221 18.6026 32.1367 19.7502C32.0941 20.3383 31.8618 20.5327 31.2645 20.5374C31.1128 20.5374 30.9612 20.5422 30.8095 20.5422C29.9562 20.5469 29.7429 20.3383 29.6007 19.5131C29.4869 18.8349 29.4064 18.1473 29.0556 17.5166C28.4725 16.4638 27.7473 16.369 26.9936 17.3174C26.567 17.8485 26.292 18.4603 26.0693 19.1053C25.946 19.4609 26.0693 19.5226 26.3868 19.5226C27.0647 19.5273 27.7331 19.6079 28.3967 19.7455C28.6716 19.8024 28.8944 19.9446 28.975 20.2197C29.1551 20.8552 29.6434 20.9737 30.2027 20.9832C30.7905 20.9974 31.383 21.0022 31.9566 20.8694C32.5112 20.7414 32.6866 20.9785 32.8051 21.4669C33.0658 22.5245 33.2696 23.601 33.7863 24.5874C34.1039 25.1944 34.45 25.7635 34.9856 26.1997C35.1657 26.3468 35.3364 26.7736 35.5876 26.4938C35.8104 26.2472 36.0664 25.8773 35.744 25.4457C35.3364 24.8956 34.9477 24.3265 34.6159 23.7243C34.1798 22.937 33.9712 22.1071 34.0233 21.2156C34.0423 20.8978 33.9475 20.7983 33.6204 20.784C32.7767 20.7414 32.7008 20.6038 32.6913 19.755C32.6724 18.2754 33.0753 16.9191 33.8906 15.7098C34.9335 14.1543 37.351 13.4477 39.0337 14.7471C39.541 15.136 39.8206 15.6481 39.996 16.2267C40.3895 17.4929 40.7829 18.7591 40.7592 20.1106C40.7497 20.6512 40.4558 20.8362 40.0008 20.8884C39.8491 20.9073 39.6974 20.8884 39.5457 20.8884C38.5076 20.931 38.3227 20.5422 38.2658 19.5273C38.2279 18.7923 38.0525 18.1046 37.697 17.4739C37.3605 16.8716 36.346 16.9048 35.8815 17.5308C35.4312 18.1378 35.1752 18.8444 34.9572 19.5558C34.8624 19.8593 34.9287 20.0442 35.3364 20.0016C35.9005 19.9446 36.474 19.9684 37.0381 19.9494C37.5406 19.9304 37.8677 20.0917 37.9151 20.6607C37.9435 21.0496 38.1805 21.2061 38.5929 21.244C39.3798 21.3104 40.1145 21.0686 40.8777 20.988C41.5982 20.9121 41.7736 21.0401 41.8874 21.742C42.058 22.7521 42.1054 23.7859 42.442 24.7723C42.7264 25.6164 43.3473 26.1286 44.0821 26.5412C44.3049 26.6645 44.466 26.4985 44.5608 26.361C44.6556 26.2235 44.8073 26.0764 44.6225 25.8251C44.1342 25.1612 43.6412 24.4878 43.4469 23.6579C43.2715 22.9038 43.0677 22.1546 43.1672 21.3673C43.2194 20.9595 43.1672 20.7603 42.6126 20.7508C41.5603 20.7319 41.1194 20.4426 41.3896 19.1574C41.6219 18.0477 42.0912 17.0708 42.7453 16.1698C44.0536 14.3582 46.201 13.8176 47.7605 14.6807C48.7133 15.2118 49.0925 16.1745 49.4717 17.1135C49.8699 18.0951 49.8841 19.129 49.7182 20.1628C49.6376 20.656 49.2252 20.7651 48.7607 20.822C47.2059 21.0117 47.1158 19.9067 46.9215 18.8824C46.8504 18.522 46.7129 18.1995 46.5328 17.896C46.1014 17.1704 45.1818 17.1704 44.741 17.8912C44.3997 18.4508 44.2385 19.0863 44.0536 19.7123C43.9873 19.9494 44.1437 19.9778 44.3238 20.0347C44.7362 20.158 45.1486 20.0774 45.561 20.1011C46.182 20.1296 46.7271 20.2529 46.8788 20.9737C46.9262 21.1966 47.1016 21.3009 47.277 21.3294C47.7226 21.4005 48.1776 21.4527 48.6279 21.4574C49.1162 21.4622 49.5238 21.2535 49.8367 20.8552C50.0168 20.6275 50.2349 20.362 50.5809 20.5137C50.9412 20.6702 51.0834 20.9595 51.0976 21.3721C51.126 22.6098 51.3536 23.8286 51.6854 25.0142C51.856 25.6259 52.1689 26.2045 52.7899 26.5175C53.0506 26.6503 53.2971 26.8589 53.591 26.5459C53.8659 26.2566 54.1361 25.9958 53.8801 25.5453C53.591 25.0331 53.3255 24.502 53.0838 23.9614C52.6619 23.0224 52.5102 22.0455 52.5955 21.0401C52.6287 20.637 52.4391 20.5327 52.1452 20.4568C51.8608 20.3857 51.5621 20.3952 51.2682 20.324C50.7421 20.2007 50.4814 20.0869 50.6188 19.4135C50.799 18.522 50.8938 17.6114 51.3014 16.7863C52.1831 15.0032 53.1975 14.2871 55.1173 14.2017C56.6294 14.1353 57.7481 15.0174 58.407 16.7104C58.8099 17.7442 59.0327 18.8207 59.0422 19.9304C59.0422 20.6275 58.644 20.969 57.8998 21.0117C57.1461 21.0591 56.7053 20.822 56.6674 20.049C56.6484 19.6364 56.5062 19.2191 56.3592 18.8255C56.1981 18.3892 55.9468 18.0145 55.5344 17.73C55.1268 17.4502 54.7902 17.5261 54.4584 17.8011C53.9417 18.2279 53.7284 18.8302 53.553 19.4562C53.463 19.7787 53.6668 19.7502 53.8564 19.755C54.4063 19.7597 54.9561 19.7644 55.506 19.7644C55.8852 19.7644 56.1507 19.9162 56.2929 20.2813C56.8143 21.5855 57.4211 21.9032 58.7436 21.5665C59.7248 21.3199 59.867 21.4432 60.0803 22.3917C60.3837 23.748 60.6207 25.1422 61.5024 26.2946C61.6493 26.489 61.7963 26.6929 61.9811 26.8494C62.1186 26.9633 62.1992 27.3284 62.5026 27.0486C62.7348 26.8352 62.9481 26.6455 62.7633 26.2614C62.1707 25.0379 61.6398 23.7859 61.3886 22.4296C61.3223 22.0692 61.3696 21.723 61.3459 21.3721C61.3222 21.0306 61.2322 20.95 60.9051 21.0401C60.0803 21.263 59.6774 20.9548 59.7532 20.1106C59.8954 18.5409 60.4358 17.0803 61.3744 15.8378C62.2324 14.6997 63.5454 14.363 64.8964 14.6048C66.4938 14.8941 67.4134 16.0133 67.7879 17.5545C67.987 18.3702 68.1102 19.2048 68.2287 20.0347C68.3141 20.6418 68.1055 20.8694 67.2286 21.0069C66.8778 21.0591 66.5033 21.0401 66.1525 20.9832C65.5979 20.8931 65.6358 20.3715 65.5458 19.9873C65.3988 19.3851 65.3562 18.7591 65.0812 18.19C64.8632 17.7442 64.5409 17.4407 64.0431 17.3743C63.517 17.3032 63.1615 17.5498 62.8913 18.0003C62.5784 18.522 62.3746 19.0768 62.2418 19.6601C62.1707 19.9636 62.2324 20.158 62.6353 20.1296C63.1994 20.0917 63.7729 20.1059 64.3418 20.1106C64.7731 20.1106 65.067 20.2671 65.2282 20.7319C65.5173 21.5523 66.2568 21.8416 67.1338 21.6519C67.84 21.5001 68.4136 21.1634 68.9682 20.7319C69.2574 20.509 69.6271 20.3904 69.9968 20.3477C70.4851 20.2908 70.8216 20.5327 70.9402 20.9785C71.2246 22.0455 71.4189 23.1315 71.5611 24.2269C71.7318 25.5453 71.8929 26.8684 72.0494 28.1915C72.1963 29.4008 72.3385 30.6148 72.4712 31.8289C72.6229 33.2468 72.7888 34.66 72.9026 36.0827C73.0069 37.4295 73.206 38.7668 73.3861 40.1042C73.5947 41.6644 73.8317 43.2199 74.0355 44.7753C74.1777 45.8376 74.2773 46.9046 74.41 47.9669C74.5806 49.3232 74.7655 50.6795 74.9409 52.0311C75.1021 53.2735 75.2632 54.5208 75.4291 55.7633C75.6424 57.3377 75.8747 58.9121 76.0833 60.4913C76.1544 61.0509 76.2113 61.6152 76.2207 62.1796C76.2444 63.5359 76.5241 64.859 76.7327 66.1916C76.9033 67.2823 77.1404 68.3683 77.2162 69.4638C77.3015 70.692 76.7896 70.9244 75.6282 70.5071C74.0497 69.938 72.5281 69.2361 70.9733 68.6244C69.8878 68.1976 68.9398 68.3019 67.9775 68.8615C66.7214 69.5871 65.3751 70.1467 64.1427 70.9244C63.8251 71.1236 63.626 71.3844 63.4933 71.7258C63.3416 72.1289 63.1899 72.532 63.0098 72.9162C62.7159 73.5421 62.3082 73.7698 61.5119 73.765C61.1042 73.765 60.8008 73.3904 60.8814 73.011C61.2132 71.4935 61.2985 69.919 61.7062 68.4347C62.6116 65.134 63.3368 61.7955 63.9294 58.4332C64.6641 54.2599 65.5363 50.1152 66.3279 45.9562C67.1954 41.4036 68.0628 36.8557 68.9493 32.3078C69.2005 31.0084 69.5892 29.7375 69.7693 28.4239C69.8025 28.1915 69.8594 27.8975 70.2007 27.9212C70.4993 27.9402 70.5088 28.2105 70.5515 28.4334C70.8596 29.9604 70.869 31.5159 70.997 33.0619C71.3952 37.8895 71.8171 42.7124 72.3338 47.5306C72.6277 50.2385 72.8315 52.9558 73.078 55.6684C73.3956 59.1161 73.5852 62.5732 74.0545 66.0066C74.0971 66.3244 74.1114 66.6468 74.1256 66.9693C74.1303 67.1637 74.1019 67.3629 73.8601 67.4056C73.5804 67.4578 73.4856 67.2681 73.4525 67.0499C73.315 66.1584 73.1443 65.2668 73.0638 64.3658C72.7319 60.6526 72.4475 56.9393 72.1015 53.2261C71.7697 49.6077 71.3715 45.9989 71.0302 42.3852C70.7932 39.8623 70.6083 37.3347 70.4045 34.807C70.305 33.5882 70.2149 32.3695 70.0727 31.146C69.7456 31.9379 69.6129 32.7678 69.447 33.593C68.954 36.0969 68.4563 38.6009 68.0154 41.1143C67.2238 45.6195 66.1573 50.0725 65.3799 54.5777C64.5124 59.5713 63.4222 64.5128 62.3082 69.4543C62.0759 70.4881 61.9385 71.5409 61.7678 72.5842C61.7489 72.7122 61.5924 72.8877 61.8247 72.9636C62.0001 73.0205 62.185 72.9636 62.2703 72.7976C62.4552 72.4467 62.6495 72.0957 62.768 71.7211C62.9955 70.9955 63.4316 70.4881 64.0858 70.0992C65.5316 69.2314 67.0295 68.4679 68.5416 67.7328C69.2289 67.4009 69.9115 67.3961 70.6368 67.5953C71.8124 67.9178 72.8979 68.4584 74.0071 68.9326C74.7892 69.2646 75.5808 69.5728 76.4246 69.8147C76.5478 69.184 76.2587 68.6386 76.1781 68.0743C75.3438 62.4025 74.7513 56.6975 73.9976 51.0162C73.3624 46.236 72.6656 41.4557 72.1631 36.6565C71.7175 32.4216 71.3241 28.1868 70.7648 23.9661C70.6557 23.141 70.4661 22.33 70.3239 21.5096C70.2433 21.0449 69.9542 21.0354 69.684 21.2772C69.2526 21.6661 68.7407 21.8985 68.2382 22.164C67.3186 22.643 66.3848 22.624 65.451 22.2115C65.067 22.0407 64.7826 21.7562 64.6688 21.3579C64.5551 20.9642 64.3228 20.8789 63.9531 20.9073C63.517 20.9405 63.0809 20.9548 62.6448 20.9263C62.2324 20.8978 62.1281 21.0638 62.1423 21.448C62.185 23.0224 62.787 24.4261 63.4553 25.8109C63.7919 26.5127 63.735 26.9964 63.242 27.5181C62.7064 28.0872 62.1802 28.1109 61.6114 27.5798C60.7913 26.8068 60.2557 25.8583 59.9476 24.7818C59.7438 24.0752 59.5684 23.3591 59.4309 22.6383C59.3693 22.3063 59.246 22.2541 58.9474 22.3016C58.3501 22.4012 57.7481 22.4628 57.1461 22.3016C56.4446 22.1214 55.9516 21.704 55.7667 21.0117C55.653 20.5943 55.4586 20.4805 55.0557 20.509C54.6812 20.5374 54.2925 20.5327 53.9228 20.4853C53.4393 20.4236 53.3824 20.6465 53.3539 21.0591C53.2639 22.3348 53.6384 23.4871 54.2119 24.5921C54.3352 24.8292 54.4726 25.0521 54.5864 25.294C54.9561 26.0717 54.8566 26.4653 54.1361 27.1387C53.6858 27.5608 53.3113 27.5608 52.5765 27.2051C51.4863 26.674 51.1071 25.6923 50.8653 24.6111C50.6378 23.601 50.5146 22.5766 50.3913 21.5001C49.3579 22.4913 48.1587 22.2115 46.9926 22.0407C46.6181 21.9838 46.3621 21.6803 46.2389 21.3294C46.1204 20.9832 45.9213 20.8836 45.5705 20.8931C45.1391 20.9026 44.6983 20.8504 44.2669 20.8077C44.0252 20.784 43.9351 20.8552 43.9351 21.1113C43.9446 22.6098 44.1247 24.0467 45.1154 25.2797C45.7127 26.0195 45.4093 26.9633 44.5324 27.3284C44.2669 27.4375 44.0489 27.3284 43.8261 27.2336C42.6742 26.7356 41.949 25.8725 41.6219 24.6585C41.4039 23.8523 41.2901 23.0271 41.2142 22.1972C41.1716 21.7278 41.0152 21.6946 40.6122 21.7941C39.9344 21.9696 39.2376 22.0739 38.5313 22.0218C37.8629 21.9744 37.351 21.7183 37.2182 21.0022C37.1661 20.7129 37.0097 20.6892 36.7774 20.7034C36.3034 20.7366 35.8294 20.803 35.3601 20.7745C34.7723 20.7319 34.6727 21.0022 34.7107 21.5049C34.7723 22.3205 35.052 23.0509 35.4833 23.729C35.7061 24.0799 35.9147 24.4498 36.1849 24.7581C36.7916 25.4505 36.7442 26.1476 36.3176 26.8969C36 27.4565 35.654 27.5798 35.1041 27.2288C34.3741 26.7641 33.7911 26.1523 33.3787 25.3793C32.8667 24.4214 32.5207 23.4113 32.3026 22.3537C32.1415 21.576 32.1367 21.5855 31.3593 21.6566C30.7384 21.7088 30.1127 21.7467 29.4917 21.6139C29.0082 21.5096 28.6479 21.263 28.4725 20.8077C28.3635 20.5185 28.1976 20.3809 27.899 20.3572C27.3539 20.3145 26.804 20.2766 26.2589 20.196C25.9176 20.1438 25.8417 20.2671 25.8322 20.5849C25.8038 21.7657 26.093 22.8659 26.5765 23.9329C26.8087 24.4498 27.022 24.9715 27.2401 25.4979C27.406 25.9057 27.406 26.3088 27.1927 26.7024C26.8277 27.3758 26.2826 27.5371 25.6332 27.1292C25.0169 26.7404 24.505 26.2329 24.1305 25.607C23.3389 24.2839 22.8791 22.8564 22.9028 21.3057C22.9075 20.9073 22.8175 20.7651 22.4145 20.803C22.0733 20.8362 21.7462 20.6939 21.4238 20.5849C20.7175 20.3477 20.7128 20.3572 20.5137 21.0875C20.0397 22.8422 19.8596 24.6585 19.4804 26.4321C18.191 32.5402 17.3236 38.7194 16.1812 44.856C15.6123 47.9053 14.9724 50.9356 14.432 53.9896C13.9059 56.9488 13.4935 59.927 13.1048 62.9099C12.7587 65.5751 12.498 68.2497 12.0429 70.8959C12.0429 70.9149 12.0335 70.9339 12.0335 70.9528C11.8628 71.9914 11.8628 71.9772 12.8677 72.1005C15.8541 72.4656 18.8499 72.7739 21.8505 73.0063C26.292 73.3524 30.7289 73.637 35.1894 73.5184C39.4319 73.4094 43.6744 73.343 47.9217 73.2955C50.8938 73.2671 53.8706 73.305 56.8427 73.3193C57.2978 73.3193 57.7529 73.3193 58.2079 73.3572C59.1892 73.4331 59.2129 73.4473 59.4641 72.4846C60.2841 69.3547 60.9146 66.1868 61.5498 63.019C62.7017 57.2713 63.5359 51.462 64.6357 45.7048C65.4889 41.2281 66.3421 36.7514 67.1622 32.2699C67.7121 29.2728 68.5795 26.3515 69.1341 23.3544C69.1341 23.3069 69.1341 23.2643 69.1341 23.2168C69.1009 23.2358 69.0678 23.2595 69.0346 23.2785L69.0441 23.288ZM54.8945 14.9795C54.3304 15.0127 53.591 15.2687 52.9463 15.8947C52.0125 16.8005 51.7186 17.9387 51.4958 19.1432C51.4389 19.4562 51.3631 19.7312 51.8134 19.7028C52.1594 19.6838 52.6619 20.1011 52.8041 19.3993C52.9226 18.797 53.1549 18.2422 53.5056 17.7442C54.3873 16.4733 55.871 16.4922 56.7242 17.7822C57.1272 18.3939 57.3642 19.0721 57.4211 19.7929C57.459 20.2624 57.7339 20.2244 58.042 20.2197C58.4355 20.215 58.3738 19.9209 58.3596 19.6886C58.2838 18.4888 58.0183 17.3316 57.4211 16.2788C56.9375 15.4252 56.1933 14.9605 54.8993 14.9795H54.8945ZM49.0498 19.1811C49.1067 18.0857 48.7891 17.2415 48.3435 16.4401C47.5614 15.0316 45.945 14.6333 44.613 15.5628C43.2715 16.497 42.5605 17.8438 42.2239 19.4182C42.1386 19.8261 42.3092 19.9494 42.6695 19.9873C43.0013 20.0205 43.3047 20.0917 43.3568 19.5937C43.4279 18.9108 43.6934 18.2801 44.0205 17.6778C44.4139 16.9523 45.0112 16.5539 45.8597 16.5918C46.6797 16.6298 47.0874 17.1657 47.3813 17.8438C47.6183 18.3844 47.7889 18.9488 47.8837 19.5226C47.9785 20.0964 48.4004 19.9968 48.7465 20.011C49.1968 20.03 48.9929 19.6459 49.0451 19.4277C49.0735 19.3044 49.0498 19.1622 49.0498 19.1859V19.1811ZM40.0529 19.5605C39.8965 18.4508 39.6642 17.251 39.1712 16.1129C39.0006 15.7145 38.7067 15.4347 38.3227 15.2308C36.8817 14.4673 34.9903 15.1549 34.2793 16.7294C33.9048 17.5545 33.5778 18.4081 33.5256 19.3281C33.5114 19.589 33.2412 19.9636 33.6963 20.0964C34.2509 20.2576 34.1276 19.7407 34.2461 19.4704C34.2698 19.4182 34.2556 19.3566 34.2746 19.3044C34.5969 18.3133 34.9098 17.3079 35.8104 16.6535C36.7869 15.9469 37.934 16.2267 38.4839 17.2937C38.8726 18.0477 39.0243 18.8634 39.048 19.7028C39.0622 20.2292 39.4509 20.0869 39.7448 20.1201C40.1287 20.1628 40.0482 19.8877 40.0482 19.5605H40.0529ZM31.3973 19.2712C31.3451 18.0904 31.0465 17.0139 30.4634 16.0085C30.0842 15.3541 29.5201 15.0221 28.7854 14.8799C27.4581 14.6238 26.5148 15.2213 25.7232 16.184C25.0169 17.0424 24.6424 18.0809 24.2158 19.091C24.1732 19.1954 24.1163 19.2902 24.2443 19.3851C24.5713 19.6269 25.2492 19.4088 25.3677 19.0152C25.6569 18.0382 26.074 17.1419 26.8798 16.4685C27.9653 15.558 29.0793 15.7809 29.7145 17.0471C30.0747 17.7632 30.2454 18.5409 30.3307 19.3329C30.3876 19.883 30.7668 19.7881 31.1128 19.7834C31.5489 19.7834 31.3404 19.442 31.3973 19.2712ZM60.5543 20.196C61.0852 20.2861 61.4455 20.3335 61.4929 19.6127C61.5403 18.8207 61.8721 18.0714 62.3461 17.417C63.28 16.1271 65.0765 16.2883 65.7781 17.711C66.0672 18.2943 66.1904 18.9251 66.3232 19.551C66.4843 20.3335 66.4796 20.324 67.2523 20.2434C67.4703 20.2197 67.5414 20.1723 67.513 19.9352C67.4039 19.0341 67.2949 18.1283 66.9726 17.2747C66.5839 16.2504 65.8444 15.5296 64.7494 15.3873C63.6639 15.2498 62.6542 15.5722 61.9906 16.5112C61.2132 17.6067 60.8909 18.8966 60.5543 20.196Z" fill="#4C4C4C"/>
<path d="M48.6752 47.2034C48.3292 47.0706 48.0543 46.9473 47.7698 46.8572C47.5423 46.7861 47.3859 46.6675 47.4428 46.4162C47.5044 46.1553 47.7272 46.1364 47.9405 46.1696C48.4477 46.2502 48.9312 46.4209 49.3768 46.677C49.6659 46.843 49.9456 46.9141 50.2822 46.8762C50.7751 46.8192 51.2586 46.9568 51.7232 47.1133C51.9081 47.1749 52.055 47.3172 52.0171 47.5401C51.9744 47.7962 51.7659 47.7724 51.5715 47.7772C51.2966 47.7867 51.0453 47.559 50.6946 47.7061C51.2207 48.3415 51.5478 49.0481 51.6189 49.8591C51.7374 51.1727 51.3392 52.2729 50.2016 52.9842C49.0165 53.7288 47.7509 53.8616 46.4995 53.1265C45.6225 52.6143 45.2575 51.6896 45.4614 50.6937C45.7268 49.4038 46.5184 48.5028 47.5897 47.8151C47.9073 47.6112 48.2439 47.4405 48.6657 47.1986L48.6752 47.2034ZM50.8652 50.2906C50.8605 49.3564 50.5239 48.5929 49.8508 47.9811C49.7276 47.872 49.628 47.7155 49.4194 47.7962C48.0021 48.332 46.7317 49.0386 46.2767 50.6273C46.0302 51.4904 46.3383 52.2018 47.0825 52.5906C48.5899 53.3779 50.9979 52.3251 50.87 50.2859L50.8652 50.2906Z" fill="#525252"/>
<path d="M69.0439 23.288C69.0771 23.269 69.1103 23.2453 69.1435 23.2263C69.1435 23.2737 69.1435 23.3164 69.1435 23.3638C69.1103 23.3401 69.0771 23.3117 69.0439 23.288Z" fill="#FEFEFE"/>
</g>
<defs>
<clipPath id="clip0_453_10282">
<rect width="102" height="86.4" fill="white" transform="translate(0.600098 0.799988)"/>
</clipPath>
</defs>
</svg>
