<svg width="110" height="75" viewBox="0 0 110 75" fill="none" xmlns="http://www.w3.org/2000/svg">
<path d="M10.4069 54.4098C9.59055 53.3454 8.66313 52.3633 8.03519 51.1635C5.422 46.1657 3.15658 41.018 1.41284 35.6526C0.770414 33.669 0.248741 31.637 0.0796809 29.5324C-0.277762 25.0766 0.582032 20.8578 2.36441 16.789C3.41742 14.3893 4.7844 12.1879 6.35908 10.1124C7.6536 8.40457 9.16548 6.89993 10.8223 5.53076C11.8318 4.69861 12.793 3.81324 13.8943 3.09721C15.2179 2.23119 16.6959 1.75222 18.1982 1.30712C19.6279 0.881367 21.0915 0.789444 22.5744 0.692682C23.9462 0.600759 25.3132 0.562054 26.6753 0.629787C27.8056 0.687844 28.9601 0.687843 30.0662 1.00716C30.3995 1.10392 30.67 0.910395 30.9695 0.9491C32.2543 1.12811 33.5537 1.11843 34.8434 1.2539C36.3891 1.41839 37.9251 1.62159 39.4563 1.87317C40.9682 2.11991 42.4849 2.35214 43.992 2.62307C46.6873 3.11172 49.3439 3.82775 52.0634 4.16642C53.8941 4.39381 55.7441 4.52444 57.5941 4.41316C60.101 4.26318 62.608 4.06482 65.0907 3.71164C67.5155 3.3633 69.9452 3.02947 72.3459 2.50696C74.9494 1.94091 77.5626 1.42807 80.1903 0.982966C81.6973 0.726548 83.2285 0.576569 84.7597 0.460455C85.7451 0.387884 86.7208 0.397559 87.7014 0.36853C88.0395 0.900718 88.624 0.745901 89.0974 0.813634C90.4209 1.00716 91.7444 1.16197 93.0485 1.50064C95.9081 2.25054 98.5599 3.41168 100.907 5.2308C101.893 5.99521 102.922 6.70641 103.714 7.69821C105.124 9.45927 106.061 11.4816 106.965 13.5233C108.394 16.7551 109.037 20.1417 109.018 23.6639C109.008 25.0524 109.022 26.4361 108.935 27.8246C108.824 29.5324 108.665 31.2306 108.414 32.9191C108.047 35.343 107.583 37.7523 106.931 40.1278C106.332 42.3001 105.622 44.4337 104.921 46.5721C104.453 47.9945 103.888 49.3927 103.294 50.7716C102.642 52.2907 102.158 53.8922 101.183 55.2565C100.806 55.7838 100.318 56.2386 99.9269 56.7611C98.5116 58.6528 96.7872 60.2494 94.9855 61.754C93.5122 62.9877 91.9376 64.0908 90.2953 65.102C88.7351 66.0599 87.1411 66.9404 85.4843 67.7145C84.1753 68.3241 82.8373 68.866 81.5041 69.4127C79.1131 70.3851 76.6835 71.2367 74.2297 72.0253C71.4329 72.9251 68.5637 73.5444 65.6752 74.0863C63.7914 74.4394 61.9124 74.8313 59.9899 74.7007C58.5891 74.604 57.1884 74.6668 55.7876 74.5023C54.4737 74.3524 53.1599 74.541 51.8412 74.512C50.0299 74.4685 48.2233 74.3572 46.412 74.362C45.2237 74.362 44.0354 74.3378 42.852 74.3717C41.8087 74.4007 40.775 74.333 39.7606 74.1153C36.9446 73.5105 34.1575 72.8381 31.4622 71.764C28.0133 70.3851 24.7819 68.6386 21.8257 66.3937C19.4782 64.6133 17.319 62.6346 15.3096 60.4671C13.6673 58.6964 12.2907 56.7369 10.8851 54.7872C10.7595 54.6082 10.6532 54.4292 10.4069 54.4195V54.4098Z" fill="#F6C7B9"/>
<path d="M10.4069 54.4096C10.6532 54.4193 10.7595 54.6031 10.8851 54.7773C12.2907 56.727 13.6673 58.6816 15.3096 60.4572C17.319 62.6247 19.4733 64.6034 21.8257 66.3838C24.7867 68.6287 28.0133 70.3753 31.4622 71.7541C34.1526 72.8282 36.9445 73.5006 39.7606 74.1054C40.775 74.3231 41.8087 74.3909 42.852 74.3618C44.0403 74.328 45.2285 74.3618 46.4119 74.3522C48.2233 74.3473 50.0298 74.4586 51.8412 74.5021C53.1599 74.536 54.4786 74.3425 55.7876 74.4925C57.1835 74.6521 58.5891 74.5941 59.9899 74.6908C61.9124 74.8263 63.7914 74.4296 65.6752 74.0764C68.5637 73.5345 71.4281 72.9152 74.2297 72.0154C76.6835 71.2268 79.1131 70.3753 81.5041 69.4028C82.8421 68.8561 84.1753 68.3142 85.4843 67.7046C87.1411 66.9305 88.7399 66.0549 90.2953 65.0921C91.9376 64.0809 93.5122 62.9778 94.9855 61.7441C96.7824 60.2395 98.5068 58.6429 99.9269 56.7512C100.318 56.2287 100.801 55.7788 101.183 55.2466C102.158 53.8823 102.642 52.2809 103.294 50.7617C103.883 49.3828 104.453 47.9895 104.921 46.5623C105.622 44.4238 106.332 42.2902 106.931 40.1179C107.583 37.7473 108.047 35.3379 108.414 32.9092C108.665 31.2256 108.829 29.5226 108.935 27.8147C109.022 26.4262 109.008 25.0425 109.018 23.654C109.037 20.1319 108.394 16.7452 106.965 13.5134C106.061 11.4717 105.124 9.44938 103.714 7.68832C102.922 6.69652 101.893 5.98532 100.907 5.22091C98.5599 3.40179 95.9081 2.23581 93.0485 1.49075C91.7443 1.15209 90.4209 0.992429 89.0973 0.803745C88.6288 0.736012 88.0395 0.890831 87.7014 0.358643C89.3678 0.469918 91.0246 0.702145 92.6428 1.07951C96.2607 1.92134 99.4873 3.57112 102.357 5.9321C103.994 7.27709 105.119 9.00428 106.057 10.8766C107.119 12.9957 108.051 15.168 108.592 17.4854C108.984 19.1691 109.201 20.8769 109.269 22.6138C109.317 23.7314 109.414 24.849 109.346 25.9617C109.24 27.6841 109.133 29.4064 108.931 31.124C108.665 33.3543 108.307 35.5701 107.82 37.757C107.448 39.4213 106.974 41.071 106.482 42.7111C105.631 45.5124 104.632 48.2604 103.521 50.9649C102.989 52.2615 102.492 53.5871 101.791 54.8063C101.236 55.7788 100.453 56.5867 99.7578 57.4528C99.0285 58.3526 98.1976 59.1606 97.3668 59.9637C95.454 61.8167 93.3673 63.4375 91.1261 64.8792C89.846 65.7065 88.5515 66.5048 87.2087 67.2063C85.436 68.1304 83.6005 68.9432 81.736 69.6592C79.601 70.4817 77.4515 71.2751 75.2875 72.0057C71.8628 73.162 68.3367 73.9312 64.7864 74.5844C63.4388 74.8311 62.0863 74.9376 60.7193 74.9327C58.5795 74.923 56.4397 74.8553 54.3047 74.836C52.445 74.8214 50.5757 74.865 48.716 74.7827C46.4216 74.6811 44.1272 74.7876 41.8376 74.6811C39.7027 74.5795 37.6353 74.028 35.5776 73.491C31.5781 72.446 27.8829 70.7139 24.3809 68.5513C22.1542 67.1724 20.1158 65.5469 18.1788 63.7761C15.3048 61.149 12.8172 58.2172 10.6725 54.9757C10.5566 54.7967 10.4262 54.6322 10.4069 54.4096Z" fill="#F6C7B9"/>
<path d="M52.0189 32.3554C52.0578 29.983 52.0245 28.1786 52.4748 26.4132C52.9252 24.6423 53.9872 23.5563 55.8165 23.2222C56.6894 23.0607 57.5734 22.7599 58.4408 22.8713C61.5711 23.2723 64.6625 22.5762 67.7817 22.6875C70.9121 22.7989 74.048 22.7209 77.1838 22.7711C80.4698 22.8212 83.7614 22.9047 87.0474 23.0105C88.1983 23.0439 89.3493 23.1609 90.5002 23.2723C91.2008 23.3391 91.7457 23.6844 92.1293 24.2914C92.652 25.1212 92.9355 26.0289 92.9689 26.998C93.1023 30.952 93.5749 34.8837 93.5805 38.8488C93.5805 41.2491 93.6139 43.6549 93.5027 46.0496C93.3915 48.4721 93.536 50.9002 93.2691 53.3116C93.2135 53.7961 93.1579 54.2806 93.1135 54.7707C93.0745 55.2273 92.8966 55.5782 92.4574 55.7675C91.9848 55.968 91.6456 55.7285 91.3231 55.4389C89.5772 53.8573 87.8592 52.2479 86.2968 50.477C86.0355 50.1818 85.763 50.076 85.3794 50.0815C81.3595 50.1651 77.3395 50.2709 73.314 50.2987C69.561 50.3266 65.8024 50.2598 62.0493 50.2598C60.587 50.2598 59.1247 50.4157 57.668 50.1094C55.8609 49.7363 54.5654 48.8564 53.7259 47.1133C52.8807 45.3702 52.764 43.5547 52.5471 41.7002C52.1579 38.4033 52.2469 35.0897 52.0245 32.3609L52.0189 32.3554Z" fill="#FC7451"/>
<path d="M25.8821 13.6498C29.3961 13.5774 33.0546 13.2599 36.7131 13.2766C40.7108 13.2933 44.7085 13.3602 48.7062 13.4103C50.6356 13.4381 52.5649 13.4771 54.4887 13.5272C55.0169 13.5384 55.5618 13.5662 56.0733 13.672C56.8406 13.8391 57.4411 14.2512 57.7969 15.003C58.2195 15.8996 58.492 16.8352 58.5364 17.8154C58.6032 19.3469 58.9034 20.8505 59.0924 22.3653C59.1703 22.989 58.6921 23.713 58.0305 23.8745C57.0241 24.1251 56.0566 24.5428 55.0058 24.6096C54.7445 24.6263 54.5777 24.7989 54.4553 25.0328C54.2051 25.5118 53.9883 26.0186 53.9605 26.542C53.8993 27.6893 53.777 28.8365 53.8215 29.9948C53.9271 32.6346 54.0272 35.2798 53.7992 37.9251C53.7103 38.961 53.7881 40.0135 53.499 41.0326C53.2599 41.8847 52.6706 42.3803 51.7921 42.3525C47.5553 42.23 43.3185 42.0629 39.0762 41.9571C35.6122 41.8736 32.1483 41.7121 28.6844 41.8179C27.5557 41.8513 26.4325 41.9961 25.3038 42.0685C24.859 42.0963 24.581 42.3803 24.2919 42.6532C22.9464 43.9174 21.8177 45.3876 20.5555 46.7298C20.1608 47.153 19.7549 47.5651 19.349 47.9716C19.0877 48.2334 18.7485 48.3002 18.4205 48.1888C18.0702 48.0663 18.0424 47.7043 18.0479 47.398C18.1035 44.8641 18.1703 42.3358 18.2314 39.8019C18.2314 39.6905 18.2648 39.5791 18.2648 39.4733C18.2537 36.6275 18.4538 33.7873 18.5428 30.9471C18.6484 27.706 18.704 24.4592 18.8486 21.2181C18.9264 19.5362 19.2211 17.8655 19.5547 16.2115C19.8216 14.8805 21.0003 13.9115 22.3959 13.7723C23.5024 13.6665 24.6088 13.5829 25.8654 13.6386L25.8821 13.6498Z" fill="#A3BE87"/>
<path d="M54.2872 23.8681C56.1109 24.0408 57.8067 23.5618 59.4136 22.7543C60.1197 22.4035 60.8314 22.2476 61.5987 22.2086C67.8649 21.8856 74.1311 21.9747 80.3973 22.0972C83.3553 22.1529 86.3077 22.4592 89.2601 22.7432C90.7502 22.888 91.5453 23.8848 92.0568 25.834C92.4015 27.1427 92.3404 28.5127 92.4404 29.8548C92.7574 34.0929 92.7796 38.342 92.7073 42.5856C92.6628 45.2309 92.6573 47.8762 92.496 50.5159C92.446 51.3179 92.5739 52.1532 92.585 52.9719C92.585 53.3728 92.5516 53.7626 92.4738 54.1581C92.3404 54.8208 92.0679 54.96 91.5063 54.52C90.1274 53.4341 88.8709 52.2256 87.6921 50.928C87.1083 50.2876 86.5023 49.675 85.8962 49.0568C85.6627 48.8229 85.3791 48.7505 85.0289 48.745C79.3131 48.6837 73.614 49.1125 67.9038 49.1793C64.8847 49.2183 61.86 49.1404 58.8353 49.1181C57.5287 49.1069 56.2388 49.0346 54.9822 48.6002C53.2864 48.0154 52.0409 46.6622 52.0576 44.6239C52.0854 41.1767 51.9686 37.7294 51.9297 34.2878C51.913 32.89 51.9297 31.4921 51.9297 30.033C50.7287 30.4953 49.6779 31.1134 48.6103 31.6926C47.8764 32.0936 47.1036 32.3943 46.314 32.6449C45.9971 32.7452 45.8136 32.89 45.7024 33.2241C45.2243 34.6498 44.1956 35.5854 42.7611 35.875C41.8882 36.0532 40.943 35.9752 40.0367 35.7246C38.5299 35.3069 37.4012 34.427 36.5839 33.1071C36.3671 32.7563 34.9715 32.3832 34.5211 32.5335C32.8642 33.096 31.135 33.2687 29.4336 33.096C27.5599 32.9011 26.4145 32.1604 26.3367 29.8437C26.32 29.3258 26.2477 28.7967 26.4701 28.2899C26.6258 27.9447 26.5257 27.6829 26.1421 27.5604C25.5749 27.3766 25.3692 26.8531 25.1635 26.3909C25.0412 26.118 24.9077 26.0011 24.6575 25.9175C23.2063 25.4275 22.4335 24.1466 22.3334 22.6318C22.1444 19.825 25.8919 17.3468 28.5551 18.2379C29.9007 18.6889 31.0405 19.4129 32.108 20.3095C32.4194 20.5713 32.7308 21.0391 33.1144 20.911C33.2923 20.8553 32.9198 20.265 32.8642 19.9141C32.6307 18.3882 33.3479 17.358 35.2217 17.2688C36.7896 17.1965 38.124 17.9037 39.325 18.8616C39.9867 19.3851 40.6094 19.9475 41.1098 20.6381C41.2655 20.8497 41.4656 21.0725 41.7714 20.9778C41.9494 20.9221 42.1607 20.8219 42.2441 20.6715C42.3163 20.549 42.0939 20.4321 41.9883 20.3318C41.4768 19.8584 41.1098 19.3071 40.8763 18.6444C40.5371 17.6698 40.9374 16.7788 41.9716 16.4558C43.6285 15.9379 45.2632 16.0994 46.8867 16.6618C48.16 17.1018 49.1219 17.8759 49.689 19.1122C49.7946 19.3517 49.9448 19.5076 50.1894 19.5967C51.5961 20.0979 52.0242 21.2507 52.191 22.5873C52.23 22.888 52.0465 23.2277 52.508 23.4282C52.9416 23.6175 53.1307 23.3669 53.4254 23.1664C54.5485 22.3979 55.8384 22.0638 57.1673 21.9246C58.246 21.8132 58.2404 21.8522 58.3238 20.8275C58.3961 19.9698 58.1904 19.14 58.0736 18.3047C58.0013 17.7923 58.0402 17.2688 57.9457 16.7454C57.8234 16.0604 57.5676 15.4422 57.323 14.8129C57.1895 14.4732 56.9115 14.3173 56.6057 14.3173C55.9941 14.3173 55.3825 14.2226 54.7876 14.1502C52.5358 13.8829 50.2784 13.894 48.021 13.8216C44.8239 13.7158 41.6269 13.855 38.4243 13.894C34.1375 13.9497 29.8451 13.8439 25.5583 13.9163C23.8513 13.9441 22.1166 13.9998 20.4374 14.4454C19.9982 14.5623 19.5867 14.7851 19.1753 14.9855C18.6638 15.2362 18.6471 15.7708 18.5804 16.233C18.4525 17.1463 18.3635 18.0708 18.3024 18.9952C17.9132 25.1824 17.7964 31.3752 17.6685 37.5679C17.6129 40.3246 17.6463 43.0868 17.6463 45.8435C17.6463 46.0328 17.5795 46.2445 17.7853 46.445C18.7138 45.5372 19.6535 44.6406 20.5542 43.7106C20.6988 43.5658 20.8155 43.3597 20.9712 43.2094C21.7885 42.4464 22.4947 41.5776 23.3342 40.8314C23.6067 40.5863 23.8624 40.4805 24.2016 40.4638C32.4694 40.1241 40.7373 40.4972 49.0051 40.4917C49.4666 40.4917 49.9281 40.5641 50.3896 40.6142C50.6731 40.642 50.9511 40.759 50.9511 41.0709C50.9511 41.4106 50.7176 41.6222 50.3784 41.6667C50.2061 41.689 50.0004 41.7169 49.8502 41.6556C49.1664 41.3771 48.4547 41.4495 47.7541 41.444C40.3314 41.3939 32.9087 41.2045 25.486 41.2491C24.3128 41.2546 23.5622 41.728 22.8839 42.5188C21.3326 44.3287 19.5478 45.9103 17.9076 47.6256C17.6796 47.8651 17.3571 47.9931 17.0625 47.9096C16.7233 47.8094 16.8845 47.4529 16.8845 47.2079C16.7845 41.2658 16.8456 35.3292 17.0069 29.3926C17.0625 27.4379 17.0291 25.4776 17.1514 23.5284C17.2181 22.4647 17.2571 21.3844 17.3405 20.3207C17.4461 18.9897 17.6185 17.6642 17.6518 16.3277C17.6852 15.0802 18.636 14.0555 20.0149 13.6546C21.8163 13.1311 23.6678 13.0253 25.5138 13.003C30.9793 12.9417 36.4505 12.9751 41.916 12.9139C46.0138 12.8693 50.1116 12.9194 54.2093 13.1311C55.0211 13.1756 55.8329 13.2703 56.6447 13.3872C57.5454 13.5153 58.157 14.011 58.4628 14.902C58.7464 15.7318 59.0188 16.5672 59.0967 17.4415C59.2134 18.7613 59.3135 20.0868 59.3858 21.4066C59.4191 22.0693 58.7519 22.6986 58.1014 22.7209C56.7837 22.7655 55.516 23.0495 54.3261 23.6342C54.2149 23.7011 54.0759 23.7679 54.3094 23.8626L54.2872 23.8681ZM36.2614 24.219C36.3059 24.1744 36.3504 24.1243 36.2447 24.102C36.2559 24.141 36.2614 24.1744 36.2725 24.2134C36.3059 24.2301 36.3393 24.2468 36.3782 24.258C36.3782 24.258 36.3893 24.2413 36.3949 24.2301C36.3504 24.2301 36.3059 24.2246 36.2614 24.219ZM91.6787 53.4229C91.6787 51.9527 91.6398 50.6217 91.6843 49.3019C91.8121 45.6319 91.801 41.9619 91.8066 38.2919C91.8066 34.2822 91.7176 30.2781 91.2339 26.3074C90.9781 24.1856 90.3276 23.7178 88.6596 23.573C85.9352 23.3391 83.2107 23.0885 80.4807 23.0272C73.9254 22.8769 67.37 22.8212 60.8147 23.0384C60.6479 23.0384 60.5312 23.0885 60.3922 23.172C58.4406 24.3694 56.3389 24.9263 54.0481 24.6144C53.6311 24.5587 53.3976 24.5977 53.3309 25.0989C53.1863 26.2238 53.114 27.3543 53.0584 28.4849C53.0417 28.819 53.2197 28.8413 53.4699 28.8468C54.3984 28.8803 55.2435 29.2033 56.0553 29.6321C58.1125 30.718 59.547 32.4222 60.6868 34.388C62.2437 37.0834 64.1508 39.3779 67.1754 40.5195C68.4431 40.9985 69.6997 41.5164 71.0341 41.7336C73.8364 42.1902 76.5887 42.012 78.8683 40.1241C81.4649 37.9745 81.9041 35.1677 80.3195 32.3052C79.6912 31.1691 78.6348 30.3561 77.5505 29.6488C75.7824 28.5016 73.892 27.7219 71.7125 28.2008C69.3383 28.7188 67.409 30.8573 67.3923 32.9902C67.3589 36.2815 70.7506 39.2776 74.031 38.8544C75.7046 38.6372 77.1558 37.2059 77.128 35.7858C77.0891 33.5917 74.9818 31.5812 72.8022 31.6648C71.9293 31.6982 71.251 32.0546 70.8951 32.8732C70.5838 33.5972 70.9785 34.1541 71.4122 34.6776C71.9627 35.3459 72.641 35.8026 73.5473 35.6411C74.0088 35.5575 74.1978 35.2067 74.0533 34.7333C73.892 34.221 73.5028 34.0038 73.0802 34.2154C72.8467 34.3323 72.6577 34.3657 72.4909 34.1541C72.3074 33.9258 72.3741 33.6863 72.5354 33.4858C72.7244 33.2519 72.969 33.1294 73.286 33.1127C74.1422 33.0682 75.0207 33.9425 75.0819 34.9226C75.1375 35.7469 74.4258 36.5377 73.5195 36.6045C72.0016 36.7103 71.0119 35.8805 70.2724 34.672C69.5718 33.5304 69.7164 32.4667 70.6561 31.5311C71.1287 31.0633 71.718 30.8127 72.3741 30.7236C75.2709 30.3393 78.2344 33.096 78.0899 36.0309C78.0009 37.9132 75.9826 39.7399 73.9087 39.8234C71.7848 39.9069 70 39.0382 68.4598 37.6905C66.764 36.2035 66.119 34.2321 66.5416 32.0323C67.042 29.4037 69.7442 27.1873 72.4798 27.1316C76.2328 27.0481 79.1463 28.858 81.0812 31.8597C83.2218 35.1733 82.3155 38.6428 79.2019 41.1154C77.5617 42.4186 75.5934 42.7416 73.5751 42.8808C71.1231 43.0534 68.8935 42.2292 66.7028 41.2936C64.868 40.5084 63.2 39.467 61.9601 37.8408C61.1261 36.7437 60.381 35.5909 59.6638 34.4159C58.8909 33.1573 57.9902 32.0156 56.7948 31.1246C55.8774 30.4396 54.8877 29.905 53.7479 29.6989C53.2586 29.6098 52.9528 29.6098 52.9416 30.3115C52.9194 31.6202 52.836 32.9289 52.8471 34.2432C52.8694 37.0444 53.0918 39.8457 52.9583 42.6469C52.925 43.3541 53.0362 44.067 53.0362 44.7798C53.0362 46.7234 54.7542 47.8149 56.2888 47.9542C61.1483 48.4053 66.0134 48.2883 70.8785 48.1602C75.5434 48.0321 80.2027 47.7537 84.8676 47.8094C85.4792 47.8149 85.9963 48.0043 86.4578 48.383C87.2807 49.0624 88.0257 49.8254 88.7374 50.6273C89.6048 51.6074 90.6167 52.4372 91.6676 53.4174L91.6787 53.4229ZM46.8422 27.3878C47.1258 27.3878 47.4038 27.4602 47.5928 27.1928C48.2879 26.2071 48.8439 25.1546 49.0885 23.9628C49.1386 23.7289 49.1775 23.495 48.8216 23.4003C47.0202 22.927 45.2632 22.3534 43.6174 21.4512C43.1559 21.195 42.6777 21.5626 42.3608 21.8466C42.1106 22.0693 42.5387 22.32 42.6889 22.5316C43.6174 23.8904 44.4514 25.2994 45.0352 26.842C45.1186 27.0592 45.1965 27.2374 45.48 27.2485C45.9415 27.2764 46.403 27.3376 46.8422 27.3878ZM33.7649 31.8318C33.1644 31.4699 32.753 31.1803 32.4416 30.7626C31.7188 29.788 31.1684 28.741 31.0794 27.4991C31.0516 27.126 30.9293 26.9868 30.5457 27.1706C29.9229 27.4713 29.2557 27.6439 28.5829 27.772C27.4765 27.9781 27.4098 28.0226 27.2596 29.1364C27.2263 29.3759 27.2318 29.6265 27.243 29.866C27.3097 31.2248 27.8212 31.8486 29.1612 32.0936C30.6402 32.3665 32.1025 32.127 33.7649 31.8263V31.8318ZM32.147 21.5737C31.3129 20.8107 30.4845 20.1202 29.5115 19.619C27.3041 18.4885 25.536 18.9507 23.8958 20.8497C22.8616 22.0471 23.173 24.1076 24.4407 24.8316C24.8077 25.0432 25.1802 25.2548 25.3025 24.5309C25.4637 23.5786 25.9252 22.7432 26.5146 21.9747C28.0214 19.9977 29.7339 19.8083 31.6187 21.4345C31.7466 21.5459 31.8356 21.7408 32.1414 21.5681L32.147 21.5737ZM35.7666 20.3207C37.2678 20.3207 37.8627 21.273 37.0621 22.4926C36.6562 23.1108 36.7451 23.3948 37.3456 23.6732C37.4624 23.7289 37.5736 23.8124 37.6792 23.896C37.9517 24.1187 38.1185 24.0909 38.3798 23.8013C39.0136 23.094 39.6308 22.3478 40.4648 21.8522C40.7984 21.6517 40.6928 21.4957 40.4926 21.2953C39.9311 20.7328 39.4084 20.109 38.7968 19.6078C37.8238 18.817 36.7229 18.2212 35.4218 18.1989C34.0985 18.1766 33.5759 18.9841 34.0485 20.2037C34.1597 20.4933 34.2709 20.6381 34.6267 20.51C34.9993 20.3819 35.394 20.2873 35.7721 20.3207H35.7666ZM46.0805 31.8485C46.5142 31.687 46.9145 31.5757 47.287 31.3919C48.6937 30.6958 50.0782 29.9439 51.496 29.2757C51.9575 29.0585 52.1799 28.8357 52.1799 28.3011C52.1799 27.0815 52.3189 25.8674 52.558 24.6701C52.5969 24.4807 52.6247 24.3025 52.3912 24.2413C52.1132 24.1633 52.1354 24.4083 52.0798 24.5587C52.052 24.6422 52.0632 24.7369 52.0409 24.8204C51.307 27.5938 50.6231 28.4292 48.1377 28.3456C47.9153 28.3401 47.7652 28.4459 47.6207 28.5907C47.1981 29.0195 46.7144 29.3759 46.2028 29.6878C46.0249 29.7936 45.8525 29.8883 45.9193 30.1444C46.0638 30.6791 46.0249 31.236 46.0805 31.8541V31.8485ZM48.7716 19.3572C48.6771 19.1512 48.6437 19.0732 48.5992 19.0008C47.9487 17.926 46.8867 17.5139 45.7469 17.2354C44.6126 16.9626 43.4728 16.8456 42.3497 17.2633C41.6825 17.5083 41.5268 17.8647 41.777 18.5052C42.0717 19.2626 42.6611 19.7582 43.306 20.2093C43.5006 20.3485 43.673 20.2873 43.8676 20.226C45.4244 19.7304 46.9868 19.2403 48.7716 19.3628V19.3572ZM41.8048 29.9439C42.5888 29.9885 43.395 29.8493 44.179 29.5987C44.3958 29.5263 44.8184 29.5485 44.7072 29.1531C44.5849 28.7243 44.7516 28.0839 44.1011 27.9558C42.1773 27.5771 40.4871 26.6749 38.8357 25.6669C38.6634 25.5611 38.4854 25.2437 38.2186 25.5221C37.9239 25.8284 38.2019 26.0345 38.3687 26.2572C39.0248 27.1316 39.4807 28.0728 39.2639 29.2088C39.2083 29.504 39.3584 29.5931 39.5975 29.6711C40.3036 29.8827 41.0264 29.9718 41.8048 29.9495V29.9439ZM41.3378 32.6115C42.5443 32.6505 43.584 32.6226 44.596 32.3275C44.8462 32.2551 45.063 32.1771 45.0797 31.8708C45.1019 31.4699 45.1242 31.0745 45.0519 30.6791C45.0019 30.4062 44.9296 30.3282 44.6182 30.4284C42.7778 31.0243 40.9208 31.0466 39.0748 30.4284C38.8913 30.3672 38.7634 30.3171 38.6133 30.5008C38.2297 30.9742 37.7126 31.2805 37.1899 31.5701C36.7729 31.7984 36.9453 32.0268 37.2289 32.1938C37.3957 32.2885 37.6125 32.2996 37.8071 32.3331C39.0303 32.5224 40.2591 32.695 41.3378 32.6226V32.6115ZM36.6061 30.9018C36.9898 30.7292 37.3401 30.5008 37.6681 30.2335C37.9517 30.0052 37.985 29.8493 37.6737 29.5708C36.8675 28.8524 36.5339 27.9001 36.8007 26.8698C36.9787 26.1737 36.8508 25.7393 36.2614 25.3885C36.128 25.3105 36.0168 25.1991 35.9056 25.0933C35.1105 24.3749 35.1216 24.3861 34.2653 25.0209C34.0207 25.2047 33.9818 25.3551 34.1097 25.628C34.8825 27.2708 35.6554 28.9137 36.317 30.6011C36.3671 30.7292 36.3949 30.9074 36.6061 30.9018ZM44.1122 26.9868C43.4117 25.3606 42.5888 23.9572 41.5991 22.6374C41.3934 22.3645 41.2321 22.4313 40.993 22.5706C40.2146 23.0328 39.6809 23.7568 39.0415 24.3582C38.8413 24.5476 38.958 24.6534 39.136 24.7592C40.6594 25.6948 42.1885 26.6081 44.1122 26.9812V26.9868ZM31.7967 26.7473C31.8912 28.251 32.3805 29.4929 33.3146 30.5287C33.7038 30.9575 34.2542 31.1803 34.7824 31.4142C35.0382 31.5255 35.2884 31.4587 35.4719 31.3251C35.6998 31.1691 35.4719 30.9742 35.4052 30.8016C34.8158 29.22 34.0541 27.7219 33.3591 26.1849C33.2979 26.0512 33.2868 25.8674 33.1144 25.8173C32.8809 25.7449 31.7967 26.6025 31.7967 26.7418V26.7473ZM29.2946 21.2451C29.0611 21.3064 28.8109 21.3287 28.5941 21.4345C27.2263 22.1028 26.5869 23.3224 26.1977 24.7091C26.0809 25.1212 26.4201 24.9875 26.6091 24.943C27.6822 24.6924 28.772 24.4974 29.4726 23.4839C29.656 23.2221 30.0063 23.0829 30.2287 22.8379C30.4567 22.5873 31.0627 22.5761 30.9015 22.1139C30.7903 21.7853 30.3622 21.6015 30.0063 21.4623C29.7784 21.3732 29.5393 21.3231 29.2891 21.2507L29.2946 21.2451ZM44.7239 33.1684C42.3886 33.5917 40.1368 33.4691 37.8405 33.1517C38.7023 34.4604 40.437 35.1844 42.2663 34.9895C43.395 34.867 44.2846 34.3657 44.7239 33.174V33.1684ZM44.6627 20.989C46.1806 21.7463 47.6763 22.1807 49.222 22.5984C49.222 21.9969 49.222 21.4456 49.222 20.8999C49.222 20.3931 48.9551 20.2204 48.4769 20.2371C47.2148 20.2817 45.9749 20.4543 44.6627 20.989ZM48.627 27.3989C49.322 27.3376 49.9058 27.3042 50.2561 26.803C50.7843 26.0456 51.0623 25.1713 51.1902 24.2635C51.2625 23.7401 50.7399 23.9851 50.5119 23.8459C50.3784 23.7623 50.1171 23.6677 50.0615 24.0074C49.8614 25.2047 49.3387 26.2795 48.6326 27.4045L48.627 27.3989ZM29.6672 24.5643C30.4066 24.7035 31.0183 24.9931 31.5298 25.4609C31.6688 25.589 31.7855 25.5556 31.9468 25.4832C32.8197 25.0766 32.8642 24.9652 32.386 24.1187C32.2248 23.8292 32.0358 23.5507 31.8801 23.2611C31.7411 23.0105 31.5965 22.9715 31.363 23.1553C30.807 23.5897 30.2065 23.974 29.6727 24.5754L29.6672 24.5643ZM27.9547 26.9979C28.961 26.8865 29.7839 26.6025 30.5901 26.2405C30.857 26.1236 30.857 26.0178 30.6457 25.8229C29.9229 25.1657 28.9221 25.2827 28.4384 26.1013C28.2938 26.3464 28.1659 26.6025 27.9547 26.9979ZM50.195 20.6325C50.195 21.273 50.195 21.8911 50.195 22.5037C50.195 23.133 50.7621 22.9047 51.0679 23.0662C51.2236 23.1497 51.2792 23.0105 51.3014 22.8601C51.4071 22.1974 50.7955 20.9555 50.195 20.6325ZM34.4377 23.8347C34.3821 23.7345 34.371 23.6899 34.3432 23.6621C33.9095 23.2221 33.4758 22.7822 33.0254 22.3534C32.892 22.2253 32.7308 22.281 32.6084 22.3923C32.4639 22.5149 32.5806 22.6318 32.6474 22.7376C32.9087 23.1999 33.17 23.6565 33.4369 24.1132C33.5092 24.2357 33.5592 24.4362 33.7705 24.3081C34.004 24.1577 34.2264 23.9907 34.4433 23.8347H34.4377ZM35.811 21.234C35.4552 21.2841 35.066 21.1727 34.8492 21.518C34.7657 21.6461 35.7276 22.6485 35.8666 22.5761C36.2503 22.3812 36.4338 22.0025 36.4671 21.6071C36.5116 21.0781 36.0446 21.3231 35.8166 21.234H35.811ZM27.6766 25.5444C27.1985 25.6502 26.7759 25.7338 26.3589 25.834C26.2477 25.8618 26.0587 25.8841 26.0865 26.0568C26.1532 26.4299 26.3812 26.6861 26.7259 26.8364C27.0928 26.9979 27.1095 26.6582 27.2152 26.4689C27.3764 26.1849 27.5043 25.8841 27.6766 25.5333V25.5444ZM37.6737 26.803C37.5736 27.7609 37.657 28.4793 38.4298 29.0529C38.4854 28.1786 38.1908 27.5437 37.6737 26.803ZM45.7135 28.8636C45.9804 28.741 46.2362 28.6074 46.4586 28.2899C46.1027 28.2343 45.7914 28.0839 45.5745 28.2677C45.4189 28.3958 45.5745 28.6686 45.7191 28.8636H45.7135ZM36.6395 24.297C36.6784 24.6756 36.9842 24.7926 37.1899 25.0098C37.2622 25.0878 37.3623 25.1769 37.4624 25.0543C37.5958 24.8928 37.4401 24.826 37.3401 24.7536C37.1121 24.5977 36.8786 24.4473 36.6451 24.2914L36.6395 24.297ZM17.7352 46.6733C17.7352 46.6733 17.713 46.6454 17.7019 46.6343C17.6908 46.6454 17.6685 46.6566 17.6685 46.6733C17.6685 46.6844 17.6852 46.7011 17.6963 46.7123C17.7074 46.7011 17.7186 46.69 17.7352 46.6733Z" fill="#505050"/>
</svg>
