<svg width="55" height="50" viewBox="0 0 55 50" fill="none" xmlns="http://www.w3.org/2000/svg">
<g clip-path="url(#clip0_453_9091)">
<path d="M24.7546 49.9221C24.2265 49.9596 23.7013 49.9221 23.1703 49.9797C22.7085 50.0317 22.2266 49.9826 21.7649 49.9048C21.332 49.8326 20.8933 49.824 20.4634 49.8067C18.9599 49.7519 17.5054 49.4346 16.0683 49.048C14.4811 48.6211 12.9112 48.1365 11.3903 47.502C9.8926 46.8789 8.41795 46.1924 7.2665 45.0184C5.95057 43.6742 4.59712 42.356 3.6246 40.7147C2.52799 38.86 1.60164 36.936 1.04467 34.8419C0.692604 33.5237 0.375164 32.1997 0.173156 30.8526C-0.0490519 29.3584 -0.0750243 27.8643 0.202014 26.3672C0.46751 24.9336 0.808037 23.5202 1.35346 22.1645C2.07491 20.3645 3.19172 18.8733 4.79047 17.7368C6.35747 16.6262 8.02836 15.758 9.90414 15.3282C11.0989 15.0542 12.3051 14.8523 13.5258 14.7253C14.3339 14.6417 15.1333 14.4975 15.9413 14.4023C16.2818 14.3619 16.6281 14.3359 16.9686 14.3244C18.3509 14.284 19.6207 13.8686 20.7548 13.1071C23.355 11.362 26.1398 10.0207 29.1324 9.11209C30.3733 8.73422 31.6373 8.47461 32.933 8.35058C33.5044 8.29577 34.0873 8.24674 34.6472 8.25539C36.0814 8.28424 37.4926 8.4948 38.846 9.04575C40.7478 9.81879 42.4562 10.8947 44.1011 12.1033C45.5065 13.136 46.8138 14.2725 47.9999 15.5416C48.8339 16.433 49.5495 17.4195 50.118 18.5012C51.0098 20.2001 51.8611 21.9222 52.5768 23.7019C52.7586 24.1519 53.0414 24.55 53.2088 24.9913C53.4858 25.7124 53.6878 26.4653 53.8638 27.221C54.0687 28.1008 54.2303 28.9921 54.3689 29.8834C54.6661 31.8045 54.4179 33.6275 53.33 35.289C52.3084 36.8553 51.1194 38.2831 49.7458 39.5523C48.6117 40.5965 47.3419 41.4733 46.0404 42.2954C44.6408 43.1781 43.2527 44.0954 41.7405 44.7732C40.0956 45.5117 38.4449 46.2385 36.7394 46.8443C34.9213 47.4904 33.0975 48.1279 31.2419 48.6644C29.7211 49.1029 28.2002 49.5413 26.6448 49.8442C26.0243 49.9653 25.3866 49.948 24.7517 49.9221H24.7546Z" fill="#FEF5ED"/>
<path d="M33.1263 13.2888C34.9703 13.0004 36.6124 13.6898 38.2602 14.3388C39.4145 14.7917 40.0725 15.7032 40.5082 16.8195C41.0248 18.1377 41.3336 19.5194 41.7434 20.8693C42.3753 22.9404 43.3536 24.824 44.8456 26.4249C45.2612 26.872 45.2929 27.2412 44.9149 27.7229C44.2915 28.519 43.6451 29.2978 42.9814 30.0622C42.5283 30.5814 42.0377 31.0718 41.55 31.5593C41.1748 31.9372 40.8834 31.9026 40.5342 31.4987C39.7146 30.5439 38.7421 29.7449 37.8186 28.8969C37.6455 28.7383 37.3973 28.6661 37.1838 28.5508C36.0208 27.9219 34.9992 27.146 34.3557 25.9489C34.2085 25.6749 34.018 25.4297 33.7987 25.2047C33.2966 24.6942 33.0339 24.0365 32.7136 23.4106C32.1336 22.2712 31.7902 21.0193 31.0831 19.9376C30.4281 18.9338 29.721 17.9733 28.9159 17.082C28.4137 16.5253 27.9434 15.9455 27.5422 15.3109C27.0949 14.5984 27.2479 14.1946 28.0444 13.9379C28.4974 13.7936 28.9649 13.7244 29.4324 13.7071C30.4338 13.6667 31.4208 13.5254 32.3991 13.3177C32.6415 13.2658 32.881 13.2946 33.1176 13.2888H33.1263Z" fill="#F9B59F"/>
<path d="M16.7753 21.5991C16.7955 23.4366 16.4953 25.1788 16.1981 26.921C15.9384 28.4354 15.6556 29.9469 15.5084 31.4786C15.4218 32.3699 15.3958 33.2641 15.3179 34.1554C15.2833 34.539 15.0957 34.8044 14.7234 34.9169C14.1261 35.0957 13.5143 35.0467 12.914 34.9659C12.2647 34.8765 11.6212 34.7582 10.9603 34.7784C10.6948 34.7871 10.4553 34.7207 10.2014 34.9255C9.97626 35.1073 9.63285 34.8823 9.58668 34.539C9.47413 33.7169 9.50876 32.8948 9.54628 32.067C9.57802 31.3603 9.72231 30.6478 9.59245 29.9353C9.57513 29.8459 9.57225 29.7479 9.58668 29.6584C9.75405 28.6489 9.41064 27.7172 9.07589 26.8114C8.85656 26.2172 8.45832 25.6865 8.07739 25.1644C7.95907 25.0028 7.84364 24.8442 7.94753 24.6307C8.00525 24.5154 7.91867 24.4317 7.87827 24.3423C7.57526 23.6962 7.28956 23.0443 7.0587 22.3664C7.02118 22.2568 7.02984 22.1356 6.82206 22.2366C6.62871 22.3289 6.52771 22.1356 6.54791 21.9597C6.57388 21.7087 6.70086 21.4664 6.53059 21.2155C6.49019 21.1549 6.54502 21.0626 6.59697 20.9963C7.15393 20.2809 7.74552 19.5886 8.25631 18.8387C9.20286 17.4483 10.4813 16.3551 11.549 15.0744C12.0569 14.4629 12.562 13.8513 13.2199 13.3869C13.6643 13.0725 14.1174 12.8908 14.6167 13.2196C14.7638 13.3177 14.937 13.0206 15.0264 13.2802C15.0784 13.4302 15.0034 13.5975 15.1015 13.7475C15.6325 14.5609 15.8807 15.484 16.1144 16.4099C16.5502 18.132 16.7983 19.8771 16.7781 21.5991H16.7753Z" fill="#F9B59F"/>
<path d="M12.2648 20.9473C12.1436 20.4973 12.0224 20.0444 11.9012 19.5944C11.7858 19.1618 11.6848 18.7262 11.5491 18.2993C11.477 18.0772 11.5347 17.9301 11.679 17.7714C12.0859 17.3243 11.9907 16.283 11.5174 15.9109C11.4251 15.8388 11.3039 15.7552 11.2028 15.7927C10.8912 15.9109 10.8594 15.7321 10.7931 15.4984C10.1842 13.3408 9.77437 11.1399 9.28089 8.95637C9.10486 8.18333 8.91728 7.41316 8.85379 6.61993C8.79319 5.85553 8.88842 5.65362 9.61853 5.37382C10.6747 4.96999 11.7771 4.73346 12.8939 4.56616C13.6212 4.45655 14.3484 4.3354 15.0785 4.23444C15.2199 4.21425 15.3094 4.16521 15.3786 4.04695C15.5489 3.74696 15.8057 3.53927 16.103 3.37486C16.3598 3.23352 16.5387 3.0316 16.5503 2.72584C16.5705 2.21529 16.8591 1.89511 17.2919 1.69031C17.5805 1.55474 17.7594 1.36436 17.8518 1.04706C18.0163 0.496123 18.3424 0.0749848 18.9686 0.0172947C19.6496 -0.0461644 20.2816 0.0951763 20.6626 0.709576C20.8761 1.05283 21.1503 1.15956 21.511 1.18263C21.9814 1.21148 22.4489 1.27494 22.9106 1.38743C23.3493 1.49416 23.6465 1.75088 23.7821 2.18356C23.7879 2.20663 23.8023 2.22394 23.811 2.24702C24.1804 3.26236 24.5815 3.49024 25.6522 3.28832C26.8959 3.05468 28.1426 2.83546 29.4124 2.79219C29.701 2.78353 29.9895 2.7893 30.2752 2.80661C30.5725 2.82392 30.7341 3.04602 30.887 3.26236C31.343 3.90272 31.5219 4.65846 31.7585 5.38824C32.5406 7.78238 33.1264 10.2284 33.6314 12.6947C33.7209 13.1303 33.5593 13.511 33.3429 13.8745C33.288 13.9696 33.1986 13.9725 33.1062 13.9841C32.809 14.0216 32.5146 14.0706 32.2174 14.1023C31.8509 14.1398 31.5161 14.2552 31.2564 14.5206C30.9592 14.8235 30.6186 14.8581 30.2117 14.8004C29.6 14.7138 28.9795 14.6244 28.3562 14.7254C27.7905 14.8177 27.6347 15.0744 27.8309 15.6225C28.0532 16.2369 28.4514 16.7474 28.8208 17.2753C30.1656 19.1992 31.5075 21.1232 32.6127 23.2058C33.1466 24.2096 33.77 25.1673 34.3875 26.1221C34.8204 26.7913 35.4611 27.2586 36.1363 27.6653C36.751 28.0345 37.1839 28.5537 37.4811 29.1998C37.5706 29.396 37.686 29.5863 37.8043 29.7681C38.1997 30.368 38.0294 30.8873 37.3455 31.1151C36.6298 31.3517 35.8795 31.4065 35.1436 31.5334C32.4021 32.0151 29.6577 32.491 26.9104 32.9526C25.0028 33.2727 23.0924 33.567 21.1762 33.8266C19.9902 33.9881 18.8099 34.1727 17.6238 34.34C17.2948 34.3862 16.9601 34.4208 16.6282 34.4352C16.1607 34.4525 15.901 34.2737 15.8086 33.8179C15.5258 32.4218 15.0785 31.069 14.686 29.7017C14.5735 29.3152 14.7178 28.9489 14.7986 28.5854C15.1304 27.0653 15.471 25.5509 15.4537 23.9818C15.445 23.2664 15.37 22.5828 15.0092 21.9222C14.8303 21.5934 14.8938 21.1348 14.839 20.7367C14.6456 19.3694 14.4407 18.0051 14.2589 16.6378C14.1983 16.1907 14.357 15.7494 14.3772 15.3023C14.3917 14.9792 14.4148 14.659 14.4263 14.336C14.435 14.1081 14.3513 13.9235 14.1233 13.8456C13.8895 13.7648 13.6933 13.8456 13.5404 14.036C13.3297 14.2956 13.2431 14.6071 13.1623 14.9186C12.8391 16.1474 12.7756 17.4166 12.6169 18.6714C12.5217 19.4242 12.4611 20.1829 12.2562 20.9501L12.2648 20.9473Z" fill="#EA7C5B"/>
<path d="M18.7781 48.4799C18.7781 48.7222 18.7665 48.9645 18.7781 49.2039C18.7983 49.5443 18.6251 49.6395 18.3164 49.651C17.7507 49.6741 17.2255 49.4952 16.6916 49.3568C14.3916 48.7568 12.1984 47.8626 10.0225 46.9251C9.57809 46.7319 9.16542 46.4781 8.75275 46.2213C8.5594 46.1031 8.41222 45.9588 8.5998 45.7223C8.65463 45.6531 8.64886 45.5752 8.64597 45.4916C8.60269 44.3291 8.55651 43.1695 8.51611 42.0071C8.46417 40.4408 8.40357 38.8774 8.46417 37.3111C8.48437 36.7602 8.54208 36.2092 8.59114 35.6612C8.62289 35.3035 8.81624 35.0785 9.16831 34.9689C9.55789 34.8477 9.95902 34.8218 10.3602 34.7872C11.6905 34.6689 13.0209 34.5593 14.3512 34.4497C14.7668 34.4151 15.1795 34.441 15.5921 34.5074C15.875 34.5564 16.0279 34.7554 16.1202 35.0035C16.38 35.6958 16.5127 36.4198 16.6743 37.138C17.2082 39.4918 17.745 41.8455 18.2471 44.2051C18.5472 45.6098 18.7521 47.0348 18.7752 48.477L18.7781 48.4799Z" fill="#8AAF68"/>
<path d="M54.3718 33.5497C54.2765 34.2016 54.0139 34.9631 53.6012 35.6583C52.47 37.5534 50.9694 39.1139 49.1513 40.3658C48.8021 40.6081 48.4125 40.7898 48.0489 41.0119C47.896 41.1071 47.769 41.0638 47.6247 41.009C46.8282 40.6975 46.1587 40.1985 45.5354 39.6244C44.7822 38.9351 44.1559 38.1476 43.5644 37.3197C42.5947 35.9611 41.6251 34.5996 40.5891 33.2901C40.211 32.8113 40.1879 32.6122 40.5256 32.2545C41.5154 31.1988 42.2744 29.97 43.1603 28.8364C43.6856 28.1643 44.1935 27.4807 44.6725 26.7769C45.0996 26.1509 45.3132 26.1077 45.9884 26.4653C46.7792 26.8836 47.4429 27.4691 48.1442 28.0143C49.9622 29.4277 51.7283 30.9104 53.607 32.2459C53.7744 32.3642 53.9273 32.5113 54.0745 32.6555C54.3285 32.9064 54.3775 33.042 54.3718 33.5526V33.5497Z" fill="#8AAF68"/>
<path d="M32.7512 17.4974C32.1827 17.4974 31.418 16.935 31.2679 16.4677C31.2189 16.3177 31.2651 16.1965 31.3632 16.0869C31.4526 15.986 31.5392 15.9167 31.6893 16.0061C31.8509 16.1042 32.0038 15.986 32.1423 15.9254C33.4929 15.3369 34.8377 14.7427 36.1825 14.1428C39.051 12.862 41.957 11.6736 44.9871 10.8227C45.6509 10.6352 46.329 10.4881 47.0303 10.5746C47.2265 10.6006 47.417 10.6381 47.5901 10.7362C47.8528 10.8833 47.9566 11.1054 47.8787 11.4025C47.6969 12.0948 47.241 12.5649 46.6378 12.9024C45.3479 13.6264 43.9742 14.1745 42.563 14.5956C40.4477 15.2273 38.3411 15.885 36.2546 16.6177C35.2042 16.9869 34.1047 17.2148 33.0139 17.4542C32.9013 17.4801 32.7859 17.4888 32.7455 17.4946L32.7512 17.4974Z" fill="#EA7C5B"/>
<path d="M37.331 30.1517C37.331 30.1978 37.331 30.244 37.331 30.2901C37.204 30.4084 37.1117 30.6709 36.9039 30.5382C36.6846 30.3998 36.5114 30.4921 36.3152 30.5238C35.7842 30.6074 35.2561 30.7026 34.7222 30.7719C33.8709 30.8815 33.0167 30.9651 32.1654 31.0805C31.3025 31.1959 30.4454 31.343 29.5854 31.4641C28.5206 31.6141 27.4528 31.7382 26.388 31.8968C25.1095 32.0872 23.8398 32.3353 22.5556 32.491C21.5398 32.6122 20.5615 32.9583 19.5053 32.8977C18.931 32.8631 18.3394 33.0997 17.7565 33.2237C17.1793 33.3477 16.8965 33.1689 16.7724 32.6151C16.4752 31.2738 16.1664 29.9354 15.9095 28.5854C15.5863 26.9009 15.2371 25.2221 14.9053 23.5404C14.7264 22.6318 14.5619 21.7203 14.3772 20.8117C14.1405 19.6463 13.8895 18.481 13.6557 17.3156C13.471 16.3984 13.3181 15.4724 13.1132 14.5581C12.9198 13.6869 12.637 12.836 12.4552 11.9591C12.4062 11.7255 12.4523 11.4399 12.2013 11.2755C12.2013 11.2293 12.2013 11.1832 12.2013 11.137C12.1782 10.9034 12.1666 10.664 12.0627 10.4448C12.0627 10.3986 12.0627 10.3525 12.0627 10.3063C11.9127 9.38326 11.754 8.4631 11.6154 7.53718C11.5635 7.19104 11.3903 6.81893 11.7164 6.50452C11.8723 6.4901 12.0137 6.5276 12.1378 6.62279C12.2128 6.68048 12.285 6.71509 12.3888 6.68913C12.6226 6.63144 12.8563 6.57952 13.093 6.54491C13.8289 6.4353 14.5619 6.26223 15.3093 6.44395C15.595 6.51318 15.8807 6.53337 16.1664 6.49875C17.3467 6.34588 18.5183 6.15838 19.6986 6.01416C21.1502 5.83532 22.596 5.61321 24.0447 5.39687C24.5266 5.32476 25.0287 5.28438 25.401 4.89497C25.453 4.84016 25.5366 4.79401 25.6088 4.78824C26.7891 4.69017 27.9607 4.47383 29.1497 4.49114C29.2247 4.49114 29.2767 4.46229 29.3402 4.43056C29.8019 4.20846 29.9606 4.28057 30.1338 4.76805C30.3819 5.47187 30.457 6.21319 30.6676 6.92855C31.0082 8.091 31.2708 9.27942 31.5478 10.4592C31.7787 11.4428 32.1077 12.3976 32.4222 13.3581C32.4886 13.56 32.5665 13.7966 32.3443 13.9177C31.9576 14.1283 31.6979 14.4658 31.3891 14.7571C31.1322 14.9994 30.8465 15.0888 30.506 14.9619C30.0039 14.7773 29.4816 14.7109 28.9506 14.734C28.8813 14.734 28.812 14.734 28.7428 14.734C28.3215 14.7629 28.157 14.9302 28.0502 15.3167C27.9405 15.7147 28.1483 16.0119 28.3301 16.3032C28.6504 16.8253 28.6216 17.0272 27.9434 17.3387C27.8395 17.3849 27.7241 17.3993 27.6115 17.4339C27.1383 17.5724 26.6015 17.5551 26.1946 17.832C25.5078 18.2993 24.9768 18.9512 24.3939 19.5396C24.2582 19.6781 24.2438 19.8425 24.5208 19.8511C25.1644 19.8569 25.805 19.8079 26.4399 19.7184C26.8381 19.6607 27.2306 19.854 27.6346 19.7184C28.0617 19.5742 28.4831 19.4271 28.8438 19.1588C29.2045 18.8906 29.5422 18.9915 29.6316 19.4386C29.7615 20.0646 29.6489 20.6905 29.5999 21.3136C29.5508 21.9337 29.5854 22.5539 29.5768 23.177C29.5739 23.3645 29.7384 23.3818 29.8654 23.4193C30.0818 23.4798 30.3069 23.5029 30.4599 23.2837C30.6503 23.0097 30.835 22.7327 31.0053 22.4472C31.1034 22.2828 31.2188 22.1587 31.4179 22.2164C31.6084 22.2712 31.7238 22.4097 31.721 22.626C31.7181 22.9606 31.7383 23.2952 31.7152 23.6269C31.6806 24.1577 31.8133 24.6769 31.7931 25.2077C31.7787 25.5596 32.0384 25.5336 32.275 25.5249C32.5434 25.5105 32.7801 25.3807 33.0311 25.3086C33.4496 25.1846 33.7987 25.2942 34.0642 25.6403C34.5866 26.3211 35.1551 26.9614 35.8563 27.4633C36.1593 27.6797 36.3585 27.9537 36.5258 28.271C36.8462 28.8796 37.0338 29.5431 37.331 30.1575V30.1517Z" fill="#FDF5EE"/>
<path d="M12.2012 11.2726C12.4523 11.437 12.409 11.7255 12.4551 11.9562C12.6369 12.8331 12.9198 13.6841 13.1131 14.5552C13.3151 15.4696 13.4681 16.3955 13.6556 17.3128C13.8923 18.4781 14.1433 19.6434 14.3771 20.8088C14.5589 21.7174 14.7263 22.6289 14.9052 23.5375C15.2371 25.2192 15.5863 26.898 15.9095 28.5825C16.1692 29.9325 16.478 31.2709 16.7723 32.6122C16.8935 33.166 17.1792 33.342 17.7564 33.2208C18.3393 33.0968 18.9309 32.8602 19.5052 32.8949C20.5614 32.9583 21.5397 32.6122 22.5555 32.4881C23.8368 32.3353 25.1095 32.0843 26.3879 31.8939C27.4528 31.7353 28.5205 31.6113 29.5854 31.4613C30.4453 31.3401 31.3024 31.193 32.1653 31.0776C33.0166 30.9622 33.8708 30.8815 34.7221 30.769C35.256 30.6998 35.7841 30.6046 36.3151 30.5209C36.5113 30.4892 36.6845 30.3969 36.9038 30.5353C37.1116 30.668 37.2068 30.4055 37.3309 30.2873C37.4175 30.5613 37.3136 30.7315 37.0077 30.694C36.2632 30.6017 35.5677 30.8872 34.8405 30.9305C34.1796 30.9709 33.5245 31.0949 32.8666 31.1844C31.8132 31.3257 30.757 31.4699 29.7037 31.6141C28.7629 31.7439 27.825 31.8795 26.8842 32.0151C26.0358 32.1362 25.1845 32.2574 24.3361 32.3872C23.3635 32.5343 22.391 32.6843 21.4214 32.8487C21.0058 32.9208 20.5932 33.0881 20.1718 33.0708C19.3032 33.0333 18.4836 33.3102 17.6352 33.3881C16.983 33.4487 16.7723 33.241 16.6021 32.6035C16.1086 30.743 15.7854 28.8479 15.3987 26.9672C14.9658 24.8731 14.582 22.7702 14.1549 20.6732C13.6903 18.3973 13.2747 16.1128 12.7437 13.8514C12.559 13.0725 12.3484 12.2995 12.1723 11.5149C12.1521 11.4255 12.0915 11.3418 12.1954 11.2668L12.2012 11.2726Z" fill="#FDF5EE"/>
<path d="M24.5237 19.8482C24.2466 19.8395 24.2611 19.6751 24.3967 19.5367C24.9796 18.9482 25.5106 18.2963 26.1974 17.829C26.6043 17.5521 27.1411 17.5694 27.6144 17.431C27.724 17.3992 27.8424 17.3848 27.9462 17.3358C28.6244 17.0243 28.6533 16.8223 28.3329 16.3002C28.154 16.0089 27.9434 15.7118 28.053 15.3137C28.1598 14.9243 28.3272 14.7599 28.7456 14.7311C28.7398 14.8522 28.6619 14.8955 28.5609 14.9474C28.2291 15.1118 28.0992 15.4839 28.2579 15.8214C28.3503 16.0176 28.4772 16.1993 28.5725 16.3954C28.7976 16.8483 28.6764 17.1973 28.2175 17.4166C27.7875 17.6214 27.3258 17.7367 26.8641 17.8031C26.3562 17.8752 26.0041 18.1636 25.6607 18.4809C25.3201 18.7925 25.0085 19.1328 24.6766 19.453C24.5583 19.5684 24.5035 19.6924 24.5237 19.8511V19.8482Z" fill="#FDF5EE"/>
<path d="M37.331 30.1517C37.0337 29.5344 36.8462 28.8709 36.5258 28.2652C36.3585 27.9479 36.1593 27.6739 35.8563 27.4575C35.1551 26.9556 34.5866 26.3153 34.0642 25.6345C33.7987 25.2913 33.4524 25.1817 33.0311 25.3028C32.78 25.3778 32.5434 25.5047 32.275 25.5191C32.6502 25.0028 33.6429 24.9509 34.1017 25.4499C34.7828 26.1883 35.4235 26.9672 36.2373 27.5787C36.5662 27.8267 36.6817 28.2133 36.8404 28.5652C37.028 28.9805 37.1809 29.4132 37.3483 29.8401C37.3916 29.9469 37.4435 30.0565 37.3281 30.1545L37.331 30.1517Z" fill="#FDF5EE"/>
<path d="M11.7164 6.50452C11.3903 6.81893 11.5635 7.19103 11.6154 7.53717C11.7539 8.4631 11.9127 9.38325 12.0627 10.3063C11.8838 10.2746 11.878 10.1332 11.8549 9.99477C11.702 9.0948 11.5519 8.19772 11.3903 7.30064C11.3124 6.86508 11.4192 6.57374 11.7164 6.50452Z" fill="#FDF5EE"/>
<path d="M12.0627 10.4447C12.1637 10.6639 12.1782 10.9005 12.2013 11.137C11.9531 10.9581 11.8867 10.6149 12.0627 10.4447Z" fill="#FDF5EE"/>
<path d="M15.3727 15.7119C15.2919 16.7474 15.5517 17.8031 15.6815 18.8733C15.846 20.229 16.1375 21.579 16.175 22.9347C16.2067 24.1058 16.1173 25.2971 15.9008 26.4653C15.7623 27.2095 15.6786 27.9624 15.644 28.721C15.5863 29.9815 15.5113 31.2449 15.442 32.5055C15.4362 32.5833 15.4333 32.6843 15.3872 32.7362C15.1765 32.9699 15.1678 33.2439 15.1534 33.5352C15.1419 33.7689 15.0235 33.9593 14.7379 33.9419C14.4724 33.9246 14.4262 33.7227 14.4377 33.5208C14.5156 32.1795 14.5416 30.8353 14.6051 29.494C14.6311 28.9056 14.9543 28.4152 14.9629 27.8441C14.9658 27.6162 15.1332 27.3105 14.6455 27.4143C14.4146 27.4634 14.2184 27.123 14.2444 26.8316C14.2992 26.2374 14.3454 25.6432 14.4002 25.049C14.406 24.9769 14.4175 24.9048 14.3569 24.8615C14.1059 24.6856 14.1261 24.4231 14.1463 24.1721C14.3252 21.9136 13.8288 19.7358 13.3555 17.5551C13.2863 17.2407 13.318 16.8859 12.989 16.6695C12.9429 16.6407 12.9169 16.5426 12.9227 16.4792C12.9746 15.8705 12.8592 15.2417 13.1305 14.659C13.4306 14.0158 14.1174 13.5197 14.9023 13.7908C15.1361 13.8716 15.2804 14.0071 15.3208 14.2783C15.3929 14.7369 15.3525 15.1984 15.3756 15.7119H15.3727ZM14.81 18.9454C14.7119 17.6445 14.5849 16.3349 14.5936 15.0138C14.4464 15.2244 14.3338 15.4379 14.3656 15.7061C14.4118 16.1273 14.4406 16.5513 14.4897 16.9724C14.5676 17.6301 14.5936 18.2964 14.81 18.9454Z" fill="#F9B59F"/>
<path d="M31.5766 23.6933C31.0889 24.1376 30.6041 24.3424 30.0067 24.1952C29.597 24.0943 29.4065 23.8116 29.519 23.4107C29.545 23.3212 29.5825 23.2347 29.5854 23.1453C29.6143 22.0549 29.6374 20.9617 29.6633 19.8714C29.6691 19.58 29.5479 19.5945 29.3517 19.7329C28.9707 20.0041 28.5638 20.2089 28.0761 20.18C27.5855 20.1541 27.0747 19.7329 26.9939 19.2599C26.9449 18.9772 27.0949 18.8012 27.3749 18.7435C27.7702 18.6628 28.1598 18.5791 28.5263 18.3945C28.7399 18.2878 28.7947 18.1753 28.6591 17.9705C28.5436 17.7974 28.4455 17.6157 28.3474 17.434C28.1483 17.0705 28.3272 16.5398 28.711 16.3638C28.9534 16.2542 29.2593 16.4417 29.2189 16.733C29.1381 17.3071 29.5825 17.659 29.7355 18.1291C29.747 18.1695 29.8278 18.1897 29.874 18.2157C30.2838 18.4407 30.4944 18.7868 30.7109 19.2079C30.9013 19.58 30.9389 20.056 31.3804 20.3444C31.8969 20.6819 32.3154 21.1665 32.3962 21.8415C32.4077 21.9396 32.4308 22.0174 32.5434 22.0838C33.0917 22.4069 33.4842 22.8424 33.5101 23.5232C33.5159 23.7049 33.5678 23.8866 33.5736 24.0683C33.5794 24.3135 33.588 24.5154 33.9286 24.5097C34.0729 24.5097 34.1392 24.6683 34.145 24.8212C34.1594 25.2019 33.9805 25.4962 33.6746 25.6894C33.4149 25.8567 33.1263 25.9836 32.8233 26.0673C32.3471 26.1971 32.0845 26.0442 31.9547 25.5596C31.7959 24.9625 31.6863 24.3568 31.5795 23.6876L31.5766 23.6933ZM28.0213 19.3435C28.4051 19.5022 28.6677 19.3118 28.9015 19.0435C28.6071 19.1445 28.3156 19.2426 28.0213 19.3435Z" fill="#F9B59F"/>
<path d="M14.81 18.9454C14.5936 18.2964 14.5676 17.63 14.4897 16.9724C14.4406 16.5512 14.4118 16.1272 14.3656 15.7061C14.3367 15.4378 14.4464 15.2244 14.5936 15.0138C14.5849 16.3349 14.7119 17.6416 14.81 18.9454Z" fill="#FDEFEA"/>
<path d="M28.0212 19.3434C28.3156 19.2425 28.6071 19.1444 28.9014 19.0435C28.6677 19.3117 28.4051 19.5021 28.0212 19.3434Z" fill="#FDEFEA"/>
<path d="M30.4541 15.4552C30.3444 15.2504 30.4599 15.1062 30.5897 14.9648C31.2506 14.2408 31.9143 13.886 32.8926 13.7389C32.5925 12.7149 32.2664 11.6996 32.0009 10.6698C31.4786 8.63334 31.063 6.56804 30.4195 4.56042C30.1569 3.74699 30.1771 3.75565 29.3315 3.86237C28.0214 4.02679 26.7083 4.16525 25.3751 4.31812C25.4963 4.54023 25.6983 4.55177 25.9061 4.56042C26.9998 4.61523 28.0589 4.39312 29.1209 4.18832C29.5826 4.0989 29.6518 4.12198 29.7702 4.59504C30.0934 5.89883 30.2896 7.23436 30.6936 8.51508C31.1958 10.1131 31.5882 11.7457 32.2895 13.2774C32.353 13.413 32.4367 13.586 32.2635 13.6726C32.0615 13.7706 31.9836 13.5774 31.9143 13.436C31.467 12.539 31.2188 11.5669 30.887 10.6265C30.2204 8.73719 29.8077 6.78438 29.3864 4.83157C29.3315 4.57773 29.2478 4.56908 29.017 4.61234C28.0444 4.79407 27.0748 5.01041 26.0763 4.97002C25.73 4.9556 25.3808 4.94118 25.1153 4.66427C25.0865 4.63542 25.0576 4.60658 25.0288 4.57773C24.9855 4.63542 25.0143 4.6758 25.0605 4.7133C25.0836 4.80272 25.1067 4.89214 25.1269 4.98156C25.2106 5.36808 25.0721 5.60461 24.6882 5.70269C24.1977 5.82672 23.6955 5.90749 23.1876 5.93633C21.9785 6.00268 20.7837 6.19305 19.5803 6.31132C18.5501 6.41227 17.5199 6.52766 16.4896 6.64015C16.3194 6.65746 16.1462 6.68342 15.9759 6.71226C15.3613 6.81322 15.0034 6.64304 14.8591 6.02575C14.7581 5.59596 14.559 5.6075 14.2185 5.63634C13.0007 5.74019 11.7915 5.88153 10.5881 6.08921C9.93015 6.20171 9.94458 6.20459 10.1004 6.84784C10.7151 9.36889 11.3182 11.8928 11.9271 14.4139C11.9387 14.4572 11.9416 14.5062 12.0166 14.5264C12.2561 14.0908 12.435 13.687 12.2821 13.1245C11.8665 11.6044 11.6818 10.0381 11.4337 8.48335C11.3586 8.01894 11.2519 7.56031 11.2317 7.08436C11.2172 6.74688 11.3355 6.53631 11.6963 6.4815C12.562 6.3517 13.422 6.19882 14.2993 6.15844C14.5504 6.1469 14.7004 6.21901 14.7726 6.49016C15.1015 7.69876 15.4796 8.89295 16.1029 9.98906C16.2039 10.1679 16.1606 10.4592 16.3424 10.5371C16.5127 10.6092 16.7493 10.5429 16.9542 10.5083C17.794 10.3669 18.628 10.1996 19.4678 10.0698C21.6495 9.73811 23.8138 9.28813 26.0128 9.04294C26.7285 8.96218 27.4413 8.81218 28.1599 8.72853C28.4658 8.69392 28.6505 8.76892 28.7544 9.0516C28.8554 9.32562 28.8438 9.55927 28.5668 9.74388C27.8944 10.1881 27.1123 10.289 26.3534 10.4362C24.3189 10.8285 22.2613 11.0794 20.2008 11.2813C19.8054 11.3188 19.4158 11.414 19.0234 11.4832C19.0234 11.5121 19.0234 11.538 19.0234 11.5669C19.1475 11.5669 19.2744 11.5698 19.3985 11.5669C21.2887 11.4948 23.1674 11.3448 25.0345 11.0419C25.3751 10.9871 25.7185 10.9554 26.0619 10.9121C26.3851 10.8717 26.6246 11.0102 26.6679 11.264C26.7314 11.6332 26.5265 11.9909 26.2004 12.0342C24.9249 12.2101 23.6724 12.5015 22.3969 12.6774C21.2108 12.839 20.0248 13.0005 18.8358 13.1418C18.6655 13.162 18.4953 13.2024 18.3308 13.2457C17.8056 13.387 17.7132 13.511 17.7507 14.0476C17.7854 14.5523 17.8431 15.0543 17.8748 15.5562C17.895 15.8792 18.123 15.7754 18.2788 15.7523C19.2369 15.6167 20.195 15.484 21.1445 15.3139C23.6493 14.8639 26.1629 14.4889 28.6938 14.2264C28.8698 14.2091 29.0747 14.1687 29.0949 14.4139C29.1151 14.6591 28.9044 14.6447 28.7284 14.6677C26.3187 14.9706 23.912 15.2908 21.5225 15.7263C20.5038 15.9109 19.4851 16.1013 18.452 16.1879C18.1288 16.2138 18.0076 16.3119 18.0826 16.6638C18.1692 17.0532 18.1836 17.4599 18.2153 17.8609C18.2327 18.0916 18.123 18.2734 17.8979 18.3368C17.3121 18.5041 16.7291 18.683 16.1029 18.5358C15.7913 18.4637 15.5777 18.3051 15.5142 17.9849C15.4392 17.6013 15.3642 17.2176 15.3151 16.8311C15.266 16.4504 15.3988 16.2427 15.7711 16.1273C16.2126 15.9888 16.6657 15.9052 17.1274 15.8965C17.4131 15.8908 17.5256 15.81 17.4621 15.4927C17.3496 14.9418 17.3121 14.3764 17.3179 13.811C17.3236 13.2947 17.5227 13.0264 18.0133 12.8678C18.7665 12.6226 19.5572 12.6226 20.3306 12.5101C22.2209 12.2361 24.1197 12.0198 25.9782 11.5727C26.0705 11.5496 26.287 11.6217 26.2437 11.4054C26.2091 11.2381 26.0503 11.3217 25.9522 11.3361C25.2337 11.4342 24.5209 11.5669 23.7994 11.6419C22.1833 11.8063 20.5702 12.0024 18.9397 11.9707C18.6655 11.9649 18.4087 11.9101 18.3741 11.5928C18.3394 11.2727 18.5905 11.1659 18.8473 11.0967C19.6525 10.8833 20.4749 10.8025 21.3003 10.7131C23.4502 10.4765 25.5973 10.2227 27.6982 9.68042C27.9146 9.62561 28.1022 9.52177 28.2897 9.41216C28.3763 9.36312 28.4081 9.30543 28.3734 9.2189C28.3446 9.13813 28.2724 9.14102 28.2003 9.14967C27.7876 9.19294 27.3692 9.19871 26.9623 9.27947C25.1788 9.63715 23.3665 9.80734 21.5831 10.1592C20.2066 10.4304 18.8098 10.5862 17.4419 10.9006C17.1736 10.9611 16.8936 10.9727 16.6166 10.9842C16.4521 10.9929 16.3742 11.0304 16.4463 11.2063C16.6281 11.6592 16.6051 12.1553 16.7522 12.6168C16.8475 12.9111 16.7205 13.1159 16.4175 13.1822C15.8317 13.312 15.2401 13.3899 14.6398 13.4274C14.4407 13.4389 14.2791 13.3437 14.23 13.1736C14.0569 12.5938 13.7712 12.0399 13.7798 11.414C13.7856 11.0131 13.9126 10.8458 14.3137 10.7823C14.735 10.7188 15.1593 10.6785 15.5835 10.6554C15.8374 10.6438 15.8374 10.5227 15.7739 10.3467C15.7307 10.2285 15.6845 10.1102 15.6239 10.0006C15.1015 9.03429 14.7264 8.01318 14.4753 6.94591C14.4118 6.68053 14.3137 6.57958 14.0107 6.61419C13.3123 6.68919 12.6197 6.80745 11.9243 6.89687C11.7424 6.91995 11.702 6.98918 11.702 7.15936C11.7078 7.70453 11.8637 8.22663 11.9416 8.76026C12.1695 10.3294 12.3946 11.8986 12.7929 13.436C12.8477 13.6466 12.8102 13.8485 12.7121 14.0389C12.5014 14.4485 12.3398 14.8783 12.1869 15.311C12.1407 15.4465 12.1118 15.6052 11.9358 15.6571C11.7944 15.6975 11.8608 15.7898 11.8925 15.8763C11.9964 16.1677 12.0859 16.4648 12.1955 16.7561C12.3254 17.1022 12.2677 17.4051 12.0512 17.6993C11.8463 17.9791 11.6616 18.2705 11.4654 18.5532C11.223 18.9022 11.1913 19.2599 11.3413 19.6637C11.6472 20.4915 11.9214 21.3309 12.0368 22.2194C11.7857 20.4742 12.3081 18.807 12.5014 17.108C12.5765 16.4475 12.562 15.7754 12.7438 15.1264C12.8015 14.9158 12.8621 14.7052 12.9458 14.5033C13.2113 13.8428 13.6615 13.5428 14.3628 13.5716C14.6283 13.5832 14.7726 13.7505 14.7697 14.0303C14.7697 14.6187 14.7899 15.2071 14.7668 15.7927C14.6975 17.5061 14.9342 19.1877 15.266 20.8608C15.5142 22.1155 15.7191 23.376 15.6527 24.6625C15.6008 25.6635 15.3901 26.6442 15.217 27.6307C15.1881 27.8009 15.1708 27.9711 15.1477 28.1412C14.9688 29.1047 14.9342 30.0825 14.8966 31.0604C14.862 31.969 14.8476 32.8805 14.8245 33.7891C14.8216 33.9535 14.8245 34.1497 14.6052 34.1468C14.4061 34.1468 14.4032 33.9506 14.4003 33.8035C14.3685 32.468 14.4407 31.1325 14.5013 29.797C14.5763 28.1326 15.0381 26.5288 15.1939 24.8789C15.2891 23.8578 15.1535 22.8568 14.989 21.8588C14.7437 20.3502 14.3743 18.856 14.3368 17.3215C14.3137 16.3321 14.3253 15.3398 14.3483 14.3504C14.357 14.0129 14.2185 13.9985 13.9616 14.0562C13.6788 14.1197 13.497 14.2812 13.3787 14.5437C13.145 15.0658 13.0007 15.6167 12.9834 16.1763C12.9401 17.5638 12.6111 18.9108 12.4408 20.2781C12.3744 20.8204 12.4293 21.3598 12.4177 21.8992C12.4033 22.5568 12.4062 23.2116 12.3975 23.8693C12.3975 24.0453 12.386 24.2472 12.1609 24.2674C11.9271 24.2904 11.8954 24.0712 11.8637 23.9097C11.7569 23.3789 11.653 22.8482 11.5837 22.3145C11.4798 21.5098 11.2692 20.7338 10.969 19.9868C10.6978 19.3147 10.7584 18.7118 11.197 18.1349C11.3644 17.9157 11.5029 17.6734 11.6703 17.4542C11.8088 17.2696 11.8348 17.0878 11.754 16.8744C11.6472 16.5946 11.5491 16.3148 11.451 16.0321C11.3961 15.8735 11.3269 15.8648 11.2115 15.9859C9.89552 17.3878 8.4555 18.6772 7.24634 20.1829C6.83655 20.6935 6.70958 21.2386 6.92024 21.8905C7.31849 23.1193 7.8235 24.2991 8.42087 25.4414C8.82488 26.2173 9.20293 27.0019 9.51171 27.8211C9.67331 28.248 9.78009 28.6633 9.79163 29.1422C9.82915 30.87 9.83781 32.5978 9.83203 34.3256C9.83203 34.6141 9.88687 34.7064 10.2014 34.7093C11.6443 34.7237 13.0844 34.6429 14.5273 34.6314C14.7466 34.6314 14.963 34.6429 15.1795 34.7035C15.6181 34.8275 15.6903 35.1102 15.3613 35.4304C14.9861 35.7938 14.4926 35.8227 14.0165 35.8948C12.79 36.0794 11.5808 35.9265 10.3717 35.7275C9.91861 35.6525 9.45399 35.6237 9.01246 35.4823C8.77582 35.4073 8.72677 35.491 8.72677 35.7188C8.72965 37.6543 8.71811 39.5898 8.72099 41.5253C8.72099 42.8032 8.73542 44.0839 8.74408 45.3617C8.74408 45.506 8.74985 45.6704 8.57093 45.6848C8.38335 45.6992 8.3747 45.5348 8.36892 45.3906C8.34872 45.0127 8.30832 44.632 8.30832 44.2541C8.30832 41.3494 8.30832 38.4476 8.31986 35.5429C8.31986 35.015 8.46993 34.9169 8.98649 35.0323C9.12212 35.0612 9.25776 35.0843 9.3905 35.1131C9.42802 35.1131 9.46842 35.1073 9.50594 35.1044C9.49151 35.0785 9.47996 35.0525 9.46554 35.0294C9.40493 34.8996 9.40782 34.7612 9.40782 34.6227C9.40782 32.6209 9.43091 30.6162 9.33567 28.6172C9.3299 28.496 9.2693 28.3778 9.2289 28.2595C8.74697 26.9124 7.98511 25.6952 7.38197 24.4058C7.03567 23.6674 6.76152 22.8972 6.4816 22.1299C6.15839 21.2415 6.36328 20.4915 6.93467 19.7848C7.7831 18.732 8.77582 17.8147 9.70794 16.8398C10.1466 16.3811 10.6025 15.9398 11.0499 15.4927C11.148 15.3975 11.249 15.2533 11.3933 15.2965C11.8204 15.4292 11.6588 15.135 11.6184 14.9821C10.9633 12.3169 10.2995 9.65446 9.64734 6.98918C9.56365 6.64304 9.34433 6.26805 9.74835 5.95364C9.92727 5.81518 10.1293 5.73442 10.3428 5.69403C11.7828 5.43443 13.2315 5.24693 14.6946 5.18059C15.0063 5.16617 15.1823 5.26136 15.2025 5.59019C15.2083 5.69115 15.2343 5.79499 15.2689 5.89306C15.4074 6.29978 15.5258 6.36612 15.9442 6.29113C16.9081 6.11806 17.8892 6.08344 18.8618 5.96229C19.993 5.82384 21.1243 5.69115 22.2584 5.57288C22.9452 5.50077 23.6349 5.47193 24.316 5.33347C24.6911 5.25559 24.7286 5.20078 24.5786 4.8633C24.316 4.26909 23.8369 3.94602 23.2078 3.89987C21.511 3.78161 19.8199 3.86237 18.1317 4.05563C17.3438 4.14505 16.7349 4.56042 16.3424 5.26424C16.3194 5.30463 16.2963 5.34501 16.2703 5.38251C16.1289 5.58731 16.0221 5.8671 15.696 5.75749C15.3757 5.65077 15.3151 5.34212 15.3497 5.07386C15.4363 4.4162 15.722 3.86237 16.38 3.597C16.6657 3.48162 16.8648 3.34028 16.9312 3.00856C17.0062 2.64223 17.263 2.41435 17.644 2.34801C18.0307 2.27878 18.4174 2.21821 18.8098 2.22109C19.2369 2.22397 19.664 2.22109 20.0854 2.14321C20.7029 2.14898 21.3291 2.06244 21.9207 2.31916C21.9554 2.33359 21.99 2.34512 22.0246 2.35955C22.0448 2.38551 22.0621 2.41435 22.0823 2.44031C22.0997 2.44897 22.1141 2.45762 22.1314 2.46627C22.1343 2.46627 22.1429 2.4605 22.1487 2.45762C22.1256 2.45473 22.0997 2.44897 22.0766 2.44608C22.1054 2.38551 22.0737 2.3682 22.0189 2.36532C22.0419 2.30474 22.0015 2.29609 21.9583 2.29032C21.7447 2.07398 21.4734 2.08263 21.1993 2.09417C20.8472 2.11148 20.4951 2.14321 20.1575 2.00187C19.9959 1.73938 19.8285 1.48554 19.5342 1.30959C19.4447 1.56919 19.8949 1.81726 19.5284 1.99321C19.3004 2.10283 19.2427 1.78265 19.0609 1.67015C19.0234 1.96437 18.9397 2.19513 18.5818 2.16052C18.2067 2.1259 18.0768 1.99321 18.0711 1.61246C18.0653 1.2692 18.2009 0.980753 18.426 0.738455C18.6511 0.499041 18.9281 0.426928 19.2456 0.565384C19.6669 0.749993 20.0074 1.04421 20.2874 1.39901C20.4143 1.56054 20.55 1.63842 20.7491 1.62688C20.9107 1.61823 21.0723 1.63554 21.2339 1.62688C21.9669 1.5865 22.4431 1.99898 22.8384 2.53839C22.9769 2.72299 23.0289 2.94222 22.8384 3.13836C22.6393 3.34605 22.4171 3.27105 22.2555 3.10952C21.7505 2.60184 21.1243 2.51531 20.4663 2.58454C19.5832 2.67684 18.6915 2.62204 17.8113 2.76915C17.5516 2.81241 17.3871 2.92779 17.3352 3.1874C17.2515 3.60277 16.9831 3.83353 16.5964 3.97775C16.0972 4.16525 15.7739 4.67869 15.8143 5.22674C15.95 5.02771 16.0596 4.85753 16.178 4.69311C16.7118 3.96333 17.465 3.63161 18.3365 3.54508C19.7968 3.40085 21.2599 3.35758 22.7259 3.38355C23.531 3.39797 24.2525 3.58834 24.8181 4.30947C24.8123 3.98929 24.9422 3.89122 25.2048 3.86814C26.6391 3.73545 28.0704 3.58546 29.4931 3.37778C30.2319 3.27105 30.5118 3.41816 30.7369 4.12486C31.1669 5.4575 31.5738 6.7988 31.8682 8.17182C32.2318 9.86791 32.7108 11.5352 33.1812 13.2053C33.3082 13.6524 33.4582 13.8255 33.9113 13.8283C34.3355 13.8283 34.7569 13.9178 35.1811 13.9697C35.3571 13.9928 35.5101 14.0476 35.4206 14.2783C35.3687 14.4139 35.4495 14.4168 35.536 14.3937C35.6111 14.3735 35.6832 14.3331 35.7525 14.2956C36.2777 14.0072 36.8087 13.7331 37.3772 13.5399C37.6167 13.4591 37.8332 13.3264 38.038 13.1736C38.4392 12.8736 38.5055 12.8793 38.8951 13.2226C38.8951 12.8245 39.1491 12.6601 39.4521 12.5303C40.3034 12.1669 41.2153 12.0169 42.0926 11.74C43.1777 11.3967 44.2252 10.9438 45.3247 10.6554C45.6018 10.5833 45.8846 10.5227 46.1674 10.4765C46.7475 10.3842 47.0995 10.7246 47.1399 11.3967C47.1717 11.9217 46.8485 12.2447 46.2915 12.239C46.2395 12.2015 46.1934 12.1496 46.127 12.2159C46.1414 12.2303 46.1559 12.2419 46.1703 12.2563C46.2944 12.562 46.0924 12.7034 45.8731 12.8245C45.3074 13.1389 44.7043 13.3639 44.0983 13.5774C42.9843 13.9726 41.8906 14.4341 40.7594 14.7802C40.4564 14.8725 40.1476 14.9446 39.9196 14.6187C39.8619 14.5379 39.7868 14.5639 39.7032 14.5927C39.2155 14.7629 38.7278 14.9302 38.1679 15.1206C38.3959 15.1869 38.5488 15.2475 38.7076 15.2706C39.3626 15.3715 39.732 15.7811 39.96 16.3725C40.3409 17.359 40.6035 18.383 40.8546 19.4099C41.325 21.3511 41.9945 23.2145 42.9988 24.9481C43.4634 25.7471 44.0377 26.4682 44.6264 27.1778C44.938 27.5528 44.9409 27.622 44.6495 28.0057C43.6654 29.2979 42.6265 30.5469 41.602 31.8075C41.4145 32.0353 41.198 32.1103 40.9325 32.0036C40.7796 31.943 40.7536 31.9863 40.6988 32.1276C40.5487 32.5199 40.6093 32.7853 40.9123 33.1314C42.3581 34.7871 43.7779 36.4717 45.0015 38.3062C45.4604 38.9956 45.8846 39.7139 46.6234 40.161C46.7532 40.2417 46.886 40.3629 46.7677 40.5273C46.6436 40.6975 46.505 40.5677 46.3781 40.4927C45.723 40.1206 45.2815 39.5379 44.8948 38.9264C43.9684 37.4582 42.8429 36.1486 41.7579 34.8045C41.3077 34.2506 40.8719 33.6824 40.364 33.1776C40.0552 32.8747 40.1072 32.5142 40.2428 32.1796C40.3871 31.819 40.2803 31.6459 39.9744 31.4354C38.95 30.7344 38.0929 29.846 37.256 28.9374C37.1925 28.871 37.1406 28.7931 37.0857 28.721C36.9991 28.6057 36.9328 28.4816 37.0424 28.346C37.155 28.2076 37.3022 28.2537 37.4234 28.3085C37.6311 28.4037 37.8331 28.522 38.0236 28.6489C38.9528 29.2604 39.7724 30.0018 40.5199 30.8238C40.6526 30.9709 40.7651 31.1325 40.7853 31.3373C40.8027 31.5161 40.9498 31.545 41.0682 31.6027C41.1894 31.6632 41.2528 31.5738 41.3221 31.4873C42.3119 30.2585 43.3018 29.0297 44.2974 27.8038C44.3984 27.6768 44.4244 27.599 44.3032 27.4605C42.5024 25.4414 41.4087 23.0588 40.7045 20.4742C40.3669 19.2368 40.0899 17.982 39.6656 16.7705C39.4608 16.1792 39.1549 15.7235 38.4709 15.6312C38.3007 15.6081 38.0669 15.5677 38.0986 15.2735C38.1073 15.1869 38.0698 15.1783 37.862 15.2533C36.9183 15.5879 35.9776 15.9254 35.0339 16.2542C34.451 16.459 33.8623 16.6494 33.2562 16.8542C33.3053 16.9003 33.3284 16.9436 33.3515 16.9436C34.0556 16.9349 34.3846 17.4195 34.6616 17.9503C35.0656 18.7262 35.461 19.505 35.992 20.2089C36.0901 20.3415 36.1709 20.5088 36.0382 20.6502C35.8881 20.8146 35.7207 20.7079 35.5707 20.6185C34.9329 20.2291 34.298 19.831 33.6574 19.4445C33.1754 19.1531 32.7945 18.758 32.4309 18.3397C31.7874 17.5984 31.1178 16.8859 30.4252 16.1907C29.9116 15.6773 29.2911 15.51 28.5899 15.5908C28.2493 15.6283 28.2291 15.6831 28.4196 15.96C29.3344 17.3013 30.3271 18.5878 31.2621 19.9175C32.05 21.0367 32.7195 22.2136 33.1956 23.4885C33.7295 24.9279 34.6645 26.0731 35.7929 27.0538C36.4508 27.6249 36.8029 28.3143 37.0222 29.1104C37.1175 29.4537 37.204 29.797 37.2877 30.1431C37.357 30.4344 37.2444 30.5988 36.9414 30.6565C35.0743 31.0084 33.2043 31.3257 31.3285 31.6286C28.9275 32.018 26.515 32.3036 24.1111 32.6468C21.8428 32.9699 19.5803 33.3218 17.3121 33.6593C17.2775 33.6651 17.2428 33.6708 17.2111 33.6766C16.4608 33.766 16.2847 33.6564 16.152 32.9151C15.8778 31.3892 15.5344 29.872 15.3613 28.3287C15.3555 28.2739 15.3238 28.222 15.3064 28.1672C15.3064 28.1095 15.3064 28.0518 15.3064 27.9941C15.3064 27.8672 15.344 27.7518 15.4825 27.7374C15.6325 27.7201 15.7076 27.8182 15.7335 27.9624C15.8201 28.4845 15.9038 29.0066 15.999 29.5258C16.2068 30.6681 16.4204 31.8075 16.6253 32.9497C16.6685 33.1862 16.7667 33.2785 17.0206 33.2382C18.4982 33.0074 19.9815 32.8026 21.4561 32.5632C23.1616 32.2892 24.87 32.0469 26.5842 31.8305C28.3561 31.6084 30.1136 31.2969 31.8768 31.0402C33.438 30.8152 34.982 30.5065 36.5345 30.2383C36.8145 30.1892 36.9126 30.1027 36.8 29.8229C36.7279 29.6441 36.6904 29.4508 36.6413 29.2604C36.4595 28.5335 36.1305 27.9249 35.5274 27.4201C34.1508 26.2692 33.1523 24.8327 32.5492 23.1309C32.3674 22.6174 32.1106 22.1328 31.7672 21.6828C31.8278 22.3174 31.8826 22.952 31.9518 23.5837C32.0009 24.0193 32.0731 24.4491 32.125 24.8818C32.1712 25.2539 32.3212 25.3404 32.6502 25.1673C32.731 25.1269 32.8003 25.0606 32.8638 24.9971C32.9532 24.9106 33.0485 24.7664 33.1754 24.8587C33.3082 24.9539 33.2332 25.1067 33.1697 25.2308C32.959 25.6288 32.3616 25.8048 31.9634 25.5942C31.7816 25.499 31.7527 25.3231 31.7325 25.1558C31.646 24.4837 31.5738 23.8087 31.4959 23.1337C31.4786 22.9751 31.4843 22.8136 31.4151 22.6463C31.3054 22.8482 31.2188 23.0443 31.1005 23.2232C30.7889 23.6933 30.3242 23.8693 29.7817 23.7395C29.5018 23.6732 29.3431 23.5174 29.3546 23.2059C29.4008 22.1357 29.4383 21.0656 29.4787 19.9954C29.4874 19.73 29.47 19.4647 29.4037 19.156C29.017 19.4531 28.6072 19.6666 28.1426 19.7618C27.9954 19.7935 27.7588 19.7127 27.8078 20.0416C27.8251 20.1598 27.6087 20.2002 27.4673 20.2146C26.5496 20.3012 25.6319 20.3848 24.7142 20.48C23.5224 20.604 22.3334 20.7396 21.1416 20.8636C20.5673 20.9242 19.9959 20.9877 19.4216 21.0194C19.1619 21.0338 19.1561 21.129 19.2052 21.3367C19.3004 21.7261 19.3812 22.1213 19.4043 22.5251C19.4216 22.828 19.3091 23.0616 19.0724 23.2434C18.703 23.5232 18.3077 23.7568 17.846 23.8549C17.3583 23.9587 17.0293 23.8174 16.8301 23.3616C16.556 22.7299 16.2674 22.0982 16.3338 21.3771C16.3771 20.8867 16.5675 20.705 17.0524 20.6877C17.4795 20.6733 17.9037 20.6358 18.3308 20.6185C18.4895 20.6127 18.5155 20.555 18.501 20.405C18.4635 20.0387 18.4318 19.6695 18.4231 19.3031C18.3972 18.2993 18.7896 17.7743 19.7708 17.4974C20.6712 17.2407 21.6004 17.1455 22.5239 17.0359C23.5859 16.909 24.6565 16.8513 25.7242 16.7503C25.8916 16.7359 26.0619 16.6753 26.2177 16.6119C26.3909 16.5427 26.3966 16.3754 26.3649 16.2282C26.3274 16.0581 26.1716 16.1302 26.0763 16.1475C24.7027 16.3869 23.3204 16.5513 21.9381 16.7186C21.1618 16.8138 20.3826 16.8917 19.6034 16.9696C19.462 16.984 19.2716 17.033 19.2514 16.8109C19.234 16.6234 19.4101 16.6119 19.5457 16.5917C20.3797 16.485 21.2108 16.3782 22.0448 16.2715C23.3002 16.11 24.5584 15.9629 25.805 15.7465C25.8945 15.7321 25.9869 15.7177 26.0792 15.7119C26.5583 15.6773 26.7141 15.7581 26.7862 16.0725C26.8872 16.5138 26.7141 16.8888 26.3332 17.0388C25.7185 17.284 25.0634 17.2522 24.4256 17.2984C22.9885 17.4022 21.5629 17.5955 20.1488 17.8666C19.9122 17.9128 19.6842 17.9907 19.4707 18.1147C19.0753 18.3397 18.856 18.6512 18.8935 19.1272C18.9224 19.4935 18.9253 19.8627 18.9541 20.2291C18.9772 20.5435 19.1128 20.5781 19.3726 20.5492C20.3133 20.4512 21.257 20.3848 22.192 20.2694C23.9264 20.0531 25.6694 19.906 27.4673 19.7646C27.1845 19.5945 26.9478 19.4358 26.8007 19.1877C26.7083 19.032 26.6102 19.1531 26.538 19.1877C26.0042 19.4445 25.4299 19.4762 24.8556 19.531C24.72 19.5425 24.567 19.5598 24.5093 19.3868C24.4574 19.2252 24.5757 19.1416 24.6709 19.0378C25.5626 18.0657 26.7343 17.607 27.9521 17.2321C28.183 17.1599 28.3359 17.2292 28.4427 17.4253C28.5581 17.6388 28.6851 17.8407 28.838 18.0311C29.0256 18.2647 28.9881 18.4147 28.6995 18.533C28.2465 18.7205 27.7847 18.8906 27.3028 19.0752C27.4817 19.3147 27.6953 19.3925 27.9694 19.3493C28.4398 19.2743 28.8294 19.0435 29.2074 18.7724C29.3633 18.6628 29.5364 18.5214 29.724 18.7349C29.9577 19.4156 29.9116 20.1166 29.8798 20.8175C29.8452 21.5646 29.8221 22.3117 29.7817 23.0588C29.7673 23.327 29.9116 23.3703 30.1194 23.3587C30.4859 23.3414 30.7109 23.1251 30.861 22.8193C31.0486 22.4357 31.1525 22.0232 31.2246 21.605C31.2477 21.4723 31.2448 21.2934 31.4007 21.2617C31.568 21.23 31.5507 21.1809 31.4786 21.0771C30.913 20.281 30.3502 19.482 29.7846 18.6858C29.1901 17.8551 28.5928 17.0244 27.9983 16.1936C27.9521 16.1273 27.9059 16.0609 27.8626 15.9946C27.626 15.6196 27.6866 15.4206 28.1079 15.2591C28.7948 14.9966 29.4614 15.0802 30.1136 15.3889C30.2059 15.4321 30.2983 15.4812 30.3877 15.5273C30.4079 15.5446 30.4397 15.5792 30.4483 15.5735C30.5061 15.5417 30.4599 15.5129 30.4397 15.484L30.4541 15.4552ZM39.7436 30.72C39.7609 30.7113 39.7955 30.7777 39.7955 30.7056C39.7753 30.7113 39.758 30.72 39.7378 30.7258C39.7695 30.6652 39.7522 30.6335 39.683 30.6363C39.3915 30.2066 39.0048 29.8806 38.5777 29.5979C38.5604 29.572 38.5402 29.5431 38.5229 29.5172C38.5056 29.52 38.4796 29.4566 38.4709 29.5229C38.4911 29.52 38.5084 29.5143 38.5286 29.5114C38.4825 29.5835 38.5171 29.5979 38.5835 29.5922C38.8576 30.0393 39.2818 30.3248 39.6887 30.6306C39.706 30.6594 39.7262 30.6883 39.7436 30.7171V30.72ZM30.6503 15.5908C30.6128 15.5706 30.5724 15.5302 30.5378 15.585C30.532 15.5937 30.5724 15.6312 30.5897 15.6571C31.4468 16.5109 32.2664 17.3965 33.0629 18.308C33.5997 18.9253 34.3298 19.2599 35.0426 19.6348C34.6963 18.9945 34.4452 18.3166 34.021 17.7282C33.8969 17.5551 33.7613 17.4599 33.5506 17.4253C33.1552 17.359 32.7628 17.2638 32.3905 17.1109C32.2837 17.0648 32.1683 17.0157 32.1769 16.8744C32.1856 16.7359 32.2953 16.7042 32.4107 16.6638C33.2591 16.3782 34.1076 16.0927 34.9502 15.7956C36.4768 15.2562 38.0005 14.7139 39.5242 14.1658C39.8071 14.0649 40.061 14.0245 40.263 14.3072C40.3582 14.4399 40.491 14.3995 40.6093 14.3649C41.68 14.036 42.7275 13.6408 43.7635 13.2139C43.801 13.2053 43.8385 13.1937 43.8761 13.1851C43.8703 13.1764 43.8616 13.1649 43.8559 13.162C43.8126 13.1562 43.7722 13.162 43.7722 13.2197C43.3104 13.2716 42.8978 13.4851 42.4562 13.5976C42.0666 13.6985 41.6828 13.8139 41.2932 13.912C41.1778 13.9408 41.0537 13.9264 41.0076 13.788C40.9643 13.6582 41.0364 13.5658 41.1432 13.5024C41.2009 13.4678 41.2673 13.4418 41.3279 13.4101C42.5659 12.8332 43.8068 12.2563 45.0996 11.8005C45.5123 11.6534 45.8961 11.5121 46.3204 11.7457C46.4589 11.8236 46.6147 11.8034 46.6782 11.6044C46.8052 11.2121 46.5656 10.8948 46.1616 10.9294C46.0693 10.9381 45.9798 10.9525 45.8904 10.9727C44.915 11.1948 43.9742 11.538 43.0392 11.8871C41.9714 12.2851 40.8488 12.4899 39.7724 12.8649C39.4983 12.9601 39.2876 13.0726 39.3944 13.4245C39.4319 13.5514 39.4261 13.6985 39.3742 13.8341C39.328 13.9553 39.2703 14.0735 39.126 14.0966C38.9875 14.1197 38.8778 14.0418 38.8028 13.9351C38.7191 13.8139 38.6498 13.6783 38.5777 13.5485C38.52 13.4418 38.4623 13.3899 38.3411 13.4851C37.6513 14.0216 36.8116 14.2812 36.0382 14.6389C34.78 15.2187 33.4496 15.6398 32.151 16.1331C31.9345 16.2167 31.7614 16.1879 31.5709 16.0552C31.2881 15.8561 30.9822 15.6975 30.6532 15.5879L30.6503 15.5908ZM18.9368 22.3838C18.8849 22.1097 18.8041 21.7405 18.7463 21.3684C18.7117 21.1492 18.628 21.0569 18.3885 21.0857C18.0133 21.129 17.6324 21.1434 17.2544 21.1579C16.8417 21.1752 16.7349 21.2732 16.7984 21.6886C16.8763 22.2136 17.0697 22.7068 17.2775 23.1914C17.3381 23.3299 17.4419 23.402 17.6035 23.3934C18.1028 23.3674 18.4895 23.102 18.8589 22.8078C18.9599 22.727 18.9426 22.603 18.9397 22.3867L18.9368 22.3838ZM30.9764 15.2302C31.2506 15.3831 31.5074 15.5071 31.7412 15.6658C31.8855 15.7638 31.998 15.761 32.151 15.7004C33.1408 15.3052 34.1364 14.9187 35.1263 14.5293C35.2013 14.5004 35.3138 14.5091 35.3196 14.3879C34.7222 14.3331 34.1249 14.2927 33.5333 14.2235C32.5146 14.1052 31.6892 14.4629 30.9764 15.2331V15.2302ZM16.5935 18.1464C16.9427 18.1464 17.2746 18.0484 17.6093 17.9763C17.7652 17.9416 17.8113 17.858 17.794 17.7051C17.7478 17.3301 17.7046 16.9551 17.667 16.5773C17.6468 16.3754 17.5603 16.2975 17.3554 16.3292C16.9369 16.3898 16.5127 16.4215 16.0972 16.5138C15.8547 16.5686 15.7307 16.658 15.797 16.9292C15.8461 17.1282 15.8547 17.3359 15.8836 17.5407C15.9615 18.0686 16.0539 18.1493 16.5935 18.1464ZM14.2502 11.4284C14.3137 12.0024 14.5071 12.4265 14.6138 12.8707C14.6369 12.9688 14.6918 13.0034 14.787 12.9889C15.2429 12.9226 15.6989 12.8563 16.152 12.7899C16.2674 12.7726 16.3194 12.7091 16.2818 12.5967C16.1347 12.1582 16.1578 11.688 16.0135 11.2496C15.9673 11.1111 15.9153 11.0679 15.7711 11.0852C15.3699 11.1342 14.9717 11.1804 14.5677 11.2006C14.3281 11.2121 14.2243 11.2986 14.2502 11.4284ZM14.9832 35.2054C14.9832 35.1737 14.9832 35.1419 14.9832 35.1073H9.67332C11.4452 35.439 13.2142 35.8025 14.9832 35.2054ZM26.4919 18.2243C26.5698 18.3339 26.6477 18.4205 26.6968 18.5185C26.8064 18.7291 26.9363 18.7608 27.1585 18.657C27.4875 18.5041 27.8396 18.3974 28.183 18.2705C28.2724 18.2359 28.4715 18.2272 28.3532 18.0859C28.2378 17.9445 28.2753 17.5897 27.9463 17.6965C27.4615 17.8551 26.9882 18.0426 26.489 18.2243H26.4919ZM25.4443 18.9974C25.5857 19.0406 25.6896 18.9714 25.8022 18.9599C25.9753 18.9397 26.1715 18.931 26.287 18.8099C26.4226 18.6685 26.1687 18.5301 26.2581 18.3109C25.9234 18.5387 25.6694 18.7406 25.4443 19.0003V18.9974ZM46.0231 12.138C45.6768 11.9044 45.4113 12.1986 45.1141 12.2851C45.4229 12.2678 45.7114 12.1265 46.0231 12.138ZM19.3841 1.2317C19.1215 0.917294 18.8271 0.876911 18.6915 1.12786C18.6742 1.16248 18.6742 1.20863 18.6771 1.24901C18.6771 1.25767 18.7434 1.27786 18.7579 1.26632C18.9512 1.11056 19.1677 1.26343 19.3812 1.2317H19.3841ZM18.6049 1.52592C18.628 1.47689 18.6453 1.44804 18.6569 1.4192C18.6713 1.37305 18.6973 1.29805 18.6107 1.33555C18.5559 1.35862 18.5386 1.4365 18.6078 1.52592H18.6049ZM44.964 12.3255C44.9438 12.3313 44.9265 12.3399 44.9063 12.3457C44.915 12.3515 44.9265 12.363 44.9323 12.363C44.9525 12.3601 44.9727 12.3515 44.9929 12.3457C44.9842 12.3399 44.9756 12.3342 44.964 12.3255ZM19.5284 1.27786C19.5284 1.27786 19.5111 1.26343 19.5053 1.25478C19.4966 1.2692 19.488 1.28074 19.4822 1.29805C19.4822 1.30382 19.4938 1.31247 19.5024 1.31824C19.5111 1.30382 19.5197 1.29228 19.5284 1.27786ZM11.6963 15.3802C11.6963 15.3802 11.679 15.3658 11.6732 15.3571C11.6645 15.3658 11.6588 15.3744 11.6501 15.3831C11.6616 15.3917 11.6732 15.4004 11.6847 15.4062C11.6876 15.3975 11.6934 15.3889 11.6963 15.3802Z" fill="#4C4C4C"/>
<path d="M15.3035 36.0823C15.3006 36.0217 15.3353 35.8948 15.4997 35.8948C15.6815 35.8948 15.7046 36.0534 15.7277 36.189C15.8576 36.9361 15.9788 37.6861 16.1144 38.4303C16.4232 40.1148 16.9542 41.7474 17.3669 43.406C17.8199 45.229 18.022 47.0953 18.348 48.9385C18.374 49.0798 18.3769 49.2414 18.2124 49.2875C18.0133 49.3423 17.9613 49.1722 17.9238 49.025C17.6987 48.1885 17.5977 47.3318 17.4823 46.478C17.2283 44.6146 16.758 42.8032 16.2587 40.9975C15.8316 39.4543 15.5459 37.8851 15.3208 36.3015C15.315 36.2553 15.315 36.2092 15.3035 36.0823Z" fill="#505050"/>
<path d="M54.0168 33.3651C54.0082 33.5151 53.9245 33.5786 53.7859 33.5238C53.6936 33.4863 53.6099 33.417 53.532 33.3507C52.5422 32.5171 51.4427 31.8508 50.3201 31.2162C49.0763 30.5123 47.9248 29.6672 46.8225 28.7615C46.4762 28.4759 46.1125 28.2105 45.7605 27.9336C45.6075 27.8124 45.4604 27.6826 45.3161 27.55C45.2237 27.4663 45.1689 27.348 45.2497 27.2442C45.3478 27.1202 45.4748 27.1692 45.5844 27.2529C45.9885 27.5557 46.4098 27.8442 46.7965 28.1672C48.2683 29.3932 49.8324 30.4806 51.5119 31.4008C52.343 31.8565 53.0962 32.4219 53.7917 33.0651C53.8812 33.1488 53.9822 33.2324 54.0139 33.368L54.0168 33.3651Z" fill="#505050"/>
<path d="M27.7011 20.8059C27.8771 20.8146 28.0936 20.7223 28.1195 20.9559C28.1426 21.1838 27.9262 21.2069 27.7559 21.2386C26.6478 21.4492 25.5281 21.579 24.4084 21.7146C23.3233 21.8444 22.2382 21.9684 21.1532 22.0953C21.0839 22.104 21.0175 22.1184 20.9483 22.1242C20.7895 22.1386 20.6164 22.1299 20.5991 21.9396C20.5846 21.7694 20.7405 21.729 20.8848 21.7088C21.8862 21.5732 22.8904 21.4377 23.8918 21.3021C25.0548 21.1463 26.2178 20.9934 27.3808 20.8406C27.4962 20.8261 27.6087 20.8146 27.6982 20.8031L27.7011 20.8059Z" fill="#505050"/>
<path d="M19.3842 1.23175C19.1706 1.26348 18.9542 1.1106 18.7608 1.26637C18.7464 1.27791 18.68 1.2606 18.68 1.24906C18.6771 1.20868 18.6742 1.16253 18.6944 1.12791C18.8301 0.879845 19.1244 0.917343 19.387 1.23175H19.3842Z" fill="#E76741"/>
<path d="M18.602 1.5259C18.5328 1.43648 18.5501 1.35571 18.6049 1.33552C18.6915 1.30091 18.6655 1.37591 18.6511 1.41917C18.6424 1.4509 18.6222 1.47975 18.5991 1.5259H18.602Z" fill="#505050"/>
<path d="M19.5283 1.27784C19.5283 1.27784 19.511 1.30668 19.5024 1.31822C19.4966 1.30957 19.4822 1.30091 19.4822 1.29803C19.4851 1.28361 19.4966 1.26918 19.5053 1.25476C19.5139 1.26053 19.5197 1.26918 19.5283 1.27784Z" fill="#505050"/>
<path d="M9.47127 35.0266C9.4857 35.0526 9.49724 35.0785 9.51167 35.1016C9.47416 35.1016 9.43376 35.1074 9.39624 35.1103C9.42221 35.0814 9.4453 35.0555 9.47127 35.0266Z" fill="#FEFEFE"/>
<path d="M11.6963 15.3803C11.6963 15.3803 11.6877 15.3976 11.6848 15.4062C11.6732 15.3976 11.6617 15.3889 11.6501 15.3831C11.6588 15.3745 11.6646 15.3658 11.6732 15.3572C11.6819 15.3658 11.6905 15.3716 11.6963 15.3803Z" fill="#FEFEFE"/>
</g>
<defs>
<clipPath id="clip0_453_9091">
<rect width="54.4872" height="50" fill="white"/>
</clipPath>
</defs>
</svg>
